<?xml version="1.0" encoding="UTF-8"?>
<svg class='logo' viewBox="0 0 210 60" version="1.1" xmlns="http://www.w3.org/2000/svg" xmlns:xlink="http://www.w3.org/1999/xlink">
    <defs/>
    <g id="VI" stroke="none" stroke-width="1" fill-rule="evenodd">
        <g id="Desktop-HD" transform="translate(-531.000000, -282.000000)">
            <g id="Page-1" transform="translate(531.000000, 282.000000)">
                <g id="Group-5">
                    <polygon id="Fill-1"  points="32.0087914 28.8802446 63.8611511 33.509741 54.7497842 5.46776978"/>
                    <polygon id="Fill-2"  points="28.4659856 36.4964029 35.9897266 59.9123741 61.5919424 41.3110791"/>
                    <polygon id="Fill-3"  points="10.3847482 6.52661871 0 38.4875396 26.9434532 58.0635108"/>
                    <polygon id="Fill-4"  points="16.7394388 0 24.7194388 24.8362014 48.8434532 0"/>
                </g>
                <polygon id="Fill-5"  points="99.5581295 13.8138129 92.4461871 13.8138129 82.558705 26.7641439 82.558705 13.8138129 76.428777 13.8138129 76.428777 44.0156547 82.558705 44.0156547 82.558705 31.0703309 92.7271942 44.0156547 99.8620144 44.0156547 88.0411511 28.8861583"/>
                <path d="M108.326101,27.6217554 L108.326101,25.4073669 L102.196173,25.4073669 L102.196173,44.0155683 L108.326101,44.0155683 L108.326101,33.984777 C108.328259,33.9800288 109.757036,31.188518 114.964518,31.188518 L114.964518,25.4073669 C109.757468,25.4073669 108.328259,27.6183022 108.326101,27.6217554" id="Fill-6" />
                <polygon id="Fill-7"  points="126.452633 14.7768345 115.298676 44.0156547 121.811482 44.0156547 123.860115 38.6562302 133.766158 38.6562302 131.818964 33.5730647 125.887597 33.5730647 129.91105 22.5887482 137.942417 44.0156547 144.526446 44.0156547 133.582705 14.7768345"/>
                <polygon id="Fill-8"  points="203.344173 44.0157842 209.928201 44.0157842 198.98446 14.7768345 191.854388 14.7768345 180.700432 44.0157842 187.212806 44.0157842 189.261871 38.6563597 199.167914 38.6563597 197.220288 33.5731942 191.289784 33.5731942 195.312806 22.588446"/>
                <polygon id="Fill-9"  points="172.236345 44.0156978 178.366273 44.0156978 178.366273 13.8136835 172.236345 13.8136835"/>
                <path d="M165.48118,27.4301871 C162.34046,26.2478849 158.08046,25.3871655 155.16895,24.5981007 C151.839597,23.6955108 151.644058,19.1208345 156.507079,18.9654388 C160.710532,18.8307626 161.474561,21.575223 161.604489,22.3228489 L168.162619,22.3228489 C167.942043,19.2917698 166.414417,16.9858705 163.580173,15.4070504 C161.647223,14.3451799 159.401755,13.8138129 156.842906,13.8138129 C153.511396,13.8138129 150.759597,14.6948201 148.587511,16.4551079 C146.618302,18.047741 145.634129,19.9759424 145.634129,22.2395396 C145.634129,24.5955108 146.658878,26.5362302 148.685496,28.0711942 C152.621755,30.1345036 159.532115,30.8294676 161.216432,32.1986763 C162.920604,33.5838561 163.139022,38.4106187 157.31859,38.4106187 C153.010676,38.4106187 152.004921,35.9078849 151.771827,34.6051511 L144.860604,34.6051511 C145.099741,37.8330647 146.765928,40.3409784 149.857871,42.1293237 C152.048086,43.3863022 154.551683,44.0156547 157.367367,44.0156547 C161.067079,44.0156547 164.141324,43.0094676 166.589237,40.9979568 C168.798014,39.181554 169.902187,37.0021295 169.902187,34.4579568 C169.902187,30.7871655 168.043914,28.7553669 165.48118,27.4301871" id="Fill-10" />
            </g>
        </g>
    </g>
</svg>