<svg class='seedplus-wordmark' viewBox="217 359 590 88" version="1.1" xmlns="http://www.w3.org/2000/svg" xmlns:xlink="http://www.w3.org/1999/xlink">
  <desc>SeedPlus wordmark</desc>
  <g id="SeedPlus-wordmark" stroke="none" stroke-width="1" fill-rule="evenodd" transform="translate(217.000000, 359.000000)">
    <path d="M566.707,34.5469 C556.427,30.9259 549.887,30.9259 549.887,25.4339 C549.887,21.6949 552.92,20.2919 557.36,20.2919 C560.153,20.2919 564.126,20.9069 568.581,22.1269 C570.065,22.4139 571.634,22.4659 573.226,22.2229 C579.454,21.2679 584.022,16.2479 584.693,10.2809 L584.693,7.2559 C584.672,7.0609 584.665,6.8699 584.637,6.6759 C584.623,6.6019 584.644,6.5509 584.637,6.4859 C576.697,2.5289 565.865,0.3189 557.127,0.3189 C538.207,0.3189 525.474,10.7169 525.474,27.1859 C525.474,40.8519 534.355,47.1629 547.2,51.5999 C557.947,55.3389 564.72,55.3389 564.72,61.4119 C564.72,65.7359 561.213,67.4889 556.306,67.4889 C553.796,67.4889 550.184,66.9809 546.09,65.9759 C544.789,65.6969 543.445,65.5669 542.054,65.6609 C534.085,66.1839 528.054,73.0749 528.577,81.0459 C528.592,81.2519 528.606,81.4529 528.627,81.6509 C528.634,81.6579 528.627,81.6639 528.634,81.6719 C536.793,85.4929 547.469,87.4619 556.08,87.4619 C575.7,87.4619 589.133,77.0669 589.133,60.0089 C589.133,45.7579 579.907,39.2199 566.707,34.5469"></path>
    <path d="M516.2324,13.6504 L516.2324,46.1094 C516.2324,58.4924 514.0134,67.4894 509.5724,73.6784 C503.1454,82.6734 490.6524,87.4624 476.7534,87.4624 C462.8524,87.4624 450.3604,82.6734 443.9324,73.6784 C439.4934,67.4894 437.2734,58.4924 437.2734,46.1094 L437.2734,13.6504 C437.2734,6.9934 442.6674,1.6064 449.3204,1.6064 L461.3394,1.6064 L461.3394,44.7094 C461.3394,52.8854 462.2724,57.6714 464.6134,60.9464 C466.9474,64.2164 470.9134,66.5524 476.7534,66.5524 C482.5994,66.5524 486.5594,64.2164 488.8924,60.9464 C491.2324,57.6714 492.1664,52.8854 492.1664,44.7094 L492.1664,1.6064 L504.1854,1.6064 C510.8384,1.6064 516.2324,6.9934 516.2324,13.6504"></path>
    <path d="M395.7778,65.8516 L395.7778,1.6066 L383.7518,1.6066 C377.0988,1.6066 371.7108,6.9936 371.7108,13.6506 L371.7108,86.1756 L418.9188,86.1756 C425.5788,86.1756 430.9668,80.7856 430.9668,74.1306 L431.0228,65.8516 L395.7778,65.8516 Z"></path>
    <path d="M294.7246,74.1309 C294.7246,80.7849 300.1186,86.1759 306.7716,86.1759 L318.7906,86.1759 L318.7906,61.7519 L294.7246,61.7519 L294.7246,74.1309 Z M347.6445,6.043 C341.3375,2.889 333.1585,1.606 322.1845,1.606 L294.7245,1.606 L294.7245,35.84 L318.7915,35.84 L318.7915,20.76 L322.4115,20.76 C328.4835,20.76 331.4045,21.228 333.6245,22.278 C336.6655,23.683 338.2975,26.486 338.2975,30.343 C338.2975,34.079 336.7775,36.766 333.9775,38.165 C331.9905,39.22 328.3715,39.685 323.1185,39.685 L322.0715,39.685 L320.9325,39.685 L285.7735,39.685 C279.1205,39.685 273.7325,45.076 273.7325,51.734 L273.7325,57.894 L320.9325,57.906 L322.6515,57.906 C334.2105,57.906 343.2045,56.039 349.7445,52.186 C358.1575,47.279 362.3655,39.685 362.3655,29.871 C362.3655,18.072 356.4045,10.366 347.6445,6.043 Z"></path>
    <path d="M218.8682,79.4805 C231.3262,79.4805 240.9902,77.1505 248.4502,71.0975 C256.1352,64.9255 261.0272,55.1445 261.0272,43.8495 C261.0272,31.8515 255.5482,21.9605 247.6292,15.9005 C240.2982,10.3125 230.8662,8.2125 218.7552,8.2125 L205.0112,8.2125 L205.0112,79.4805 L218.8682,79.4805 Z M197.9052,1.6945 L219.4482,1.6945 C232.9592,1.6945 243.4442,4.4905 251.5892,10.3125 C261.8332,17.6475 268.1262,29.8715 268.1262,43.6155 C268.1262,57.2415 261.9532,68.6525 253.5762,75.6375 C245.3102,82.5135 234.2392,86.0015 217.9342,86.0015 L197.9052,86.0015 L197.9052,1.6945 Z"></path>
    <polygon points="133.6299 1.6943 180.3209 1.6943 180.3209 8.2133 140.7349 8.2133 140.7349 38.9573 175.7829 38.9573 175.7829 45.4763 140.7349 45.4763 140.7349 79.4803 181.3749 79.4803 181.3749 86.0023 133.6299 86.0023"></polygon>
    <polygon points="69.3477 1.6943 116.0387 1.6943 116.0387 8.2133 76.4467 8.2133 76.4467 38.9573 111.4997 38.9573 111.4997 45.4763 76.4467 45.4763 76.4467 79.4803 117.0937 79.4803 117.0937 86.0023 69.3477 86.0023"></polygon>
    <path d="M2.3857,72.374 C9.7187,78.088 19.2637,80.643 27.0687,80.643 C38.3737,80.643 46.6387,75.175 46.6387,64.229 C46.6387,51.769 35.8077,49.09 24.8557,46.062 C12.7507,42.684 0.8667,38.253 0.8667,23.003 C0.8667,8.563 11.3507,0.414 26.6087,0.414 C34.5277,0.414 43.7267,2.627 50.2447,7.054 L50.2447,14.738 C43.1387,9.612 34.0607,7.054 26.4887,7.054 C15.5437,7.054 7.9787,12.289 7.9787,22.537 C7.9787,34.532 18.5767,36.978 29.0557,39.887 C41.0537,43.268 53.7377,47.693 53.7377,63.877 C53.7377,78.668 42.9127,87.281 27.0687,87.281 C18.6907,87.281 9.1387,84.839 2.3857,80.298 L2.3857,72.374 Z"></path>
  </g>
</svg>