
<svg class='logo aws-wordmark' viewBox="0 0 41 24" version="1.1" xmlns="http://www.w3.org/2000/svg" xmlns:xlink="http://www.w3.org/1999/xlink">
    <g id="Page-1" stroke="none" stroke-width="1" fill-rule="evenodd">
        <path d="M10.9201286,9.03496599 C10.9069392,9.45067835 10.9602077,9.86582986 11.0779205,10.2647284 C11.1992443,10.606401 11.3492673,10.9371812 11.5263816,11.2535238 C11.5867176,11.3482008 11.621088,11.4570976 11.6260396,11.5692736 C11.6082935,11.7399396 11.5093333,11.8915522 11.3602849,11.9764247 L10.5298014,12.558069 C10.4223495,12.6335916 10.2955722,12.6768338 10.1643887,12.6827071 C10.0083884,12.6771184 9.8614186,12.6080962 9.75745173,12.4915954 C9.56455337,12.3006467 9.39707516,12.0856032 9.25916163,11.8517866 C9.12074771,11.6191288 8.97956551,11.3421553 8.83561504,11.020866 C7.84994572,12.2517127 6.35071595,12.957243 4.77455068,12.9319833 C3.75985472,12.9876173 2.76567579,12.6310825 2.01734543,11.9431878 C1.32360901,11.2371374 0.956292154,10.2731763 1.00415555,9.28424215 C0.959564791,8.20735386 1.40549672,7.16833578 2.21666147,6.45911236 C3.17826608,5.70145465 4.38287957,5.32038378 5.60503419,5.38722488 C6.09418949,5.38864856 6.58262934,5.42474549 7.06668517,5.49524455 C7.57604838,5.56725766 8.10478955,5.66696812 8.65290867,5.79437594 L8.65290867,4.78065289 C8.73355838,3.98621629 8.49780903,3.19200965 7.9968267,2.5704043 C7.35588125,2.07726377 6.5505683,1.8483275 5.74621639,1.93059549 C5.24525336,1.9331352 4.74631908,1.99448901 4.25965091,2.11339801 C3.75318725,2.23457165 3.25632347,2.3928741 2.77308542,2.58702271 C2.6168686,2.65884939 2.45593455,2.71992547 2.29140499,2.76982522 L2.07547928,2.76982522 C1.88169979,2.76982522 1.78481005,2.625799 1.78481005,2.33774655 L1.78481005,1.68131933 C1.77293393,1.51455075 1.80742677,1.34774762 1.88446807,1.19938543 C1.98855698,1.07166068 2.1226646,0.971740755 2.27479532,0.908563244 C2.83060934,0.64215098 3.41220767,0.433333618 4.01050585,0.285372849 C4.71313613,0.104868646 5.4360472,0.0155044477 6.16145814,0.0194782806 C7.46621225,-0.0962186128 8.76402766,0.306763632 9.77406141,1.14122099 C10.603839,2.06995906 11.0179105,3.2978169 10.9201286,4.53968594 L10.9201286,9.03496599 Z M5.31436496,11.1371949 C5.8013873,11.1301024 6.28394458,11.0430841 6.7427966,10.8796096 C7.24860054,10.7043221 7.69863577,10.3974488 8.04665571,9.99052459 C8.26107092,9.75128674 8.4198942,9.46752449 8.51172647,9.15960407 C8.60734146,8.76815297 8.65200365,8.36598172 8.64460383,7.96307851 L8.64460383,7.38143414 C8.22557258,7.28095532 7.80140307,7.20328867 7.37396406,7.14877639 C6.94429542,7.09377846 6.51158022,7.06602571 6.07840979,7.06568434 C5.35113555,7.01111497 4.62713924,7.20760598 4.02711552,7.62240109 C3.58821744,8.00980805 3.34720677,8.57449711 3.37103355,9.15960407 C3.3313509,9.69608492 3.51463431,10.2251809 3.87762849,10.6220242 C4.26925801,10.9776667 4.78610611,11.162993 5.31436496,11.1371949 Z M16.4013198,12.6328519 C16.2142201,12.6499651 16.0268493,12.6030978 15.8698104,12.4999046 C15.7227915,12.3517581 15.6218302,12.1641599 15.5791411,11.9598062 L12.3485603,1.27416827 C12.285879,1.09397734 12.2440811,0.907182089 12.2239878,0.717451523 C12.2097086,0.623438305 12.2409566,0.52823301 12.3081618,0.460992424 C12.375367,0.393751837 12.4705222,0.362487477 12.564486,0.376774107 L13.9181741,0.376774107 C14.108034,0.357727442 14.2986584,0.404675045 14.4579884,0.509721391 C14.5954071,0.662381948 14.6899658,0.848732069 14.732048,1.04981973 L17.0490969,10.1899455 L19.2000492,1.04981973 C19.2332562,0.848138816 19.3291524,0.662060439 19.4741088,0.518030596 C19.6405741,0.415254906 19.8356154,0.368653357 20.0305327,0.385083312 L21.1433806,0.385083312 C21.338298,0.368653357 21.5333393,0.415254906 21.6998046,0.518030596 C21.8432731,0.665395856 21.9363205,0.854497929 21.9655593,1.05812894 L24.1331213,10.3145836 L26.5249138,1.05812894 C26.5690008,0.856047012 26.6665182,0.669518547 26.8072782,0.518030596 C26.9666082,0.41298425 27.1572325,0.366036647 27.3470925,0.385083312 L28.6260371,0.385083312 C28.7200008,0.370796682 28.8151561,0.402061042 28.8823613,0.469301629 C28.9495665,0.536542215 28.9808144,0.63174751 28.9665353,0.725760728 C28.9734311,0.797608586 28.9734311,0.869952206 28.9665353,0.941800065 C28.9400106,1.05721334 28.906734,1.17096833 28.8668773,1.28247748 L25.5449432,11.9681154 C25.5022542,12.1724691 25.4012929,12.3600673 25.254274,12.5082138 C25.0972351,12.611407 24.9098643,12.6582743 24.7227646,12.6411611 L23.5102586,12.6411611 C23.3138985,12.6617481 23.1166308,12.6116688 22.9538347,12.4999046 C22.8113717,12.3452521 22.718765,12.1512549 22.68808,11.9431878 L20.5371277,3.044029 L18.4110899,11.9348786 C18.3804048,12.1429457 18.2877982,12.3369429 18.1453352,12.4915954 C17.982539,12.6033596 17.7852714,12.6534389 17.5889112,12.6328519 L16.4013198,12.6328519 Z M34.1404476,12.9984569 C33.424896,12.9996384 32.7115651,12.9187888 32.0144098,12.7574899 C31.4599385,12.6458107 30.9234187,12.4584892 30.4198814,12.2007732 C30.110218,12.0695666 29.9102036,11.7644663 29.9132865,11.4280171 L29.9132865,10.7300439 C29.9132865,10.4419914 30.0184811,10.2979652 30.2288702,10.2979652 C30.3169527,10.2992743 30.4041104,10.3161524 30.4863201,10.3478204 L30.8351232,10.4890769 C31.322566,10.7048795 31.8322134,10.8664922 32.354908,10.9710108 C32.9013899,11.0833329 33.4579843,11.1390216 34.015875,11.1371949 C34.7182237,11.1788391 35.4179785,11.020375 36.03395,10.6801886 C36.4917769,10.407994 36.7654044,9.90820199 36.7481658,9.3756434 C36.7577228,9.01722893 36.6230837,8.66997647 36.3744482,8.41177559 C35.9552488,8.06029482 35.4607979,7.81009614 34.9294069,7.68056553 L32.9279416,7.04906593 C32.0851544,6.81476695 31.3344322,6.32755579 30.7769893,5.65311945 C30.3318052,5.08046698 30.0893445,4.37608403 30.087688,3.65060098 C30.0761057,3.1143557 30.2049438,2.58440904 30.4614056,2.11339801 C30.7095741,1.67032912 31.0459292,1.282893 31.449681,0.975036886 C31.8729904,0.653001865 32.3514138,0.410848546 32.861503,0.260445233 C33.4255986,0.0975819083 34.0101094,0.0164348733 34.5972135,0.0194782806 C34.9081769,0.0192042392 35.2188457,0.0386312533 35.527355,0.0776427175 C35.8429388,0.116419009 36.1419128,0.169043975 36.4242772,0.235517617 C36.7066416,0.301991259 36.969628,0.374004372 37.2132365,0.451556954 C37.4137699,0.514484859 37.6083151,0.595124566 37.794575,0.692523907 C37.9518619,0.777365058 38.090302,0.893263638 38.2015119,1.03320132 C38.2893177,1.16896182 38.3328442,1.32864293 38.3260844,1.49020761 L38.3260844,2.14663483 C38.3260844,2.43468728 38.2208899,2.5787135 38.0105007,2.5787135 C37.8243239,2.55790935 37.64388,2.50149096 37.4789913,2.4125294 C36.6409833,2.0483114 35.735,1.86701938 34.821444,1.88074026 C34.1860158,1.84769073 33.5530702,1.9823699 32.9860755,2.27127291 C32.5529002,2.5244183 32.2991395,3.00006822 32.3299935,3.50103528 C32.3216209,3.87061028 32.4693656,4.22659098 32.7369304,4.48152151 C33.1845836,4.83977125 33.7023053,5.10018357 34.2567153,5.24596839 L36.2166563,5.83592196 C37.0466145,6.051751 37.7911301,6.51550654 38.3509989,7.1653948 C38.7900901,7.73561863 39.018911,8.44005323 38.9987761,9.15960407 C39.0060957,9.71562326 38.880829,10.2653778 38.6333633,10.7632807 C38.391515,11.2389306 38.0485244,11.6558409 37.6284783,11.9847339 C37.1706283,12.3385352 36.6490151,12.6008896 36.0920838,12.7574899 C35.4565031,12.9312857 34.7991893,13.0124437 34.1404476,12.9984569 Z" id="Shape" fill-rule="nonzero"></path>
        <path d="M37.662202,18.5760391 C33.1035171,22.1156169 26.4863401,23.9993032 20.8359044,23.9993032 C13.21235,24.0520811 5.845757,21.1049807 0.184311727,15.7373677 C-0.240721051,15.3343464 0.134307871,14.7823826 0.651014386,15.0890292 C6.93144599,18.8658322 14.0422453,20.8502195 21.2776051,20.8452239 C26.6809139,20.8147083 32.0252725,19.6624429 37.0038179,17.4545886 C37.7705437,17.1128967 38.4205938,17.9890299 37.662202,18.5760391 Z" id="Shape"></path>
        <path d="M38.84906,16.8709526 C38.2507901,16.1888946 34.8919317,16.5526589 33.3877102,16.7118058 C32.9347343,16.7572763 32.8578139,16.4086689 33.2680562,16.1510025 C35.9431775,14.4837497 40.3361881,14.9611903 40.8404442,15.5219935 C41.3447003,16.0827967 40.7036968,19.985684 38.1995098,21.8499758 C37.8149077,22.1379558 37.447399,21.9863874 37.6183333,21.6074663 C38.1824164,20.3494482 39.4473299,17.5530106 38.84906,16.8709526 Z" id="Shape"></path>
    </g>
</svg>