<svg enable-background="new 0 0 1080 1080" viewBox="0 0 1080 1080" xmlns="http://www.w3.org/2000/svg" xmlns:xlink="http://www.w3.org/1999/xlink"><clipPath id="a"><path d="m143.9 373.6h790.5v608.2h-790.5z"/></clipPath><clipPath id="b"><path d="m143.9 382.4h790.5v608.2h-790.5z"/></clipPath><clipPath id="c"><path d="m-210.6 373.4h790.5v608.2h-790.5z"/></clipPath><path d="m143.9 376h790.5v608.2h-790.5z" style="fill:#ea118d;stroke:#261c3f;stroke-width:12;stroke-linecap:round;stroke-linejoin:round;stroke-miterlimit:10"/><path clip-path="url(#a)" d="m782.1 554.9h111.9v421.3h-111.9z" fill="#362b74" stroke="#261c3f" stroke-miterlimit="10" stroke-width="12"/><path clip-path="url(#a)" d="m736.8 554.9h45.4v421.3h-45.4z" fill="#362b74" stroke="#261c3f" stroke-miterlimit="10" stroke-width="12"/><path clip-path="url(#a)" d="m863.4 574.9h17.7v50.5h-17.7z" fill="#ffd635"/><path clip-path="url(#a)" d="m835.4 574.9h17.7v50.5h-17.7z" fill="#ffd635"/><path clip-path="url(#a)" d="m806.9 574.9h17.7v50.5h-17.7z" fill="#ffd635"/><path clip-path="url(#a)" d="m863.4 644.2h17.7v50.5h-17.7z" fill="#ffd635"/><path clip-path="url(#a)" d="m835.4 644.2h17.7v50.5h-17.7z" fill="#ffd635"/><path clip-path="url(#a)" d="m806.9 644.2h17.7v50.5h-17.7z" fill="#ffd635"/><path clip-path="url(#a)" d="m863.4 713.4h17.7v50.5h-17.7z" fill="#ffd635"/><path clip-path="url(#a)" d="m835.4 713.4h17.7v50.5h-17.7z" fill="#ffd635"/><path clip-path="url(#a)" d="m806.9 713.4h17.7v50.5h-17.7z" fill="#ffd635"/><path clip-path="url(#a)" d="m863.4 782.7h17.7v50.5h-17.7z" fill="#ffd635"/><path clip-path="url(#a)" d="m835.4 782.7h17.7v50.5h-17.7z" fill="#ffd635"/><path clip-path="url(#a)" d="m806.9 782.7h17.7v50.5h-17.7z" fill="#ffd635"/><path clip-path="url(#a)" d="m863.4 851.9h17.7v50.5h-17.7z" fill="#ffd635"/><path clip-path="url(#a)" d="m835.4 851.9h17.7v50.5h-17.7z" fill="#ffd635"/><path clip-path="url(#a)" d="m806.9 851.9h17.7v50.5h-17.7z" fill="#ffd635"/><path clip-path="url(#b)" d="m184.3 563.6h111.9v421.3h-111.9z" fill="#362b74" stroke="#261c3f" stroke-miterlimit="10" stroke-width="12"/><path clip-path="url(#b)" d="m296.3 563.6h45.4v421.3h-45.4z" fill="#362b74" stroke="#261c3f" stroke-miterlimit="10" stroke-width="12"/><path clip-path="url(#b)" d="m197.3 583.7h17.7v50.5h-17.7z" fill="#ffd635"/><path clip-path="url(#b)" d="m225.3 583.7h17.7v50.5h-17.7z" fill="#ffd635"/><path clip-path="url(#b)" d="m253.8 583.7h17.7v50.5h-17.7z" fill="#ffd635"/><path clip-path="url(#b)" d="m197.3 652.9h17.7v50.5h-17.7z" fill="#ffd635"/><path clip-path="url(#b)" d="m225.3 652.9h17.7v50.5h-17.7z" fill="#ffd635"/><path clip-path="url(#b)" d="m253.8 652.9h17.7v50.5h-17.7z" fill="#ffd635"/><path clip-path="url(#b)" d="m197.3 722.1h17.7v50.5h-17.7z" fill="#ffd635"/><path clip-path="url(#b)" d="m225.3 722.1h17.7v50.5h-17.7z" fill="#ffd635"/><path clip-path="url(#b)" d="m253.8 722.1h17.7v50.5h-17.7z" fill="#ffd635"/><path clip-path="url(#b)" d="m197.3 791.4h17.7v50.5h-17.7z" fill="#ffd635"/><path clip-path="url(#b)" d="m225.3 791.4h17.7v50.5h-17.7z" fill="#ffd635"/><path clip-path="url(#b)" d="m253.8 791.4h17.7v50.5h-17.7z" fill="#ffd635"/><path clip-path="url(#b)" d="m197.3 860.6h17.7v50.5h-17.7z" fill="#ffd635"/><path clip-path="url(#b)" d="m225.3 860.6h17.7v50.5h-17.7z" fill="#ffd635"/><path clip-path="url(#b)" d="m253.8 860.6h17.7v50.5h-17.7z" fill="#ffd635"/><path clip-path="url(#c)" d="m511.6 509.1h-93.7v-23.8h-70.2v23.9h-16.1v472.4h164.6 54v-424.4z" fill="#362b74" stroke="#261c3f" stroke-miterlimit="10" stroke-width="12"/><path clip-path="url(#c)" d="m432.7 509.1 31.7 53.8v418.7" fill="#362b74" stroke="#261c3f" stroke-miterlimit="10" stroke-width="12"/><path clip-path="url(#c)" d="m353.9 574.7h11.8v380.9h-11.8z" fill="#ffd635"/><path clip-path="url(#c)" d="m386.8 574.7h11.8v380.9h-11.8z" fill="#ffd635"/><path clip-path="url(#c)" d="m421 574.7h11.8v380.9h-11.8z" fill="#ffd635"/><path clip-path="url(#c)" d="m479.7 738.3h15.3v53.7h-15.3z" fill="#ffd635"/><path clip-path="url(#c)" d="m479.7 820.1h15.3v53.7h-15.3z" fill="#ffd635"/><path clip-path="url(#c)" d="m479.7 901.9h15.3v53.7h-15.3z" fill="#ffd635"/><path clip-path="url(#c)" d="m514.4 738.3h15.3v53.7h-15.3z" fill="#ffd635"/><path clip-path="url(#c)" d="m514.4 820.1h15.3v53.7h-15.3z" fill="#ffd635"/><path clip-path="url(#c)" d="m514.4 901.9h15.3v53.7h-15.3z" fill="#ffd635"/><g stroke="#261c3f" stroke-miterlimit="10"><path d="m288.3 793.4h508v68.8h-508z" fill="#fff" stroke-linecap="round" stroke-linejoin="round" stroke-width="12"/><path d="m775.8 788.2h-467.1v-33.2h13.1 454z" fill="#fff" stroke-linecap="round" stroke-linejoin="round" stroke-width="12"/><path d="m381.8 677.7h315.9l71 71h-452.8z" fill="#fff" stroke-linecap="round" stroke-linejoin="round" stroke-width="12"/><path d="m387.6 651.6h309.2v26.1h-309.2z" fill="#fff" stroke-linecap="round" stroke-linejoin="round" stroke-width="12"/><path d="m394 645.8 83.3-103.3h133.8l79.5 103.3z" fill="#fff" stroke-linecap="round" stroke-linejoin="round" stroke-width="12"/><path d="m475.4 542.5 22.6-150.6h93l18.1 150.6z" fill="#fff" stroke-linecap="round" stroke-linejoin="round" stroke-width="12"/><path d="m479.4 508.2h125.7" fill="none" stroke-linecap="round" stroke-linejoin="round" stroke-width="12"/><path d="m483.1 479.8h118.3" fill="none" stroke-linecap="round" stroke-linejoin="round" stroke-width="12"/><path d="m489.7 451.4h105.1" fill="none" stroke-linecap="round" stroke-linejoin="round" stroke-width="12"/><path d="m491.3 423.1h101.9" fill="none" stroke-linecap="round" stroke-linejoin="round" stroke-width="12"/><path d="m511.2 391.9 7.2-77.6h47.1l7.8 77.6z" fill="#fff" stroke-linecap="round" stroke-linejoin="round" stroke-width="12"/><path d="m518.8 314.3v-106c0-13 10.5-23.5 23.5-23.5 13 0 23.5 10.5 23.5 23.5v106z" fill="#fff" stroke-linecap="round" stroke-linejoin="round" stroke-width="12"/><path d="m542.3 184.9v-44" fill="none" stroke-linecap="round" stroke-linejoin="round" stroke-width="12"/><path d="m727.2 831.8h108.6v147.3h-108.6z" fill="#fff" stroke-linecap="round" stroke-linejoin="round" stroke-width="12"/><path d="m804.4 840.2v137.6" fill="none" stroke-linecap="round" stroke-linejoin="round" stroke-width="12"/><path d="m735 742h73.7s-11.6 55.9 19.4 71.4h-93v-71.4z" fill="#fff" stroke-linecap="round" stroke-linejoin="round" stroke-width="12"/><path d="m814.5 813.4 46.5 36.8h-126v-36.8z" fill="#fff" stroke-linecap="round" stroke-linejoin="round" stroke-width="12"/><path d="m828 708.7s-17.3 6.4-19.4 33.3" fill="#fff" stroke-linecap="round" stroke-linejoin="round" stroke-width="12"/><path d="m644.8 733.6h108.6s13.6 96.9 56.2 96.9h-164.8z" fill="#fff" stroke-linecap="round" stroke-linejoin="round" stroke-width="12"/><path d="m644.8 830.5h108.6v147.3h-108.6z" fill="#fff" stroke-linecap="round" stroke-linejoin="round" stroke-width="12"/><path d="m722.1 838.9v137.6" fill="none" stroke-linecap="round" stroke-linejoin="round" stroke-width="12"/><path d="m772.8 687s-23.7 24.4-19.4 46.5" fill="none" stroke-linecap="round" stroke-linejoin="round" stroke-width="12"/><path d="m242.6 831.8h108.6v147.3h-108.6z" fill="#fff" stroke-linecap="round" stroke-linejoin="round" stroke-width="12"/><path d="m273.9 840.2v137.6" fill="none" stroke-linecap="round" stroke-linejoin="round" stroke-width="12"/><path d="m343.4 742h-73.7s11.6 55.9-19.4 71.4h93v-71.4z" fill="#fff" stroke-linecap="round" stroke-linejoin="round" stroke-width="12"/><path d="m263.9 813.4-46.5 36.8h126v-36.8z" fill="#fff" stroke-linecap="round" stroke-linejoin="round" stroke-width="12"/><path d="m250.4 708.7s17.3 6.4 19.4 33.3" fill="#fff" stroke-linecap="round" stroke-linejoin="round" stroke-width="12"/><path d="m433.5 733.6h-108.5s-13.6 96.9-56.2 96.9h164.8v-96.9z" fill="#fff" stroke-linecap="round" stroke-linejoin="round" stroke-width="12"/><path d="m325 830.5h108.6v147.3h-108.6z" fill="#fff" stroke-linecap="round" stroke-linejoin="round" stroke-width="12"/><path d="m356.3 838.9v137.6" fill="none" stroke-linecap="round" stroke-linejoin="round" stroke-width="12"/><path d="m305.6 687s23.7 24.4 19.4 46.5" fill="none" stroke-linecap="round" stroke-linejoin="round" stroke-width="12"/><path d="m425.9 760.2v218.9h230.7c3.3-10.3 0-225.8 0-225.8l-114-99.8z" fill="#fff" stroke-linecap="round" stroke-linejoin="round" stroke-width="12"/><path d="m601.1 755h24.6v223.3h-24.6z" fill="#fff" stroke-linecap="round" stroke-linejoin="round" stroke-width="12"/><path d="m457 753.3h28.1v223.3h-28.1z" fill="#fff" stroke-linecap="round" stroke-linejoin="round" stroke-width="12"/><path d="m457 753.3h170.6v33.6h-170.6z" fill="#fff" stroke-linecap="round" stroke-linejoin="round" stroke-width="12"/><path d="m542.4 570.9s74.6 151.5 161.8 200.4l-36.8 29.7s-85.3-78.6-125-144.8l-.3 1.1c-39.7 66.2-125 144.8-125 144.8l-36.8-29.7c87.3-48.9 161.8-200.4 161.8-200.4" fill="#fff" stroke-linecap="round" stroke-linejoin="round" stroke-width="12"/><path d="m497.4 795.1s8.1 14 6.2 28c0 0 31-21.8 39.3 28 0 0 12.4-48.5 39.8-28 0 0-1.3-25.4 6.5-28z" fill="#fff" stroke-linecap="round" stroke-linejoin="round" stroke-width="12"/><path d="m514.8 893.2h58.2v85.3h-58.2z" fill="#fff" stroke-linecap="round" stroke-linejoin="round" stroke-width="12"/><path d="m278 449.6h-45.1c.6-2.3.9-4.7.9-7.1 0-16.1-13.2-29.3-29.3-29.3h-153.5c-16.1 0-29.3 13.2-29.3 29.3 0 16.1 13.2 29.3 29.3 29.3h45.1c-.6 2.3-.9 4.7-.9 7.1 0 16.1 13.2 29.3 29.3 29.3h153.5c16.1 0 29.3-13.2 29.3-29.3 0-16.1-13.2-29.3-29.3-29.3z" fill="#fff" stroke-width="13"/><path d="m1032.6 664.3h-45.1c.6-2.3.9-4.7.9-7.1 0-16.1-13.2-29.3-29.3-29.3h-153.4c-16.1 0-29.3 13.2-29.3 29.3 0 16.1 13.2 29.3 29.3 29.3h45.1c-.6 2.3-.9 4.7-.9 7.1 0 16.1 13.2 29.3 29.3 29.3h153.4c16.1 0 29.3-13.2 29.3-29.3 0-16.2-13.2-29.3-29.3-29.3z" fill="#fff" stroke-width="13"/></g><circle cx="697.1" cy="512.4" fill="#fff" r="18.5"/><circle cx="658" cy="470" fill="#fff" r="6.9"/><circle cx="861" cy="451.4" fill="#fff" r="6.9"/></svg>