<?xml version="1.0" encoding="UTF-8" standalone="no"?>
<svg
   xmlns:dc="http://purl.org/dc/elements/1.1/"
   xmlns:cc="http://creativecommons.org/ns#"
   xmlns:rdf="http://www.w3.org/1999/02/22-rdf-syntax-ns#"
   xmlns:svg="http://www.w3.org/2000/svg"
   xmlns="http://www.w3.org/2000/svg"
   viewBox="0 0 825.38397 570.08936"
   height="570.08936"
   width="825.38397"
   xml:space="preserve"
   id="svg2"
   version="1.1"><metadata
     id="metadata8"><rdf:RDF><cc:Work
         rdf:about=""><dc:format>image/svg+xml</dc:format><dc:type
           rdf:resource="http://purl.org/dc/dcmitype/StillImage" /></cc:Work></rdf:RDF></metadata><defs
     id="defs6"><clipPath
       id="clipPath18"
       clipPathUnits="userSpaceOnUse"><path
         id="path16"
         d="M 0,0 H 619.038 V 427.568 H 0 Z" /></clipPath></defs><g
     transform="matrix(1.3333333,0,0,-1.3333333,0,570.08933)"
     id="g10"><g
       id="g12"><g
         clip-path="url(#clipPath18)"
         id="g14"><g
           transform="translate(282.5699,240.4738)"
           id="g20"><path
             id="path22"
             style="fill:#de206a;fill-opacity:1;fill-rule:evenodd;stroke:none"
             d="m 0,0 c 0.319,0.317 1.197,2.376 2.633,6.177 7.501,0 17.555,-2.217 30.163,-6.652 -3.99,-13.146 -7.182,-26.886 -9.576,-41.219 -2.394,-14.334 -3.59,-24.55 -3.59,-30.647 0,-6.098 0.638,-9.147 1.915,-9.147 0.957,0 4.468,1.505 10.533,4.514 l 2.872,1.425 4.309,-8.315 c -1.436,-1.267 -3.311,-2.851 -5.626,-4.751 -2.314,-1.901 -6.662,-4.474 -13.046,-7.721 -6.384,-3.247 -12.129,-4.871 -17.236,-4.871 -9.894,0 -15.639,4.435 -17.235,13.305 -10.214,-8.87 -19.43,-13.305 -27.649,-13.305 -8.219,0 -15.161,3.168 -20.826,9.503 -5.666,6.336 -8.499,16.314 -8.499,29.935 0,21.223 4.389,37.972 13.167,50.247 C -48.914,0.752 -38.301,6.89 -25.853,6.89 -16.916,6.89 -8.299,4.593 0,0 m -27.29,-81.013 c 3.83,0 8.139,1.505 12.927,4.514 1.117,22.332 4.867,44.426 11.251,66.283 -4.788,2.059 -8.857,3.089 -12.209,3.089 -5.745,0 -10.652,-5.583 -14.722,-16.749 -4.069,-11.166 -6.104,-23.48 -6.104,-36.943 0,-13.463 2.952,-20.194 8.857,-20.194 M 82.468,2.613 c 3.431,-2.851 5.147,-8.711 5.147,-17.58 0,-4.752 -1.437,-14.453 -4.309,-29.103 -2.873,-14.65 -4.309,-23.559 -4.309,-26.727 0,-6.335 1.276,-9.503 3.83,-9.503 6.064,0 12.727,4.474 19.988,13.423 7.262,8.949 11.052,16.432 11.371,22.451 l -16.278,18.055 c 0.638,6.811 2.314,12.988 5.027,18.531 2.713,5.543 5.267,9.424 7.66,11.641 l 3.352,3.089 c 6.862,0 12.049,-1.822 15.56,-5.465 3.511,-3.642 5.266,-7.919 5.266,-12.829 0,-12.512 -3.112,-25.737 -9.336,-39.674 -6.224,-13.938 -14.522,-25.777 -24.896,-35.518 -10.373,-9.74 -20.906,-14.611 -31.598,-14.611 -6.703,0 -11.85,2.059 -15.441,6.177 -3.591,4.118 -5.386,9.543 -5.386,16.274 0,6.731 0.519,15.799 1.556,27.202 1.038,11.404 1.556,22.728 1.556,33.973 0,2.535 -0.917,5.544 -2.753,9.028 -1.835,3.485 -3.71,6.256 -5.625,8.315 l 0.718,2.851 c 8.618,2.851 16.398,4.277 23.34,4.277 6.942,0 12.129,-1.426 15.56,-4.277 m 54.46,-59.868 c 0,19.798 6.024,35.438 18.073,46.92 12.049,11.483 25.734,17.225 41.054,17.225 9.416,0 17.156,-2.297 23.221,-6.89 6.064,-4.593 9.096,-10.73 9.096,-18.412 0,-7.682 -1.955,-14.136 -5.865,-19.362 -3.91,-5.227 -8.657,-9.266 -14.243,-12.117 -11.331,-5.543 -21.704,-9.027 -31.12,-10.453 l -5.745,-0.713 c 1.117,-14.888 7.261,-22.332 18.432,-22.332 3.831,0 7.9,0.951 12.209,2.851 4.309,1.901 7.66,3.802 10.054,5.702 l 3.591,2.851 5.745,-7.602 c -1.277,-1.743 -3.83,-4.039 -7.66,-6.89 -3.83,-2.851 -7.421,-5.227 -10.773,-7.127 -9.256,-5.069 -19.389,-7.603 -30.401,-7.603 -11.012,0 -19.709,3.881 -26.093,11.642 -6.384,7.76 -9.575,18.53 -9.575,32.31 M 190.55,-39.2 c 4.787,5.385 7.181,12.354 7.181,20.907 0,8.552 -2.553,12.829 -7.66,12.829 -6.065,0 -10.733,-5.108 -14.004,-15.324 -3.272,-10.216 -4.907,-19.758 -4.907,-28.627 8.139,1.425 14.602,4.83 19.39,10.215" /></g><g
           transform="translate(207.5771,319.3062)"
           id="g24"><path
             id="path26"
             style="fill:#de206a;fill-opacity:1;fill-rule:evenodd;stroke:none"
             d="m 0,0 c -1.059,0.091 -2.177,0.139 -3.358,0.139 -34.762,1.136 -39.566,-35.672 -39.566,-35.672 0,0 -1.313,-13.438 -3.532,-32.503 -8.748,-3.499 -18.094,-8.586 -27.806,-15.83 l 3.984,-7.894 c 0,0 9.134,4.547 22.086,9.232 -4.735,-38.404 -12.094,-89.042 -19.685,-106.16 -12.806,-28.88 -24.424,-3.284 -24.424,-3.284 l -7.18,-4.434 c 0,0 1.551,-14.779 22.208,-14.779 34.763,-1.135 45.728,36.431 45.728,36.431 0,0 8.501,24.15 14.916,100.85 10.948,1.844 21.912,2.225 31.088,-0.352 l 0.683,8.254 c 0,0 -11.906,5.668 -30.764,4.815 0.871,11.648 1.689,24.378 2.425,38.268 1.449,12.906 7.39,14.148 13.102,12.028 l -0.108,-12.361 c 0,0 5.252,-4.162 16.839,-8.018 2.375,0.376 9.886,6.819 10.568,12.858 C 22.07,-0.872 0,0.033 0,0.033 Z" /></g></g></g></g></svg>