<svg xmlns="http://www.w3.org/2000/svg" xmlns:xlink="http://www.w3.org/1999/xlink" viewBox="0 0 2160 1080"><defs><style>.cls-1,.cls-12,.cls-15,.cls-16,.cls-2,.cls-22,.cls-25,.cls-28,.cls-29,.cls-3,.cls-31,.cls-4,.cls-44,.cls-45,.cls-48,.cls-52,.cls-54,.cls-59,.cls-60,.cls-62{fill:none;}.cls-11,.cls-14,.cls-16,.cls-17,.cls-19,.cls-2,.cls-22,.cls-23,.cls-25,.cls-26,.cls-27,.cls-3,.cls-30,.cls-33,.cls-35,.cls-36,.cls-38,.cls-4,.cls-40,.cls-41,.cls-42,.cls-46,.cls-47,.cls-48,.cls-49,.cls-50,.cls-52,.cls-53,.cls-55,.cls-56,.cls-57,.cls-58,.cls-59,.cls-60,.cls-61,.cls-62,.cls-63,.cls-64,.cls-65,.cls-66,.cls-67,.cls-68,.cls-69,.cls-7,.cls-70,.cls-8{stroke:#261c3f;}.cls-11,.cls-14,.cls-15,.cls-16,.cls-17,.cls-19,.cls-2,.cls-22,.cls-23,.cls-25,.cls-27,.cls-36,.cls-38,.cls-4,.cls-40,.cls-42,.cls-44,.cls-5,.cls-52,.cls-53,.cls-58,.cls-59,.cls-68,.cls-70,.cls-8{stroke-miterlimit:10;}.cls-11,.cls-12,.cls-14,.cls-2,.cls-26,.cls-28,.cls-29,.cls-3,.cls-35,.cls-36,.cls-38,.cls-7,.cls-8{stroke-width:12px;}.cls-12,.cls-26,.cls-28,.cls-29,.cls-3,.cls-30,.cls-31,.cls-33,.cls-35,.cls-41,.cls-45,.cls-46,.cls-47,.cls-48,.cls-49,.cls-50,.cls-54,.cls-55,.cls-56,.cls-57,.cls-60,.cls-61,.cls-62,.cls-63,.cls-64,.cls-65,.cls-66,.cls-67,.cls-68,.cls-69,.cls-7,.cls-70{stroke-linecap:round;}.cls-12,.cls-26,.cls-28,.cls-29,.cls-3,.cls-30,.cls-31,.cls-33,.cls-35,.cls-41,.cls-45,.cls-46,.cls-47,.cls-48,.cls-49,.cls-50,.cls-54,.cls-55,.cls-56,.cls-57,.cls-60,.cls-61,.cls-62,.cls-63,.cls-64,.cls-65,.cls-66,.cls-67,.cls-69,.cls-7{stroke-linejoin:round;}.cls-4{stroke-width:16px;}.cls-5{fill:#2e3192;stroke:#231f20;opacity:0.21;}.cls-6{fill:#ffda00;}.cls-50,.cls-64,.cls-7{fill:#ec008c;}.cls-23,.cls-43,.cls-56,.cls-8{fill:#352175;}.cls-9{clip-path:url(#clip-path);}.cls-10,.cls-38,.cls-49,.cls-55,.cls-58,.cls-61,.cls-65{fill:#8b69d3;}.cls-11,.cls-13,.cls-26,.cls-42,.cls-46,.cls-57,.cls-63,.cls-66{fill:#ffd635;}.cls-12,.cls-28,.cls-29,.cls-31,.cls-44,.cls-45,.cls-54{stroke:#fff;}.cls-14,.cls-21,.cls-27,.cls-30,.cls-33,.cls-35,.cls-41,.cls-47,.cls-53,.cls-68,.cls-69,.cls-70{fill:#fff;}.cls-15{stroke:#7827df;}.cls-15,.cls-16,.cls-30,.cls-31,.cls-61,.cls-62,.cls-63,.cls-64,.cls-67{stroke-width:8px;}.cls-17,.cls-36,.cls-40,.cls-67{fill:#00aeef;}.cls-17,.cls-42,.cls-52,.cls-53,.cls-54{stroke-width:9px;}.cls-18{clip-path:url(#clip-path-2);}.cls-19,.cls-34{fill:#261c3f;}.cls-19,.cls-23,.cls-27,.cls-33,.cls-68{stroke-width:13px;}.cls-20{clip-path:url(#clip-path-3);}.cls-24{clip-path:url(#clip-path-4);}.cls-25,.cls-46,.cls-47,.cls-48,.cls-49,.cls-50{stroke-width:11px;}.cls-28{stroke-dasharray:10.8 32.4;}.cls-29{stroke-dasharray:10.8 32.4 10.8 32.4;}.cls-32{clip-path:url(#clip-path-5);}.cls-37{clip-path:url(#clip-path-6);}.cls-39{clip-path:url(#clip-path-7);}.cls-40,.cls-41,.cls-45,.cls-55,.cls-56,.cls-57,.cls-58,.cls-59,.cls-60{stroke-width:10px;}.cls-44,.cls-69,.cls-70{stroke-width:7px;}.cls-51{clip-path:url(#clip-path-8);}.cls-65,.cls-66{stroke-width:6px;}</style><clipPath id="clip-path"><rect class="cls-1" x="1684.24" y="320.61" width="433.16" height="720.29"/></clipPath><clipPath id="clip-path-2"><rect class="cls-2" x="39" y="102.72" width="448" height="596.28"/></clipPath><clipPath id="clip-path-3"><path class="cls-2" d="M493.49,727,368.34,408.41c-13.1-34.73-61.75-36-76.64-2L156.32,727Z"/></clipPath><clipPath id="clip-path-4"><path class="cls-2" d="M372.67,727,217.7,332.5c-16.22-43-76.47-44.57-94.9-2.47L-44.84,727Z"/></clipPath><clipPath id="clip-path-5"><rect class="cls-3" x="38.9" y="739.76" width="1260" height="300.72"/></clipPath><clipPath id="clip-path-6"><rect class="cls-4" x="1327" y="741.58" width="327.61" height="301.48"/></clipPath><clipPath id="clip-path-7"><rect class="cls-2" x="1687" y="320.19" width="433.16" height="720.29"/></clipPath><clipPath id="clip-path-8"><rect class="cls-2" x="1240.8" y="51.84" width="879.36" height="234.33"/></clipPath></defs><title>Draft4</title><g id="Layer_5" data-name="Layer 5"><rect class="cls-5" x="39" y="51" width="448" height="648"/><rect class="cls-5" x="39" y="739" width="1260" height="300"/><rect class="cls-5" x="1327" y="739" width="327.61" height="300"/><rect class="cls-5" x="516" y="318.74" width="1138.61" height="385.71"/><rect class="cls-5" x="1687" y="318.74" width="433.16" height="720.26"/><rect class="cls-5" x="518" y="51" width="327.61" height="234.33"/><rect class="cls-5" x="877.39" y="51.84" width="327.61" height="234.33"/><rect class="cls-5" x="1234.45" y="51.84" width="885.7" height="234.33"/></g><g id="Layer_6" data-name="Layer 6"><rect class="cls-6" x="516" y="318.74" width="1138.61" height="385.71"/></g><g id="Layer_8" data-name="Layer 8"><rect class="cls-7" x="39" y="738.28" width="1260" height="300.72"/></g><g id="Layer_7" data-name="Layer 7"><rect class="cls-8" x="1687" y="320.19" width="433.16" height="720.29"/><g class="cls-9"><rect class="cls-10" x="1683.48" y="274.02" width="91.44" height="380.69"/><rect class="cls-10" x="1774.92" y="334.83" width="91.44" height="380.69"/><rect class="cls-10" x="1866.35" y="342.96" width="101.24" height="430.18"/><rect class="cls-10" x="1957.79" y="453.26" width="91.44" height="380.69"/><rect class="cls-10" x="2048.1" y="504.51" width="91.44" height="380.69"/><rect class="cls-10" x="2139.54" y="565.31" width="91.44" height="380.69"/><path class="cls-11" d="M2096.72,714.92V597.82a60,60,0,0,0-60-60h-39.28a60,60,0,0,0-60,60v49.06a76,76,0,0,0-35.49,131.81,133.19,133.19,0,1,0,194.77-63.78Z"/><line class="cls-12" x1="2016.16" y1="872.51" x2="2066.16" y2="832.37"/><line class="cls-12" x1="2015.16" y1="894.37" x2="1993.16" y2="871.27"/><line class="cls-12" x1="2016.16" y1="778.42" x2="2066.16" y2="738.28"/><line class="cls-12" x1="2015.16" y1="800.28" x2="1993.16" y2="777.18"/><line class="cls-12" x1="2016.16" y1="688.42" x2="2066.16" y2="648.28"/><line class="cls-12" x1="2015.16" y1="710.28" x2="1993.16" y2="687.18"/><line class="cls-12" x1="2016.16" y1="653.14" x2="2016.16" y2="1070"/><rect class="cls-13" x="1716.12" y="400.86" width="32.88" height="78.6"/><rect class="cls-13" x="1780.62" y="400.86" width="32.88" height="78.6"/><rect class="cls-13" x="1841.12" y="400.86" width="32.88" height="78.6"/><rect class="cls-13" x="1716.12" y="518.49" width="32.88" height="78.6"/><rect class="cls-13" x="1780.62" y="518.49" width="32.88" height="78.6"/><rect class="cls-13" x="1841.12" y="518.49" width="32.88" height="78.6"/><rect class="cls-13" x="1900.82" y="400.2" width="32.88" height="78.6"/><rect class="cls-13" x="1900.82" y="517.83" width="32.88" height="78.6"/></g><rect class="cls-14" x="39" y="51" width="448" height="648"/><line class="cls-15" x1="39" y1="102.72" x2="487" y2="102.72"/><line class="cls-16" x1="417" y1="51" x2="417" y2="102.72"/><line class="cls-16" x1="439.08" y1="91.42" x2="466.01" y2="62.5"/><line class="cls-16" x1="438.08" y1="63.49" x2="467" y2="90.42"/><line class="cls-16" x1="364" y1="51" x2="364" y2="102.72"/><rect class="cls-17" x="39" y="102.72" width="448" height="596.28"/><g class="cls-18"><path class="cls-19" d="M493.49,727,368.34,408.41c-13.1-34.73-61.75-36-76.64-2L156.32,727Z"/><g class="cls-20"><path class="cls-21" d="M625.4,444.47c-38.85,11.39-43.3-19.6-83.79-19.6s-40.49,20-81,20-40.49-20-81-20-40.49,20-81,20-39.31-8.21-78.17-19.6c-11.39-3.34-12.81-2.27-12.81-14.14s20-11.87,20-23.74-20-11.87-20-23.74,20-11.87,20-23.74-24.2-30-12.81-33.34c38.85-11.39,43.3,19.6,83.79,19.6s40.49-20,81-20,40.49,20,81,20,40.49-20,81-20,39.31,8.21,78.17,19.6c11.39,3.34,12.81,2.27,12.81,14.14s-20,11.87-20,23.74,20,11.87,20,23.74-22.7,14.82-19.67,26.3C617.57,431.28,636.79,441.13,625.4,444.47Z"/><path class="cls-22" d="M625.4,444.47c-38.85,11.39-43.3-19.6-83.79-19.6s-40.49,20-81,20-40.49-20-81-20-40.49,20-81,20-39.31-8.21-78.17-19.6c-11.39-3.34-12.81-2.27-12.81-14.14s20-11.87,20-23.74-20-11.87-20-23.74,20-11.87,20-23.74-24.2-30-12.81-33.34c38.85-11.39,43.3,19.6,83.79,19.6s40.49-20,81-20,40.49,20,81,20,40.49-20,81-20,39.31,8.21,78.17,19.6c11.39,3.34,12.81,2.27,12.81,14.14s-20,11.87-20,23.74,20,11.87,20,23.74-22.7,14.82-19.67,26.3C617.57,431.28,636.79,441.13,625.4,444.47Z"/></g><path class="cls-2" d="M493.49,727,368.34,408.41c-13.1-34.73-61.75-36-76.64-2L156.32,727Z"/><path class="cls-23" d="M372.67,727,217.7,332.5c-16.22-43-76.47-44.57-94.9-2.47L-44.84,727Z"/><g class="cls-24"><path class="cls-21" d="M429.74,392.2c-49.69,11.5-53.26-19.74-104.26-19.74s-51,20-102,20-51-20-102-20-51,20-102,20-50.07-8.25-99.76-19.74c-11.5-2.66-12.25-2.06-12.25-13.86s20-11.8,20-23.6-20-11.8-20-23.6,20-11.8,20-23.6-23.75-30.68-12.25-33.34c49.69-11.5,53.26,19.74,104.26,19.74s51-20,102-20,51,20,102,20,51-20,102-20,50.07,8.25,99.76,19.74c11.5,2.66,12.25,2.06,12.25,13.86s-20,11.8-20,23.6,20,11.8,20,23.6-22.59,14.62-19.69,26.06C422.26,379,441.23,389.54,429.74,392.2Z"/><path class="cls-25" d="M429.74,392.2c-49.69,11.5-53.26-19.74-104.26-19.74s-51,20-102,20-51-20-102-20-51,20-102,20-50.07-8.25-99.76-19.74c-11.5-2.66-12.25-2.06-12.25-13.86s20-11.8,20-23.6-20-11.8-20-23.6,20-11.8,20-23.6-23.75-30.68-12.25-33.34c49.69-11.5,53.26,19.74,104.26,19.74s51-20,102-20,51,20,102,20,51-20,102-20,50.07,8.25,99.76,19.74c11.5,2.66,12.25,2.06,12.25,13.86s-20,11.8-20,23.6,20,11.8,20,23.6-22.59,14.62-19.69,26.06C422.26,379,441.23,389.54,429.74,392.2Z"/></g><path class="cls-2" d="M372.67,727,217.7,332.5c-16.22-43-76.47-44.57-94.9-2.47L-44.84,727Z"/><polyline class="cls-7" points="171.59 295.67 171.59 199.46 233 234.09 171.59 257.04"/><circle class="cls-26" cx="355.28" cy="221.48" r="97.26"/><path class="cls-27" d="M108.4,185.86H73.51a22.51,22.51,0,0,0,.69-5.53h0a22.73,22.73,0,0,0-22.67-22.67H-67.19a22.73,22.73,0,0,0-22.67,22.67h0A22.73,22.73,0,0,0-67.19,203H-32.3a22.5,22.5,0,0,0-.69,5.53h0a22.73,22.73,0,0,0,22.67,22.67H108.4a22.73,22.73,0,0,0,22.67-22.67h0A22.73,22.73,0,0,0,108.4,185.86Z"/><path class="cls-27" d="M586.77,241.65H551.88a22.51,22.51,0,0,0,.69-5.53h0a22.73,22.73,0,0,0-22.67-22.67H411.18a22.73,22.73,0,0,0-22.67,22.67h0a22.73,22.73,0,0,0,22.67,22.67h34.89a22.5,22.5,0,0,0-.69,5.53h0A22.73,22.73,0,0,0,468,287H586.77a22.73,22.73,0,0,0,22.67-22.67h0A22.73,22.73,0,0,0,586.77,241.65Z"/><path class="cls-12" d="M159,335a15.69,15.69,0,0,0-1.65,4.7"/><path class="cls-28" d="M160.1,371.69A183.06,183.06,0,0,0,169.39,397"/><path class="cls-29" d="M176.41,411.62c11.9,23.11,30.54,52.43,59.42,89.23,30.72,39.15,31.57,41.22,40.82,66.59,13.43,36.85,23.68,89.46,2,140"/><path class="cls-12" d="M271.52,722q-1.22,2.16-2.52,4.32"/></g><rect class="cls-2" x="39" y="102.72" width="448" height="596.28"/><path class="cls-27" d="M545.83,538.43H510.94a22.51,22.51,0,0,0,.69-5.53h0A22.73,22.73,0,0,0,489,510.24H370.25a22.73,22.73,0,0,0-22.67,22.67h0a22.73,22.73,0,0,0,22.67,22.67h34.89a22.5,22.5,0,0,0-.69,5.53h0a22.73,22.73,0,0,0,22.67,22.67H545.83A22.73,22.73,0,0,0,568.5,561.1h0A22.73,22.73,0,0,0,545.83,538.43Z"/><path class="cls-30" d="M209.65,618.33A50.15,50.15,0,0,0,168.71,569v-6.55a19.22,19.22,0,0,0-19.17-19.17H84.81a19.22,19.22,0,0,0-19.17,19.17V687.08a6.26,6.26,0,0,0,6.25,6.25h90.58a6.26,6.26,0,0,0,6.25-6.25V667.61A50.15,50.15,0,0,0,209.65,618.33ZM168.71,650V586.61a33,33,0,0,1,0,63.43ZM82.4,562.34s32.33,22.21,68.29,0"/><path class="cls-31" d="M112.49,526.3c0-24,6-24,6-48"/><path class="cls-31" d="M133.84,526.3c0-24,6-24,6-48"/><path class="cls-31" d="M90,527.42c0-24,6-24,6-48"/><g class="cls-32"><polygon class="cls-13" points="1096.53 829.1 946.16 1051.65 1335.02 1051.65 1158.08 817.38 1096.53 829.1"/><circle class="cls-11" cx="1134.09" cy="832.37" r="23.98"/><rect class="cls-8" x="254" y="762.89" width="190" height="715.04"/><rect class="cls-8" x="444" y="762.89" width="77" height="715.04"/><rect class="cls-13" x="276" y="796.89" width="30" height="85.77"/><rect class="cls-13" x="323.5" y="796.89" width="30" height="85.77"/><rect class="cls-13" x="372" y="796.89" width="30" height="85.77"/><rect class="cls-13" x="276" y="914.42" width="30" height="85.77"/><rect class="cls-13" x="323.5" y="914.42" width="30" height="85.77"/><rect class="cls-13" x="372" y="914.42" width="30" height="85.77"/><rect class="cls-13" x="276" y="1031.94" width="30" height="85.77"/><rect class="cls-13" x="323.5" y="1031.94" width="30" height="85.77"/><rect class="cls-13" x="372" y="1031.94" width="30" height="85.77"/><polygon class="cls-8" points="688.05 840.04 580.16 840.04 580.16 812.6 499.3 812.6 499.3 840.12 480.76 840.12 480.76 1384.43 670.38 1384.43 670.38 1384.35 732.61 1384.35 732.61 895.48 688.05 840.04"/><polyline class="cls-8" points="597.15 840.04 633.73 902 633.73 1384.35"/><rect class="cls-13" x="506.4" y="915.55" width="13.55" height="438.89"/><rect class="cls-13" x="544.32" y="915.55" width="13.55" height="438.89"/><rect class="cls-13" x="583.69" y="915.55" width="13.55" height="438.89"/><rect class="cls-13" x="651.34" y="915.55" width="17.61" height="61.84"/><rect class="cls-13" x="651.34" y="1009.81" width="17.61" height="61.84"/><rect class="cls-13" x="691.3" y="915.55" width="17.61" height="61.84"/><rect class="cls-13" x="691.3" y="1009.81" width="17.61" height="61.84"/><rect class="cls-8" x="580.16" y="812.6" width="53.57" height="27"/><polygon class="cls-13" points="633.73 861.37 651.34 892.52 708.91 892.52 682.49 861.37 633.73 861.37"/><rect class="cls-8" x="920.22" y="770.29" width="42.3" height="296.69"/><rect class="cls-8" x="821.51" y="770.29" width="98.71" height="247.21"/><rect class="cls-13" x="938.48" y="793.83" width="7.68" height="222.93"/><path class="cls-13" d="M848.53,880.36h0a12.34,12.34,0,0,1,12.34,12.34v54.63a0,0,0,0,1,0,0H836.19a0,0,0,0,1,0,0V892.69A12.34,12.34,0,0,1,848.53,880.36Z"/><path class="cls-13" d="M892.6,880.36h0a12.34,12.34,0,0,1,12.34,12.34v54.63a0,0,0,0,1,0,0H880.26a0,0,0,0,1,0,0V892.69A12.34,12.34,0,0,1,892.6,880.36Z"/><rect class="cls-13" x="773.92" y="927.93" width="24.68" height="66.97"/><path class="cls-13" d="M848.53,790.28h0a12.34,12.34,0,0,1,12.34,12.34v54.63a0,0,0,0,1,0,0H836.19a0,0,0,0,1,0,0V802.62A12.34,12.34,0,0,1,848.53,790.28Z"/><path class="cls-13" d="M892.6,790.28h0a12.34,12.34,0,0,1,12.34,12.34v54.63a0,0,0,0,1,0,0H880.26a0,0,0,0,1,0,0V802.62A12.34,12.34,0,0,1,892.6,790.28Z"/><rect class="cls-8" x="754.53" y="902.48" width="66.98" height="261.57"/><polygon class="cls-8" points="821.51 902.48 876.15 902.48 1036.56 1103.57 1036.56 1164.05 821.51 1164.05 821.51 902.48"/><rect class="cls-13" x="774.5" y="927.93" width="24.68" height="66.97"/><rect class="cls-13" x="774.5" y="1007.07" width="24.68" height="66.97"/><rect class="cls-13" x="842.05" y="1066.98" width="132.18" height="13.19"/><path class="cls-13" d="M892.6,980.46c0-19.7-11.32-35.68-25.28-35.68S842,960.76,842,980.46c0,1.07,0,2.12.1,3.16H842v68.73H892.6V983.62h-.1C892.56,982.58,892.6,981.53,892.6,980.46Z"/><path class="cls-8" d="M1132.53,717.28v59.61L1074,836.32a3,3,0,0,0,2.11,5h116a3,3,0,0,0,2.06-5.1l-61.62-59.37"/><path class="cls-33" d="M157.89,903.14a76.42,76.42,0,0,1-9.33-131.79,76.41,76.41,0,1,0,36.77,139.36A76.21,76.21,0,0,1,157.89,903.14Z"/><circle class="cls-21" cx="85.68" cy="979.06" r="6.67"/><circle class="cls-21" cx="1018.1" cy="846.48" r="9.1"/><circle class="cls-21" cx="1247.96" cy="773.85" r="10.96"/><circle class="cls-21" cx="195.65" cy="823.76" r="5.05"/><rect class="cls-34" x="1066.75" y="921.19" width="16.34" height="56.28" transform="translate(-351.06 796.8) rotate(-35.34)"/><circle class="cls-14" cx="1138.26" cy="917.94" r="41"/><path class="cls-2" d="M1077.63,917.94s55.56,18.94,91.3-27.2"/><path class="cls-14" d="M1132.82,976.5h22.43A44.79,44.79,0,0,1,1200,1021.3V1152a0,0,0,0,1,0,0H1088a0,0,0,0,1,0,0V1021.3A44.79,44.79,0,0,1,1132.82,976.5Z"/><rect class="cls-14" x="1041.83" y="968.75" width="33.49" height="148.98" rx="14.5" ry="14.5" transform="translate(102.87 -94.98) rotate(5.4)"/><circle class="cls-14" cx="1066.66" cy="974.53" r="21.37"/><path class="cls-14" d="M1102.7,990.9l4.16,4.41a49.49,49.49,0,0,0,75.71-4.41h0"/><polygon class="cls-35" points="1200.05 1015.85 1245.09 1100.99 1200.05 1152.04 1200.05 1015.85"/></g><rect class="cls-3" x="38.9" y="739.76" width="1260" height="300.72"/><path class="cls-35" d="M790,711H702.42a8.78,8.78,0,0,0-8.76,8.76v62.75a8.78,8.78,0,0,0,8.76,8.76h19v29.19l17.72-29.19H790a8.78,8.78,0,0,0,8.76-8.76V719.76A8.78,8.78,0,0,0,790,711Z"/><path class="cls-35" d="M440.34,761.73H591.66c8.32,0,15.13,3.94,15.13,8.76v62.75c0,4.82-6.81,8.76-15.13,8.76H558.87v29.19L528.25,842H440.34c-8.32,0-15.13-3.94-15.13-8.76V770.48C425.21,765.67,432,761.73,440.34,761.73Z"/><rect class="cls-36" x="1327" y="739" width="327.61" height="301.48"/><g class="cls-37"><path class="cls-38" d="M1512.52,1057.48l107-162.32a48.49,48.49,0,0,1,80.44-.78L1884.58,1163H1489.42Z"/><path class="cls-38" d="M1185.87,1057.67,1285.21,907a45,45,0,0,1,74.69-.72l171.42,249.43h-366.9Z"/></g><rect class="cls-4" x="1327" y="741.58" width="327.61" height="301.48"/><g class="cls-39"><path class="cls-35" d="M1830.13,691l174.73-123.47a32.09,32.09,0,0,1,44.77,7.74h0a32.09,32.09,0,0,1-3.42,41L1972.4,691V886.68s-33.19,86-102.41,119.56l-39.85,132.15L1677,1077.56l31.46-96.22v-119a50.07,50.07,0,0,1,3.5-18.4L1755.3,734.3a47.61,47.61,0,0,1,44.28-30.11H1894a7.36,7.36,0,0,1,7.12,9.22h0a61.64,61.64,0,0,1-57.39,46l-2.6.1a41.86,41.86,0,0,0-37.22,57.69,159.06,159.06,0,0,0,13.61,25.54s54.54,88.5,16.78,138.58"/><rect class="cls-40" x="1751.48" y="485.21" width="243.05" height="432.09"/><rect class="cls-41" x="1768.86" y="510.6" width="208.29" height="353.38"/><polyline class="cls-41" points="1934.45 708.02 1977.15 679.87 1977.15 731.08 1768.86 862.88 1768.86 817.15 1838.32 771.38"/><circle class="cls-41" cx="1875.34" cy="890.18" r="15.19"/><line class="cls-41" x1="1768.86" y1="617.29" x2="1888.54" y2="539.44"/><line class="cls-41" x1="1908.11" y1="529.87" x2="1935.12" y2="512.49"/><rect class="cls-40" x="1994.53" y="542.9" width="9.95" height="44.38"/><rect class="cls-40" x="1995.43" y="599.87" width="9.95" height="44.38"/><circle class="cls-42" cx="1876.34" cy="633.28" r="46"/><path class="cls-42" d="M1901.7,636.33c0,12.92-11,23.4-24.57,23.4s-24.57-10.48-24.57-23.4"/><circle class="cls-34" cx="1889.87" cy="618.67" r="7.82"/><circle class="cls-34" cx="1863.87" cy="618.67" r="7.82"/><path class="cls-35" d="M1834.32,981.34c37.76-50.08-16.78-138.58-16.78-138.58a159.06,159.06,0,0,1-13.61-25.54,41.86,41.86,0,0,1,37.22-57.69l2.6-.1a61.64,61.64,0,0,0,57.39-46h0a7.36,7.36,0,0,0-7.12-9.22h-94.43a47.61,47.61,0,0,0-44.28,30.11L1712,843.93a50.07,50.07,0,0,0-3.5,18.4v119L1677,1077.56l153.13,60.83L1870,1006.24Z"/><circle class="cls-35" cx="2001.76" cy="720.36" r="29.36"/><circle class="cls-35" cx="1993.72" cy="776.98" r="27.26"/><circle class="cls-35" cx="1981.13" cy="834.28" r="27.26"/><rect class="cls-14" x="1687" y="320.19" width="433.16" height="54.81"/><rect class="cls-14" x="2054.21" y="320.61" width="65.94" height="54.39"/><line class="cls-14" x1="1992.49" y1="323.63" x2="1992.49" y2="375"/></g><rect class="cls-2" x="1687" y="320.19" width="433.16" height="720.29"/><rect class="cls-8" x="877.39" y="51.84" width="327.61" height="234.33"/><rect class="cls-2" x="1240.8" y="51.84" width="879.36" height="234.33"/><rect class="cls-7" x="518" y="51" width="327.61" height="234.33"/><rect class="cls-2" x="877.39" y="51.84" width="327.61" height="234.33"/><path class="cls-35" d="M1643.22,416.48h87.56a8.78,8.78,0,0,1,8.76,8.76V488a8.78,8.78,0,0,1-8.76,8.76h-19v29.19l-17.72-29.19h-50.87a8.78,8.78,0,0,1-8.76-8.76V425.24A8.78,8.78,0,0,1,1643.22,416.48Z"/><line class="cls-16" x1="2073.08" y1="361.42" x2="2100.01" y2="332.5"/><line class="cls-16" x1="2072.08" y1="333.49" x2="2101" y2="360.42"/><circle class="cls-16" cx="2022.47" cy="346.96" r="13.47"/><circle class="cls-16" cx="391.04" cy="76.96" r="13.47"/><path class="cls-13" d="M1581.77,751.52a93.3,93.3,0,0,0-94.63-93.29c-50.36.7-91.41,41.88-92,92.24a93.11,93.11,0,0,0,34,73.1,57.37,57.37,0,0,1,19.65,33l4.72,23.36h69.84l4.72-23.36a57.6,57.6,0,0,1,19.73-33A93.11,93.11,0,0,0,1581.77,751.52Z"/><path class="cls-34" d="M1523.39,885.49h-69.84a5.6,5.6,0,0,1-5.49-4.49l-4.72-23.36a51.9,51.9,0,0,0-17.72-29.76,99,99,0,0,1,61.44-175.25h1.42a98.9,98.9,0,0,1,62.92,175.19,52.16,52.16,0,0,0-17.81,29.84L1528.88,881A5.6,5.6,0,0,1,1523.39,885.49Zm-65.26-11.2h60.68l3.81-18.87a63.39,63.39,0,0,1,21.65-36.25,87.7,87.7,0,0,0-57.05-155.35c-47.15.66-85.92,39.55-86.45,86.7a87.38,87.38,0,0,0,32,68.72,63.13,63.13,0,0,1,21.58,36.19Z"/><path class="cls-43" d="M1453.54,879.9h68.88a0,0,0,0,1,0,0v9.28a13.73,13.73,0,0,1-13.73,13.73h-41.42a13.73,13.73,0,0,1-13.73-13.73V879.9A0,0,0,0,1,1453.54,879.9Z"/><path class="cls-34" d="M1499.42,908.5h-22.87a28.64,28.64,0,0,1-28.61-28.61v-5.6H1528v5.6A28.64,28.64,0,0,1,1499.42,908.5Zm-39.35-23a17.44,17.44,0,0,0,16.49,11.81h22.87a17.44,17.44,0,0,0,16.49-11.81Z"/><polygon class="cls-34" points="1451.85 963 1448.06 881 1460.06 879.52 1464.89 962.24 1451.85 963"/><rect class="cls-8" x="1460.54" y="908.5" width="55.84" height="18.87" rx="9.08" ry="9.08"/><rect class="cls-34" x="1481.45" y="879.9" width="13.06" height="82.72"/><circle class="cls-21" cx="1506.2" cy="933.61" r="5.22"/><path class="cls-21" d="M1505.85,941.28h.7a9.08,9.08,0,0,1,9.08,9.08V957a0,0,0,0,1,0,0h-18.87a0,0,0,0,1,0,0v-6.66a9.08,9.08,0,0,1,9.08-9.08Z"/><polygon class="cls-34" points="1525.22 962.91 1512.17 962.33 1515.9 879.6 1528.88 881 1525.22 962.91"/><path class="cls-21" d="M1564.61,748.33h-13.06a60,60,0,0,0-59.94-59.94V675.33A73.09,73.09,0,0,1,1564.61,748.33Z"/><rect class="cls-34" x="1457.44" y="962.62" width="62.19" height="49.98"/><path class="cls-34" d="M1525.23,1018.19h-73.38V957h73.38ZM1463,1007h51V968.22h-51Z"/><path class="cls-27" d="M1379.19,969.73H1356a15,15,0,0,0,.46-3.68h0a15.14,15.14,0,0,0-15.1-15.1h-79.07a15.14,15.14,0,0,0-15.1,15.1h0a15.14,15.14,0,0,0,15.1,15.1h23.24a15,15,0,0,0-.46,3.68h0a15.14,15.14,0,0,0,15.1,15.1h79.07a15.14,15.14,0,0,0,15.1-15.1h0A15.14,15.14,0,0,0,1379.19,969.73Z"/><path class="cls-27" d="M1600.47,981.61h24.42a15.75,15.75,0,0,1-.48-3.87h0a15.91,15.91,0,0,1,15.86-15.86h83.1a15.91,15.91,0,0,1,15.86,15.86h0a15.91,15.91,0,0,1-15.86,15.86h-24.42a15.75,15.75,0,0,1,.48,3.87h0a15.91,15.91,0,0,1-15.86,15.86h-83.1a15.91,15.91,0,0,1-15.86-15.86h0A15.91,15.91,0,0,1,1600.47,981.61Z"/><path class="cls-44" d="M1475.4,871.3c0-2.33-2.48-65.5-17.37-100.68-4.71-11.11-21.55-8.5-22.08,3.56-.37,8.5,8,15.78,44.33,9.42h18.66c36.33,6.36,44.7-.92,44.33-9.42-.53-12.06-17.38-14.67-22.08-3.56C1506.28,805.8,1503.8,869,1503.8,871.3"/><line class="cls-45" x1="1562.19" y1="842.08" x2="1576.83" y2="865.03"/><line class="cls-45" x1="1588.28" y1="813.03" x2="1610.45" y2="828.83"/><line class="cls-45" x1="1601.58" y1="776.32" x2="1628.06" y2="782.66"/><line class="cls-45" x1="1418.66" y1="849.32" x2="1404.02" y2="872.28"/><line class="cls-45" x1="1392.58" y1="820.27" x2="1370.4" y2="836.07"/><line class="cls-45" x1="1379.27" y1="783.57" x2="1352.79" y2="789.91"/><path class="cls-35" d="M1272.2,861.32h-66.54A6.67,6.67,0,0,0,1199,868v47.69a6.67,6.67,0,0,0,6.65,6.65h14.42V944.5l13.47-22.18h38.66a6.67,6.67,0,0,0,6.65-6.65V868A6.67,6.67,0,0,0,1272.2,861.32Z"/></g><g id="Layer_12" data-name="Layer 12"><rect class="cls-17" x="1240.8" y="51.84" width="879.36" height="234.33"/></g><g id="Layer_11" data-name="Layer 11"><path class="cls-46" d="M598.63,108.16,775.14,115a20.54,20.54,0,0,1,19.73,21.31h0A20.54,20.54,0,0,1,773.56,156l-176.51-6.79Z"/><polygon class="cls-47" points="598.58 109.53 552.15 126.92 597.1 147.84 598.58 109.53"/><polyline class="cls-48" points="597.84 128.68 742.88 134.26 743.67 113.74 742.09 154.79"/><rect class="cls-49" x="742.9" y="114.08" width="18.64" height="39.71" transform="translate(5.71 -28.83) rotate(2.2)"/><path class="cls-50" d="M762.29,114.46l-1.53,39.68,13.83.53a19.56,19.56,0,0,0,20.3-18.8h0a19.56,19.56,0,0,0-18-20.25Z"/><g class="cls-51"><path class="cls-52" d="M1313,65.55s33.85,90.74,202,90.74"/><path class="cls-52" d="M1292,86.55s33.85,90.74,202,90.74"/><circle class="cls-53" cx="1332.84" cy="173.95" r="121.95"/><path class="cls-53" d="M1378,63s-7.41,103.33-137.2,105.16V98s30.85-51.42,111.89-40.21A204.72,204.72,0,0,1,1378,63Z"/><polyline class="cls-53" points="1352.33 171.33 1352.33 226.33 1329.33 226.33"/><path class="cls-53" d="M1350.67,61.67s-21.67,80.67-111,80.67"/><path class="cls-52" d="M1321.76,54.56s-11.42,48.16-83,60.67"/><circle class="cls-17" cx="1394" cy="178.33" r="28"/><circle class="cls-17" cx="1294.33" cy="179" r="28"/><path class="cls-52" d="M1367.67,102.72s24.67,31.61,79.33,31.61"/><path class="cls-54" d="M1296.17,166.17a12.83,12.83,0,0,1,0,25.66"/><path class="cls-54" d="M1392.88,162.24a15.45,15.45,0,0,1,0,30.91"/><path class="cls-55" d="M1442.45,226.63h-36.3a29.36,29.36,0,0,1-7.38-.94h0c-10.7-16.06-11.41-36.85-1-52.66a7.89,7.89,0,0,1,6.59-3.53h34.5S1421.37,197.82,1442.45,226.63Z"/><path class="cls-56" d="M1471.72,153.92c0-38.57,35.27-62.83,73.83-62.83l-4,61.5Z"/><path class="cls-55" d="M1490.71,153.92a63.49,63.49,0,1,1,127,0"/><path class="cls-57" d="M1525.9,152.58a26.41,26.41,0,1,1,52.82,0"/><path class="cls-55" d="M1517.9,244.75h-54.11a51.34,51.34,0,0,1-40.95-19.87,46.19,46.19,0,0,1-7.82-15.47,45.09,45.09,0,0,1-.13-24.66,40,40,0,0,1,15.64-22,44.67,44.67,0,0,1,25.79-8h167.4v90H1517.57"/><path class="cls-56" d="M1541.9,399.47h-23.33l-1-66.67c-2.21-27.15-23.86-88.05-23.86-88.05h24.1S1538.86,255.11,1541.9,399.47Z"/><circle class="cls-58" cx="1521.13" cy="199.75" r="45"/><circle class="cls-58" cx="1623.72" cy="199.75" r="45"/><circle class="cls-17" cx="1623.72" cy="199.75" r="23.42"/><circle class="cls-17" cx="1521.13" cy="199.75" r="23.42"/><path class="cls-54" d="M1522.47,189.55a10.2,10.2,0,1,1,0,20.4"/><line class="cls-59" x1="1608.3" y1="157.32" x2="1534.56" y2="157.32"/><path class="cls-57" d="M1651.09,163.49l17.63-8.74,10.68,15.39L1666,184.27S1663.45,169.66,1651.09,163.49Z"/><path class="cls-55" d="M1598.3,244.75s-18.06,25.39-18.06,81.39v73.33H1535.9V343.13a192.37,192.37,0,0,0-2.74-32.34c-3.11-18.25-8.66-46.92-15.59-66Z"/><polyline class="cls-60" points="1668.72 154.75 1658.53 149.44 1638.73 157.32"/><path class="cls-54" d="M1625.53,189.55a10.2,10.2,0,1,1,0,20.4"/><polygon class="cls-30" points="1897.24 151.34 1921 208.14 1921 234.5 1903.58 234.5 1897.24 151.34"/><path class="cls-30" d="M1843.32,134h23.56a36.47,36.47,0,0,1,36.47,36.47v100a12,12,0,0,1-12,12h-72.5a12,12,0,0,1-12-12v-100A36.47,36.47,0,0,1,1843.32,134Z"/><rect class="cls-61" x="1705.42" y="163.65" width="136.65" height="106.38"/><path class="cls-62" d="M1833.89,137.89l2.36,3.77c12,19.14,32.55,17.34,43-3.77h0"/><line class="cls-30" x1="1856.56" y1="155.94" x2="1856.56" y2="233.03"/><circle class="cls-30" cx="1869.7" cy="169.52" r="4.23"/><circle class="cls-30" cx="1869.7" cy="190.5" r="4.23"/><circle class="cls-30" cx="1869.7" cy="209.83" r="4.23"/><rect class="cls-61" x="1705.42" y="270.03" width="173.81" height="7.44"/><circle class="cls-30" cx="1855.1" cy="90.47" r="34.78"/><path class="cls-62" d="M1801.66,89.54s47.13,16.07,77.45-23.07"/><path class="cls-30" d="M1886.36,75.21a47.6,47.6,0,0,1,9.15,6.62c12.88,11.92,3.84,33.63-13.69,32.82l-.7,0S1894,98.29,1886.36,75.21Z"/><path class="cls-30" d="M1868.62,79.2s3.74,12.31,20.25,11.27"/><path class="cls-30" d="M1778.12,209.59a9.66,9.66,0,1,0-15.93,0,15.89,15.89,0,1,0,15.93,0Z"/><circle class="cls-34" cx="1864.07" cy="95.86" r="4.3" transform="translate(1490.37 1924.6) rotate(-81.39)"/><circle class="cls-34" cx="1835.58" cy="95.86" r="4.3" transform="translate(1466.14 1896.44) rotate(-81.39)"/><polygon class="cls-30" points="1855.1 232.58 1921 209.14 1921 234.32 1855.1 256.92 1855.1 232.58"/><circle class="cls-30" cx="1847.19" cy="244.51" r="15.48"/><rect class="cls-30" x="1931" y="55.7" width="204.5" height="173.34"/><rect class="cls-63" x="1924" y="230.39" width="211" height="17.69"/><rect class="cls-63" x="2029.5" y="252.23" width="6.43" height="52.27"/><circle class="cls-63" cx="2032.72" cy="142.37" r="58.71"/><path class="cls-64" d="M2032.72,142.37l21.63,54.58a58.71,58.71,0,1,1,37.08-54.58Z"/></g><rect class="cls-2" x="1240.8" y="51.84" width="879.36" height="234.33"/><circle class="cls-34" cx="1156.68" cy="919.62" r="5.42"/><circle class="cls-34" cx="1121.71" cy="922.58" r="5.42"/><path class="cls-35" d="M1641.13,22.23h130.7c7.19,0,13.07,3.94,13.07,8.76V93.74c0,4.82-5.88,8.76-13.07,8.76h-28.32v29.19l-26.45-29.19h-75.93c-7.19,0-13.07-3.94-13.07-8.76V31C1628.06,26.17,1633.94,22.23,1641.13,22.23Z"/><polygon class="cls-65" points="934.34 159.52 939.72 204.09 947.45 203.84 940.49 154.5 934.34 159.52"/><path class="cls-65" d="M967.36,69.38,945.15,204.09h7.78L975.66,55S975.31,65.52,967.36,69.38Z"/><path class="cls-66" d="M927.92,204.09h32.49v16.16h0a28.89,28.89,0,0,1,28.89,28.89v35.77H896.63V249.14a28.89,28.89,0,0,1,28.89-28.89h2.4Z"/><path class="cls-65" d="M980.46,63.36c-6.42,5.82-15.09,17.11-5.28,30.06a30,30,0,0,0,12.11,9.34,97.07,97.07,0,0,0,31.29,7.46c2.56.17,5.12.43,7.66.83,4.54.72,10.94,1.94,12.62,3.33L990.25,63.73A7,7,0,0,0,980.46,63.36Z"/><path class="cls-65" d="M991.7,52.37c6.22-6,18-14,30.34-3.33a30,30,0,0,1,8.54,12.69A97.07,97.07,0,0,1,1036,93.43c0,2.57.1,5.14.33,7.69.42,4.58,1.23,11,2.51,12.81L991.43,62.17A7,7,0,0,1,991.7,52.37Z"/><path class="cls-65" d="M979.86,39.87c2.63-8.26,4.46-22.38-10.53-28.64a30,30,0,0,0-15.17-2,97.07,97.07,0,0,0-30.8,9.26c-2.3,1.14-4.64,2.2-7,3.13-4.29,1.66-10.44,3.82-12.58,3.45l67.47,19.39A7,7,0,0,0,979.86,39.87Z"/><path class="cls-65" d="M975.66,55c-2.35,8.34-8.6,21.13-24.56,18.12a30,30,0,0,1-13.76-6.68,97.07,97.07,0,0,1-20.62-24.69c-1.3-2.22-2.66-4.39-4.15-6.48-2.66-3.75-6.61-8.93-8.61-9.81l67,21A7,7,0,0,1,975.66,55Z"/><path class="cls-65" d="M930.44,89.93c-9.15-4.63-25.29-9.42-35.43,6.9a35.48,35.48,0,0,0-5.18,17.33,114.81,114.81,0,0,0,5,37.71c.89,2.9,1.7,5.83,2.33,8.8,1.13,5.32,2.49,12.9,1.66,15.34l35.35-75.13A8.32,8.32,0,0,0,930.44,89.93Z"/><path class="cls-65" d="M947.33,97.69c9.3,4.32,23.06,14,16.53,32.09a35.48,35.48,0,0,1-10.4,14.81A114.81,114.81,0,0,1,920.76,164c-2.83,1.1-5.63,2.28-8.35,3.63-4.88,2.41-11.68,6-13.08,8.2l37.08-74.29A8.32,8.32,0,0,1,947.33,97.69Z"/><path class="cls-65" d="M960,160.19c-4.26,3.86-10,11.36-3.5,19.95a19.91,19.91,0,0,0,8,6.2,64.42,64.42,0,0,0,20.77,4.95c1.7.12,3.4.28,5.08.55,3,.48,7.26,1.29,8.37,2.21L966.5,160.43A4.67,4.67,0,0,0,960,160.19Z"/><path class="cls-65" d="M967.46,152.9c4.13-4,12-9.26,20.13-2.21a19.91,19.91,0,0,1,5.67,8.42,64.42,64.42,0,0,1,3.6,21c0,1.7.06,3.41.22,5.11.28,3,.82,7.33,1.67,8.5L967.28,159.4A4.67,4.67,0,0,1,967.46,152.9Z"/><path class="cls-65" d="M942.69,176.52c-3.36-3.92-9.93-9.26-17.79-3.63a17.85,17.85,0,0,0-5.75,7.05,57.77,57.77,0,0,0-5,18.49c-.15,1.52-.34,3-.62,4.54-.5,2.69-1.33,6.48-2.19,7.45l30.93-28.08A4.18,4.18,0,0,0,942.69,176.52Z"/><circle class="cls-21" cx="1150.73" cy="100.72" r="24"/><path class="cls-67" d="M1154.27,252.92a43,43,0,1,0-6-85.72l.88,12.48a30.46,30.46,0,1,1,4.26,60.76Z"/><polyline class="cls-67" points="1065.31 238.83 1065.04 245.8 1010.21 141.45 999.98 140.22 1022.48 126.72 1022.48 133.47 1067.49 202.83"/><polyline class="cls-67" points="1065.61 233.07 1063.4 278.53 1164.88 278.53 1157.11 152.09 1069.54 152.09 1066.48 215.04"/><path class="cls-67" d="M1114.14,149.64V126.72H1097a25.37,25.37,0,0,0-25.37,25.37h42.56Z"/><line class="cls-67" x1="1048.96" y1="172.32" x2="1068.5" y2="172.32"/><line class="cls-67" x1="1065.61" y1="264.88" x2="1163.25" y2="264.88"/><path class="cls-33" d="M724,104.36h-1a12,12,0,0,0-12,12v12.28l-.55-3v-28a12,12,0,0,0-12-12h-1a12,12,0,0,0-12,12v28h-1v-40a12,12,0,0,0-12-12h-1a12,12,0,0,0-12,12v40h-1V85.53a12,12,0,0,0-12-12h-1a12,12,0,0,0-12,12v53h-.67a12,12,0,0,0-12,12v17a29.1,29.1,0,0,0,25.07,28.72,49.12,49.12,0,0,0,9.42,8.35v45.88h60V204.11A48.78,48.78,0,0,0,736,164.17V116.36A12,12,0,0,0,724,104.36Z"/><line class="cls-68" x1="632.77" y1="138.53" x2="640.95" y2="168.46"/><rect class="cls-33" x="645.95" y="221.5" width="79.59" height="63.57"/><line class="cls-68" x1="651.26" y1="250.53" x2="720.26" y2="250.53"/><path class="cls-69" d="M810.6,175.44H810a6.76,6.76,0,0,0-6.74,6.74v10.89l-.31-1.68V180.66a6.76,6.76,0,0,0-6.74-6.74h-.56a6.76,6.76,0,0,0-6.74,6.74v10.72h-.56V177.93a6.76,6.76,0,0,0-6.74-6.74h-.56a6.76,6.76,0,0,0-6.74,6.74v13.45h-.56V177.87a6.76,6.76,0,0,0-6.74-6.74h-.56a6.76,6.76,0,0,0-6.74,6.74v20.75h-.38a6.76,6.76,0,0,0-6.74,6.74v9.56A16.33,16.33,0,0,0,766.74,231a27.57,27.57,0,0,0,5.29,4.69v25.75H805.7V235.42A27.38,27.38,0,0,0,817.33,213V182.17A6.76,6.76,0,0,0,810.6,175.44Z"/><line class="cls-70" x1="759.4" y1="198.62" x2="763.99" y2="215.42"/><rect class="cls-69" x="766.8" y="245.19" width="44.67" height="35.68"/><line class="cls-70" x1="769.78" y1="261.48" x2="808.51" y2="261.48"/><path class="cls-69" d="M594.73,178.94h-.56a6.76,6.76,0,0,0-6.74,6.74v10.89l-.31-1.68V184.16a6.76,6.76,0,0,0-6.74-6.74h-.56a6.76,6.76,0,0,0-6.74,6.74v10.72h-.56V181.43a6.76,6.76,0,0,0-6.74-6.74h-.56a6.76,6.76,0,0,0-6.74,6.74v13.45h-.56V181.37a6.76,6.76,0,0,0-6.74-6.74h-.56a6.76,6.76,0,0,0-6.74,6.74v20.75h-.38a6.76,6.76,0,0,0-6.74,6.74v9.56a16.33,16.33,0,0,0,14.07,16.12,27.57,27.57,0,0,0,5.29,4.69V265h33.68V238.92a27.38,27.38,0,0,0,11.63-22.41V185.67A6.76,6.76,0,0,0,594.73,178.94Z"/><rect class="cls-69" x="550.93" y="248.69" width="44.67" height="35.68"/><line class="cls-70" x1="553.91" y1="264.98" x2="592.64" y2="264.98"/></g><g id="Layer_10" data-name="Layer 10"><circle class="cls-21" cx="2090.49" cy="461.21" r="8.25"/><circle class="cls-21" cx="2053.36" cy="415.23" r="5.41"/><circle class="cls-21" cx="2062.24" cy="976.68" r="8.25"/><circle class="cls-21" cx="2095.01" cy="982.1" r="5.41"/><circle class="cls-21" cx="1726.95" cy="711" r="5.41"/></g></svg>