<svg xmlns="http://www.w3.org/2000/svg" width="300" height="300" viewBox="0 0 300 300">
  <g fill="none" fill-rule="evenodd">
    <rect width="211.727" height="165" x="44.177" y="110" fill="#ED018C" stroke="#261D3F" stroke-linecap="round" stroke-linejoin="round" stroke-width="3"/>
    <ellipse cx="76.046" cy="134.5" fill="#FFF" rx="3.412" ry="3.5"/>
    <ellipse cx="215.205" cy="129" fill="#FFF" rx="1.814" ry="2"/>
    <ellipse cx="64.785" cy="141.5" fill="#FFF" rx="1.503" ry="1.5"/>
    <g transform="translate(60.492 155)">
      <g transform="matrix(-1 0 0 1 47.899 23)">
        <rect width="45.712" height="95.5" x=".956" y=".667" fill="#372176" stroke="#261D3F" stroke-width="3"/>
        <g fill="#FED636" transform="translate(5.312 47.417)">
          <rect width="6.825" height="6.262" x="29.853"/>
          <rect width="6.825" height="6.262" x="19.782"/>
          <rect width="6.825" height="6.262" x="9.73"/>
          <rect width="6.825" height="6.262"/>
          <rect width="6.825" height="6.262" x="29.853" y="14.104"/>
          <rect width="6.825" height="6.262" x="19.782" y="14.104"/>
          <rect width="6.825" height="6.262" x="9.73" y="14.104"/>
          <rect width="6.825" height="6.262" y="14.104"/>
          <rect width="6.825" height="6.262" x="29.853" y="28.208"/>
          <rect width="6.825" height="6.262" x="19.782" y="28.208"/>
          <rect width="6.825" height="6.262" x="9.73" y="28.208"/>
          <rect width="6.825" height="6.262" y="28.208"/>
        </g>
        <g fill="#FED636" transform="translate(5.312 5.5)">
          <rect width="6.825" height="6.262" x="29.853"/>
          <rect width="6.825" height="6.262" x="19.782"/>
          <rect width="6.825" height="6.262" x="9.73"/>
          <rect width="6.825" height="6.262"/>
          <rect width="6.825" height="6.262" x="29.853" y="14.104"/>
          <rect width="6.825" height="6.262" x="19.782" y="14.104"/>
          <rect width="6.825" height="6.262" x="9.73" y="14.104"/>
          <rect width="6.825" height="6.262" y="14.104"/>
          <rect width="6.825" height="6.262" x="29.853" y="28.208"/>
          <rect width="6.825" height="6.262" x="19.782" y="28.208"/>
          <rect width="6.825" height="6.262" x="9.73" y="28.208"/>
          <rect width="6.825" height="6.262" y="28.208"/>
        </g>
      </g>
      <g transform="matrix(-1 0 0 1 187.899 25)">
        <polygon fill="#372176" stroke="#261D3F" stroke-width="3" points="0 94.713 0 13.635 9.795 0 29.717 0 29.717 94.713"/>
        <rect width="14.451" height="8.708" x="4.93" y="83.949" fill="#FED636"/>
        <rect width="14.451" height="8.708" x="4.93" y="70.886" fill="#FED636"/>
        <rect width="14.451" height="8.708" x="4.93" y="57.824" fill="#FED636"/>
        <rect width="14.451" height="8.708" x="4.93" y="44.761" fill="#FED636"/>
        <rect width="14.451" height="8.708" x="4.93" y="31.699" fill="#FED636"/>
        <rect width="14.451" height="8.708" x="4.93" y="18.636" fill="#FED636"/>
        <rect width="14.451" height="8.708" x="4.93" y="18.636" fill="#FED636"/>
        <polygon fill="#FED636" points="10.901 5.574 25.233 5.574 19.648 14.282 4.93 14.282"/>
      </g>
      <g transform="translate(112.399 .5)">
        <rect width="43.856" height="110" fill="#372176" stroke="#261D3F" stroke-width="3" transform="matrix(-1 0 0 1 43.856 0)"/>
        <rect width="32.892" height="110" x="16.446" fill="#372176" stroke="#261D3F" stroke-width="3" transform="matrix(-1 0 0 1 65.784 0)"/>
        <rect width="3.974" height="14.162" x="23.298" y="7.417" fill="#FED636"/>
        <rect width="3.974" height="14.162" x="23.298" y="26.667" fill="#FED636"/>
        <rect width="3.974" height="14.162" x="23.298" y="45.917" fill="#FED636"/>
        <rect width="3.974" height="14.162" x="23.298" y="65.167" fill="#FED636"/>
        <rect width="3.974" height="14.162" x="38.374" y="7.417" fill="#FED636"/>
        <rect width="3.974" height="14.162" x="38.374" y="26.667" fill="#FED636"/>
        <rect width="3.974" height="14.162" x="38.374" y="45.917" fill="#FED636"/>
        <rect width="3.974" height="14.162" x="38.374" y="65.167" fill="#FED636"/>
        <rect width="3.974" height="14.162" x="30.905" y="7.417" fill="#FED636"/>
        <rect width="3.974" height="14.162" x="30.905" y="26.667" fill="#FED636"/>
        <rect width="3.974" height="14.162" x="30.905" y="45.917" fill="#FED636"/>
        <rect width="3.974" height="14.162" x="30.905" y="65.167" fill="#FED636"/>
      </g>
    </g>
    <path fill="#FFF" stroke="#261D3F" stroke-linecap="round" stroke-width="3" d="M69.4749526 171.327411L82.5393955 171.327411C87.0053326 171.327411 90.6256899 174.947768 90.6256899 179.413706 90.6256899 183.879643 87.0053326 187.5 82.5393955 187.5L41.1513234 187.5C36.6853863 187.5 33.065029 183.879643 33.065029 179.413706 33.065029 178.451497 33.2330893 177.52854 33.5414575 176.672589L20.4770145 176.672589C16.0110774 176.672589 12.3907201 173.052232 12.3907201 168.586294 12.3907201 164.120357 16.0110774 160.5 20.4770145 160.5L61.8650866 160.5C66.3310237 160.5 69.951381 164.120357 69.951381 168.586294 69.951381 169.548503 69.7833208 170.47146 69.4749526 171.327411zM266.458543 153.827411L279.522985 153.827411C283.988923 153.827411 287.60928 157.447768 287.60928 161.913706 287.60928 166.379643 283.988923 170 279.522985 170L238.134913 170C233.668976 170 230.048619 166.379643 230.048619 161.913706 230.048619 160.951497 230.216679 160.02854 230.525047 159.172589L217.460605 159.172589C212.994667 159.172589 209.37431 155.552232 209.37431 151.086294 209.37431 146.620357 212.994667 143 217.460605 143L258.848677 143C263.314614 143 266.934971 146.620357 266.934971 151.086294 266.934971 152.048503 266.766911 152.97146 266.458543 153.827411z"/>
    <g stroke="#261D3F" stroke-linecap="round" stroke-linejoin="round" stroke-width="3" transform="translate(58.54 99)">
      <rect width="67.138" height="65.612" x="57.485" y="110.087" fill="#FFF"/>
      <rect width="46.449" height="45.393" x="11.036" y="130.306" fill="#FFF"/>
      <g fill="#FFF" transform="translate(0 97.6)">
        <path d="M11.036109 32.7053458L11.036109 26.426524 57.4852692 2.84217094e-14 57.4852692 32.7053458 11.036109 32.7053458zM0 32.7053458L11.036109 26.426524 0 32.7053458z"/>
      </g>
      <g fill="#FFF" transform="matrix(-1 0 0 1 182.108 97.5)">
        <path d="M11.036109 32.7053458L11.036109 26.426524 57.4852692 2.84217094e-14 57.4852692 32.7053458 11.036109 32.7053458zM0 32.7053458L11.036109 26.426524 0 32.7053458z"/>
      </g>
      <rect width="25.194" height="25.367" x="24.387" y="150.338" fill="#FFF"/>
      <rect width="25.194" height="6.103" x="24.387" y="150.338" fill="#FFF"/>
      <rect width="5.304" height="5.341" x="34.346" y="139.062" fill="#FFF"/>
      <rect width="46.449" height="45.393" x="124.623" y="130.306" fill="#FFF"/>
      <rect width="67.138" height="59.734" x="57.485" y="50.353" fill="#FFF"/>
      <rect width="25.194" height="25.367" x="132.527" y="150.332" fill="#FFF"/>
      <rect width="5.304" height="5.341" x="142.485" y="139.056" fill="#FFF"/>
      <rect width="25.194" height="6.103" x="132.527" y="150.332" fill="#FFF"/>
      <rect width="5.304" height="9.918" x="88.402" y="115.428" fill="#FFF"/>
      <rect width="67.138" height="16.784" x="57.485" y="27.466" fill="#FFF"/>
      <rect width="39.136" height="5.341" x="71.486" y="33.188" fill="#FFF"/>
      <rect width="76.802" height="6.103" x="52.653" y="44.25" fill="#FFF"/>
      <polygon fill="#FFF" points="91.054 0 139.33 27.466 42.779 27.466"/>
      <g fill="#FFF" transform="translate(76.397 61.748)">
        <ellipse cx="14.567" cy="14.541" rx="13.963" ry="13.945"/>
        <polyline points="6.202 9.335 14.567 14.541 20.766 12.255"/>
      </g>
      <path fill="#FFF" d="M11.036109 124.964288L11.036109 175.699201M16.7580918 125.721525L16.7580918 175.699201M165.529643 125.721525L165.529643 175.699201M63.207252 105.69712L63.207252 175.705298M118.901217 105.69712L118.901217 175.705298M57.4852692 120.386701L57.4852692 175.699201M73.6589616 147.448316C73.7831173 137.959545 81.5236924 130.305704 91.0542347 130.305704 100.584777 130.305704 108.325352 137.959545 108.449508 147.448316L108.451023 175.699201 73.6574468 175.699201 73.6574468 147.448316zM71.4860625 83.7484641C73.7325615 89.7324385 78.6452361 94.4123185 84.7771656 96.3411835 80.112641 96.9327033 75.6510161 98.1746846 71.4860625 99.9733559L71.4860625 95.9738074 71.4860625 83.7484641zM71.4860625 69.0628063L71.4860625 56.837463 83.7114058 56.837463C78.0782985 58.9522398 73.6008393 63.429699 71.4860625 69.0628063zM98.3970637 56.837463L110.622407 56.837463 110.622407 69.0628063C108.50763 63.429699 104.030171 58.9522398 98.3970637 56.837463zM110.622407 83.7484641L110.622407 95.9738074 110.622407 99.9733559C106.457453 98.1746846 101.995829 96.9327033 97.3313039 96.3411835 103.463233 94.4123185 108.375908 89.7324385 110.622407 83.7484641z"/>
      <path d="M110.622407,104.959164 C104.621985,102.36783 98.0057925,100.93196 91.0542347,100.93196 C84.102677,100.93196 77.4864846,102.36783 71.4860625,104.959164 L71.4860625,104.763483 C77.4864837,102.172157 84.1026765,100.736287 91.0542347,100.736287 C98.0057929,100.736287 104.621986,102.172157 110.622408,104.763491 L110.622407,104.959164 Z"/>
      <path fill="#FFF" d="M2.57571742e-14,3.96243066 L6.96465326,0" transform="translate(21.77 119.24)"/>
      <path fill="#FFF" d="M2.57571742e-14,3.96243066 L6.96465326,0" transform="translate(33.89 112.588)"/>
      <path fill="#FFF" d="M2.57571742e-14,3.96243066 L6.96465326,0" transform="translate(46.01 105.51)"/>
      <g fill="#FFF" transform="matrix(-1 0 0 1 160.512 105.51)">
        <path d="M2.57571742e-14,3.96243066 L6.96465326,0" transform="translate(0 13.73)"/>
        <path d="M2.57571742e-14,3.96243066 L6.96465326,0" transform="translate(12.12 7.079)"/>
        <path d="M2.57571742e-14,3.96243066 L6.96465326,0" transform="translate(24.24)"/>
      </g>
    </g>
  </g>
</svg>
