<?xml version="1.0" encoding="utf-8"?>
<!-- Generator: Adobe Illustrator 19.0.0, SVG Export Plug-In . SVG Version: 6.00 Build 0)  -->
<svg version="1.1" id="Layer_1" xmlns="http://www.w3.org/2000/svg" xmlns:xlink="http://www.w3.org/1999/xlink" x="0px" y="0px"
	 viewBox="0 0 1080 1080" style="enable-background:new 0 0 1080 1080;" xml:space="preserve">
<style type="text/css">
	.st0{fill:#EA118D;stroke:#261C3F;stroke-width:12;stroke-linecap:round;stroke-linejoin:round;stroke-miterlimit:10;}
	.st1{clip-path:url(#XMLID_3_);}
	.st2{fill:#362B74;stroke:#261C3F;stroke-width:12;stroke-miterlimit:10;}
	.st3{fill:#FFD635;}
	.st4{fill:#FFFFFF;stroke:#261C3F;stroke-width:12;stroke-linecap:round;stroke-linejoin:round;stroke-miterlimit:10;}
	.st5{fill:none;stroke:#261C3F;stroke-width:12;stroke-linecap:round;stroke-linejoin:round;stroke-miterlimit:10;}
	.st6{fill:#FFFFFF;stroke:#261C3F;stroke-width:13;stroke-linecap:round;stroke-linejoin:round;stroke-miterlimit:10;}
	.st7{fill:#FFFFFF;}
	.st8{fill:#FFFFFF;stroke:#261C3F;stroke-width:13;stroke-miterlimit:10;}
</style>
<g id="XMLID_853_">
	<rect id="XMLID_665_" x="147.8" y="358.3" class="st0" width="815.3" height="627.3"/>
	<g id="XMLID_740_">
		<defs>
			<rect id="XMLID_703_" x="147.6" y="351.9" width="815.3" height="627.3"/>
		</defs>
		<clipPath id="XMLID_3_">
			<use xlink:href="#XMLID_703_"  style="overflow:visible;"/>
		</clipPath>
		<g id="XMLID_722_" class="st1">
			<rect id="XMLID_739_" x="225.7" y="444.9" class="st2" width="190.3" height="716.2"/>
			<rect id="XMLID_738_" x="416" y="444.9" class="st2" width="77.1" height="716.2"/>
			<rect id="XMLID_737_" x="247.7" y="478.9" class="st3" width="30" height="85.9"/>
			<rect id="XMLID_736_" x="295.3" y="478.9" class="st3" width="30" height="85.9"/>
			<rect id="XMLID_735_" x="343.9" y="478.9" class="st3" width="30" height="85.9"/>
			<rect id="XMLID_734_" x="247.7" y="596.6" class="st3" width="30" height="85.9"/>
			<rect id="XMLID_733_" x="295.3" y="596.6" class="st3" width="30" height="85.9"/>
			<rect id="XMLID_732_" x="343.9" y="596.6" class="st3" width="30" height="85.9"/>
			<rect id="XMLID_731_" x="247.7" y="714.3" class="st3" width="30" height="85.9"/>
			<rect id="XMLID_730_" x="295.3" y="714.3" class="st3" width="30" height="85.9"/>
			<rect id="XMLID_729_" x="343.9" y="714.3" class="st3" width="30" height="85.9"/>
			<rect id="XMLID_728_" x="247.7" y="832" class="st3" width="30" height="85.9"/>
			<rect id="XMLID_727_" x="295.3" y="832" class="st3" width="30" height="85.9"/>
			<rect id="XMLID_726_" x="343.9" y="832" class="st3" width="30" height="85.9"/>
			<rect id="XMLID_725_" x="247.7" y="949.8" class="st3" width="30" height="85.9"/>
			<rect id="XMLID_724_" x="295.3" y="949.8" class="st3" width="30" height="85.9"/>
			<rect id="XMLID_723_" x="343.9" y="949.8" class="st3" width="30" height="85.9"/>
		</g>
		<g id="XMLID_704_" class="st1">
			<polygon id="XMLID_721_" class="st2" points="660.4,522.1 552.4,522.1 552.4,494.6 471.4,494.6 471.4,522.2 452.8,522.2 
				452.8,1067.4 642.7,1067.4 642.7,1067.3 705.1,1067.3 705.1,577.7 			"/>
			<polyline id="XMLID_720_" class="st2" points="569.4,522.1 606,584.2 606,1067.3 			"/>
			<rect id="XMLID_719_" x="478.5" y="597.8" class="st3" width="13.6" height="439.6"/>
			<rect id="XMLID_718_" x="516.5" y="597.8" class="st3" width="13.6" height="439.6"/>
			<rect id="XMLID_717_" x="555.9" y="597.8" class="st3" width="13.6" height="439.6"/>
			<rect id="XMLID_716_" x="623.7" y="597.8" class="st3" width="17.6" height="61.9"/>
			<rect id="XMLID_715_" x="623.7" y="786.6" class="st3" width="17.6" height="61.9"/>
			<rect id="XMLID_714_" x="623.7" y="692.2" class="st3" width="17.6" height="61.9"/>
			<rect id="XMLID_713_" x="623.7" y="881" class="st3" width="17.6" height="61.9"/>
			<rect id="XMLID_712_" x="623.7" y="975.4" class="st3" width="17.6" height="61.9"/>
			<rect id="XMLID_711_" x="663.7" y="597.8" class="st3" width="17.6" height="61.9"/>
			<rect id="XMLID_710_" x="663.7" y="786.6" class="st3" width="17.6" height="61.9"/>
			<rect id="XMLID_709_" x="663.7" y="692.2" class="st3" width="17.6" height="61.9"/>
			<rect id="XMLID_708_" x="663.7" y="881" class="st3" width="17.6" height="61.9"/>
			<rect id="XMLID_707_" x="663.7" y="975.4" class="st3" width="17.6" height="61.9"/>
			<rect id="XMLID_706_" x="552.4" y="494.6" class="st2" width="53.7" height="27"/>
			<polygon id="XMLID_705_" class="st3" points="606,543.5 623.7,574.7 681.3,574.7 654.9,543.5 			"/>
		</g>
		<g id="XMLID_741_" class="st1">
			<rect id="XMLID_750_" x="847" y="697.1" class="st2" width="56.4" height="395.5"/>
			<rect id="XMLID_749_" x="715.4" y="697.1" class="st2" width="131.6" height="329.5"/>
			<rect id="XMLID_748_" x="871.3" y="728.4" class="st3" width="10.2" height="297.2"/>
			<path id="XMLID_747_" class="st3" d="M767.9,933H735v-76.9c0-6.8,5.5-12.3,12.3-12.3h8.2c6.8,0,12.3,5.5,12.3,12.3V933z"/>
			<path id="XMLID_746_" class="st3" d="M826.6,933h-32.9v-76.9c0-6.8,5.5-12.3,12.3-12.3h8.2c6.8,0,12.3,5.5,12.3,12.3V933z"/>
			<path id="XMLID_745_" class="st3" d="M767.9,813H735V736c0-6.8,5.5-12.3,12.3-12.3h8.2c6.8,0,12.3,5.5,12.3,12.3V813z"/>
			<path id="XMLID_744_" class="st3" d="M826.6,813h-32.9V736c0-6.8,5.5-12.3,12.3-12.3h8.2c6.8,0,12.3,5.5,12.3,12.3V813z"/>
		</g>
	</g>
	<g id="XMLID_700_">
		<polygon id="XMLID_699_" class="st4" points="521.3,334.3 493.3,781.6 617.3,781.6 589.3,334.3 		"/>
		<rect id="XMLID_698_" x="339.4" y="781.6" class="st4" width="431.9" height="42.3"/>
		<rect id="XMLID_697_" x="468.7" y="288" class="st4" width="173.3" height="46.3"/>
		<rect id="XMLID_696_" x="469.4" y="224" class="st4" width="173.3" height="34.7"/>
		<polygon id="XMLID_695_" class="st4" points="490.2,263.1 498.6,288 610.6,288 620.4,263.1 		"/>
		<line id="XMLID_694_" class="st5" x1="511.7" y1="263.1" x2="519.7" y2="288"/>
		<line id="XMLID_693_" class="st5" x1="539.5" y1="263.1" x2="544.8" y2="288"/>
		<line id="XMLID_692_" class="st5" x1="571.9" y1="263.1" x2="565.3" y2="288"/>
		<line id="XMLID_691_" class="st5" x1="597" y1="263.1" x2="590.4" y2="288"/>
		<path id="XMLID_690_" class="st4" d="M505.9,224c0,0-31.7-44.1,20.4-97.6c12.1-12.4,19-29.2,18.5-46.6c-0.1-2.6-0.3-5.1-0.8-7.5
			c-0.8-4.2,3.8-7.3,7.4-5c27.3,18.1,87.4,69.9,51.8,156.6H505.9z"/>
		<path id="XMLID_689_" class="st4" d="M398.3,823.9c0,0,52,48.1,60,96.2h190.9c0,0,23-78.5,63-96.2H398.3z"/>
		<rect id="XMLID_688_" x="289.4" y="920.1" class="st4" width="531.8" height="20"/>
		<rect id="XMLID_687_" x="244.4" y="940.1" class="st4" width="621.8" height="44"/>
		<rect id="XMLID_686_" x="521.6" y="852.4" class="st4" width="68" height="67.7"/>
		<line id="XMLID_685_" class="st5" x1="493.3" y1="747.5" x2="617.3" y2="747.5"/>
		<line id="XMLID_684_" class="st5" x1="497.8" y1="709.9" x2="565.3" y2="709.9"/>
		<line id="XMLID_683_" class="st5" x1="499.6" y1="680.5" x2="555.5" y2="680.5"/>
	</g>
	<path id="XMLID_743_" class="st6" d="M842.6,542.8c-42.1-1.3-75.2-36.5-73.9-78.7c0.4-13.7,4.5-26.5,11.2-37.4
		c-28.7,10.3-49.6,37.2-50.6,69.5c-1.3,42.1,31.8,77.3,73.9,78.7c28.4,0.9,53.6-13.8,67.5-36.4C861.9,541.6,852.4,543.1,842.6,542.8
		z"/>
	<circle id="XMLID_751_" class="st7" cx="866.2" cy="426.7" r="9.9"/>
	<circle id="XMLID_742_" class="st7" cx="845.8" cy="470.5" r="7.1"/>
	<circle id="XMLID_752_" class="st7" cx="880.6" cy="603.3" r="3.9"/>
	<path id="XMLID_753_" class="st8" d="M324.7,452h-46.5c0.6-2.4,0.9-4.8,0.9-7.4v0c0-16.6-13.6-30.2-30.2-30.2H90.6
		c-16.6,0-30.2,13.6-30.2,30.2v0c0,16.6,13.6,30.2,30.2,30.2h46.5c-0.6,2.4-0.9,4.8-0.9,7.4v0c0,16.6,13.6,30.2,30.2,30.2h158.3
		c16.6,0,30.2-13.6,30.2-30.2v0C354.9,465.6,341.3,452,324.7,452z"/>
</g>
</svg>
