<?xml version="1.0" encoding="utf-8"?>
<!-- Generator: Adobe Illustrator 19.0.0, SVG Export Plug-In . SVG Version: 6.00 Build 0)  -->
<svg version="1.1" id="Layer_1" xmlns="http://www.w3.org/2000/svg" xmlns:xlink="http://www.w3.org/1999/xlink" x="0px" y="0px"
	 viewBox="0 0 1080 1080" style="enable-background:new 0 0 1080 1080;" xml:space="preserve">
<style type="text/css">
	.st0{fill:#EA118D;stroke:#261C3F;stroke-width:12;stroke-linecap:round;stroke-linejoin:round;stroke-miterlimit:10;}
	.st1{clip-path:url(#XMLID_2_);fill:#362B74;stroke:#261C3F;stroke-width:12;stroke-miterlimit:10;}
	.st2{clip-path:url(#XMLID_2_);fill:#FFD635;}
	.st3{clip-path:url(#XMLID_3_);fill:#362B74;stroke:#261C3F;stroke-width:12;stroke-miterlimit:10;}
	.st4{clip-path:url(#XMLID_3_);fill:#FFD635;}
	.st5{fill:#FFD635;}
	.st6{fill:#362B74;stroke:#261C3F;stroke-width:12;stroke-miterlimit:10;}
	.st7{clip-path:url(#XMLID_4_);fill:#362B74;stroke:#261C3F;stroke-width:12;stroke-miterlimit:10;}
	.st8{clip-path:url(#XMLID_4_);fill:#FFD635;}
	.st9{fill:#FFFFFF;stroke:#261C3F;stroke-width:12;stroke-linecap:round;stroke-linejoin:round;stroke-miterlimit:10;}
	.st10{fill:none;stroke:#261C3F;stroke-width:12;stroke-linecap:round;stroke-linejoin:round;stroke-miterlimit:10;}
	.st11{fill:#FFFFFF;stroke:#261C3F;stroke-width:13;stroke-miterlimit:10;}
	.st12{fill:#FFFFFF;}
</style>
<g id="XMLID_411_">
	<rect id="XMLID_410_" x="134.7" y="395.2" class="st0" width="776.9" height="597.7"/>
	<g id="XMLID_391_">
		<defs>
			<rect id="XMLID_392_" x="135.1" y="573.3" width="776.9" height="415.9"/>
		</defs>
		<clipPath id="XMLID_2_">
			<use xlink:href="#XMLID_392_"  style="overflow:visible;"/>
		</clipPath>
		<rect id="XMLID_409_" x="490.8" y="702.2" class="st1" width="110" height="288.1"/>
		<rect id="XMLID_408_" x="446.3" y="702.2" class="st1" width="44.6" height="288.1"/>
		<rect id="XMLID_407_" x="570.8" y="715.9" class="st2" width="17.4" height="34.6"/>
		<rect id="XMLID_406_" x="543.2" y="715.9" class="st2" width="17.4" height="34.6"/>
		<rect id="XMLID_405_" x="515.2" y="715.9" class="st2" width="17.4" height="34.6"/>
		<rect id="XMLID_404_" x="570.8" y="763.3" class="st2" width="17.4" height="34.6"/>
		<rect id="XMLID_403_" x="543.2" y="763.3" class="st2" width="17.4" height="34.6"/>
		<rect id="XMLID_402_" x="515.2" y="763.3" class="st2" width="17.4" height="34.6"/>
		<rect id="XMLID_401_" x="570.8" y="810.6" class="st2" width="17.4" height="34.6"/>
		<rect id="XMLID_400_" x="543.2" y="810.6" class="st2" width="17.4" height="34.6"/>
		<rect id="XMLID_399_" x="515.2" y="810.6" class="st2" width="17.4" height="34.6"/>
		<rect id="XMLID_398_" x="570.8" y="858" class="st2" width="17.4" height="34.6"/>
		<rect id="XMLID_397_" x="543.2" y="858" class="st2" width="17.4" height="34.6"/>
		<rect id="XMLID_396_" x="515.2" y="858" class="st2" width="17.4" height="34.6"/>
		<rect id="XMLID_395_" x="570.8" y="905.3" class="st2" width="17.4" height="34.6"/>
		<rect id="XMLID_394_" x="543.2" y="905.3" class="st2" width="17.4" height="34.6"/>
		<rect id="XMLID_393_" x="515.2" y="905.3" class="st2" width="17.4" height="34.6"/>
	</g>
	<g id="XMLID_372_">
		<defs>
			<rect id="XMLID_373_" x="134.7" y="395.2" width="776.9" height="597.7"/>
		</defs>
		<clipPath id="XMLID_3_">
			<use xlink:href="#XMLID_373_"  style="overflow:visible;"/>
		</clipPath>
		<rect id="XMLID_390_" x="174.4" y="573.3" class="st3" width="110" height="414"/>
		<rect id="XMLID_389_" x="284.4" y="573.3" class="st3" width="44.6" height="414"/>
		<rect id="XMLID_388_" x="187.2" y="593" class="st4" width="17.4" height="49.7"/>
		<rect id="XMLID_387_" x="214.7" y="593" class="st4" width="17.4" height="49.7"/>
		<rect id="XMLID_386_" x="242.7" y="593" class="st4" width="17.4" height="49.7"/>
		<rect id="XMLID_385_" x="187.2" y="661.1" class="st4" width="17.4" height="49.7"/>
		<rect id="XMLID_384_" x="214.7" y="661.1" class="st4" width="17.4" height="49.7"/>
		<rect id="XMLID_383_" x="242.7" y="661.1" class="st4" width="17.4" height="49.7"/>
		<rect id="XMLID_382_" x="187.2" y="729.1" class="st4" width="17.4" height="49.7"/>
		<rect id="XMLID_381_" x="214.7" y="729.1" class="st4" width="17.4" height="49.7"/>
		<rect id="XMLID_380_" x="242.7" y="729.1" class="st4" width="17.4" height="49.7"/>
		<rect id="XMLID_379_" x="187.2" y="797.2" class="st4" width="17.4" height="49.7"/>
		<rect id="XMLID_378_" x="214.7" y="797.2" class="st4" width="17.4" height="49.7"/>
		<rect id="XMLID_377_" x="242.7" y="797.2" class="st4" width="17.4" height="49.7"/>
		<rect id="XMLID_376_" x="187.2" y="865.2" class="st4" width="17.4" height="49.7"/>
		<rect id="XMLID_375_" x="214.7" y="865.2" class="st4" width="17.4" height="49.7"/>
		<rect id="XMLID_374_" x="242.7" y="865.2" class="st4" width="17.4" height="49.7"/>
	</g>
	<g id="XMLID_352_">
		<rect id="XMLID_371_" x="813.2" y="593" class="st5" width="15" height="52.8"/>
		<rect id="XMLID_370_" x="813.2" y="673.4" class="st5" width="15" height="52.8"/>
		<rect id="XMLID_369_" x="847.2" y="593" class="st5" width="15" height="52.8"/>
		<rect id="XMLID_368_" x="847.2" y="673.4" class="st5" width="15" height="52.8"/>
		<rect id="XMLID_367_" x="752.4" y="505.1" class="st6" width="45.7" height="23"/>
		<polygon id="XMLID_366_" class="st5" points="798.1,546.7 813.2,573.3 862.3,573.3 839.7,546.7 		"/>
		<g id="XMLID_353_">
			<defs>
				<rect id="XMLID_354_" x="134.7" y="395.2" width="776.9" height="597.7"/>
			</defs>
			<clipPath id="XMLID_4_">
				<use xlink:href="#XMLID_354_"  style="overflow:visible;"/>
			</clipPath>
			<polygon id="XMLID_365_" class="st7" points="844.5,528.5 752.4,528.5 752.4,505.1 683.5,505.1 683.5,528.6 667.6,528.6 
				667.6,992.9 829.4,992.9 829.4,992.9 882.5,992.9 882.5,575.8 			"/>
			<polyline id="XMLID_364_" class="st7" points="766.9,528.5 798.1,581.4 798.1,992.9 			"/>
			<rect id="XMLID_363_" x="689.5" y="593" class="st8" width="11.6" height="374.4"/>
			<rect id="XMLID_362_" x="721.9" y="593" class="st8" width="11.6" height="374.4"/>
			<rect id="XMLID_361_" x="755.4" y="593" class="st8" width="11.6" height="374.4"/>
			<rect id="XMLID_360_" x="813.2" y="753.8" class="st8" width="15" height="52.8"/>
			<rect id="XMLID_359_" x="813.2" y="834.2" class="st8" width="15" height="52.8"/>
			<rect id="XMLID_358_" x="813.2" y="914.6" class="st8" width="15" height="52.8"/>
			<rect id="XMLID_357_" x="847.2" y="753.8" class="st8" width="15" height="52.8"/>
			<rect id="XMLID_356_" x="847.2" y="834.2" class="st8" width="15" height="52.8"/>
			<rect id="XMLID_355_" x="847.2" y="914.6" class="st8" width="15" height="52.8"/>
		</g>
	</g>
	<g id="XMLID_300_">
		<path id="XMLID_351_" class="st9" d="M298.3,224c0-26.1,21.1-47.2,47.2-47.2c26.1,0,47.2,21.1,47.2,47.2"/>
		<rect id="XMLID_350_" x="248.9" y="476.7" class="st9" width="195.6" height="515.8"/>
		<rect id="XMLID_349_" x="269" y="365" class="st9" width="149.9" height="111.8"/>
		<rect id="XMLID_348_" x="291.9" y="283.7" class="st9" width="104.1" height="81.3"/>
		<rect id="XMLID_347_" x="291.9" y="230.3" class="st9" width="104.1" height="53.3"/>
		<line id="XMLID_346_" class="st10" x1="316.5" y1="283.7" x2="316.5" y2="365"/>
		<line id="XMLID_345_" class="st10" x1="337.6" y1="287.9" x2="337.6" y2="360.7"/>
		<line id="XMLID_344_" class="st10" x1="297" y1="371.7" x2="297" y2="470.8"/>
		<line id="XMLID_343_" class="st10" x1="330" y1="230.3" x2="330" y2="280.3"/>
		<line id="XMLID_342_" class="st10" x1="330" y1="374.3" x2="330" y2="473.3"/>
		<line id="XMLID_341_" class="st10" x1="316.5" y1="476.7" x2="316.5" y2="639.3"/>
		<line id="XMLID_340_" class="st10" x1="281.7" y1="476.7" x2="281.7" y2="992.5"/>
		<rect id="XMLID_339_" x="308.6" y="639.3" class="st10" width="76.2" height="353.2"/>
		<rect id="XMLID_338_" x="444.5" y="648.2" class="st9" width="154.7" height="54.6"/>
		<line id="XMLID_337_" class="st10" x1="316.5" y1="697.7" x2="379.5" y2="697.7"/>
		<line id="XMLID_336_" class="st10" x1="345.5" y1="176.8" x2="345.5" y2="90.8"/>
		<line id="XMLID_335_" class="st10" x1="316.5" y1="730.3" x2="384.8" y2="730.3"/>
		<line id="XMLID_334_" class="st10" x1="316.5" y1="762.8" x2="384.8" y2="762.8"/>
		<line id="XMLID_333_" class="st10" x1="316.5" y1="795.3" x2="384.8" y2="795.3"/>
		<line id="XMLID_332_" class="st10" x1="316.5" y1="827.9" x2="384.8" y2="827.9"/>
		<line id="XMLID_331_" class="st10" x1="316.5" y1="860.4" x2="384.8" y2="860.4"/>
		<line id="XMLID_330_" class="st10" x1="316.5" y1="893" x2="384.8" y2="893"/>
		<line id="XMLID_329_" class="st10" x1="316.5" y1="925.5" x2="384.8" y2="925.5"/>
		<line id="XMLID_328_" class="st10" x1="316.5" y1="958" x2="384.8" y2="958"/>
		<path id="XMLID_327_" class="st9" d="M748.1,218.9c0-26.1-21.1-47.2-47.2-47.2s-47.2,21.1-47.2,47.2"/>
		<rect id="XMLID_326_" x="601.8" y="471.6" class="st9" width="195.6" height="515.8"/>
		<rect id="XMLID_325_" x="627.4" y="359.8" class="st9" width="149.9" height="111.8"/>
		<rect id="XMLID_324_" x="650.3" y="278.5" class="st9" width="104.1" height="81.3"/>
		<rect id="XMLID_323_" x="650.3" y="225.2" class="st9" width="104.1" height="53.3"/>
		<line id="XMLID_322_" class="st10" x1="729.9" y1="278.5" x2="729.9" y2="359.8"/>
		<line id="XMLID_321_" class="st10" x1="708.7" y1="282.7" x2="708.7" y2="355.6"/>
		<line id="XMLID_320_" class="st10" x1="749.4" y1="366.6" x2="749.4" y2="465.6"/>
		<line id="XMLID_319_" class="st10" x1="716.3" y1="225.2" x2="716.3" y2="275.1"/>
		<line id="XMLID_318_" class="st10" x1="716.3" y1="369.1" x2="716.3" y2="468.2"/>
		<line id="XMLID_317_" class="st10" x1="729.9" y1="471.6" x2="729.9" y2="634.1"/>
		<line id="XMLID_316_" class="st10" x1="764.6" y1="471.6" x2="764.6" y2="987.3"/>
		<rect id="XMLID_315_" x="661.5" y="634.1" class="st10" width="76.2" height="353.2"/>
		<line id="XMLID_314_" class="st10" x1="729.9" y1="692.6" x2="666.8" y2="692.6"/>
		<line id="XMLID_313_" class="st10" x1="700.9" y1="171.7" x2="700.9" y2="85.7"/>
		<line id="XMLID_312_" class="st10" x1="729.9" y1="725.1" x2="661.5" y2="725.1"/>
		<line id="XMLID_311_" class="st10" x1="729.9" y1="757.6" x2="661.5" y2="757.6"/>
		<line id="XMLID_310_" class="st10" x1="729.9" y1="790.2" x2="661.5" y2="790.2"/>
		<line id="XMLID_309_" class="st10" x1="729.9" y1="822.7" x2="661.5" y2="822.7"/>
		<line id="XMLID_308_" class="st10" x1="729.9" y1="855.2" x2="661.5" y2="855.2"/>
		<line id="XMLID_307_" class="st10" x1="729.9" y1="887.8" x2="661.5" y2="887.8"/>
		<line id="XMLID_306_" class="st10" x1="729.9" y1="920.3" x2="661.5" y2="920.3"/>
		<line id="XMLID_305_" class="st10" x1="729.9" y1="952.9" x2="661.5" y2="952.9"/>
		<line id="XMLID_304_" class="st10" x1="521.9" y1="648.2" x2="521.9" y2="692.6"/>
		<line id="XMLID_303_" class="st10" x1="500.3" y1="675.5" x2="542.6" y2="675.5"/>
		<line id="XMLID_302_" class="st10" x1="444.5" y1="810.7" x2="521.9" y2="692.6"/>
		<line id="XMLID_301_" class="st10" x1="599.3" y1="821.9" x2="521.9" y2="703.7"/>
	</g>
	<path id="XMLID_299_" class="st11" d="M1015.2,664.6h-44.3c0.6-2.3,0.9-4.6,0.9-7v0c0-15.8-13-28.8-28.8-28.8H792.2
		c-15.8,0-28.8,13-28.8,28.8v0c0,15.8,13,28.8,28.8,28.8h44.3c-0.6,2.3-0.9,4.6-0.9,7v0c0,15.8,13,28.8,28.8,28.8h150.8
		c15.8,0,28.8-13,28.8-28.8v0C1044,677.6,1031,664.6,1015.2,664.6z"/>
	<path id="XMLID_298_" class="st11" d="M287.7,882.1h-44.3c0.6-2.3,0.9-4.6,0.9-7l0,0c0-15.8-13-28.8-28.8-28.8H64.7
		c-15.8,0-28.8,13-28.8,28.8l0,0c0,15.8,13,28.8,28.8,28.8H109c-0.6,2.3-0.9,4.6-0.9,7v0c0,15.8,13,28.8,28.8,28.8h150.8
		c15.8,0,28.8-13,28.8-28.8v0C316.5,895,303.5,882.1,287.7,882.1z"/>
	<circle id="XMLID_297_" class="st12" cx="503.2" cy="552.8" r="18.2"/>
	<circle id="XMLID_296_" class="st12" cx="200.2" cy="472.5" r="10.1"/>
	<circle id="XMLID_294_" class="st12" cx="552.6" cy="506.4" r="6.8"/>
</g>
</svg>
