<?xml version="1.0" standalone="no"?>
<!DOCTYPE svg PUBLIC "-//W3C//DTD SVG 20010904//EN"
 "http://www.w3.org/TR/2001/REC-SVG-20010904/DTD/svg10.dtd">
<svg version="1.0" xmlns="http://www.w3.org/2000/svg"
 width="1024.000000pt" height="351.000000pt" viewBox="0 0 1024.000000 351.000000"
 preserveAspectRatio="xMidYMid meet">
<metadata>
Created by potrace 1.15, written by Peter Selinger 2001-2017
</metadata>
<g transform="translate(0.000000,351.000000) scale(0.100000,-0.100000)"
fill="#000000" stroke="none">
<path d="M956 3308 c-13 -13 -37 -32 -52 -43 -15 -11 -49 -41 -77 -67 -27 -27
-53 -48 -58 -48 -5 0 -9 -5 -9 -10 0 -6 -29 -41 -65 -77 -36 -36 -63 -68 -61
-70 2 -3 -3 -12 -12 -22 -43 -44 -82 -96 -82 -108 0 -8 -4 -11 -10 -8 -5 3
-12 -6 -16 -20 -3 -14 -11 -29 -18 -33 -20 -13 -52 -56 -36 -48 12 6 12 5 -1
-6 -8 -7 -18 -21 -22 -30 -3 -10 -11 -18 -16 -18 -5 0 -13 -14 -16 -31 -5 -23
-9 -28 -16 -18 -7 11 -9 9 -9 -8 0 -12 -6 -28 -13 -35 -8 -7 -12 -19 -9 -27 3
-8 0 -11 -5 -8 -6 4 -13 -8 -17 -26 -5 -23 -9 -28 -15 -18 -6 9 -11 1 -16 -28
-4 -23 -12 -47 -19 -54 -7 -7 -16 -25 -20 -41 -4 -16 -14 -35 -21 -43 -8 -8
-15 -24 -15 -36 0 -17 -2 -19 -9 -8 -6 10 -10 5 -15 -18 -3 -17 -9 -44 -12
-61 -3 -16 -10 -30 -14 -30 -5 0 -6 -7 -3 -17 4 -11 3 -14 -5 -9 -8 5 -12 -2
-12 -19 0 -14 -4 -24 -9 -21 -4 3 -6 -6 -3 -21 3 -16 1 -24 -5 -20 -6 4 -13
-14 -18 -46 -5 -39 -9 -47 -15 -32 -5 14 -9 -2 -15 -50 -6 -53 -10 -65 -16
-50 -7 14 -8 8 -4 -20 4 -29 3 -36 -4 -25 -8 11 -11 4 -11 -30 0 -33 -3 -41
-10 -30 -8 13 -10 13 -10 -2 0 -9 -3 -25 -6 -35 -5 -15 -4 -15 5 -3 9 12 11
10 11 -13 0 -16 -4 -26 -9 -23 -8 5 -20 -56 -22 -118 l-1 -31 -7 30 c-4 17 -8
-75 -8 -202 0 -128 3 -230 8 -228 4 3 11 -17 15 -45 5 -36 10 -48 16 -38 7 9
8 4 3 -15 -3 -17 -2 -26 4 -23 5 3 12 -11 16 -31 4 -25 9 -32 15 -23 5 9 10 3
15 -19 4 -17 10 -29 15 -26 4 3 11 -6 14 -20 4 -14 10 -25 15 -25 4 0 21 -20
36 -45 16 -24 31 -43 33 -40 2 2 17 -10 33 -26 15 -16 32 -29 36 -29 13 0 42
-38 35 -45 -4 -3 2 -3 12 1 14 5 17 4 12 -4 -4 -7 -1 -12 9 -12 9 0 14 -4 11
-9 -4 -5 3 -7 14 -4 12 3 22 -1 26 -11 3 -9 13 -16 21 -16 8 0 11 -5 7 -11 -4
-8 0 -9 15 -4 12 3 21 2 21 -4 0 -5 14 -13 31 -16 21 -5 27 -10 19 -15 -7 -4
7 -10 34 -14 25 -4 46 -11 46 -16 0 -4 31 -14 70 -21 38 -6 67 -15 65 -20 -3
-4 39 -11 92 -15 68 -5 90 -10 73 -15 -14 -4 37 -7 113 -8 75 -1 137 3 137 8
0 5 36 12 80 16 44 4 80 11 80 15 0 5 34 14 76 21 48 9 69 16 57 20 -12 4 -3
9 31 14 27 4 43 11 36 15 -7 4 7 12 35 19 25 6 43 16 40 21 -3 6 1 10 10 10 9
0 13 5 9 11 -4 8 1 9 16 4 14 -5 20 -3 16 3 -3 6 8 15 25 21 17 6 28 15 24 20
-3 6 6 13 20 17 13 3 22 10 19 15 -3 5 0 9 7 9 7 0 28 17 47 38 19 20 31 30
28 22 -4 -8 -1 -6 6 4 7 11 21 28 31 38 9 10 17 22 17 27 0 6 15 24 33 42 17
17 25 28 17 24 -9 -4 -9 -1 3 8 9 8 17 20 17 26 0 7 4 10 10 6 5 -3 14 13 20
35 6 22 15 38 21 35 5 -4 9 -3 7 2 -1 4 4 34 12 67 10 44 16 54 21 40 5 -12 8
1 8 36 1 30 5 50 9 44 4 -7 7 41 7 107 0 65 -3 111 -7 101 -4 -9 -7 7 -7 36
-1 33 -5 51 -11 47 -5 -3 -10 0 -11 7 -1 44 -27 208 -29 188 -3 -33 -18 38
-20 95 -2 34 -3 36 -9 15 -7 -21 -9 -15 -16 33 -4 31 -12 57 -17 57 -5 0 -6 5
-3 10 4 6 2 16 -3 23 -6 7 -14 30 -18 52 -4 22 -11 43 -16 46 -5 3 -12 25 -15
47 -3 23 -9 40 -13 37 -4 -2 -5 8 -3 23 3 19 2 23 -5 14 -7 -10 -11 -2 -16 27
-3 23 -11 41 -16 41 -6 0 -10 5 -10 11 0 5 4 7 10 4 6 -3 7 1 4 9 -3 9 -10 13
-15 10 -5 -3 -9 4 -9 14 0 11 -6 25 -14 31 -8 7 -17 30 -21 52 -4 21 -11 37
-15 34 -5 -3 -12 10 -16 30 -3 19 -11 32 -16 29 -6 -4 -7 2 -3 16 5 14 3 20
-3 16 -6 -3 -13 7 -17 23 -3 16 -12 32 -20 35 -8 3 -17 21 -21 40 -3 20 -9 34
-13 32 -3 -2 -15 8 -25 22 -12 15 -14 22 -5 17 8 -5 -1 9 -18 32 -18 22 -33
45 -33 51 0 5 -7 12 -15 16 -8 3 -15 12 -15 20 0 9 -10 25 -22 37 -13 12 -17
18 -9 14 9 -5 7 2 -5 17 -10 14 -22 24 -26 22 -4 -2 -9 4 -12 13 -3 10 -21 35
-38 55 -18 20 -42 49 -53 64 -28 39 -123 134 -134 134 -5 0 -11 7 -15 15 -3 8
-13 15 -21 15 -9 0 -14 4 -10 9 3 5 -3 12 -14 16 -11 3 -22 12 -25 20 -3 8
-11 15 -17 15 -6 0 -22 11 -35 25 -30 33 -83 34 -118 3z m251 -1971 c-1 -248
-2 -45 -2 453 0 498 1 701 2 452 2 -248 2 -656 0 -905z m-390 -423 c-6 -7
-127 18 -127 26 0 4 -15 11 -34 14 -19 4 -36 10 -38 14 -2 4 -23 18 -48 31
-65 35 -123 85 -156 134 -16 23 -32 43 -36 45 -4 2 -4 10 -1 19 4 11 2 14 -5
9 -8 -5 -12 0 -12 14 0 14 -4 19 -12 14 -7 -5 -9 -2 -5 9 3 9 1 17 -5 19 -15
5 -22 174 -8 243 6 33 11 76 11 95 0 29 1 31 9 15 7 -17 9 -16 9 11 1 17 4 53
8 80 6 42 8 45 14 24 6 -22 7 -21 8 10 1 19 4 53 8 75 5 30 8 35 13 20 5 -13
9 3 14 45 5 47 10 60 17 49 7 -10 8 -4 4 19 -4 18 -2 32 3 32 5 0 12 19 16 42
5 28 10 38 15 29 6 -8 11 2 15 32 4 25 13 48 21 51 8 3 15 16 15 28 0 38 12
71 20 58 5 -8 11 5 15 30 5 32 10 39 17 29 7 -10 8 -8 5 9 -3 12 -1 22 4 22 5
0 9 7 9 16 0 8 5 12 11 8 8 -4 9 0 4 15 -3 12 -2 21 4 21 5 0 12 13 16 30 4
16 11 32 16 35 5 4 6 -2 4 -12 -3 -10 -1 -7 6 7 6 14 15 32 20 40 5 8 15 26
22 40 13 27 24 42 48 68 9 9 20 27 23 40 5 13 12 20 19 16 7 -4 9 -4 5 1 -4 4
-2 17 5 29 9 17 13 -164 15 -863 1 -486 1 -886 -1 -887z m453 1676 c0 -6 5
-10 12 -10 6 0 8 -3 5 -7 -4 -3 -1 -13 6 -21 6 -8 18 -31 24 -51 7 -20 11 -26
9 -13 -2 12 0 20 5 17 4 -3 11 -21 15 -40 3 -19 10 -33 14 -30 5 3 11 -8 15
-25 4 -18 11 -27 17 -24 7 5 9 0 6 -12 -3 -11 1 -25 9 -32 7 -7 13 -22 13 -33
0 -13 4 -18 12 -13 8 5 9 0 6 -14 -4 -12 -2 -20 3 -16 5 3 9 -7 9 -23 0 -21 3
-24 9 -14 7 11 13 -3 22 -47 7 -34 16 -57 20 -51 3 6 10 -6 14 -27 4 -22 11
-42 17 -45 5 -3 12 -25 15 -47 3 -23 9 -39 14 -36 5 3 6 -10 3 -28 -5 -26 -3
-30 6 -18 9 12 11 9 8 -17 -3 -18 -1 -30 4 -27 4 3 8 -4 8 -15 0 -12 5 -21 11
-21 8 0 10 -13 6 -37 -5 -26 -3 -33 3 -23 7 11 10 3 11 -30 0 -36 2 -41 10
-25 7 16 8 14 5 -12 -3 -17 -1 -33 5 -35 6 -2 13 -42 17 -88 4 -60 8 -76 12
-55 5 24 8 15 14 -40 4 -38 11 -78 16 -87 13 -22 13 -44 1 -66 -6 -9 -13 -34
-16 -54 -3 -21 -10 -38 -15 -38 -6 0 -10 -7 -10 -15 0 -23 -22 -65 -31 -59 -5
3 -9 0 -9 -7 0 -6 -10 -22 -22 -35 -13 -12 -32 -33 -44 -46 -59 -65 -199 -153
-271 -172 -13 -3 -32 -9 -43 -12 -20 -5 -20 -1 -20 877 l0 882 25 -37 c14 -20
25 -41 25 -46z"/>
<path d="M2826 2931 c-3 -5 -27 -12 -53 -16 -49 -7 -143 -44 -143 -56 0 -4
-11 -10 -25 -13 -30 -8 -49 -23 -127 -101 -32 -33 -61 -70 -64 -82 -4 -13 -10
-23 -14 -23 -5 0 -11 -14 -15 -30 -4 -17 -11 -27 -17 -24 -6 4 -8 -2 -3 -16 5
-15 4 -20 -4 -16 -7 5 -11 -7 -12 -36 0 -26 -3 -36 -7 -26 -4 10 -7 -47 -7
-126 0 -79 3 -139 7 -133 7 11 12 -14 11 -50 -1 -7 3 -10 8 -7 5 2 14 -16 20
-40 6 -25 15 -43 20 -40 5 3 9 -1 9 -9 0 -8 8 -23 18 -35 19 -23 45 -56 68
-87 9 -11 12 -13 8 -5 -3 8 6 1 22 -16 16 -16 37 -33 47 -37 10 -4 16 -11 13
-16 -4 -5 8 -12 25 -16 17 -4 33 -13 36 -21 3 -8 12 -14 20 -14 8 0 11 -5 7
-11 -4 -8 1 -9 16 -4 14 4 20 3 16 -3 -3 -5 8 -12 25 -16 17 -3 28 -10 25 -15
-3 -5 13 -12 36 -15 26 -4 38 -10 30 -15 -7 -4 13 -12 48 -19 33 -7 60 -17 60
-22 0 -6 7 -10 16 -10 8 0 13 -4 10 -9 -4 -5 4 -7 16 -4 19 4 20 3 8 -6 -13
-9 -11 -11 7 -11 12 0 28 -7 36 -15 8 -8 17 -11 20 -8 3 3 17 -4 31 -15 14
-10 22 -22 19 -26 -3 -3 -2 -6 4 -6 14 0 72 -57 65 -64 -3 -3 -1 -6 4 -6 29 0
49 -77 45 -171 -2 -49 -72 -120 -147 -148 -57 -22 -154 -28 -154 -11 0 6 -15
10 -32 10 -18 0 -46 7 -62 15 -15 8 -33 15 -39 15 -16 0 -182 81 -185 91 -2 5
-12 9 -22 9 -9 0 -23 7 -30 14 -6 8 -26 23 -43 34 -30 17 -34 17 -62 2 -17 -9
-37 -30 -46 -48 -9 -17 -19 -29 -22 -26 -3 3 -11 -13 -17 -35 -6 -24 -15 -39
-21 -35 -6 3 -9 0 -8 -7 3 -21 -12 -50 -23 -43 -6 4 -7 -2 -3 -16 5 -15 4 -20
-4 -16 -7 5 -11 -4 -11 -24 0 -18 4 -29 10 -25 5 3 7 0 4 -9 -3 -9 2 -17 15
-21 12 -3 19 -11 16 -16 -4 -5 0 -9 7 -9 18 0 80 -45 72 -52 -2 -3 2 -8 11
-12 9 -3 13 -2 10 4 -3 6 -1 10 4 10 6 0 11 -4 11 -10 0 -5 11 -12 25 -16 14
-3 22 -10 19 -15 -3 -5 -2 -9 3 -7 15 3 93 -23 93 -31 0 -5 20 -12 45 -15 25
-4 45 -11 45 -16 0 -4 23 -11 50 -15 28 -4 48 -10 45 -15 -8 -12 90 -20 250
-19 126 0 266 12 215 19 -24 3 20 18 55 19 24 1 27 3 15 12 -12 9 -11 10 8 6
12 -3 20 -1 16 4 -3 5 2 9 10 9 9 0 16 5 16 10 0 11 49 35 63 31 5 -1 5 3 2 9
-4 7 2 14 14 17 12 3 21 12 21 20 0 8 3 12 8 10 4 -3 13 1 20 9 7 8 10 14 6
14 -4 0 2 9 14 20 12 12 22 25 22 31 0 6 4 8 9 5 4 -3 14 13 21 35 9 27 16 36
22 27 5 -9 8 -3 8 15 0 16 4 26 9 23 4 -3 6 6 3 19 -2 14 0 25 6 25 6 0 8 9 5
20 -3 11 0 20 6 20 6 0 11 18 11 43 0 31 3 38 10 27 7 -10 10 7 10 58 0 41 -4
72 -10 72 -5 0 -10 15 -10 34 0 19 -4 38 -10 41 -5 3 -10 14 -10 23 0 15 2 15
10 2 7 -10 10 -11 10 -2 0 7 -7 15 -15 18 -8 3 -17 21 -21 40 -3 19 -10 32
-14 29 -4 -3 -10 5 -14 18 -6 26 -52 83 -111 139 -22 21 -47 45 -56 53 -9 8
-19 15 -23 15 -6 0 -64 38 -76 50 -7 7 -56 33 -190 101 -63 32 -121 63 -127
69 -7 6 -13 8 -13 5 0 -6 -37 12 -54 27 -6 4 -22 17 -35 28 -13 11 -30 20 -37
20 -7 0 -18 9 -24 20 -6 11 -17 20 -24 20 -7 0 -19 11 -26 25 -7 14 -17 25
-21 25 -4 0 -5 10 -2 23 4 17 2 19 -5 8 -8 -11 -12 -3 -17 31 -9 56 2 118 17
97 7 -10 8 -8 5 9 -3 12 -2 22 3 22 4 0 10 9 13 20 3 11 13 20 22 20 9 0 13 4
10 10 -3 5 6 12 20 16 14 3 25 11 25 17 0 6 3 7 7 4 3 -4 11 -3 17 2 13 11 50
14 131 11 49 -2 55 -4 35 -11 -19 -6 -13 -8 23 -4 26 3 46 1 43 -4 -3 -5 16
-12 42 -16 36 -6 42 -9 27 -15 -15 -5 -8 -9 29 -14 37 -6 46 -10 35 -18 -11
-7 -9 -9 9 -5 12 3 22 1 22 -4 0 -5 7 -9 16 -9 9 0 12 -5 8 -12 -4 -7 -3 -8 5
-4 6 4 18 0 27 -8 8 -9 22 -16 30 -16 8 0 13 -4 10 -9 -6 -9 25 -21 55 -21 21
0 75 50 83 78 4 12 12 20 17 17 5 -4 9 0 9 8 0 8 9 24 20 37 11 13 20 29 20
37 0 7 7 16 15 19 11 5 15 22 15 62 0 30 -2 53 -5 50 -3 -3 -19 7 -36 23 -16
15 -40 31 -52 35 -11 4 -27 13 -35 20 -7 8 -22 14 -31 14 -10 0 -24 7 -31 15
-7 8 -19 15 -27 15 -7 0 -31 9 -53 20 -22 11 -48 20 -60 20 -11 0 -20 5 -20
11 0 7 -10 9 -25 7 -14 -3 -28 -2 -31 3 -2 4 -32 11 -65 15 -32 4 -62 11 -65
15 -7 12 -211 12 -218 0z"/>
<path d="M7677 2890 c-15 -12 -27 -30 -27 -41 0 -10 -4 -19 -10 -19 -6 0 -10
-116 -11 -327 0 -181 -3 -322 -6 -315 -2 6 -11 12 -19 12 -8 0 -14 5 -14 11 0
6 -7 9 -15 5 -8 -3 -15 -1 -15 4 0 4 -15 12 -32 15 -18 4 -39 12 -47 19 -19
15 -329 15 -362 0 -13 -7 -46 -20 -72 -29 -26 -9 -71 -32 -99 -51 -27 -19 -53
-34 -57 -34 -15 0 -152 -153 -169 -187 -9 -21 -23 -44 -29 -51 -7 -7 -13 -21
-13 -30 0 -15 -2 -15 -11 -2 -9 12 -10 11 -6 -7 3 -13 1 -26 -4 -29 -5 -3 -9
-17 -10 -32 0 -24 -1 -25 -9 -7 -7 16 -9 17 -9 3 -1 -9 -4 -25 -7 -35 -5 -15
-4 -15 5 -3 9 12 11 11 11 -8 0 -13 -4 -21 -9 -18 -14 9 -24 -163 -16 -275 5
-71 11 -102 21 -106 8 -3 14 -16 14 -29 0 -13 4 -24 9 -24 6 0 8 -9 6 -20 -2
-11 0 -18 5 -15 5 3 12 -6 16 -20 3 -14 10 -25 15 -25 5 0 9 -6 9 -14 0 -8 7
-22 16 -30 8 -9 12 -16 8 -16 -4 0 5 -11 20 -25 15 -14 24 -25 21 -25 -3 0 19
-25 49 -55 29 -30 57 -55 60 -55 3 0 15 -9 26 -20 11 -11 27 -20 36 -20 8 0
12 -5 8 -11 -4 -8 1 -9 16 -4 15 5 20 4 16 -4 -5 -7 1 -11 14 -11 12 0 19 -4
16 -9 -4 -5 4 -7 16 -4 17 3 19 2 10 -5 -10 -6 6 -12 50 -17 48 -6 57 -9 38
-15 -40 -10 141 -21 232 -14 44 4 74 10 68 14 -7 4 14 11 46 15 63 7 73 15 75
55 0 23 1 24 10 5 8 -17 9 -17 4 5 -2 14 -5 32 -6 40 0 10 -3 8 -9 -5 -8 -18
-9 -17 -9 8 -1 15 -6 27 -12 27 -5 0 -8 4 -4 9 3 5 1 12 -4 16 -6 3 -13 34
-17 68 -5 44 -9 56 -15 42 -7 -19 -8 -19 -8 3 -1 25 -51 82 -73 82 -8 0 -19
-5 -25 -11 -13 -13 -160 -13 -177 -1 -6 5 -29 15 -50 22 -44 14 -146 108 -146
135 0 9 -4 14 -9 11 -10 -6 -20 38 -22 93 l-2 36 -7 -35 c-5 -24 -8 -2 -9 70
0 60 3 99 8 92 5 -9 10 0 15 28 4 27 10 39 18 34 7 -5 10 -1 6 12 -4 19 25 57
36 47 3 -4 6 0 6 8 0 8 13 23 29 34 16 10 28 22 25 26 -2 4 6 5 18 2 17 -3 19
-2 9 5 -10 7 -6 12 20 17 19 4 37 11 40 16 3 5 39 11 80 13 53 3 63 2 34 -4
-27 -5 -15 -6 38 -3 45 3 77 0 77 -5 0 -5 14 -12 30 -16 17 -3 41 -16 53 -29
12 -13 29 -22 37 -19 8 3 12 1 8 -3 -4 -4 4 -18 18 -32 13 -13 24 -28 24 -34
0 -6 4 -8 9 -4 24 14 31 -85 31 -437 0 -264 3 -368 11 -368 7 0 9 -9 6 -21 -3
-12 -3 -18 0 -15 3 3 12 -1 20 -9 11 -12 45 -15 151 -15 75 0 144 5 152 10 8
5 11 10 7 10 -5 0 -1 7 7 16 15 14 16 110 14 974 l-3 959 -25 23 c-22 21 -35
23 -145 26 -111 3 -123 2 -148 -18z"/>
<path d="M8412 2904 c-7 -4 -24 -16 -38 -29 l-24 -22 0 -966 0 -966 22 -15
c32 -23 290 -23 308 -1 7 8 16 13 20 10 4 -3 10 5 14 18 8 32 6 45 -4 22 -5
-11 -9 391 -9 930 -1 682 2 946 10 935 9 -12 10 -12 5 3 -3 10 -6 23 -6 28 0
6 -4 7 -10 4 -5 -3 -10 -1 -10 5 0 6 -8 19 -17 28 -13 14 -39 17 -132 19 -64
1 -122 0 -129 -3z"/>
<path d="M8335 1890 c0 -514 1 -725 2 -467 2 257 2 677 0 935 -1 257 -2 46 -2
-468z"/>
<path d="M8715 1890 c0 -503 1 -709 2 -458 2 252 2 664 0 915 -1 252 -2 46 -2
-457z"/>
<path d="M4265 2263 c-22 -2 -44 -8 -50 -13 -5 -4 -26 -11 -45 -15 -19 -4 -53
-17 -75 -31 -22 -13 -50 -28 -63 -34 -24 -10 -27 -13 -95 -72 -67 -60 -87 -81
-99 -110 -7 -15 -16 -24 -20 -22 -4 3 -11 -8 -14 -23 -4 -15 -13 -34 -21 -41
-7 -7 -13 -20 -13 -28 0 -8 -4 -13 -9 -9 -11 6 -17 -12 -27 -77 -3 -27 -10
-48 -15 -48 -4 0 -5 -16 -2 -35 4 -23 2 -35 -6 -35 -7 0 -11 -35 -11 -111 0
-72 4 -108 10 -104 7 4 9 -12 5 -47 -3 -34 -2 -44 4 -28 6 21 9 15 15 -34 6
-43 10 -55 18 -45 7 10 8 6 3 -14 -4 -18 -2 -26 4 -22 6 3 13 -6 17 -20 3 -14
10 -25 14 -25 5 0 11 -14 15 -30 4 -17 11 -28 16 -24 5 3 9 1 9 -5 0 -5 15
-25 34 -44 19 -20 32 -38 28 -41 -3 -3 0 -6 6 -6 6 0 26 -14 44 -31 18 -18 27
-28 19 -24 -9 5 -12 4 -7 -3 4 -7 13 -12 21 -12 7 0 15 -6 18 -14 3 -8 19 -17
36 -21 17 -4 28 -11 25 -16 -3 -6 0 -9 7 -8 21 3 50 -12 43 -23 -4 -6 2 -7 16
-3 14 4 20 3 16 -3 -3 -6 17 -13 51 -17 35 -4 51 -10 43 -15 -18 -11 136 -22
230 -17 41 3 95 6 120 7 37 2 40 3 20 9 -22 6 -20 8 20 16 25 4 54 7 65 6 16
-2 17 0 5 8 -11 8 -5 12 28 17 23 3 39 10 37 14 -3 5 11 14 30 20 19 6 35 15
35 20 0 5 13 11 30 15 16 4 33 11 36 17 5 7 2 8 -6 3 -9 -5 -11 -4 -6 3 4 7
11 12 16 12 14 0 120 110 120 125 0 12 -85 99 -146 149 -40 33 -62 33 -99 -2
-49 -43 -91 -71 -121 -78 -16 -4 -34 -11 -40 -16 -18 -13 -172 -24 -229 -16
-66 10 -75 12 -108 26 -16 7 -31 12 -33 12 -3 0 -11 6 -18 13 -8 6 -23 19 -36
27 -40 28 -80 67 -80 78 0 7 -5 12 -11 12 -6 0 -8 7 -5 16 3 8 2 12 -4 9 -6
-3 -10 1 -10 9 0 14 50 16 458 17 251 1 462 1 469 0 6 -1 14 8 18 19 4 11 11
18 16 15 5 -4 9 44 8 117 -1 83 -4 115 -10 98 -7 -20 -8 -17 -6 18 1 23 0 42
-4 42 -4 0 -10 30 -14 67 -4 43 -10 61 -15 52 -6 -9 -11 -1 -16 29 -3 23 -10
39 -15 37 -4 -3 -13 12 -20 34 -7 22 -16 38 -20 35 -5 -3 -9 2 -9 10 0 9 -11
26 -25 38 -14 12 -25 25 -25 30 0 9 -37 48 -45 48 -3 0 -14 8 -24 18 -39 34
-52 44 -115 77 -35 18 -81 37 -102 41 -22 4 -42 11 -45 16 -7 10 -202 19 -264
11z m189 -323 c25 0 28 -2 16 -11 -11 -8 -7 -9 18 -5 18 3 31 2 28 -3 -3 -5 8
-11 25 -15 17 -3 28 -10 24 -16 -3 -5 0 -10 8 -10 17 0 57 -42 74 -78 7 -15
11 -18 8 -7 -4 14 -3 17 4 10 6 -6 14 -25 17 -43 l7 -32 -304 1 c-167 0 -298
3 -291 6 6 2 12 13 12 23 0 29 11 50 23 43 6 -4 8 0 4 11 -4 10 -3 15 3 11 6
-3 10 -1 10 5 0 6 4 9 9 6 5 -3 12 1 15 10 4 10 2 13 -7 8 -6 -4 1 5 16 19 15
15 39 30 52 33 14 3 25 10 25 15 0 5 12 7 28 3 20 -4 23 -3 12 5 -10 7 -3 11
30 14 25 2 58 3 74 1 16 -2 43 -4 60 -4z"/>
<path d="M5713 2263 c-24 -2 -43 -8 -43 -12 0 -5 -15 -11 -34 -14 -38 -6 -186
-75 -186 -87 0 -4 -19 -20 -42 -36 -24 -16 -49 -37 -56 -47 -8 -10 -25 -30
-38 -44 -13 -14 -24 -32 -24 -40 0 -8 -4 -11 -10 -8 -5 3 -12 -6 -16 -20 -3
-13 -10 -23 -15 -20 -4 3 -13 -13 -19 -35 -6 -22 -15 -40 -20 -40 -5 0 -12
-21 -16 -46 -5 -33 -9 -42 -16 -33 -6 9 -7 2 -3 -21 5 -26 4 -31 -4 -20 -8 11
-11 -4 -11 -57 0 -40 -3 -73 -7 -73 -5 0 -8 -20 -8 -44 0 -24 3 -48 8 -52 4
-4 7 -37 7 -73 0 -48 3 -62 11 -51 7 11 8 4 4 -25 -3 -26 -2 -33 3 -20 7 16
10 11 16 -24 3 -24 13 -50 21 -58 8 -8 15 -24 15 -36 0 -18 2 -20 11 -7 9 12
10 11 6 -8 -3 -12 -2 -20 3 -17 4 3 11 -7 14 -20 4 -14 11 -23 15 -20 5 3 14
-8 19 -24 6 -16 20 -32 31 -36 12 -3 19 -11 16 -16 -4 -5 -2 -9 3 -9 5 0 28
-18 51 -40 23 -22 46 -40 52 -40 6 0 8 -4 5 -9 -4 -5 7 -12 24 -16 18 -4 27
-11 23 -18 -4 -6 0 -8 10 -4 10 3 17 3 17 -2 0 -5 16 -12 35 -15 19 -4 35 -11
35 -16 0 -5 21 -12 48 -16 40 -6 43 -9 22 -14 -15 -4 17 -10 82 -14 116 -9
308 1 287 15 -8 4 12 10 50 15 39 4 58 10 50 15 -9 5 1 10 29 15 23 4 39 11
36 16 -4 6 2 7 16 3 15 -5 20 -4 16 4 -4 6 -1 11 7 11 8 0 17 6 20 14 3 7 18
17 33 20 16 4 34 16 42 27 7 10 19 19 27 19 8 0 20 10 26 23 6 12 24 34 40 49
27 25 42 77 19 63 -5 -3 -10 -1 -10 4 0 10 -53 64 -92 96 -84 68 -88 68 -148
15 -24 -22 -50 -40 -57 -40 -7 0 -13 -4 -13 -9 0 -5 -15 -13 -32 -16 -18 -4
-39 -12 -47 -19 -8 -6 -64 -12 -130 -14 -91 -3 -126 0 -155 12 -21 9 -44 16
-52 16 -33 0 -140 89 -159 132 -8 18 -15 26 -15 18 -1 -8 -5 -4 -11 9 -5 13
-8 25 -6 27 2 2 212 4 466 4 423 1 464 2 480 18 14 14 18 37 20 125 2 62 -1
107 -7 107 -5 0 -13 32 -16 70 -4 39 -11 70 -17 70 -5 0 -9 5 -9 11 0 5 4 7
10 4 6 -3 7 1 4 9 -3 9 -10 13 -15 10 -5 -3 -9 9 -9 26 0 17 -6 33 -14 36 -8
3 -18 19 -21 35 -4 16 -10 29 -15 29 -4 0 -13 13 -19 29 -23 55 -188 197 -253
216 -12 4 -27 11 -33 15 -5 4 -26 11 -45 15 -19 4 -40 11 -46 16 -13 11 -207
19 -271 12z m221 -333 c5 -5 15 -6 24 -3 9 4 13 2 9 -4 -4 -6 6 -13 24 -17 17
-3 28 -10 25 -15 -3 -5 6 -12 19 -15 14 -4 24 -10 21 -14 -6 -10 20 -32 29
-24 4 4 6 3 4 -3 -4 -16 12 -45 22 -40 5 3 11 -7 15 -22 4 -15 12 -31 18 -35
6 -4 -125 -8 -291 -8 -167 0 -303 2 -303 4 0 2 -3 12 -7 22 -4 12 -3 15 5 10
8 -5 12 0 12 14 0 12 4 19 9 16 5 -3 16 12 25 34 11 27 24 42 41 46 14 3 22
10 19 15 -3 5 8 12 25 15 17 4 29 10 26 14 -2 4 8 5 23 3 20 -3 23 -2 12 6
-10 7 -3 11 30 13 57 5 152 -2 164 -12z"/>
<path d="M9109 2263 c-9 -2 -22 -15 -29 -28 -7 -13 -17 -22 -22 -19 -5 4 -9
-2 -8 -12 1 -11 1 -28 0 -39 -1 -17 -2 -18 -8 -3 -4 9 -7 -159 -7 -375 0 -216
3 -374 6 -352 5 35 6 37 8 10 2 -16 2 -57 2 -90 0 -40 2 -53 8 -40 6 15 10 4
15 -42 4 -34 11 -65 16 -68 4 -3 6 -15 3 -28 -3 -16 -2 -18 5 -8 8 10 11 6 17
-18 3 -17 10 -31 15 -31 4 0 11 -12 14 -26 7 -26 79 -104 97 -104 6 0 8 -4 5
-9 -3 -5 6 -12 19 -15 16 -4 23 -11 19 -18 -5 -8 -2 -9 9 -5 10 3 17 3 17 -2
0 -5 16 -12 35 -15 19 -4 35 -11 35 -16 0 -6 12 -10 26 -10 14 0 23 -3 21 -7
-4 -7 84 -4 268 6 16 1 17 3 6 10 -11 7 -5 11 22 16 20 4 37 11 37 17 0 5 5 6
10 3 6 -3 10 -2 10 4 0 5 9 13 20 16 11 4 18 10 15 15 -4 6 16 20 31 20 2 0 5
-60 7 -132 l3 -133 2 143 c1 106 -1 141 -10 136 -7 -4 -8 -3 -4 4 20 33 26 0
26 -154 0 -100 -4 -163 -9 -159 -6 3 -10 -3 -10 -12 0 -10 -3 -33 -7 -52 -5
-24 -9 -30 -16 -20 -7 10 -8 8 -5 -8 3 -13 1 -23 -4 -23 -5 0 -9 -7 -9 -15 0
-9 -7 -18 -15 -21 -8 -4 -15 -13 -15 -20 0 -8 -10 -19 -22 -24 -13 -6 -41 -21
-63 -34 -27 -16 -63 -26 -110 -30 -76 -7 -214 7 -224 22 -3 5 -22 18 -42 29
-20 10 -52 36 -72 57 -34 38 -36 38 -83 32 -27 -4 -58 -13 -69 -21 -11 -7 -39
-16 -63 -20 -23 -4 -42 -11 -42 -16 0 -5 -9 -9 -20 -9 -11 0 -26 -12 -35 -30
-16 -31 -21 -54 -6 -32 6 10 10 3 15 -22 4 -20 11 -34 16 -31 5 3 12 -5 16
-17 3 -12 20 -33 35 -47 16 -14 29 -32 29 -40 0 -8 3 -11 7 -8 8 9 34 -13 28
-23 -2 -4 5 -16 17 -26 14 -12 19 -14 13 -4 -4 8 2 5 14 -7 12 -13 28 -23 35
-23 8 0 16 -7 20 -15 3 -8 13 -15 21 -15 9 0 14 -4 11 -8 -3 -5 19 -14 49 -21
29 -7 55 -17 57 -23 3 -8 54 -13 145 -16 163 -5 296 4 287 20 -5 7 6 9 32 4
24 -4 34 -3 26 2 -10 7 -4 11 20 17 18 4 37 7 41 6 5 -1 6 3 2 9 -4 6 7 13 24
16 17 4 29 10 26 14 -3 4 7 11 20 14 14 4 23 11 20 15 -3 5 11 15 30 21 19 6
38 16 41 22 5 7 2 8 -6 3 -9 -5 -11 -4 -6 3 4 7 13 12 21 12 8 0 17 5 21 12 5
7 2 8 -7 3 -8 -4 -3 3 11 17 14 13 28 23 32 21 4 -2 8 7 10 19 2 13 9 22 17
20 8 -2 11 3 8 11 -3 8 3 20 13 27 10 7 16 20 12 28 -3 10 -1 13 6 8 8 -5 12
0 12 13 0 11 5 32 12 48 6 15 10 37 9 48 -2 17 0 17 8 5 8 -11 11 -4 12 30 1
36 2 40 8 20 5 -17 9 1 14 60 9 107 9 1466 1 1509 -4 17 -10 28 -15 25 -5 -3
-9 1 -9 9 0 30 -63 47 -172 47 -127 0 -144 -5 -160 -40 -7 -16 -16 -26 -20
-24 -4 3 -8 -165 -8 -373 -1 -390 -6 -475 -22 -438 -7 17 -8 15 -5 -7 3 -16 0
-28 -4 -28 -5 0 -9 -5 -9 -11 0 -15 -37 -48 -80 -73 -99 -57 -288 4 -291 92 0
23 -2 24 -8 7 -16 -40 -21 65 -21 453 0 216 -4 391 -8 388 -5 -3 -15 5 -22 18
-7 14 -22 27 -34 30 -24 6 -212 6 -237 -1z"/>
</g>
</svg>
