<svg xmlns="http://www.w3.org/2000/svg" viewBox="0 0 575 85">
  <g fill="none" fill-rule="evenodd" transform="translate(.306 -.887)">
    <g fill="#8E3582" transform="translate(0 .765)">
      <path d="M279.501,32.3043 L298.449,32.3043 C298.737,32.3043 298.971,32.6873 298.971,33.1503 C298.971,33.6163 298.737,33.9923 298.449,33.9923 L279.501,33.9923 C279.213,33.9923 278.98,33.6163 278.98,33.1503 C278.98,32.6873 279.213,32.3043 279.501,32.3043"/>
      <path d="M272.6836 33.15C272.6836 29.389 275.7306 26.337 279.5006 26.337 283.2656 26.337 286.3176 29.389 286.3176 33.15 286.3176 36.918 283.2656 39.966 279.5006 39.966 275.7306 39.966 272.6836 36.918 272.6836 33.15M374.4648 5.4693L374.4648 9.8953C374.4648 11.1953 373.8328 11.9823 372.5758 12.2483 372.4658 12.2703 372.3128 12.2983 372.1048 12.3343 371.9018 12.3713 371.5278 12.4393 370.9828 12.5363 370.4368 12.6353 369.6948 12.7673 368.7568 12.9323L368.7568 59.9023 363.5278 59.9023C362.7248 59.9023 362.0568 59.7773 361.5288 59.5253 361.0018 59.2743 360.4868 58.8243 359.9908 58.1703L331.5278 21.9193C331.6078 22.7293 331.6628 23.5263 331.6998 24.3103 331.7358 25.1013 331.7548 25.8213 331.7548 26.4743L331.7548 52.4393C334.9118 52.8733 336.5488 53.1013 336.6588 53.1223 337.9158 53.3893 338.5468 54.1733 338.5468 55.4763L338.5468 59.9023 331.7548 59.9023 322.8358 59.9023 317.1348 59.9023 317.1348 55.4763C317.1348 54.1763 317.7598 53.3893 319.0168 53.1223 319.1268 53.1013 319.2858 53.0743 319.4878 53.0363 319.6968 52.9963 320.0698 52.9293 320.6108 52.8343 321.1498 52.7363 321.8918 52.6043 322.8358 52.4393L322.8358 12.9323C321.8918 12.7673 321.1498 12.6353 320.6108 12.5403 320.0648 12.4423 319.6908 12.3743 319.4878 12.3373 319.2858 12.2983 319.1268 12.2703 319.0168 12.2523 317.7598 11.9823 317.1348 11.1983 317.1348 9.8983L317.1348 5.4723 322.8358 5.4723 328.1448 5.4723C328.5918 5.4723 328.9718 5.4903 329.2728 5.5273 329.5718 5.5643 329.8428 5.6403 330.0808 5.7533 330.3198 5.8643 330.5538 6.0303 330.7798 6.2413 331.0008 6.4523 331.2518 6.7353 331.5278 7.0903L360.1018 43.4893C360.0028 42.6153 359.9298 41.7563 359.8928 40.9103 359.8568 40.0713 359.8378 39.2863 359.8378 38.5573L359.8378 12.9323C356.7048 12.5033 355.0688 12.2733 354.9278 12.2483 353.6708 11.9823 353.0448 11.1953 353.0448 9.8953L353.0448 5.4693 359.8378 5.4693 368.7568 5.4693 374.4648 5.4693zM434.9639 5.4693L434.9639 9.8953C434.9639 11.1953 434.3319 11.9823 433.0749 12.2483 432.9649 12.2703 432.8129 12.2983 432.6039 12.3343 432.4009 12.3713 432.0269 12.4393 431.4819 12.5363 430.9369 12.6353 430.1939 12.7673 429.2569 12.9323L429.2569 59.9023 424.0269 59.9023C423.2249 59.9023 422.5569 59.7773 422.0289 59.5253 421.5019 59.2743 420.9869 58.8243 420.4899 58.1703L392.0269 21.9193C392.1079 22.7293 392.1619 23.5263 392.1989 24.3103 392.2359 25.1013 392.2539 25.8213 392.2539 26.4743L392.2539 52.4393C395.4109 52.8733 397.0479 53.1013 397.1579 53.1223 398.4149 53.3893 399.0469 54.1733 399.0469 55.4763L399.0469 59.9023 392.2539 59.9023 383.3349 59.9023 377.6339 59.9023 377.6339 55.4763C377.6339 54.1763 378.2589 53.3893 379.5159 53.1223 379.6259 53.1013 379.7849 53.0743 379.9869 53.0363 380.1959 52.9963 380.5699 52.9293 381.1099 52.8343 381.6549 52.7363 382.3909 52.6043 383.3349 52.4393L383.3349 12.9323C382.3909 12.7673 381.6499 12.6353 381.1099 12.5403 380.5649 12.4423 380.1909 12.3743 379.9869 12.3373 379.7849 12.2983 379.6259 12.2703 379.5159 12.2523 378.2589 11.9823 377.6339 11.1983 377.6339 9.8983L377.6339 5.4723 383.3349 5.4723 388.6439 5.4723C389.0909 5.4723 389.4719 5.4903 389.7719 5.5273 390.0719 5.5643 390.3419 5.6403 390.5809 5.7533 390.8199 5.8643 391.0529 6.0303 391.2789 6.2413 391.4999 6.4523 391.7519 6.7353 392.0269 7.0903L420.6009 43.4893C420.5029 42.6153 420.4289 41.7563 420.3929 40.9103 420.3559 40.0713 420.3369 39.2863 420.3369 38.5573L420.3369 12.9323C417.2039 12.5033 415.5679 12.2733 415.4269 12.2483 414.1699 11.9823 413.5449 11.1953 413.5449 9.8953L413.5449 5.4693 420.3369 5.4693 429.2569 5.4693 434.9639 5.4693zM477.5996 5.4722L477.5996 10.7102 477.5996 13.5272 477.5996 19.7742 477.2746 19.7742 476.3616 19.7742 473.2656 19.7742C472.2966 19.7742 471.7146 19.3052 471.5126 18.3692 471.4086 17.7852 471.2246 16.1692 470.9666 13.5272L453.4706 13.5272 453.4706 28.6192 471.8796 28.6192 471.8796 36.4112 453.4706 36.4112 453.4706 51.8072 470.9666 51.8072C471.2246 49.1622 471.4086 47.5462 471.5126 46.9612 471.7146 46.0242 472.2966 45.5542 473.2656 45.5572L476.3616 45.5572 477.2746 45.5572 477.5996 45.5572 477.5996 51.8072 477.5996 54.6182 477.5996 59.9022 443.2706 59.9022 437.569558 59.9022 437.5696 55.4762C437.5636 54.1762 438.1946 53.3892 439.4516 53.1222 439.5616 53.1012 439.7206 53.0742 439.9226 53.0362 440.1246 52.9962 440.4986 52.9322 441.0446 52.8342 441.5906 52.7362 442.3316 52.6042 443.2706 52.4392L443.2706 12.9322C442.3316 12.7672 441.5906 12.6352 441.0446 12.5362 440.4986 12.4392 440.1246 12.3712 439.9226 12.3342 439.7206 12.2982 439.5616 12.2702 439.4516 12.2482 438.1946 11.9822 437.5696 11.1952 437.5696 9.8952L437.569558 5.4692 443.2706 5.4692 477.5996 5.4722zM519.2178 21.2662C519.1018 20.5862 518.8808 18.5932 518.5618 15.2922 514.4548 14.0912 510.9908 13.4912 508.1648 13.4912 505.6088 13.4912 503.2548 13.9352 501.1028 14.8242 498.9568 15.7152 497.1128 16.9912 495.5728 18.6462 494.0288 20.3012 492.8218 22.3152 491.9568 24.6872 491.0918 27.0592 490.6568 29.7262 490.6568 32.6872 490.6568 35.7492 491.0918 38.4712 491.9568 40.8562 492.8218 43.2412 493.9978 45.2472 495.4758 46.8782 496.9588 48.5092 498.6998 49.7562 500.7108 50.6242 502.7148 51.4892 504.8728 51.9202 507.1848 51.9202 508.5638 51.9202 509.8148 51.8472 510.9298 51.6972 512.0458 51.5462 513.0748 51.3082 514.0198 50.9802 514.9568 50.6552 515.8468 50.2352 516.6928 49.7202 517.5268 49.2042 518.3658 48.5742 519.1938 47.8202 519.4448 47.5932 519.7078 47.4092 519.9848 47.2742 520.2598 47.1362 520.5608 47.0662 520.8858 47.0662 521.4368 47.0662 521.9148 47.2802 522.3198 47.7062L526.3048 52.0342C524.0978 54.7712 521.3818 56.8652 518.1568 58.3212 514.9328 59.7772 511.0648 60.5032 506.5468 60.5032 502.5068 60.5032 498.8708 59.8132 495.6478 58.4342 492.4228 57.0522 489.6638 55.1332 487.3838 52.6742 485.1038 50.2162 483.3498 47.2802 482.1358 43.8662 480.9158 40.4542 480.3098 36.7302 480.3098 32.6872 480.3098 28.5952 480.9838 24.8492 482.3448 21.4512 483.6988 18.0512 485.6058 15.1202 488.0638 12.6602 490.5228 10.2022 493.4648 8.2882 496.8918 6.9182 500.3188 5.5512 504.1008 4.8682 508.2388 4.8682 512.7688 4.8682 518.4578 6.1732 525.3118 8.7882L525.3118 22.6702 520.9778 22.6702C520.0088 22.6702 519.4198 22.2022 519.2178 21.2662M574.5859 5.4693L574.5859 18.3483 574.2619 18.3483 573.3479 18.3483 570.2519 18.3483C569.2829 18.3513 568.6949 17.8823 568.4929 16.9483 568.4189 16.5093 568.2899 15.4543 568.1189 13.7873L557.0239 13.7873 557.0239 52.4393C557.9609 52.6043 558.7029 52.7363 559.2419 52.8343 559.7879 52.9293 560.1619 52.9963 560.3639 53.0363 560.5659 53.0743 560.7259 53.1013 560.8359 53.1223 562.0929 53.3893 562.7179 54.1733 562.7179 55.4763L562.7179 59.9023 557.0239 59.9023 546.8959 59.9023 541.1939 59.9023 541.1939 55.4763C541.1939 54.1733 541.8199 53.3893 543.0769 53.1223 543.1879 53.1013 543.3469 53.0743 543.5489 53.0363 543.7569 52.9963 544.1309 52.9293 544.6709 52.8343 545.2159 52.7363 545.9579 52.6043 546.8959 52.4393L546.8959 13.7873 535.7939 13.7873C535.6219 15.4513 535.4929 16.5033 535.4199 16.9483 535.2179 17.8823 534.6289 18.3483 533.6609 18.3483L530.5649 18.3483 529.6509 18.3483 529.3329 18.3483 529.3329 5.4693 530.4479 5.4693 530.5649 5.4693 573.3479 5.4693 573.3969 5.4693 574.5859 5.4693z"/>
      <path d="M265.1807 45.6285C273.3767 44.9795 273.4317 48.8275 281.8367 47.8835 289.1677 47.0635 294.4647 42.3515 295.5067 34.8355 296.4457 27.9915 292.2767 21.0675 285.6187 18.4585 279.3287 15.9945 273.2977 18.9055 268.5527 24.8835 259.9327 35.7435 251.1057 46.5235 241.4877 56.4795 232.8007 65.4595 216.6837 67.0235 205.5147 61.4045 194.4617 55.8415 186.6827 41.9965 187.9827 30.2045 189.5577 15.9575 197.8157 5.0825 210.5057 2.0585 225.3467-1.4795 238.6987 3.1465 238.7897 18.0725 238.8207 23.6105 236.1787 27.8225 234.7437 29.8605 233.0827 27.1675 232.0407 24.3905 230.1027 22.5145 223.4647 16.0555 214.7287 15.7955 209.2787 21.5265 203.2647 27.8355 203.7617 38.3765 210.3517 44.4305 216.5617 50.1275 225.7687 49.6585 231.7407 42.7535 239.7767 33.4195 247.2747 23.6235 255.2247 14.1975 273.2907-7.2085 303.0167-2.1295 311.4697 24.5925 315.7367 38.0945 310.9177 52.8925 294.7647 61.4965 282.2657 68.1565 263.8317 63.8475 256.3657 52.7645 255.5557 51.5685 259.7127 46.0635 265.1807 45.6285M32.1455 5.4693L32.1455 9.8953C32.1455 11.1953 31.5205 11.9793 30.2635 12.2483 30.1535 12.2673 29.9935 12.2983 29.7855 12.3343 29.5825 12.3713 29.2085 12.4393 28.6635 12.5363 28.1245 12.6353 27.3825 12.7673 26.4445 12.9323L26.4445 40.5523C26.4445 43.6153 26.0645 46.3753 25.3105 48.8343 24.5625 51.2923 23.4345 53.3893 21.9445 55.1203 20.4495 56.8523 18.5855 58.1833 16.3535 59.1123 14.1225 60.0373 11.5235 60.5033 8.5625 60.5033 7.2075 60.5033 5.8775 60.4203 4.5715 60.2583 3.2595 60.0953 1.8925 59.8383.4705 59.4863L.9975 53.4623C1.0465 52.9103 1.2495 52.4663 1.6175 52.1263 1.9785 51.7883 2.5115 51.6203 3.2165 51.6203 3.6405 51.6203 4.1975 51.7063 4.8905 51.8843 5.5775 52.0593 6.4535 52.1483 7.5085 52.1483 8.9365 52.1483 10.2055 51.9393 11.3095 51.5253 12.4125 51.1123 13.3375 50.4523 14.0735 49.5483 14.8155 48.6443 15.3735 47.4733 15.7535 46.0303 16.1275 44.5853 16.3175 42.8353 16.3175 40.7793L16.3175 12.9323C15.3795 12.7673 14.5765 12.6353 13.9145 12.5363 13.2515 12.4393 12.7615 12.3713 12.4425 12.3343 12.1185 12.2983 11.9035 12.2703 11.7925 12.2483 10.5365 11.9823 9.9055 11.1953 9.9115 9.8953L9.9115 5.4693 16.3175 5.4693 26.4385 5.4693 32.1455 5.4693zM52.5776 38.149L69.0496 38.149 62.8646 21.242C62.5576 20.423 62.2266 19.476 61.8706 18.401 61.5036 17.309 61.1476 16.124 60.7986 14.842 60.4426 16.132 60.0936 17.325 59.7626 18.42 59.4256 19.516 59.0876 20.485 58.7636 21.319L52.5776 38.149zM90.0456 56.059L90.0456 59.902 87.3726 59.902 81.4756 59.902 80.2186 59.902 79.5446 59.902 71.6546 59.902 71.6546 56.059C71.6546 55.185 72.1516 54.545 73.1506 54.128 73.3286 54.054 73.8306 53.845 74.6526 53.5L74.3586 52.706 71.6546 45.3 49.9786 45.3 47.1526 53.021 46.9806 53.5C47.8076 53.845 48.3046 54.057 48.4826 54.128 49.4816 54.545 49.9786 55.185 49.9786 56.059L49.9786 59.902 42.1256 59.902 41.4086 59.902 40.1516 59.902 34.2606 59.902 31.5876 59.902 31.5876 56.059C31.5876 55.185 32.0846 54.545 33.0836 54.128 33.4756 53.965 34.8546 53.389 37.2086 52.396L55.6366 5.469 65.9906 5.469 84.4246 52.396C86.7906 53.392 88.1636 53.971 88.5496 54.128 89.5426 54.542 90.0456 55.185 90.0456 56.059zM128.3657 42.8512C128.3657 45.3092 127.9487 47.6112 127.1097 49.7562 126.2627 51.9032 125.0367 53.7722 123.4187 55.3662 121.8007 56.9592 119.8257 58.2132 117.4907 59.1302 115.1557 60.0462 112.4827 60.5032 109.4727 60.5062 109.1537 60.5062 108.7797 60.4972 108.3507 60.4792 103.5137 60.4792 98.3037 59.5192 92.7247 57.6072L92.7247 56.2732 92.7247 43.6082 93.0437 43.6082 93.9567 43.6082 97.0587 43.6082C98.0277 43.6082 98.6097 44.0772 98.8117 45.0122 98.9347 45.6962 99.1607 47.7672 99.4917 51.2252 101.6567 51.8902 105.0827 52.2242 109.7727 52.2242 112.6597 52.2242 114.8917 51.5402 116.4727 50.1732 118.0547 48.8062 118.8457 46.8422 118.8457 44.2832 118.8457 42.8512 118.4907 41.6832 117.7727 40.7792 117.0557 39.8772 116.1117 39.1182 114.9277 38.5042 113.7517 37.8882 112.4087 37.3682 110.9007 36.9422 109.3807 36.5092 107.8477 36.0462 106.3087 35.5502 104.7517 35.0472 103.2257 34.4442 101.7177 33.7422 100.2157 33.0392 98.8727 32.1232 97.6897 30.9922 96.5127 29.8642 95.5627 28.4552 94.8457 26.7592 94.1347 25.0642 93.7727 22.9772 93.7727 20.4912 93.7727 18.5082 94.1717 16.5772 94.9617 14.6952 95.7527 12.8132 96.9057 11.1422 98.4257 9.6902 99.9397 8.2342 101.8037 7.0662 104.0167 6.1862 106.2237 5.3092 108.7427 4.8712 111.5807 4.8712 116.9267 4.8712 122.1317 5.8982 127.2007 7.9572L127.2007 21.8822 126.8757 21.8822 125.9627 21.8822 122.8667 21.8822C121.8987 21.8822 121.3097 21.4132 121.1077 20.4792 120.9907 19.7952 120.7707 17.7632 120.4457 14.3852 118.5457 13.5372 115.6267 13.1132 111.6917 13.1132 110.2877 13.1172 109.0617 13.2852 108.0257 13.6212 106.9777 13.9622 106.1007 14.4312 105.3897 15.0352 104.6727 15.6362 104.1387 16.3562 103.7897 17.1992 103.4337 18.0382 103.2627 18.9612 103.2627 19.9632 103.2627 21.2452 103.6177 22.3122 104.3357 23.1632 105.0467 24.0192 105.9967 24.7462 107.1737 25.3492 108.3567 25.9502 109.6987 26.4902 111.2007 26.9672 112.7087 27.4432 114.2477 27.9522 115.8177 28.4912 117.3927 29.0342 118.9257 29.6622 120.4277 30.3722 121.9287 31.0872 123.2717 31.9922 124.4547 33.0822 125.6317 34.1772 126.5817 35.5132 127.2927 37.0912 128.0107 38.6732 128.3657 40.5922 128.3657 42.8512M151.7158 38.149L168.1878 38.149 162.0028 21.242C161.6958 20.423 161.3648 19.476 161.0088 18.401 160.6418 17.309 160.2858 16.124 159.9368 14.842 159.5808 16.132 159.2318 17.325 158.9008 18.42 158.5638 19.516 158.2258 20.485 157.9018 21.319L151.7158 38.149zM189.1838 56.059L189.1838 59.902 186.5108 59.902 180.6138 59.902 179.3578 59.902 178.6828 59.902 170.7938 59.902 170.7938 56.059C170.7938 55.185 171.2898 54.545 172.2888 54.128 172.4668 54.054 172.9688 53.845 173.7908 53.5L173.4968 52.706 170.7938 45.3 149.1168 45.3 146.2908 53.021 146.1188 53.5C146.9468 53.845 147.4438 54.057 147.6208 54.128 148.6198 54.545 149.1168 55.185 149.1168 56.059L149.1168 59.902 141.2638 59.902 140.5468 59.902 139.2898 59.902 133.3988 59.902 130.7258 59.902 130.7258 56.059C130.7258 55.185 131.2228 54.545 132.2218 54.128 132.6138 53.965 133.9928 53.389 136.3468 52.396L154.7748 5.469 165.1288 5.469 183.5628 52.396C185.9288 53.392 187.3018 53.971 187.6878 54.128 188.6808 54.542 189.1838 55.185 189.1838 56.059z"/>
    </g>
    <text fill="#60605D" font-family="HelveticaNeue-Medium, Helvetica Neue" font-size="17.825" font-weight="400" letter-spacing="-1.64">
      <tspan x="299.482" y="84.254">T</tspan> <tspan x="306.773" y="84.254">ransform </tspan> <tspan x="385.362" y="84.254">Y</tspan> <tspan x="393.633" y="84.254">our Mobile </tspan> <tspan x="486.429" y="84.254" letter-spacing="-.321">W</tspan> <tspan x="502.614" y="84.254">orkfo</tspan> <tspan x="545.215" y="84.254" letter-spacing="-.321">r</tspan> <tspan x="550.848" y="84.254">ce</tspan>
    </text>
  </g>
</svg>
