<?xml version="1.0" encoding="utf-8"?>
<!-- Generator: Adobe Illustrator 21.1.0, SVG Export Plug-In . SVG Version: 6.00 Build 0)  -->
<svg version="1.1" id="Layer_1" xmlns="http://www.w3.org/2000/svg" xmlns:xlink="http://www.w3.org/1999/xlink" x="0px" y="0px"
	 viewBox="0 0 304.5 173.9" style="enable-background:new 0 0 304.5 173.9;" xml:space="preserve">
<style type="text/css">
	.st0{fill:#414042;}
	.st1{fill:url(#SVGID_1_);}
</style>
<g>
	<g>
		<g>
			<path class="st0" d="M4.2,150.7v1.9c0.8-0.8,1.6-1.3,2.5-1.7c0.9-0.4,1.9-0.6,2.9-0.6c2.2,0,4.1,0.8,5.7,2.5
				c1.5,1.7,2.3,3.8,2.3,6.4c0,2.5-0.8,4.6-2.4,6.3c-1.6,1.7-3.5,2.6-5.7,2.6c-1,0-1.9-0.2-2.7-0.5c-0.8-0.3-1.7-0.9-2.5-1.7v8H0
				v-23.2H4.2z M8.7,154.2c-1.3,0-2.5,0.5-3.3,1.4c-0.9,0.9-1.3,2.1-1.3,3.6c0,1.5,0.4,2.7,1.3,3.7c0.9,0.9,2,1.4,3.3,1.4
				c1.3,0,2.4-0.5,3.3-1.4c0.9-0.9,1.3-2.2,1.3-3.6c0-1.5-0.4-2.7-1.3-3.6C11.1,154.6,10,154.2,8.7,154.2z"/>
			<path class="st0" d="M46.4,143.7c0.7,0,1.4,0.3,1.9,0.8c0.5,0.5,0.8,1.2,0.8,2c0,0.8-0.3,1.4-0.8,1.9c-0.5,0.5-1.2,0.8-1.9,0.8
				c-0.8,0-1.4-0.3-1.9-0.8c-0.5-0.5-0.8-1.2-0.8-2c0-0.8,0.3-1.4,0.8-1.9C45,143.9,45.7,143.7,46.4,143.7z M44.3,150.7h4.3v17h-4.3
				V150.7z"/>
			<path class="st0" d="M80.3,150.7v1.9c0.8-0.8,1.6-1.3,2.5-1.7c0.9-0.4,1.9-0.6,2.9-0.6c2.2,0,4.1,0.8,5.7,2.5
				c1.5,1.7,2.3,3.8,2.3,6.4c0,2.5-0.8,4.6-2.4,6.3c-1.6,1.7-3.5,2.6-5.7,2.6c-1,0-1.9-0.2-2.7-0.5c-0.8-0.3-1.7-0.9-2.5-1.7v8h-4.2
				v-23.2H80.3z M84.8,154.2c-1.3,0-2.5,0.5-3.3,1.4c-0.9,0.9-1.3,2.1-1.3,3.6c0,1.5,0.4,2.7,1.3,3.7c0.9,0.9,2,1.4,3.3,1.4
				c1.3,0,2.4-0.5,3.3-1.4c0.9-0.9,1.3-2.2,1.3-3.6c0-1.5-0.4-2.7-1.3-3.6C87.2,154.6,86.1,154.2,84.8,154.2z"/>
			<path class="st0" d="M119,150.7h4.2l3.4,9.7l3.7-9.7h2.6l3.6,9.6l3.4-9.6h4.2l-6.2,17h-2.7l-3.6-9.7l-3.7,9.7h-2.7L119,150.7z"/>
			<path class="st0" d="M182.6,150.7h4.3v17h-4.3v-1.8c-0.8,0.8-1.7,1.4-2.5,1.7c-0.8,0.3-1.7,0.5-2.7,0.5c-2.2,0-4.1-0.9-5.7-2.6
				c-1.6-1.7-2.4-3.8-2.4-6.3c0-2.6,0.8-4.8,2.3-6.4c1.5-1.7,3.4-2.5,5.6-2.5c1,0,2,0.2,2.9,0.6c0.9,0.4,1.7,1,2.5,1.7V150.7z
				 M178.1,154.2c-1.3,0-2.4,0.5-3.3,1.4c-0.9,0.9-1.3,2.1-1.3,3.6c0,1.5,0.4,2.7,1.3,3.6c0.9,0.9,2,1.4,3.3,1.4
				c1.3,0,2.4-0.5,3.3-1.4c0.9-0.9,1.3-2.2,1.3-3.7c0-1.5-0.4-2.7-1.3-3.6C180.6,154.6,179.5,154.2,178.1,154.2z"/>
			<path class="st0" d="M213,150.7h4.3l4.3,10l4.3-10h4.3l-7.2,17h-2.8L213,150.7z"/>
			<path class="st0" d="M273.4,160.4h-13.7c0.2,1.2,0.7,2.2,1.6,2.9c0.9,0.7,2,1.1,3.3,1.1c1.6,0,3-0.6,4.1-1.7l3.6,1.7
				c-0.9,1.3-2,2.2-3.2,2.8c-1.2,0.6-2.7,0.9-4.5,0.9c-2.7,0-4.8-0.8-6.5-2.5c-1.7-1.7-2.5-3.8-2.5-6.3c0-2.6,0.8-4.7,2.5-6.5
				c1.7-1.7,3.8-2.6,6.3-2.6c2.7,0,4.9,0.9,6.5,2.6c1.7,1.7,2.5,4,2.5,6.8L273.4,160.4z M269.1,157c-0.3-0.9-0.8-1.7-1.7-2.3
				c-0.8-0.6-1.8-0.9-2.9-0.9c-1.2,0-2.2,0.3-3.1,1c-0.6,0.4-1.1,1.2-1.6,2.2H269.1z"/>
		</g>
	</g>
	<linearGradient id="SVGID_1_" gradientUnits="userSpaceOnUse" x1="138.3633" y1="132.2464" x2="138.3633" y2="5.6882">
		<stop  offset="0" style="stop-color:#4F2269"/>
		<stop  offset="1" style="stop-color:#034EA2"/>
	</linearGradient>
	<path class="st1" d="M254.3,7.1l-28.9,94.1c0,0-1.3,5.5-3.4,7.3c-1.9,1.7-3.8,2.5-5.6,2.5c-4.3,0-6.3-2.3-7.1-3.7
		c-1.1-1.8-1.6-4.1-1.6-6.7V30.9c0-7.4-3-13.3-9.3-18.2c-6.1-4.7-13.2-7-21.7-7c-7.2,0-13.6,1.9-18.9,5.5
		c-6,4.1-10.1,10.1-12.3,18.2l-23.7,72.3c-1.4,3.8-2.7,6.2-4.3,7.6c-1.5,1.3-3.4,1.9-5.8,1.6l-0.5-0.1c-3-0.8-4.8-1.8-5.9-3.2
		c-1.2-1.4-1.7-3.6-1.7-7.1V41.4l-0.1-0.2c-0.1-9.7-2.8-17.9-8.1-24.5c-3.7-4.7-8.2-7.9-13.6-9.6l0-0.1v0c-3.1-1-6.5-1.5-10.2-1.5
		H0.1v20.5h66.6c4.4,0,8.1,1.8,10.7,5.2c2.2,2.9,3.4,6.4,3.4,10.6c0,3.9-1.2,7.4-3.5,10.3c-2.5,3.1-6.2,4.8-10.6,4.8H30.9
		c-10.7,0-18.5,3.3-23.8,10c-4.6,5.8-7,13.6-7,23.2v40.1h21.4V92.5c0,0.1-0.5-14.3,17.1-14.3h33c3.7,0,7.1-0.5,10.2-1.5v30.6
		c0,8.5,3.1,14.7,9.3,19c5.6,3.9,13,5.8,22,5.8c8,0,14.5-2.1,19.8-6.5c5.1-4.1,9.5-10.7,13.1-19.7l21.1-71.5c1-2.2,2.2-4,3.8-5.2
		c1.7-1.3,3.6-2,5.5-2c2.6,0,5,1.2,6.7,3.3c1.6,2,2.4,4.5,2.4,7.5v68.9c0,8.5,3.1,14.8,9.4,19.1c5.6,3.9,13.1,5.8,22.1,5.8
		c7.1,0,13.2-2.4,18.7-7.5c6.1-5.6,10.8-14,13.9-25.2l26.8-92.5H254.3z"/>
	<g>
		<g>
			<path class="st0" d="M291.1,14.3V5h4c1,0,1.7,0.1,2.2,0.3c0.5,0.2,0.8,0.5,1.1,0.9c0.3,0.4,0.4,0.9,0.4,1.5
				c0,0.7-0.2,1.3-0.6,1.7c-0.4,0.5-1,0.7-1.8,0.9c0.4,0.2,0.7,0.5,1,0.8c0.3,0.3,0.6,0.8,1.1,1.5l1.1,1.8h-2.2l-1.4-2
				c-0.5-0.7-0.8-1.2-1-1.4c-0.2-0.2-0.4-0.3-0.6-0.4c-0.2-0.1-0.5-0.1-0.9-0.1H293v3.9H291.1z M293,9h1.4c0.9,0,1.5,0,1.7-0.1
				c0.2-0.1,0.4-0.2,0.5-0.4c0.1-0.2,0.2-0.4,0.2-0.7c0-0.3-0.1-0.6-0.2-0.8c-0.2-0.2-0.4-0.3-0.7-0.4c-0.2,0-0.6,0-1.4,0H293V9z"/>
		</g>
		<path class="st0" d="M294.5,19.9c-5.5,0-10-4.5-10-10c0-5.5,4.5-10,10-10c5.5,0,10,4.5,10,10C304.5,15.5,300,19.9,294.5,19.9z
			 M294.5,2.1c-4.4,0-7.9,3.5-7.9,7.9s3.5,7.9,7.9,7.9c4.4,0,7.9-3.5,7.9-7.9S298.9,2.1,294.5,2.1z"/>
	</g>
</g>
</svg>
