<svg width="174" height="30" xmlns="http://www.w3.org/2000/svg"><g fill="none"><path d="M51.72 3.39l-4.49 1.32v2.83h-2.06V11h2.06v7c0 1.6 0 5.85 4.78 5.85a8.55 8.55 0 0 0 2.86-.38h.12l-.06-3.53h-.22a5.87 5.87 0 0 1-1.32.14c-.83 0-1.68-.3-1.68-2.49V11h3.47V7.54h-3.46V3.39zm13.51 3.9A4.42 4.42 0 0 0 61.38 10l-.15-2.35h-3.94v.19c.06 1.42.11 3 .11 4.9v11H62v-8.3c0-2.36 1.17-3.76 3.14-3.76a5.73 5.73 0 0 1 1 .08h.22V7.41h-.15a4.57 4.57 0 0 0-.98-.12zm15.16 12.5V14c0-4.46-2.15-6.73-6.39-6.73a11.08 11.08 0 0 0-5.54 1.35l-.12.07.9 3.08.21-.13a7.52 7.52 0 0 1 3.77-1c2.21 0 2.6 1.17 2.63 2.37-5.45 0-8.57 2.27-8.57 6.1A4.73 4.73 0 0 0 72.17 24a5.29 5.29 0 0 0 4.13-1.77l.23 1.46h4.13v-.22a23 23 0 0 1-.27-3.68zm-6.87.86a1.73 1.73 0 0 1-1.79-2c0-1.71 1.42-2.6 4.23-2.63v2.07a2.43 2.43 0 0 1-2.44 2.56zM91.39 7.63l-2 7.75c-.3 1.21-.53 2.25-.74 3.29-.22-1.11-.46-2.2-.74-3.29l-2.1-7.75h-4.88l5.4 16.07h4.3l5.48-16.07h-4.72zm12.22-.34c-4.34 0-7.37 3.53-7.37 8.59 0 5.06 2.91 8.12 7.76 8.12a13.52 13.52 0 0 0 5.15-.92l.14-.06-.66-3.23-.2.07a11.18 11.18 0 0 1-3.77.64c-1.16 0-3.85-.33-4.09-3.38h9.35v-.15c.09-.562.13-1.13.12-1.7.04-5-2.38-7.98-6.43-7.98zm-.25 3.27a2.15 2.15 0 0 1 1.59.63 4 4 0 0 1 .9 2.64h-5.25c.14-1.3.86-3.27 2.75-3.27h.01zm8.69-9.9h4.54V23.7h-4.54zm13.37 13.21c-1.79-.76-2.28-1.17-2.28-1.92s.67-1.31 1.76-1.31a6.31 6.31 0 0 1 2.87.8l.21.11.89-3.3-.13-.07a8.76 8.76 0 0 0-4-.9c-3.5 0-5.94 2.12-5.94 5.15 0 1.4.71 3.36 4.12 4.74 1.66.71 2.14 1.16 2.14 2 0 .84-.71 1.39-2 1.39a8 8 0 0 1-3.57-1l-.21-.12-.89 3.39.12.07a9.41 9.41 0 0 0 4.55 1.1c3.92 0 6.36-2 6.36-5.15 0-2.27-1.27-3.85-4-4.98zm11.64-10.39l-4.49 1.32v2.83h-2.06v3.44h2.06v7.06c0 1.6 0 5.85 4.78 5.85a8.55 8.55 0 0 0 2.86-.38h.12l-.06-3.6h-.22a5.87 5.87 0 0 1-1.32.14c-.83 0-1.68-.3-1.68-2.49v-6.58h3.47V7.63h-3.47l.01-4.15zm12.42 3.81c-4.63 0-7.63 3.31-7.63 8.45 0 5.14 2.93 8.26 7.46 8.26 3.47 0 7.51-2.22 7.51-8.47.01-4.93-2.95-8.24-7.34-8.24zm-.08 3.44c2 0 2.83 2.46 2.83 4.89 0 2.43-.88 4.95-2.86 4.95s-2.92-2.47-2.92-4.92c0-2.27.77-4.92 2.94-4.92h.01zM167 7.29a5.41 5.41 0 0 0-4.56 2.21l-.17-1.87h-4v.19c.06 1.49.11 3.14.11 5.12V30h4.54v-7.53a4.65 4.65 0 0 0 3.56 1.53c3.31 0 6.64-2.63 6.64-8.5 0-4.83-2.53-8.21-6.12-8.21zM165.58 11c1.82 0 2.94 1.78 2.94 4.64 0 2.86-1.16 4.72-3 4.72-1.3 0-2.61-1-2.61-3.2v-2.92a3 3 0 0 1 2.67-3.24z" fill="#1686F7"/><path d="M13.31 26.32a3.75 3.75 0 0 1-2-.58 3.86 3.86 0 0 1-1.17-5.19l4-6.94-4-6.84a3.86 3.86 0 0 1 1.07-5.14 3.76 3.76 0 0 1 5.34 1.22l5.18 8.85a3.78 3.78 0 0 1 0 3.8l-5.18 9a3.76 3.76 0 0 1-3.24 1.82z" fill="#10C8ED"/><path d="M28.8 17.4H4.4a3.76 3.76 0 1 1 0-7.52h24.4a3.76 3.76 0 1 1 0 7.52z" fill="#1686F7" style="mix-blend-mode:multiply"/></g></svg>