<?xml version="1.0" encoding="UTF-8"?>
<svg width="499px" height="200px" viewBox="0 0 499 200" version="1.1" xmlns="http://www.w3.org/2000/svg" xmlns:xlink="http://www.w3.org/1999/xlink">
    <!-- Generator: Sketch 57.1 (83088) - https://sketch.com -->
    <title>logo-wbg</title>
    <desc>Created with Sketch.</desc>
    <g id="logo-wbg" stroke="none" stroke-width="1" fill="none" fill-rule="evenodd">
        <path d="M103.73026,117.945799 L109.223042,106.827224 C115.295716,94.5321354 121.575294,81.8181105 127.783792,69.3303114 C129.543875,65.7889014 131.459487,61.5974416 132.356771,57.3361591 L132.378587,57.2705257 C132.790986,55.8300824 133,54.1815672 133,52.370365 C133,51.0374487 132.8874,49.8162488 132.759317,48.8561859 C132.707239,48.4707643 132.65305,48.1300293 132.60238,47.837472 C132.490484,47.1916115 132.395477,46.7936219 132.386328,46.7531247 L132.287099,46.3656084 C131.360962,42.1909061 129.494612,38.1076716 127.769013,34.6444631 C121.511252,22.0819536 115.181005,9.29182196 109.059772,-3.07658026 L103.677478,-13.9500774 C101.939211,-17.4593689 98.8258136,-19.2866303 95.1346355,-18.9633509 C91.966345,-18.6854564 89.0682952,-16.1299437 88.2449056,-12.8866769 C88.082339,-12.2498934 88,-11.6005418 88,-10.9553795 C88,-9.61268804 88.3441346,-8.26790184 89.0514052,-6.84421593 C91.875561,-1.1592475 94.6905682,4.53060853 97.506279,10.2197663 C99.4085201,14.0649053 101.311465,17.9100442 103.216521,21.7530884 C105.68669,26.73564 108.161785,31.7167951 110.637583,36.6979502 L114.420249,44.311423 C115.393538,46.2699512 116.058583,48.3080773 116.453388,50.5410089 C116.459018,50.5773168 116.464648,50.6115299 116.471686,50.6450448 C116.50054,50.8147141 116.527986,50.9850816 116.554025,51.1547509 C116.620177,51.6993684 116.61877,52.2921635 116.552617,52.845858 C116.530097,52.9938822 116.50617,53.1419064 116.480834,53.2899307 L116.480131,53.2955165 L116.416089,53.567127 L116.416793,53.5706181 L116.425942,53.6027366 C116.029026,55.7742242 115.373833,57.7627761 114.427287,59.6738248 L110.40253,67.7900215 C108.013997,72.6056967 105.62476,77.4220701 103.241152,82.2412364 C101.333985,86.0961505 99.4296326,89.9531593 97.5252803,93.8094699 C94.719422,99.4909472 91.9128599,105.173123 89.0985565,110.850411 C88.394101,112.2727 88.0506701,113.614693 88.0506701,114.955988 C88.0506701,115.603245 88.1337128,116.254692 88.2969833,116.89357 C89.1231878,120.136138 92.0226452,122.688858 95.1916394,122.96396 C98.8828175,123.284446 101.995512,121.455788 103.73026,117.945799" id="Fill-1" fill="#3FB0AC" transform="translate(110.500000, 52.000000) rotate(-90.000000) translate(-110.500000, -52.000000) "></path>
        <path d="M235.105174,77 C251.599201,77 268.093926,77 284.587954,77.0007002 C289.080808,77.0007002 292.151379,79.2524058 292.830782,83.3707307 C293.601564,88.0421798 291.869573,93.3367688 284.929748,93.2891581 C267.053894,93.1673308 249.175948,93.2653528 231.298699,93.2233433 C230.023596,93.2205427 229.621813,93.5412147 229.5688,94.8407066 C229.434175,98.209163 230.278198,101.024495 232.776786,103.500251 C241.393496,112.039369 249.863025,120.72622 258.408585,129.337454 C261.522403,132.474158 262.371309,136.144382 260.903686,140.262007 C259.276325,144.827732 254.488411,146.370879 250.420359,143.737588 C249.746535,143.30139 249.136188,142.744064 248.5656,142.173436 C242.288439,135.886724 236.036389,129.576207 229.753648,123.295097 C227.283659,120.824942 224.978988,118.214056 222.889856,115.414127 C222.467844,114.8484 222.186038,114.49132 221.52477,115.234186 C213.276361,124.500067 203.703324,132.374036 194.708548,140.85574 C193.632244,141.871669 192.583144,142.918404 191.476148,143.900724 C190.729083,144.563073 189.945746,145.203017 189.10521,145.736536 C183.823438,149.087489 179.099001,145.164508 178.261255,141.054585 C177.486289,137.252031 178.436338,134.001901 181.355542,131.317498 C191.654021,121.845771 201.854844,112.26622 212.221681,102.87221 C215.123447,100.241019 214.876518,97.051103 214.777467,93.7631646 C214.752356,92.9362789 213.972506,93.2716542 213.527476,93.2695537 C209.284341,93.2436479 205.041206,93.2541503 200.798768,93.2541503 C195.74579,93.2548504 190.692113,93.2576511 185.639135,93.2555506 C180.897259,93.2534501 177.674624,89.7498633 178.026185,84.9845931 C178.33938,80.7339385 180.044865,78.2756865 183.360272,77.3892874 C184.041768,77.2072465 184.771395,77.1344302 185.478003,77.1344302 C202.020161,77.120427 218.562318,77.1232277 235.105174,77.1232277 L235.105174,77 Z" id="Fill-3" fill="#222222" transform="translate(235.500000, 112.000000) rotate(-90.000000) translate(-235.500000, -112.000000) "></path>
        <path d="M156.167975,146.932538 C165.570432,146.932538 173.311066,146.941642 181.052404,146.929737 C185.493313,146.922735 188.076104,149.043121 188.847212,153.373529 C189.608471,157.652117 187.460484,161.653402 183.842043,162.752109 C183.086413,162.981795 182.327969,162.9958 181.561785,162.994399 C166.560349,162.975492 151.55821,163.066526 136.560291,162.876055 C129.838421,162.790624 123.270632,161.6499 117.494354,157.760657 C111.395843,153.656434 108.088379,147.709827 106.020598,140.899099 C102.496436,129.290891 103.583446,118.086032 109.271777,107.413371 C113.497395,99.485029 120.421893,95.2743663 129.253054,94.0047951 C135.937636,93.0433383 142.670763,93.0454391 149.399669,93.0251316 C159.976378,92.9936199 170.55379,92.9985217 181.131907,93.0041238 C185.165451,93.0055243 187.452744,94.6623392 188.541865,98.3078921 C189.684456,102.134112 188.420148,106.288054 185.543266,108.221471 C184.501988,108.921031 183.313665,109.061083 182.11901,109.189931 C181.739084,109.230546 181.350716,109.203236 180.966569,109.206037 C165.739991,109.307574 150.515525,109.408412 135.289651,109.508549 C133.159253,109.522554 131.072476,109.865682 129.046909,110.483311 C123.978419,112.028084 121.324568,115.76327 120.058853,120.634278 C118.848719,125.295908 118.775548,130.012859 119.835822,134.708101 C121.55182,142.300319 126.376172,146.125839 134.327173,146.582408 C142.159974,147.032675 149.995589,146.848507 156.167975,146.932538" id="Fill-4" fill="#222222" transform="translate(146.500000, 128.000000) rotate(-90.000000) translate(-146.500000, -128.000000) "></path>
        <path d="M59.6616195,99.0085707 C64.154042,99.0774148 71.8268542,98.8252208 79.4864206,99.2846494 C86.0124242,99.6752339 92.1473276,101.34997 97.5369797,105.26846 C103.770878,109.801629 107.198058,116.113502 108.830082,123.517748 C110.806497,132.487142 110.239716,141.346947 107.425329,150.062039 C106.502305,152.919769 105.015288,155.248524 101.740086,155.87093 C96.7387451,156.820696 92.0309039,152.385174 92.7057433,147.287203 C93.1052091,144.281951 94.2297091,141.451618 94.7560559,138.476572 C95.8589442,132.244783 95.2851913,126.295394 91.5178029,121.031636 C89.1774766,117.760842 85.7447193,116.232926 81.8107125,115.998294 C65.9213125,115.048527 50.0116953,115.120884 34.1034723,115.169356 C30.8986824,115.17919 28.2258165,114.326367 26.9047208,111.115988 C25.4672014,107.627422 25.6547343,104.217535 28.1045128,101.240382 C29.43746,99.6197371 31.3797146,99.0071658 33.4802219,99.0078683 C41.1495484,99.0099757 48.8181777,99.0085707 59.6616195,99.0085707" id="Fill-5" fill="#222222" transform="translate(68.000000, 127.500000) rotate(-90.000000) translate(-68.000000, -127.500000) "></path>
        <path d="M294.8063,119.001749 C306.214806,119.003823 317.622512,119.008662 329.030317,119.001749 C334.063358,118.998292 336.998597,121.931376 337,126.997045 C337,132.015707 334.061254,134.985428 328.996651,134.993032 C317.348275,135.009623 305.700701,134.99165 294.053027,134.989576 C283.124258,134.988193 272.194788,134.986119 261.266019,134.993032 C258.106341,134.994415 255.296647,134.301065 253.955625,131.09631 C252.460301,127.521723 252.590757,124.077787 255.272099,121.014744 C256.50511,119.606615 258.144916,119.014883 260.006356,119.010735 C264.799528,119.000366 269.5927,119.001058 274.385872,119.001058 C281.192681,118.998984 287.99949,119.000366 294.8063,119.001749" id="Fill-6" fill="#222222" transform="translate(295.000000, 127.000000) rotate(-90.000000) translate(-295.000000, -127.000000) "></path>
        <path d="M402.40503,144.584869 C400.340034,142.638129 398.91382,140.607143 397.902007,139.054946 C395.259233,134.797108 393.919264,129.699637 393.919264,123.904345 C393.919264,117.371916 395.51727,112.590361 398.667703,109.691662 C401.054544,107.495699 404.311558,106.382272 408.327958,106.382272 C411.250505,106.585862 416.660164,107.881115 420.051805,114.265415 C421.457685,116.912786 422.170091,120.72764 422.170091,125.603268 C422.170091,132.648883 420.690587,140.199262 419.397598,144.628396 L407.452175,144.495009 C405.042896,144.495009 403.346725,144.525197 402.40503,144.584869 M393.729243,163.316547 L393.811983,163.400791 L394.595209,162.549926 L395.261337,162.382139 L395.261337,161.904054 C396.560636,160.950692 399.237067,160.485945 403.433672,160.485945 L433.385579,160.485945 C444.362662,160.485945 451.525288,157.755032 457.333922,151.356692 C463.670549,144.621375 465,134.298664 465,126.824105 C465,114.322982 461.341206,105.306756 459.162618,101.050322 L459.02799,100.770913 C459.02799,100.770913 458.958572,100.633314 458.828151,100.408663 C456.230253,95.9640841 452.466982,94.2651613 448.502471,95.7485596 C445.242652,96.967291 444.398423,100.042903 444.692921,102.51266 C444.763741,103.09956 444.899771,103.718754 445.104518,104.375858 C445.108024,104.386389 445.549772,105.469628 446.532135,107.55818 C447.694703,109.776608 451.435536,117.89072 450.702796,129.035513 C450.573777,130.710567 449.697293,139.22203 445.138876,142.270263 C442.462445,143.891962 437.886498,144.930972 434.001922,144.797586 L432.655643,144.797586 C434.112008,139.21501 435.507371,133.0687 435.507371,124.972139 C435.507371,104.017821 424.872466,91 407.752984,91 C390.634203,91 380,103.542544 380,123.733751 C380,126.127687 380.180205,128.47178 380.532902,130.682485 C380.559547,131.025078 381.256527,139.073199 387.174546,147.658375 C386.518235,148.061343 385.893477,148.519069 385.315699,149.022428 C381.880584,152.018008 381.823788,156.247764 381.957013,157.920712 L381.959818,158.033739 C381.964025,158.126408 381.975945,158.212056 381.97875,158.214162 C382.021522,158.640297 382.071307,158.892327 382.071307,158.892327 L382.496226,161.044062 L382.760573,160.879084 C382.815967,160.983687 382.874166,161.091099 382.940077,161.204126 C383.0123,161.338215 384.737921,164.502283 388.201785,164.93965 C390.21279,165.193085 392.071637,164.647604 393.729243,163.316547" id="Fill-7" fill="#222222" transform="translate(422.500000, 128.000000) rotate(-90.000000) translate(-422.500000, -128.000000) "></path>
        <path d="M305.955496,141.67554 C309.291164,140.735969 311.552395,137.619701 311.318548,134.240186 C311.232171,132.99886 310.989194,131.785539 310.659841,130.577819 C309.277821,125.516597 308.333301,120.406366 309.412652,115.147709 C310.536246,109.673412 313.078376,105.292714 318.781314,103.477983 C320.89086,102.806561 323.071334,102.485202 325.293942,102.4719 C333.364151,102.41939 341.435764,102.364781 349.507378,102.310171 L349.507378,102.207952 L357.305115,102.219154 C357.363402,111.985233 357.034751,121.754812 357.473654,131.51809 C357.641491,135.261672 360.422384,138.017374 364.078978,138.186105 C368.309307,138.38074 371.337391,136.087122 371.951856,132.254624 C372.14989,131.0203 372.215198,129.783874 372.216603,128.537647 C372.229946,119.772051 372.269271,111.005754 372.229946,102.240158 L375.130221,102.244359 L379.205353,102.249259 C379.354229,102.237357 379.514342,102.230356 379.696223,102.232456 C385.646352,102.291967 391.597183,102.273764 397.547312,102.278665 C399.589443,102.280765 401.462332,101.834784 402.821178,100.157979 C405.259376,97.1509309 405.578195,93.8323265 404.142102,90.3239875 C402.781852,87.0004822 399.974274,86.060211 396.684252,86.0525096 C385.215173,86.0266048 373.746094,86.0161029 362.277016,86 L362.277016,86.0742135 C357.621828,86.0679124 352.966641,86.011202 348.312857,86.0651119 C339.345881,86.1694309 330.378201,85.8326695 321.414736,86.6462177 C308.909844,87.7811244 300.391603,94.5177513 296.164083,106.659363 C293.968862,112.964711 293.703413,119.506703 294.232907,126.0788 C294.572092,130.282365 295.42532,134.417318 297.364221,138.223911 C298.944976,141.327577 302.418986,142.673222 305.955496,141.67554" id="Fill-8" fill="#222222" transform="translate(349.500000, 114.000000) rotate(-90.000000) translate(-349.500000, -114.000000) "></path>
    </g>
</svg>