<svg viewBox="0 0 667 136" version="1.1" xmlns="http://www.w3.org/2000/svg" xmlns:xlink="http://www.w3.org/1999/xlink">
    <defs>
        <linearGradient x1="95.6604478%" y1="2.52915743%" x2="24.5598081%" y2="76.4675166%" id="linearGradient-1">
            <stop stop-color="#FFA800" offset="0%"></stop>
            <stop stop-color="#FF6A00" offset="100%"></stop>
        </linearGradient>
    </defs>
    <g id="Page-1" stroke="none" stroke-width="1" fill="none" fill-rule="evenodd">
        <g id="qoala">
            <g id="Group" transform="translate(197.000000, 0.000000)">
                <path d="M0,68.5 C0,30 27.9,2.5 67.5,2.5 C106.7,2.5 134,29.3 134,65.9 C134,86.4 125.6,100.2 111.1,110.3 C106.2,113.6 99.7,116.9 90.4,119.8 L90.4,120.7 C103.4,116.9 112,115 121.9,115 L134.9,115 L134.9,134.40027 L67.8,134.4 C29.2,134.5 0,106.8 0,68.5 Z M109.1,67.9 C109.1,43 93,25.7 67.3,25.7 C41.6,25.7 24.8,43.1 24.8,68.4 C24.8,93.5 42.9,110.9 67.9,110.9 C91.8,111 109.1,93.4 109.1,67.9 Z" id="Shape" fill="#0A2062" fill-rule="nonzero"></path>
                <path d="M331,78.2 L331,131.5 L308.3,131.5 C308.3,125.5 309,121.2 311,116.5 L310.3,116.1 C304.1,128.2 294.2,134.2 281.2,134.2 C263.1,134.2 251,122.3 251,104.5 C251,86.5 263.1,75.2 281.6,75.2 C294.2,75.2 304.1,80.3 310,89.9 L310.7,89.5 C309.6,86.2 309.2,81.8 309.2,77 C308.6,68.2 302.1,63.4 290.5,63.4 C283.9,63.4 276.8,64.3 265.4,67.1 L261,48.2 C271.8,45.5 283.2,44 292.9,44 C319.7,44.1 331,54.2 331,78.2 Z M274.9,103.9 C274.9,111.8 280.9,116.9 289.9,116.9 C299.2,116.9 305.7,111.4 305.7,103.7 C305.7,96 299.3,90.7 290.1,90.7 C281,90.7 274.9,96.2 274.9,103.9 Z" id="Shape" fill="#0A2062" fill-rule="nonzero"></path>
                <polygon id="Path" fill="#0A2062" points="373.9 131.6 351.5 131.6 351.5 0.5 373.9 0.5"></polygon>
                <path d="M469.2,78.2 L469.2,131.5 L446.5,131.5 C446.5,125.5 447.2,121.2 449.3,116.5 L448.6,116.1 C442.4,128.2 432.5,134.2 419.5,134.2 C401.4,134.2 389.3,122.3 389.3,104.5 C389.3,86.5 401.4,75.2 419.9,75.2 C432.5,75.2 442.4,80.3 448.3,89.9 L449,89.5 C447.9,86.2 447.5,81.8 447.5,77 C447,68.2 440.4,63.4 428.8,63.4 C422.2,63.4 415.1,64.3 403.7,67.1 L399.3,48.2 C410.1,45.5 421.5,44 431.2,44 C457.9,44.1 469.2,54.2 469.2,78.2 Z M413.1,103.9 C413.1,111.8 419.1,116.9 428.1,116.9 C437.4,116.9 443.9,111.4 443.9,103.7 C443.9,96 437.5,90.7 428.3,90.7 C419.2,90.7 413.1,96.2 413.1,103.9 Z" id="Shape" fill="#0A2062" fill-rule="nonzero"></path>
                <g transform="translate(144.000000, 14.000000)">
                    <path d="M94.4,76.7 C94.4,103.1 74.6,121.8 47.5,121.8 C20.4,121.8 0.6,103.1 0.6,76.7 C0.6,50.3 20.4,31.6 47.5,31.6 C74.6,31.6 94.4,50.3 94.4,76.7 Z M23.7,76.7 C23.7,91.2 33.6,100.5 47.5,100.5 C61.4,100.5 71.3,91.2 71.3,76.7 C71.3,62.2 61.4,52.9 47.5,52.9 C33.6,52.9 23.7,62.2 23.7,76.7 Z" id="Shape" fill="url(#linearGradient-1)" fill-rule="nonzero"></path>
                    <path d="M60.1,24.6 C60.1,16.9 54.9,12 47.5,12 C40.1,12 34.9,16.9 34.9,24.6 L22.7,27.9 C22.7,14 27.3,0.7 47.5,0.7 C67.6,0.7 72.3,13.9 72.3,27.9 L60.1,24.6 Z" id="Path" fill="#0A2062"></path>
                </g>
            </g>
            <path d="M137.1,60.4 C136.4,57.8 135.5,55.2 134.6,52.8 C133.6,50.3 132.5,47.9 131.2,45.6 C130.4,44.1 129.4,42.6 128.5,41.1 C128,40.3 127.5,39.6 126.9,38.9 C123.6,34.5 119.8,30.5 115.5,27.1 C114.8,26.5 114,26 113.3,25.4 C111.2,23.9 109.1,22.6 107,21.4 C106.5,21.1 105.9,20.8 105.4,20.5 C103.2,19.3 101,18.3 98.7,17.5 C97,16.8 95.2,16.1 93.4,15.7 C92.7,15.5 91.9,15 91.2,15 C91.2,15 91.2,15 91.2,15 C94,14 94.7,12.7 94.6,11.8 C94.5,10.9 93.6,9.9 93,9.3 C92.4,8.7 90.9,7.4 93.6,6.2 C96.3,5.1 96.6,3.8 96.2,2.5 C95.3,-0.5 91.9,0.6 88.1,1.2 C81.8,2.6 76.7,5.9 73.3,8.7 C66.2,6 55.4,3.9 41.8,7.5 C39.2,8.2 36.9,9.1 34.8,10.1 C30.3,7.6 20.7,3.2 9.6,3.8 C4.8,4.4 0.2,4.2 0.2,8.2 C0.2,9.9 1,11.4 4.7,11.8 C8.4,12.2 7.1,14.4 6.6,15.3 C6,16.3 5.3,17.8 5.5,19 C5.7,20.2 6.9,21.2 10.8,21.8 C11.7,22.1 12.6,21.8 12.2,25.2 C12.1,26.7 11.8,28.3 15.1,29.8 C16.2,30.3 19.4,29.9 23,28.7 C22.5,38.4 23.2,45.2 28.3,52.1 C28.3,52.1 30.5,54.6 31.7,55.7 C34.1,57.9 36.8,59.7 39.8,61.2 C41.3,61.9 42.8,62.6 44.5,63.2 C42.3,64 39.3,63.4 35.4,61.3 C31.5,59.2 26.8,55.7 21.3,50.8 C21,51.1 20.5,51.4 20.2,51.8 C18.4,54.4 17,57.2 16,60.2 C15.5,61.7 15.1,63.1 14.7,64.7 C14.4,66.2 14.1,67.7 14,69.3 C13.8,71.2 13.7,73.1 13.6,74.9 C13.4,80.6 13.8,86.2 15.8,91.8 C17.2,95.7 19,99.4 21.1,102.7 C23.3,106 25.8,109.1 28.8,111.8 C30.8,113.6 32.9,115.3 35.3,116.8 C37.2,118 39.1,119.1 41.2,120 C43.2,120.9 45.3,121.7 47.4,122.3 C48.8,122.7 50.2,123.1 51.7,123.4 C55.1,124.1 58.8,124.7 62.2,124.1 C63.5,123.9 64.7,123.5 65.8,123 C66.2,122.8 66.5,122.7 66.8,122.5 C69.8,120.8 71.5,118.1 71.8,114.3 C71.8,114.2 71.8,114.2 71.8,114.1 C71.1,114.2 70.3,114.2 69.6,114.2 C60.8,114.2 53.5,108.1 51.5,99.9 C49.7,101.1 48.1,101.7 47.4,101.6 C45.2,101.3 45.1,100.3 44.9,99.4 C44.5,97.3 44,97.7 43.5,97.6 C41.2,97.9 40.2,97.5 39.9,96.8 C39.6,96.2 39.7,95.1 39.9,94.5 C40.1,93.8 40.4,92.4 38.2,92.8 C36,93.2 35.3,92.5 35,91.5 C34.3,89.2 37,88.5 39.7,87.3 C44.8,85.5 49.9,85.7 53.3,86.3 C53.3,86.3 53.4,86.3 53.4,86.3 C53.4,86.3 53.4,86.3 53.5,86.3 C56.7,80.8 62.7,77.2 69.5,77.2 C70.3,77.2 71.1,77.3 71.8,77.3 C73.6,75 76,72.6 79,70.7 C81.8,69.2 84.2,67.3 85.7,69.4 C86.4,70.3 86.5,71.4 84.7,73.1 C82.9,74.8 84.4,75.4 85.1,75.7 C85.8,76 86.8,76.6 87.1,77.3 C87.4,78 87.2,79 85.4,80.9 C85.1,81.4 84.4,81.6 85.9,83.3 C86.5,84.1 87.4,84.8 86.1,86.9 C86.1,87 86,87.1 85.9,87.1 C86.3,87.9 86.7,88.7 87,89.6 C87.2,89.9 87.6,91 87.9,92.9 C87.9,92.9 90.9,89 91.9,90 C92.9,91 96.4,93.3 85.3,106.7 C83.4,111.1 80.2,116.3 75.1,122.2 L75,122.1 C74.8,122.3 74.6,122.6 74.4,122.8 C74.1,123.1 73.8,123.4 73.5,123.7 C73.1,124.1 72.7,124.4 72.3,124.8 C71,125.8 69.7,126.7 68.5,127.8 C68.3,128 68.1,128.2 68,128.6 C67.9,128.9 67.8,129.2 67.8,129.5 C67.8,129.7 67.8,129.9 67.9,130 C68.1,130.5 69.2,130.9 69.9,131 C71.6,131 73.2,131 74.9,131 C76.6,131 78.2,131 79.8,131.1 C81.6,131.2 83.4,131.1 85,130.7 C86.6,130.3 88.1,129.7 89.5,128.7 C90.4,128.1 91.3,127.3 92.1,126.4 C93.5,124.8 94.9,123.3 96.4,121.8 C98.8,119.3 101.2,116.7 103.2,114 C105.6,110.8 107.4,107.3 109.4,103.9 C115.9,92.8 116.6,69.7 115.8,64.9 C115.7,64.6 116.1,64.1 116.4,63.4 C116.5,63.3 116.5,63.2 116.6,63.1 C118.8,67.1 119.3,70.9 119.5,74.7 C119.6,76 119.6,77.3 119.7,78.6 C119.8,82.5 119.6,86.3 119.2,90 C117.5,104.8 111.7,118.4 101.5,130.5 C101.6,130.8 101.7,131.1 101.9,131.4 C102.9,131.2 103.9,131.2 105,131.1 C105.7,131 106.4,131 107,130.9 C107.3,130.8 107.7,130.8 108,130.7 C108.6,130.5 109.2,130.3 109.8,130 C110.7,129.5 111.5,129 112.4,128.4 C117.4,125.1 121.7,120.8 125.5,116.1 C126.1,115.3 126.8,114.5 127.4,113.7 C130.1,110.1 132.4,106.2 134.2,102.2 C134.5,101.6 134.7,101 134.9,100.5 C135.4,99.3 135.8,98.2 136.2,97 C137.4,93.4 138.2,89.7 138.6,85.9 C138.9,82.8 139.2,79.6 139.2,76.5 C139.1,71 138.5,65.7 137.1,60.4 Z M42.7,32.6 C42.4,34.6 40.1,36.1 37.9,35.8 C35.8,35.6 34.3,33.8 34.6,31.9 C34.9,29.8 37.2,28.3 39.5,28.6 C41.6,28.9 43,30.6 42.7,32.6 Z M60.9,46.7 C56.4,47.5 52.3,45.8 51.1,39.2 C49.9,32.6 52.6,26.5 57.1,25.7 C61.6,24.9 66.3,29.6 67.5,36.2 C68.6,42.8 65.4,45.9 60.9,46.7 Z M78.4,28.8 C78.1,30.3 76.5,31.3 74.8,31 C73,30.7 71.7,29.2 72,27.6 C72.3,26.1 73.9,25.1 75.6,25.4 C77.4,25.7 78.7,27.3 78.4,28.8 Z" id="Shape" fill="#FF6A00" fill-rule="nonzero"></path>
        </g>
    </g>
</svg>