<svg viewBox="0 0 842 107" version="1.1" xmlns="http://www.w3.org/2000/svg" xmlns:xlink="http://www.w3.org/1999/xlink">
    <g id="Page-3" stroke="none" stroke-width="1" fill="none" fill-rule="evenodd">
        <g id="Artboard-1" transform="translate(-70.000000, -351.000000)">
            <g id="Group" transform="translate(491.500000, 404.500000) rotate(-90.000000) translate(-491.500000, -404.500000) translate(438.000000, -17.000000)">
                <path d="M44.8231,283.2248 L102.4727,257.1121 C105.5858,255.7063 106.8937,253.2961 106.8937,249.781 L106.8937,249.1785 C106.8937,245.6628 105.5858,243.1528 102.4727,241.7464 L44.5227,215.6344 C43.5182,215.1321 42.7649,214.8305 41.8607,214.8305 C38.6466,214.8305 36.2112,217.3417 36.2112,220.5552 C36.2112,223.1667 37.6551,225.2754 40.1657,226.2799 L93.1139,249.2788 L40.6128,272.0771 C38.0012,273.1813 36.2904,275.1902 36.2904,278.1027 C36.2904,281.4171 38.8995,283.9277 42.2139,283.9277 C43.0171,283.9277 43.9189,283.7271 44.8231,283.2248" id="Fill-1" fill="#5591A1"></path>
                <path d="M42.2969,0 L98.7936,0 C102.2259,0 104.875,2.6467 104.875,6.0814 L104.875,46.0002 C104.875,48.9438 102.4219,51.3946 99.4806,51.3946 C96.4391,51.3946 94.0863,48.9438 94.0863,46.0002 L94.0863,12.0642 L76.2353,12.0642 L76.2353,41.5869 C76.2353,44.5305 73.7822,46.9812 70.7406,46.9812 C67.7988,46.9812 65.4443,44.5305 65.4443,41.5869 L65.4443,12.0642 L47.0042,12.0642 L47.0042,46.4907 C47.0042,49.4343 44.5534,51.8851 41.6098,51.8851 C38.5706,51.8851 36.2155,49.4343 36.2155,46.4907 L36.2155,6.0814 C36.2155,2.6467 38.8651,0 42.2969,0" id="Fill-3" fill="#5591A1"></path>
                <path d="M99.1862,65.7156 C102.52,65.7156 105.2676,68.3623 105.2676,71.797 L105.2676,73.0702 C105.2676,76.0138 103.7955,77.6818 101.7373,79.3475 L57.3048,113.6784 L99.4808,113.6784 C102.7165,113.6784 105.3656,116.3275 105.3656,119.5632 C105.3656,122.897 102.7165,125.5461 99.4808,125.5461 L41.8065,125.5461 C38.4727,125.5461 35.8231,122.995 35.8231,119.6612 L35.8231,119.1707 C35.8231,116.3275 37.2952,114.5614 39.4514,112.8934 L85.1594,77.5838 L41.6099,77.5838 C38.3742,77.5838 35.7251,74.9342 35.7251,71.6984 C35.7251,68.3623 38.3742,65.7156 41.6099,65.7156 L99.1862,65.7156 Z" id="Fill-4" fill="#5591A1"></path>
                <path d="M70.3503,140.1593 L70.5462,140.1593 C89.769,140.1593 106.0523,154.8725 106.0523,175.5668 C106.0523,185.8673 103.5993,192.7337 99.0879,199.0111 C98.2049,200.1886 96.5369,201.4618 94.1841,201.4618 C90.9466,201.4618 88.2013,198.8145 88.2013,195.4784 C88.2013,193.9113 88.8884,192.7337 89.5748,191.7522 C92.8106,187.3394 94.9692,182.5312 94.9692,175.0787 C94.9692,162.426 83.8842,152.8125 70.7404,152.8125 L70.5462,152.8125 C56.4215,152.8125 46.023,162.1315 46.023,176.1559 C46.023,182.6292 48.0836,188.5146 51.2237,192.7337 L64.0729,192.7337 L64.0729,179.1975 C64.0729,176.2539 66.3271,173.8031 69.2707,173.8031 C72.2125,173.8031 74.567,176.2539 74.567,179.1975 L74.567,198.324 C74.567,201.7564 71.918,204.4054 68.4862,204.4054 L50.1441,204.4054 C46.71,204.4054 44.2593,203.0319 42.4933,200.1886 C38.5704,194.3015 35.0384,186.0639 35.0384,175.7634 C35.0384,154.284 50.3407,140.1593 70.3503,140.1593" id="Fill-5" fill="#5591A1"></path>
                <path d="M70.3479,289.4159 L70.5439,289.4159 C89.7667,289.4159 106.05,304.1291 106.05,324.8234 C106.05,335.1239 103.5969,341.9903 99.0856,348.2677 C98.2026,349.4452 96.5345,350.7184 94.1818,350.7184 C90.9442,350.7184 88.199,348.0711 88.199,344.735 C88.199,343.1679 88.886,341.9903 89.5725,341.0087 C92.8083,336.596 94.9668,331.7878 94.9668,324.3353 C94.9668,311.6826 83.8819,302.0685 70.7381,302.0685 L70.5439,302.0685 C56.4191,302.0685 46.0206,311.388 46.0206,325.4125 C46.0206,331.8858 48.0812,337.7712 51.2213,341.9903 L64.0706,341.9903 L64.0706,328.454 C64.0706,325.5105 66.3248,323.0597 69.2684,323.0597 C72.2102,323.0597 74.5647,325.5105 74.5647,328.454 L74.5647,347.5806 C74.5647,351.0129 71.9156,353.662 68.4839,353.662 L50.1418,353.662 C46.7077,353.662 44.2569,352.2885 42.4909,349.4452 C38.5681,343.558 35.036,335.3205 35.036,325.02 C35.036,303.5406 50.3383,289.4159 70.3479,289.4159" id="Fill-6" fill="#5591A1"></path>
                <path d="M42.2945,369.3544 L98.7912,369.3544 C102.2236,369.3544 104.8726,372.0011 104.8726,375.4358 L104.8726,415.3546 C104.8726,418.2982 102.4195,420.7489 99.4783,420.7489 C96.4367,420.7489 94.084,418.2982 94.084,415.3546 L94.084,381.4186 L76.2329,381.4186 L76.2329,410.9413 C76.2329,413.8825 73.7798,416.3356 70.7383,416.3356 C67.7964,416.3356 65.4419,413.8825 65.4419,410.9413 L65.4419,381.4186 L47.0018,381.4186 L47.0018,415.8451 C47.0018,418.7887 44.5511,421.2394 41.6075,421.2394 C38.5683,421.2394 36.2132,418.7887 36.2132,415.8451 L36.2132,375.4358 C36.2132,372.0011 38.8628,369.3544 42.2945,369.3544" id="Fill-7" fill="#5591A1"></path>
                <path d="M69.2709,459.2802 C69.2709,470.7559 75.0578,479.2898 84.9634,479.2898 L85.1594,479.2898 C94.3809,479.2898 100.1678,472.0314 100.1678,459.5747 L100.1678,436.1328 L69.2709,436.1328 L69.2709,459.2802 Z M102.324,431.0307 C103.6975,431.0307 104.875,432.2082 104.875,433.5817 L104.875,459.8687 C104.875,468.3028 102.2254,475.0707 98.1072,479.1918 C94.8714,482.4276 90.2598,484.3902 85.3559,484.3902 L85.1594,484.3902 C73.6843,484.3902 67.1124,475.8557 65.5423,464.282 L40.2364,483.8011 C39.6479,484.2916 39.0612,484.5861 38.4727,484.5861 C37.0986,484.5861 35.823,483.3106 35.823,481.9371 C35.823,480.9555 36.4121,480.2714 37.1971,479.6823 L64.6593,458.5931 L64.6593,436.1328 L38.3741,436.1328 C37.0006,436.1328 35.823,434.9553 35.823,433.5817 C35.823,432.2082 37.0006,431.0307 38.3741,431.0307 L102.324,431.0307 Z" id="Fill-8" fill="#E16E1A"></path>
                <path d="M70.3503,562.6604 L70.5462,562.6604 C87.5143,562.6604 101.4431,550.3017 101.4431,533.3313 C101.4431,516.3633 87.7108,504.2011 70.7404,504.2011 L70.5462,504.2011 C53.5764,504.2011 39.6477,516.5598 39.6477,533.5279 C39.6477,550.4982 53.3799,562.6604 70.3503,562.6604 M70.3503,498.9048 L70.5462,498.9048 C89.2809,498.9048 106.0523,512.7356 106.0523,533.5279 C106.0523,554.3225 89.4768,567.9567 70.7404,567.9567 L70.5462,567.9567 C51.8122,567.9567 35.0384,554.1259 35.0384,533.3313 C35.0384,512.539 51.6162,498.9048 70.3503,498.9048" id="Fill-9" fill="#E16E1A"></path>
                <path d="M70.3503,582.2753 L70.5462,582.2753 C89.965,582.2753 106.0523,596.7926 106.0523,616.6039 C106.0523,627.9834 102.1301,635.1414 96.4389,641.8118 C95.9484,642.3023 95.2637,642.7928 94.3807,642.7928 C93.0072,642.7928 91.8296,641.5173 91.8296,640.1461 C91.8296,639.4591 92.1241,638.772 92.5161,638.3795 C97.7144,632.6912 101.4431,626.1193 101.4431,616.5059 C101.4431,600.0284 88.0053,587.5717 70.7404,587.5717 L70.5462,587.5717 C53.1839,587.5717 39.6477,600.2243 39.6477,616.6039 C39.6477,625.9228 42.9838,632.4947 49.1631,638.9686 C49.5556,639.3611 49.9482,639.9496 49.9482,640.7346 C49.9482,642.0078 48.7706,643.1853 47.4951,643.1853 C46.71,643.1853 46.1216,642.7928 45.729,642.4003 C39.2575,635.4359 35.0384,627.8854 35.0384,616.4073 C35.0384,596.7926 50.6346,582.2753 70.3503,582.2753" id="Fill-10" fill="#E16E1A"></path>
                <path d="M102.7162,657.7002 C104.0898,657.7002 105.2673,658.8778 105.2673,660.2513 C105.2673,661.6248 104.0898,662.8024 102.7162,662.8024 L59.7552,662.8024 L104.4823,706.1559 C104.8748,706.5484 105.2673,707.1346 105.2673,707.9196 C105.2673,709.1951 103.9918,710.4707 102.7162,710.4707 C102.0315,710.4707 101.4431,710.1767 100.9526,709.6856 L74.567,683.4967 L40.3347,711.4522 C39.7456,711.9427 39.2575,712.2373 38.4724,712.2373 C37.0989,712.2373 35.8234,710.9612 35.8234,709.5876 C35.8234,708.7046 36.3139,708.0176 36.8044,707.6251 L70.9364,679.8684 L53.6744,662.8024 L38.3745,662.8024 C37.0004,662.8024 35.8234,661.6248 35.8234,660.2513 C35.8234,658.8778 37.0004,657.7002 38.3745,657.7002 L102.7162,657.7002 Z" id="Fill-11" fill="#E16E1A"></path>
                <path d="M38.7669,727.829 L102.3236,727.829 C103.6977,727.829 104.8747,729.0065 104.8747,730.38 L104.8747,774.71457 C104.8747,775.99011 103.7957,777.06968 102.5202,777.06968 C101.247,777.06968 100.1674,775.99011 100.1674,774.71457 L100.1674,732.9311 L73.1934,732.9311 L73.1934,770.30124 C73.1934,771.57443 72.1138,772.654 70.8383,772.654 C69.5651,772.654 68.4861,771.57443 68.4861,770.30124 L68.4861,732.9311 L40.9231,732.9311 L40.9231,775.20507 C40.9231,776.48061 39.8441,777.55783 38.5709,777.55783 C37.2948,777.55783 36.2158,776.48061 36.2158,775.20507 L36.2158,730.38 C36.2158,729.0065 37.3933,727.829 38.7669,727.829" id="Fill-12" fill="#E16E1A"></path>
                <path d="M100.1675,812.57538 L100.1675,790.60555 C100.1675,789.33001 101.247,788.25044 102.5202,788.25044 C103.7958,788.25044 104.8747,789.33001 104.8747,790.60555 L104.8747,839.647359 C104.8747,840.922894 103.7958,842.002464 102.5202,842.002464 C101.247,842.002464 100.1675,840.922894 100.1675,839.647359 L100.1675,817.67752 L38.3744,817.67752 C37.0009,817.67752 35.8233,816.49997 35.8233,815.12645 C35.8233,813.75294 37.0009,812.57538 38.3744,812.57538 L100.1675,812.57538 Z" id="Fill-13" fill="#E16E1A"></path>
                <path d="M41.9573,257.7349 C35.1454,256.9323 20.952,252.5829 15.4186,249.4621 C20.4422,246.2129 34.6849,241.8799 41.9444,241.0527 C41.0619,239.0572 39.8867,237.0512 38.383,235.0258 C23.8956,235.0258 0.1063,249.3794 0.1063,249.3794 C0.1063,249.3794 23.8956,263.733 38.383,263.733 C39.8985,261.7164 41.076,259.7204 41.9573,257.7349" id="Fill-14" fill="#E16E1A"></path>
            </g>
        </g>
    </g>
</svg>