<svg xmlns="http://www.w3.org/2000/svg" width="300" height="300" viewBox="0 0 300 300">
  <g fill="none" fill-rule="evenodd">
    <rect width="210.144" height="163.677" x="42.935" y="112.291" fill="#ED018C" stroke="#261D3F" stroke-linecap="round" stroke-linejoin="round" stroke-width="3"/>
    <circle cx="227.519" cy="148.525" r="4.514" fill="#FFF"/>
    <circle cx="60.236" cy="181.568" r="1.801" fill="#FFF"/>
    <circle cx="205.298" cy="137.051" r="1.491" fill="#FFF"/>
    <g transform="translate(165.338 152.186)">
      <polygon fill="#372176" stroke="#261D3F" stroke-width="3" points="7.589 6.121 7.589 0 28.673 0 28.673 6.121 36.727 6.121 36.727 123.102 0 123.102 0 6.121"/>
      <rect width="5.167" height="8.3" x="6.25" y="12.868" fill="#FED636"/>
      <rect width="5.167" height="8.3" x="6.305" y="24.172" fill="#FED636"/>
      <rect width="5.167" height="8.3" x="6.305" y="35.475" fill="#FED636"/>
      <rect width="5.167" height="8.3" x="6.25" y="46.779" fill="#FED636"/>
      <rect width="5.167" height="8.3" x="6.25" y="58.082" fill="#FED636"/>
      <rect width="5.167" height="8.3" x="6.305" y="69.386" fill="#FED636"/>
      <rect width="5.167" height="8.3" x="25.199" y="12.868" fill="#FED636"/>
      <rect width="5.167" height="8.3" x="25.255" y="24.172" fill="#FED636"/>
      <rect width="5.167" height="8.3" x="25.255" y="35.475" fill="#FED636"/>
      <rect width="5.167" height="8.3" x="25.199" y="46.779" fill="#FED636"/>
      <rect width="5.167" height="8.3" x="25.199" y="58.082" fill="#FED636"/>
      <rect width="5.167" height="8.3" x="25.255" y="69.386" fill="#FED636"/>
      <rect width="5.167" height="8.3" x="15.548" y="12.868" fill="#FED636"/>
      <rect width="5.167" height="8.3" x="15.603" y="24.172" fill="#FED636"/>
      <rect width="5.167" height="8.3" x="15.603" y="35.475" fill="#FED636"/>
      <rect width="5.167" height="8.3" x="15.548" y="46.779" fill="#FED636"/>
      <rect width="5.167" height="8.3" x="15.548" y="58.082" fill="#FED636"/>
      <rect width="5.167" height="8.3" x="15.603" y="69.386" fill="#FED636"/>
    </g>
    <rect width="34.006" height="141.465" x="131.332" y="134.2" fill="#372176" stroke="#261D3F" stroke-width="3"/>
    <rect width="42.388" height="141.465" x="100.583" y="134.2" fill="#372176" stroke="#261D3F" stroke-width="3"/>
    <rect width="58.49" height="59.901" x="177.58" y="216.067" fill="#372176" stroke="#261D3F" stroke-width="3"/>
    <path fill="#FED636" d="M187.616615 236.980833C187.674391 232.575687 191.276449 229.022405 195.711465 229.022405 200.146481 229.022405 203.74854 232.575687 203.806315 236.980833L203.80702 275.96794 187.61591 275.96794 187.61591 236.980833zM209.788687 236.980833C209.846463 232.575687 213.448521 229.022405 217.883537 229.022405 222.318553 229.022405 225.920612 232.575687 225.978387 236.980833L225.979092 275.96794 209.787982 275.96794 209.787982 236.980833z"/>
    <rect width="6.801" height="125.142" x="109.478" y="142.361" fill="#FED636"/>
    <rect width="6.801" height="125.142" x="121.777" y="142.361" fill="#FED636"/>
    <polygon fill="#372176" stroke="#261D3F" stroke-width="3" points="53.288 275.705 53.288 231.757 81.483 204.932 113.183 204.932 114.094 275.705"/>
    <polygon fill="#372176" stroke="#261D3F" stroke-width="3" points="70.527 275.968 70.527 232.02 98.722 205.195 130.422 205.195 131.332 275.968"/>
    <rect width="5.441" height="4.761" x="59.316" y="235.558" fill="#FED636"/>
    <rect width="12.769" height="4.761" x="76.319" y="235.558" fill="#FED636"/>
    <rect width="12.769" height="4.761" x="91.842" y="235.558" fill="#FED636"/>
    <rect width="12.769" height="4.761" x="107.001" y="235.558" fill="#FED636"/>
    <rect width="12.769" height="4.761" x="76.319" y="246.017" fill="#FED636"/>
    <rect width="12.769" height="4.761" x="91.842" y="246.017" fill="#FED636"/>
    <rect width="12.769" height="4.761" x="107.001" y="246.017" fill="#FED636"/>
    <rect width="12.769" height="4.761" x="107.001" y="214.639" fill="#FED636"/>
    <rect width="12.769" height="4.761" x="76.319" y="256.477" fill="#FED636"/>
    <rect width="12.769" height="4.761" x="91.842" y="256.477" fill="#FED636"/>
    <rect width="12.769" height="4.761" x="107.001" y="256.477" fill="#FED636"/>
    <rect width="12.769" height="4.761" x="107.001" y="225.098" fill="#FED636"/>
    <rect width="12.769" height="4.761" x="91.842" y="225.098" fill="#FED636"/>
    <rect width="5.441" height="4.761" x="59.316" y="246.017" fill="#FED636"/>
    <rect width="5.441" height="4.761" x="59.316" y="256.477" fill="#FED636"/>
    <rect width="5.441" height="4.761" x="59.316" y="266.936" fill="#FED636"/>
    <g transform="translate(73.378 68.928)">
      <rect width="149.257" height="6.801" y="199.956" fill="#FFF" stroke="#261D3F" stroke-linecap="round" stroke-linejoin="round" stroke-width="3"/>
      <rect width="46.092" height="6.801" x="51.582" y="142.825" fill="#FFF" stroke="#261D3F" stroke-linecap="round" stroke-linejoin="round" stroke-width="3"/>
      <rect width="43.327" height="6.801" x="52.96" y="123.782" fill="#FFF" stroke="#261D3F" stroke-linecap="round" stroke-linejoin="round" stroke-width="3"/>
      <rect width="37.316" height="12.242" x="55.97" y="130.583" fill="#FFF" stroke="#261D3F" stroke-linecap="round" stroke-linejoin="round" stroke-width="3"/>
      <polygon fill="#FFF" stroke="#261D3F" stroke-linecap="round" stroke-linejoin="round" stroke-width="3" points="46.092 149.627 103.156 149.627 116.062 199.956 33.186 199.956"/>
      <polygon fill="#FFF" stroke="#261D3F" stroke-linecap="round" stroke-linejoin="round" stroke-width="3" points="59.639 149.627 89.618 149.627 102.524 199.956 46.733 199.956"/>
      <rect width="16.593" height="6.801" x="66.332" y="161.849" fill="#FFF" stroke="#261D3F" stroke-linecap="round" stroke-linejoin="round" stroke-width="3"/>
      <g fill="#FFF" stroke="#261D3F" stroke-linecap="round" stroke-linejoin="round" stroke-width="3" transform="translate(67.92 183.633)">
        <path d="M45.1235537 8.05893368L.460923891 8.05893368M42.8659219 1.03194098L12.4449451.871041947M19.5984707 1.03194098L19.5984707 8.05893368M13.1522904 8.05893368L13.1522904 15.7699879M26.2726618 8.05893368L26.2726618 15.7699879"/>
      </g>
      <polygon fill="#FFF" stroke="#261D3F" stroke-linecap="round" stroke-linejoin="round" stroke-width="3" points="83.864 6.451 86.942 123.782 62.315 123.782 65.393 6.451 74.624 0"/>
      <circle cx="74.624" cy="11.377" r="1.875" fill="#261D3F"/>
      <circle cx="78.374" cy="16.101" r="1.875" fill="#261D3F"/>
      <circle cx="70.874" cy="16.101" r="1.875" fill="#261D3F"/>
    </g>
    <path fill="#FFF" stroke="#261D3F" stroke-linecap="round" stroke-width="3" d="M86.7381121 149.288352L99.7052151 149.288352C104.137537 149.288352 107.730645 152.881459 107.730645 157.313782 107.730645 161.746104 104.137537 165.339211 99.7052151 165.339211L58.6258972 165.339211C54.1935748 165.339211 50.6004676 161.746104 50.6004676 157.313782 50.6004676 156.358815 50.7672629 155.442806 51.07331 154.593297L38.106207 154.593297C33.6738846 154.593297 30.0807774 151.00019 30.0807774 146.567867 30.0807774 142.135545 33.6738846 138.542438 38.106207 138.542438L79.1855249 138.542438C83.6178473 138.542438 87.2109545 142.135545 87.2109545 146.567867 87.2109545 147.522834 87.0441592 148.438843 86.7381121 149.288352zM266.830566 190.494001L279.797669 190.494001C284.229991 190.494001 287.823098 194.087109 287.823098 198.519431 287.823098 202.951753 284.229991 206.544861 279.797669 206.544861L238.718351 206.544861C234.286028 206.544861 230.692921 202.951753 230.692921 198.519431 230.692921 197.564465 230.859716 196.648455 231.165763 195.798946L218.19866 195.798946C213.766338 195.798946 210.173231 192.205839 210.173231 187.773517 210.173231 183.341194 213.766338 179.748087 218.19866 179.748087L259.277978 179.748087C263.710301 179.748087 267.303408 183.341194 267.303408 187.773517 267.303408 188.728483 267.136613 189.644493 266.830566 190.494001z"/>
    <g fill="#FFF" stroke="#261D3F" stroke-linecap="round" stroke-linejoin="round" stroke-width="3" transform="translate(138.133 135.56)">
      <path d="M15.4932655,32.6458155 L4.24428871,32.6458155 C3.22841932,38.0867847 2.72048462,42.6209258 2.72048462,46.2482386 C2.72048462,49.8755515 2.72048462,53.0494502 2.72048462,55.7699348 L17.6831501,55.7699348 C18.0350667,49.5108939 18.0350667,44.5233388 17.6831501,40.8072694 C17.3312334,37.0912 16.6012719,34.3707153 15.4932655,32.6458155 Z"/>
      <path d="M14.4994443,9.52169619 L4.24428871,9.52169619 C1.4147629,12.2537918 2.05274055e-16,15.4276905 0,19.0433924 C0,22.6590942 0.385373311,26.9599241 1.15611993,31.9458819 L3.42993915,31.9458819 L2.72048462,36.7465074 L17.3081337,36.7465074 L15.4932655,25.8446039 C19.1107675,25.0185796 20.9195185,22.9517412 20.9195185,19.6440886 C20.9195185,16.336436 18.7794938,12.9623052 14.4994443,9.52169619 Z"/>
      <polyline points="15.493 25.845 11.882 27.205 10.058 21.764 13.954 20.404"/>
      <polyline points="3.236 32.21 6.976 30.97 5.523 23.804"/>
      <path d="M10.3337861,55.7699348 C10.8403726,49.4221374 10.7485137,44.8879963 10.0582094,42.1675117"/>
      <ellipse cx="9.873" cy="4.761" rx="4.081" ry="4.761"/>
    </g>
  </g>
</svg>
