<?xml version="1.0" encoding="utf-8"?>
<!-- Generator: Adobe Illustrator 19.0.0, SVG Export Plug-In . SVG Version: 6.00 Build 0)  -->
<svg version="1.1" id="Layer_1" xmlns="http://www.w3.org/2000/svg" xmlns:xlink="http://www.w3.org/1999/xlink" x="0px" y="0px"
	 viewBox="0 0 1080 1080" style="enable-background:new 0 0 1080 1080;" xml:space="preserve">
<style type="text/css">
	.st0{fill:#EA118D;stroke:#261C3F;stroke-width:12;stroke-linecap:round;stroke-linejoin:round;stroke-miterlimit:10;}
	.st1{clip-path:url(#XMLID_3_);}
	.st2{clip-path:url(#XMLID_4_);fill:#362B74;stroke:#261C3F;stroke-width:12;stroke-miterlimit:10;}
	.st3{clip-path:url(#XMLID_4_);fill:#FFD635;}
	.st4{fill:#362B74;stroke:#261C3F;stroke-width:12;stroke-miterlimit:10;}
	.st5{fill:#FFD635;}
	.st6{clip-path:url(#XMLID_5_);fill:#362B74;stroke:#261C3F;stroke-width:12;stroke-miterlimit:10;}
	.st7{clip-path:url(#XMLID_5_);fill:#FFD635;}
	.st8{fill:#FFFFFF;stroke:#261C3F;stroke-width:12;stroke-linecap:round;stroke-linejoin:round;stroke-miterlimit:10;}
	.st9{fill:none;stroke:#261C3F;stroke-width:12;stroke-linecap:round;stroke-linejoin:round;stroke-miterlimit:10;}
	.st10{fill:#FFFFFF;stroke:#261C3F;stroke-width:13;stroke-miterlimit:10;}
	.st11{fill:#FFFFFF;}
</style>
<g id="XMLID_852_">
	<rect id="XMLID_754_" x="117.2" y="340.2" class="st0" width="837.5" height="644.4"/>
	<g id="XMLID_815_">
		<defs>
			<rect id="XMLID_813_" x="121.3" y="333.6" width="837.5" height="644.4"/>
		</defs>
		<clipPath id="XMLID_3_">
			<use xlink:href="#XMLID_813_"  style="overflow:visible;"/>
		</clipPath>
		<g id="XMLID_836_" class="st1">
			<defs>
				<rect id="XMLID_837_" x="115.4" y="356.5" width="837.5" height="644.4"/>
			</defs>
			<clipPath id="XMLID_4_">
				<use xlink:href="#XMLID_837_"  style="overflow:visible;"/>
			</clipPath>
			<polygon id="XMLID_848_" class="st2" points="880.5,500.3 781.3,500.3 781.3,475.1 706.9,475.1 706.9,500.4 689.9,500.4 
				689.9,1000.9 864.2,1000.9 864.2,1000.8 921.5,1000.8 921.5,551.3 			"/>
			<polyline id="XMLID_847_" class="st2" points="796.9,500.3 830.5,557.3 830.5,1000.8 			"/>
			<rect id="XMLID_846_" x="713.5" y="569.7" class="st3" width="12.5" height="403.6"/>
			<rect id="XMLID_845_" x="748.3" y="569.7" class="st3" width="12.5" height="403.6"/>
			<rect id="XMLID_844_" x="784.5" y="569.7" class="st3" width="12.5" height="403.6"/>
			<rect id="XMLID_843_" x="846.7" y="743.1" class="st3" width="16.2" height="56.9"/>
			<rect id="XMLID_842_" x="846.7" y="829.8" class="st3" width="16.2" height="56.9"/>
			<rect id="XMLID_841_" x="846.7" y="916.4" class="st3" width="16.2" height="56.9"/>
			<rect id="XMLID_840_" x="883.5" y="743.1" class="st3" width="16.2" height="56.9"/>
			<rect id="XMLID_839_" x="883.5" y="829.8" class="st3" width="16.2" height="56.9"/>
			<rect id="XMLID_838_" x="883.5" y="916.4" class="st3" width="16.2" height="56.9"/>
		</g>
		<g id="XMLID_814_" class="st1">
			<rect id="XMLID_812_" x="188.6" y="463.3" class="st4" width="271.1" height="542.5"/>
			<rect id="XMLID_811_" x="236.6" y="522.8" class="st5" width="37" height="449.4"/>
			<rect id="XMLID_810_" x="308.4" y="522" class="st5" width="37" height="449.4"/>
			<rect id="XMLID_809_" x="380.3" y="523.5" class="st5" width="37" height="449.4"/>
		</g>
		<g id="XMLID_295_" class="st1">
			<defs>
				<rect id="XMLID_816_" x="295.3" y="526.4" width="837.5" height="448.3"/>
			</defs>
			<clipPath id="XMLID_5_">
				<use xlink:href="#XMLID_816_"  style="overflow:visible;"/>
			</clipPath>
			<rect id="XMLID_833_" x="678.8" y="665.3" class="st6" width="118.6" height="310.6"/>
			<rect id="XMLID_832_" x="630.7" y="665.3" class="st6" width="48.1" height="310.6"/>
			<rect id="XMLID_831_" x="764.9" y="680.1" class="st7" width="18.7" height="37.3"/>
			<rect id="XMLID_830_" x="735.3" y="680.1" class="st7" width="18.7" height="37.3"/>
			<rect id="XMLID_829_" x="705" y="680.1" class="st7" width="18.7" height="37.3"/>
			<rect id="XMLID_828_" x="764.9" y="731.2" class="st7" width="18.7" height="37.3"/>
			<rect id="XMLID_827_" x="735.3" y="731.2" class="st7" width="18.7" height="37.3"/>
			<rect id="XMLID_826_" x="705" y="731.2" class="st7" width="18.7" height="37.3"/>
			<rect id="XMLID_825_" x="764.9" y="782.2" class="st7" width="18.7" height="37.3"/>
			<rect id="XMLID_824_" x="735.3" y="782.2" class="st7" width="18.7" height="37.3"/>
			<rect id="XMLID_823_" x="705" y="782.2" class="st7" width="18.7" height="37.3"/>
			<rect id="XMLID_822_" x="764.9" y="833.2" class="st7" width="18.7" height="37.3"/>
			<rect id="XMLID_821_" x="735.3" y="833.2" class="st7" width="18.7" height="37.3"/>
			<rect id="XMLID_820_" x="705" y="833.2" class="st7" width="18.7" height="37.3"/>
			<rect id="XMLID_819_" x="764.9" y="884.3" class="st7" width="18.7" height="37.3"/>
			<rect id="XMLID_818_" x="735.3" y="884.3" class="st7" width="18.7" height="37.3"/>
			<rect id="XMLID_817_" x="705" y="884.3" class="st7" width="18.7" height="37.3"/>
		</g>
	</g>
	<g id="XMLID_802_">
		<rect id="XMLID_801_" x="389.1" y="867.7" class="st8" width="293.6" height="50.2"/>
		<path id="XMLID_799_" class="st8" d="M682.6,335.1c0,0,187.7,476.2-134.4,531.8c0,0-183.8,25.5-161.3-207.8l69.8-40.4
			c0,0-5.2,77.7,15.1,120.5c14,29.5,57.7,23.5,63.1-8.7c6.1-36.2,1.2-107.4-56.2-241.4L682.6,335.1z"/>
		<path id="XMLID_798_" class="st8" d="M386.3,681.3c-3.9,5.7,31.1-113.1-62.9-280.9c0,0,46.5-47.1,71.8,8.6
			C395.1,409,484.9,538.8,386.3,681.3z"/>
		<path id="XMLID_797_" class="st8" d="M382.7,368.7c0,0,69.4,202.8,11.9,321.7c0,0,92.1-110.7,75.8-244
			c-2.9-23.5-14-45.3-31.9-60.8C424.7,373.7,406.1,364.5,382.7,368.7z"/>
		<path id="XMLID_796_" class="st8" d="M464.5,423c0,0,27.4-37.7,42,7.2c0,0,54.2,140.9-93.3,234.1
			C413.2,664.2,495.1,504.9,464.5,423z"/>
		<path id="XMLID_795_" class="st8" d="M663.2,209.6c-55.2,193.7-152.8,264.7-152.8,264.7c-31.1-8.6-58.1-47.3-58.1-47.3
			c3.9-8.2,14-20.7,25-33.1c19-21.4,40.1-40.6,62.8-57.7c94.9-71.6,120-132.8,122.9-173.9c0-0.4,0-0.7,0.1-1.1
			c2.1-33.9-22.4-57.1-55.1-60c-30.7-2.8-62.2,0.9-62.2,0.9c-35.3,0-97.6,58.1-97.6,58.1c-10.8,12.1-25,15.7-37.7,16
			c-19.4,0.4-34.6,17.6-33.3,37.6c1.3,20,7.3,40.1,25.3,43.3l60.1-9.2c5.7-0.9,8.2,7.3,2.9,9.9L412.7,284c0,0-4.2,37.5,27,41.8
			l15.1-1.5c15.9-1.6,30,10.3,31.9,26.7l3.3,29"/>
		<path id="XMLID_794_" class="st8" d="M628.9,102.9c0,0,107,3.9,141.7,73.5l-32.4,44L663.2,181C663.2,181,675.1,112.5,628.9,102.9z
			"/>
		<path id="XMLID_793_" class="st8" d="M663.2,144.3c0,0,86.7,15.8,107.5,122.4c0,0,23.2,95,0,162.2h-85.7
			c0,0,49.1-136.7-21.8-222.4C663.2,206.5,673.8,170.3,663.2,144.3z"/>
		<path id="XMLID_792_" class="st8" d="M614.1,273.7c-2.4-13.9,45.8-46.4,49-92.7c0,0,116.8,146,14.8,308.2H567.8
			C567.8,489.2,636,398.9,614.1,273.7z"/>
		<path id="XMLID_791_" class="st8" d="M567.8,320.9l49.3-56.3c0,0,40,159.7-68.9,280.2c0,0-48.7-11.6-104.3,0
			C444,544.8,552.6,437.6,567.8,320.9z"/>
		<path id="XMLID_790_" class="st8" d="M567.8,125.4c0,0,12.9-60.2,43-51c0,0,43.2,16.9,18.1,87.2"/>
		<path id="XMLID_789_" class="st8" d="M491.9,154.2c0,0,15.4-26,56.4,0l-53.6,26.4"/>
		<line id="XMLID_788_" class="st9" x1="425.2" y1="222.9" x2="444" y2="222.9"/>
		<path id="XMLID_787_" class="st8" d="M377,206.7c0,0,26.8,6.1,30.8-9.3"/>
		<path id="XMLID_786_" class="st8" d="M386.5,727.8c0,0,151.5-60,161.8-183.1l-38.1-4.8l-75.7,97c-9.3,12-19,23.7-29.4,34.8
			C395.5,682,381.7,701.9,386.5,727.8z"/>
		<path id="XMLID_785_" class="st8" d="M392,756.3c0,0,50.5-1.6,90.1-24.7c33.7-19.7,47.9-61.2,34.2-97.7v0c0,0-109,96.2-129.7,93.9
			L392,756.3z"/>
		<line id="XMLID_784_" class="st8" x1="505" y1="144.3" x2="505" y2="175.5"/>
		<g id="XMLID_780_">
			<path id="XMLID_783_" class="st9" d="M622.5,632.6c0,11.7-9.5,21.2-21.2,21.2c-11.7,0-21.2-9.5-21.2-21.2"/>
			<path id="XMLID_782_" class="st9" d="M665,643.3c0,11.7-9.5,21.2-21.2,21.2s-21.2-9.5-21.2-21.2"/>
			<path id="XMLID_781_" class="st9" d="M645.5,607.9c0,11.7-9.5,21.2-21.2,21.2c-11.7,0-21.2-9.5-21.2-21.2"/>
		</g>
		<g id="XMLID_776_">
			<path id="XMLID_779_" class="st9" d="M587.8,781.1c0,11.7-9.5,21.2-21.2,21.2s-21.2-9.5-21.2-21.2"/>
			<path id="XMLID_778_" class="st9" d="M630.3,791.7c0,11.7-9.5,21.2-21.2,21.2s-21.2-9.5-21.2-21.2"/>
			<path id="XMLID_777_" class="st9" d="M610.8,756.3c0,11.7-9.5,21.2-21.2,21.2s-21.2-9.5-21.2-21.2"/>
		</g>
		<path id="XMLID_775_" class="st8" d="M636.8,236.5c0,0,32.9,88.5,15.3,177.3"/>
		<path id="XMLID_774_" class="st8" d="M594.6,298.1c0,0,8.4,109.3-60.4,176.3"/>
		<path id="XMLID_773_" class="st8" d="M649.8,220.4c0,0,35.2,61.4,32.8,127.4"/>
		<path id="XMLID_772_" class="st8" d="M534.1,298.1c0,0,58.5-18.9,76.7-77.7"/>
		<path id="XMLID_771_" class="st8" d="M671.3,168.2c0,0,48.6,30.5,65.7,91"/>
		<path id="XMLID_770_" class="st8" d="M540,336.2c0,0-35,75.6-48.1,92.7"/>
		<path id="XMLID_769_" class="st8" d="M682.7,526.2c0,14.3-11.4,25.9-25.4,25.9s-25.4-11.6-25.4-25.9"/>
		<rect id="XMLID_768_" x="267" y="921.5" class="st8" width="537.9" height="59.1"/>
	</g>
	<path id="XMLID_834_" class="st10" d="M1032.5,585.6h-47.8c0.6-2.4,0.9-5,0.9-7.6v0c0-17.1-14-31-31-31H792.1c-17.1,0-31,14-31,31
		v0c0,17.1,14,31,31,31h47.8c-0.6,2.4-0.9,5-0.9,7.6v0c0,17.1,14,31,31,31h162.6c17.1,0,31-14,31-31v0
		C1063.5,599.6,1049.6,585.6,1032.5,585.6z"/>
	<path id="XMLID_835_" class="st10" d="M323.9,774.5h-47.8c0.6-2.4,0.9-5,0.9-7.6v0c0-17.1-14-31-31-31H83.5c-17.1,0-31,14-31,31v0
		c0,17.1,14,31,31,31h47.8c-0.6,2.4-0.9,5-0.9,7.6v0c0,17.1,14,31,31,31h162.6c17.1,0,31-14,31-31v0
		C355,788.4,341,774.5,323.9,774.5z"/>
	<circle id="XMLID_849_" class="st11" cx="238.1" cy="392.5" r="10.8"/>
	<circle id="XMLID_850_" class="st11" cx="184.3" cy="416" r="7.3"/>
	<circle id="XMLID_851_" class="st11" cx="851.6" cy="446.7" r="7.3"/>
</g>
</svg>
