<?xml version="1.0" encoding="UTF-8"?>
<svg width="150px" height="65px" viewBox="0 0 150 65" version="1.1" xmlns="http://www.w3.org/2000/svg" xmlns:xlink="http://www.w3.org/1999/xlink">
    <!-- Generator: Sketch 46.2 (44496) - http://www.bohemiancoding.com/sketch -->
    <title>Logo Master SVG</title>
    <desc>Created with Sketch.</desc>
    <defs></defs>
    <g id="Symbols" stroke="none" stroke-width="1" fill="none" fill-rule="evenodd">
        <g id="Logo-Master-SVG" fill="#FF3848">
            <g id="Group-8">
                <path d="M11.5191176,6.51235259 L10.0741349,14.6855199 L12.1326125,14.6855199 C15.2859862,14.6855199 18.2205882,13.811257 18.2205882,10.1399223 C18.2205882,7.77998207 16.1182526,6.51235259 13.4462803,6.51235259 L11.5191176,6.51235259 Z M7.3583045,30.5944641 L0,30.5944641 L5.29982699,0.0001812749 L14.4539792,0.0001812749 C21.2426471,0.0001812749 25.7976644,4.32721315 25.7976644,9.96512151 C25.7976644,16.6958586 20.8484429,21.1974323 12.8771626,21.1974323 L8.97897924,21.1974323 L7.3583045,30.5944641 Z" id="Fill-1"></path>
                <path d="M40.1192388,19.9301912 C40.1192388,17.6575219 38.6301384,15.86549 36.4842042,15.86549 C34.206436,15.86549 32.0602422,17.8758287 32.0602422,20.9352311 C32.0602422,23.2079004 33.5934602,24.9999323 35.7393945,24.9999323 C38.0171626,24.9999323 40.1192388,22.9893347 40.1192388,19.9301912 M35.5642215,9.74668526 C39.5939792,9.74668526 41.389827,12.2816853 41.8714879,13.4615259 C41.7399135,12.500251 41.8276298,11.4949522 42.0464014,10.4896534 L42.090519,10.2710876 L48.9669031,10.2710876 L45.4629239,30.5945936 L38.5426817,30.5945936 L39.0243426,28.1033586 C38.3236505,29.458 36.4842042,31.1187371 33.5057439,31.1187371 C28.7316955,31.1187371 25.1838581,27.1418247 25.1838581,21.5471633 C25.1838581,14.3792948 29.9579066,9.74668526 35.5642215,9.74668526" id="Fill-3"></path>
                <path d="M58.1639273,12.5436534 C59.9156574,10.7081155 62.2808824,9.74658167 64.383218,9.74658167 C68.5881488,9.74658167 71.3037197,12.7622191 70.4275952,17.7011833 L68.149827,30.59449 L61.2734429,30.59449 L63.2008651,19.4056853 C63.5948097,17.1330159 62.5437716,16.0839522 61.142128,16.0839522 C59.7404844,16.0839522 58.1639273,17.3513227 57.5068339,18.0507849 L55.316782,30.59449 L48.4403979,30.59449 L51.9882353,10.271243 L58.7333045,10.271243 C58.4704152,11.975745 58.207526,12.4563825 58.1639273,12.5436534" id="Fill-5"></path>
                <path d="M89.9302422,32.7764701 C89.3608651,35.9669084 87.7401903,39.0703347 82.8345675,39.0703347 L76.7927855,39.0703347 L77.844083,33.0825657 L81.301609,33.0825657 C82.177474,33.0825657 83.0974567,32.864 83.360346,31.5963705 L84.0042042,28.3655339 C82.6902768,29.7201753 80.544083,30.5944382 78.4414879,30.5944382 C73.8864706,30.5944382 71.2147578,26.6607729 72.0906228,22.2464701 L74.1929585,10.2711912 L81.0693426,10.2711912 L79.2298962,21.1101355 C78.8795502,23.208004 79.6241003,24.4753745 81.3324913,24.4753745 C82.5148443,24.4753745 83.8726298,23.7324064 84.8362111,22.5088008 L87.026263,10.2711912 L93.9026471,10.2711912 L89.9302422,32.7764701 Z" id="Fill-7"></path>
                <path d="M108.968279,19.9301912 C108.968279,17.6575219 107.479178,15.86549 105.333244,15.86549 C103.055476,15.86549 100.909282,17.8758287 100.909282,20.9352311 C100.909282,23.2079004 102.4425,24.9999323 104.588434,24.9999323 C106.866202,24.9999323 108.968279,22.9893347 108.968279,19.9301912 M104.413261,9.74668526 C108.443019,9.74668526 110.238867,12.2816853 110.720528,13.4615259 C110.588953,12.500251 110.67667,11.4949522 110.895441,10.4896534 L110.939559,10.2710876 L117.815943,10.2710876 L114.311964,30.5945936 L107.391721,30.5945936 L107.873382,28.1033586 C107.17269,29.458 105.333244,31.1187371 102.354784,31.1187371 C97.5807353,31.1187371 94.0328979,27.1418247 94.0328979,21.5471633 C94.0328979,14.3792948 98.8069464,9.74668526 104.413261,9.74668526" id="Fill-9"></path>
                <path d="M35.5798702,43.023759 C33.4772751,40.4012291 30.9807353,39.57099 29.0976903,39.57099 C26.9514965,39.57099 25.9879152,40.8821255 25.9879152,41.9309303 C25.9879152,42.6738984 26.250545,43.3733606 27.8712197,44.3346355 L31.4626557,46.4327629 C36.017673,49.0987988 37.9448356,51.1969263 37.9448356,55.3926633 C37.9448356,59.6759303 34.3972578,64.7456713 26.9076384,64.7456713 C20.3377422,64.7456713 15.9578979,60.9868068 14.3810813,59.0202331 L18.8486419,54.037504 C20.4693166,55.8295359 23.3159429,58.3207709 26.6447491,58.3207709 C28.7034862,58.3207709 30.0612716,57.0971653 30.0612716,55.6109701 C30.0612716,54.2125637 29.1851471,53.3820657 27.0828114,52.2019661 L23.5788322,50.2353924 C19.8999394,48.1810299 18.2351471,45.2526633 18.2351471,42.3683207 C18.2351471,36.8611892 22.659109,33.1023247 28.9222578,33.1023247 C32.7327249,33.1023247 37.3318599,34.8070857 40.2226038,38.3033606 L35.5798702,43.023759 Z" id="Fill-11"></path>
                <path d="M51.1926125,36.6427271 L49.8786851,43.8978665 L53.9081834,43.8978665 L52.8568858,49.8856355 L48.8712457,49.8856355 L47.6447751,56.9224681 C47.4696021,58.1023088 48.3895848,58.2771096 49.1777336,58.2771096 C50.4478028,58.2771096 51.7181315,58.1460737 51.7181315,58.1460737 L50.6232353,64.2211135 C50.6232353,64.2211135 47.4696021,64.4834442 45.7612111,64.4834442 C42.5639792,64.4834442 39.7170934,62.954002 40.4619031,58.757747 L41.9948616,49.8856355 L39.0164014,49.8856355 L40.067699,43.8978665 L43.0456401,43.8978665 L44.3162284,36.6427271 L51.1926125,36.6427271 Z" id="Fill-13"></path>
                <path d="M63.1707612,43.8977629 L61.2435986,54.868002 C60.8493945,57.2282012 62.0317474,58.4083008 63.8278547,58.4083008 C65.0979239,58.4083008 66.2364187,57.6215677 66.6308824,55.3926633 L68.6455017,43.8977629 L75.5657439,43.8977629 L73.2007785,57.4902729 C72.4562284,61.68601 69.258737,64.7456713 63.5649654,64.7456713 C56.6444637,64.7456713 53.4472318,60.0690378 54.4108131,54.4748944 L56.2502595,43.8977629 L63.1707612,43.8977629 Z" id="Fill-15"></path>
                <path d="M90.6533045,53.5568406 C90.6533045,51.2844303 89.1642042,49.4923984 87.0182699,49.4923984 C84.7405017,49.4923984 82.594308,51.5027371 82.594308,54.5621394 C82.594308,56.8348088 84.127526,58.6268406 86.2734602,58.6268406 C88.5512284,58.6268406 90.6533045,56.616243 90.6533045,53.5568406 M75.7179239,55.1740717 C75.7179239,48.0062032 80.4919723,43.3733347 86.0982872,43.3733347 C90.1277855,43.3733347 91.9238927,45.9083347 92.4055536,47.0884343 C92.4055536,47.0884343 92.3178374,45.7335339 92.7120415,43.5483944 L94.1567647,35.267239 L101.052093,35.2346096 L95.9969896,64.221243 L89.0764879,64.221243 L89.5584083,61.7735139 C88.945173,62.9973785 87.0182699,64.7456454 84.0398097,64.7456454 C79.2657612,64.7456454 75.7179239,60.7684741 75.7179239,55.1740717" id="Fill-17"></path>
                <polygon id="Fill-19" points="105.733599 64.2211394 98.856955 64.2211394 102.403754 43.8978924 109.281436 43.8978924"></polygon>
                <path d="M124.046678,53.5568406 C124.046678,51.2844303 122.645294,49.4923984 120.49936,49.4923984 C118.221592,49.4923984 116.206713,51.5027371 116.206713,54.5621394 C116.206713,56.8348088 117.608356,58.6268406 119.75455,58.6268406 C122.031799,58.6268406 124.046678,56.616243 124.046678,53.5568406 M109.373927,54.6934343 C109.373927,48.0062032 114.980242,43.3733347 120.718131,43.3733347 C126.280329,43.3733347 130.879464,47.3942709 130.879464,53.4258048 C130.879464,60.1127769 125.273149,64.7456454 119.535519,64.7456454 C113.973062,64.7456454 109.373927,60.7247092 109.373927,54.6934343" id="Fill-21"></path>
                <path d="M145.748019,51.0655797 C144.302777,49.2738068 142.419213,48.7056394 141.2366,48.7056394 C140.273019,48.7056394 139.834957,49.1862769 139.834957,49.6234084 C139.834957,49.8854801 139.966531,50.3226116 140.754939,50.6722131 L143.601566,51.9836076 C147.193002,53.5568147 148.332016,55.7859781 148.332016,57.8838466 C148.332016,62.4729502 144.477431,64.7456195 139.966531,64.7456195 C134.75442,64.7456195 131.162984,62.0358187 130.199144,60.7684482 L134.535389,56.4851813 C135.586427,57.8838466 138.126825,59.3260179 140.097846,59.3260179 C140.886254,59.3260179 141.49949,58.9764163 141.49949,58.364743 C141.49949,57.7963167 141.192742,57.4904801 139.791099,56.8785478 L136.988071,55.6987072 C134.053728,54.4310777 133.046029,52.1146434 133.046029,49.929245 C133.046029,46.9573725 135.498711,43.3733088 141.148884,43.3733088 C144.170943,43.3733088 147.631324,44.5536673 149.821375,47.0449024 L145.748019,51.0655797 Z" id="Fill-23"></path>
                <path d="M106.8416,33.1024542 C109.162967,33.1024542 111.046531,34.981757 111.046531,37.2981912 C111.046531,39.6146255 109.162967,41.4939283 106.8416,41.4939283 C104.520234,41.4939283 102.637189,39.6146255 102.637189,37.2981912 C102.637189,34.981757 104.520234,33.1024542 106.8416,33.1024542" id="Fill-25"></path>
            </g>
        </g>
    </g>
</svg>