
<svg viewBox="0 0 111 26" version="1.1" xmlns="http://www.w3.org/2000/svg" xmlns:xlink="http://www.w3.org/1999/xlink">
    <g id="Page-1" stroke="none" stroke-width="1" fill="none" fill-rule="evenodd">
        <g id="Artboard" transform="translate(-1063.000000, -1016.000000)" fill="#32BDC7">
            <g id="wordmark-homage" transform="translate(1063.000000, 1016.000000)">
                <path d="M39,11.29 L41.022,11.29 L41.022,15.84 L46.333,15.84 L46.333,11.29 L48.355,11.29 L48.355,22.71 L46.333,22.71 L46.333,17.678 L41.022,17.678 L41.022,22.71 L39,22.71 L39,11.29 Z M50.28,17.049 C50.28,16.135 50.43,15.304 50.73,14.557 C51.03,13.81 51.444,13.173 51.973,12.646 C52.5126221,12.1125313 53.1577337,11.6976707 53.867,11.428 C54.6,11.143 55.405,11.001 56.282,11.001 C57.17,10.99 57.982,11.121 58.721,11.396 C59.4361155,11.6553669 60.0873879,12.0648843 60.631,12.597 C61.1750161,13.1380754 61.6009758,13.7860382 61.882,14.5 C62.182,15.242 62.332,16.07 62.332,16.984 C62.332,17.877 62.182,18.688 61.882,19.42 C61.582,20.15 61.165,20.78 60.63,21.307 C60.082641,21.8416718 59.4334706,22.2609631 58.721,22.54 C57.983,22.836 57.17,22.99 56.281,23 C55.405,23 54.6,22.858 53.867,22.573 C53.1592001,22.3041549 52.5144412,21.8922446 51.973,21.363 C51.4347823,20.8280535 51.0117662,20.1885947 50.73,19.484 C50.43,18.753 50.28,17.941 50.28,17.049 Z M52.399,16.919 C52.399,17.533 52.492,18.097 52.679,18.613 C52.867,19.129 53.131,19.575 53.474,19.952 C53.816,20.328 54.225,20.624 54.701,20.839 C55.2041287,21.0594693 55.748749,21.16928 56.298,21.161 C56.8497834,21.1687247 57.3968957,21.0589614 57.903,20.839 C58.384,20.624 58.796,20.329 59.138,19.952 C59.481,19.575 59.745,19.129 59.932,18.613 C60.12,18.097 60.213,17.533 60.213,16.92 C60.213,16.35 60.12,15.818 59.933,15.323 C59.7544281,14.8429956 59.4844416,14.4021875 59.138,14.025 C58.7919381,13.6513078 58.3711692,13.354555 57.903,13.154 C57.3956034,12.9389312 56.8490463,12.831663 56.298,12.839 C55.74949,12.8311009 55.2054287,12.9384141 54.701,13.154 C54.225,13.364 53.816,13.654 53.474,14.024 C53.1278064,14.4015692 52.8581574,14.8427205 52.68,15.323 C52.4898201,15.833768 52.394589,16.3749928 52.399,16.92 L52.399,16.919 Z M64.305,11.291 L67.386,11.291 L70.419,19.291 L73.484,11.291 L76.532,11.291 L76.532,22.71 L74.607,22.71 L74.607,13.226 L74.575,13.226 L71.125,22.71 L69.713,22.71 L66.263,13.226 L66.231,13.226 L66.231,22.71 L64.305,22.71 L64.305,11.29 L64.305,11.291 Z M82.791,11.291 L84.54,11.291 L89.434,22.71 L87.123,22.71 L86.064,20.097 L81.138,20.097 L80.11,22.71 L77.847,22.71 L82.79,11.29 L82.791,11.291 Z M85.358,18.355 L83.608,13.71 L81.828,18.355 L85.358,18.355 Z M100.795,21.871 C99.393,22.624 97.826,23 96.093,23 C95.216,23 94.411,22.858 93.678,22.573 C92.9702001,22.3041549 92.3254412,21.8922446 91.784,21.363 C91.2457823,20.8280535 90.8227662,20.1885947 90.541,19.484 C90.241,18.753 90.091,17.941 90.091,17.049 C90.091,16.135 90.241,15.304 90.541,14.557 C90.841,13.81 91.255,13.173 91.784,12.646 C92.3236221,12.1125313 92.9687337,11.6976707 93.678,11.428 C94.411,11.143 95.216,11.001 96.093,11.001 C96.959,11.001 97.773,11.105 98.532,11.315 C99.292,11.525 99.971,11.898 100.57,12.436 L99.078,13.952 C98.6993009,13.5880466 98.24817,13.3079638 97.754,13.13 C97.2275682,12.9351944 96.6703113,12.8369546 96.109,12.84 C95.5605612,12.831785 95.0165028,12.9387571 94.512,13.154 C94.036,13.364 93.627,13.654 93.285,14.024 C92.9388064,14.4015692 92.6691574,14.8427205 92.491,15.323 C92.3008201,15.833768 92.205589,16.3749928 92.21,16.92 C92.21,17.533 92.303,18.097 92.49,18.613 C92.678,19.129 92.942,19.575 93.285,19.952 C93.627,20.328 94.036,20.624 94.512,20.839 C95.0151287,21.0594693 95.559749,21.16928 96.109,21.161 C96.622,21.161 97.107,21.113 97.561,21.016 C97.9862678,20.9305651 98.3953302,20.778348 98.773,20.565 L98.773,17.87 L96.446,17.87 L96.446,16.032 L100.795,16.032 L100.795,21.87 L100.795,21.871 Z M103.185,11.291 L110.711,11.291 L110.711,13.13 L105.207,13.13 L105.207,15.936 L110.422,15.936 L110.422,17.774 L105.207,17.774 L105.207,20.871 L111,20.871 L111,22.71 L103.185,22.71 L103.185,11.29 L103.185,11.291 Z M11.845,11.657 C11.1611961,11.6542945 10.5048208,11.9256989 10.0226119,12.4105388 C9.54040293,12.8953786 9.2725739,13.5532209 9.279,14.237 C9.278437,14.7697727 9.44761701,15.2888716 9.762,15.719 C11.445,18.334 13.393,20.105 15.5,21.305 C17.607,20.105 19.554,18.335 21.238,15.719 L21.268,15.673 C21.557,15.272 21.713,14.775 21.722,14.237 C21.7340478,12.9090698 20.7271718,11.7931192 19.405,11.669 C18.6841218,11.5971289 17.9664369,11.8332095 17.429,12.319 C16.897517,12.7975978 16.5934336,13.4787882 16.592,14.194 C16.592,14.79 16.102,15.273 15.5,15.273 C15.2118937,15.2748618 14.9348767,15.162058 14.7300281,14.9594605 C14.5251795,14.7568629 14.4093217,14.4811093 14.408,14.193 C14.3975453,12.7856604 13.2513714,11.6515562 11.844,11.656 L11.845,11.657 Z M17.838,22.395 C21.004,23.576 24.418,23.789 27.77,23.841 C28.048,23.847 28.308,23.741 28.506,23.549 C28.706,23.354 28.816,23.093 28.816,22.815 L28.816,11.128 L24.397,8.258 C24.0904719,8.05991745 23.9052462,7.71996039 23.905,7.355 L23.905,2.16 L21.285,2.16 L21.285,4.237 C21.285,4.633 21.065,4.998 20.712,5.187 C20.359,5.375 19.93,5.357 19.594,5.139 L15.5,2.478 L2.183,11.128 L2.183,22.815 C2.183,23.093 2.293,23.354 2.493,23.549 C2.692,23.742 2.953,23.847 3.23,23.841 C6.582,23.789 9.996,23.576 13.162,22.395 C11.266,21.092 9.495,19.317 7.935,16.9 C7.39460647,16.1285084 7.10164224,15.2109025 7.095,14.269 C7.059,11.829 8.947,9.744 11.393,9.519 C12.7235276,9.39551685 14.0453682,9.83178225 15.041,10.723 C15.206,10.872 15.359,11.031 15.5,11.199 C15.64,11.031 15.794,10.872 15.959,10.723 C16.9545697,9.83167493 18.2764584,9.39539367 19.607,9.519 C22.053,9.744 23.941,11.829 23.904,14.269 C23.8974486,15.2104543 23.6048455,16.1276726 23.065,16.899 C21.505,19.317 19.735,21.092 17.838,22.395 Z M27.788,26 L27.735,26 C23.742,25.937 19.441,25.637 15.5,23.746 C11.559,25.636 7.258,25.937 3.265,26 C2.40625419,26.0151951 1.57706724,25.6864727 0.962,25.087 C0.34544754,24.4921798 -0.00195400175,23.6717054 -1.4269693e-15,22.815 L-1.4269693e-15,11.12 C-1.4269693e-15,10.398 0.363,9.73 0.971,9.333 L14.664,0.44 C15.1722,0.110263281 15.8268,0.110263281 16.335,0.44 L19.102,2.236 L19.102,2.089 C19.102,0.938 20.049,0.001 21.213,0.001 L23.977,0.001 C25.141,0.001 26.088,0.938 26.088,2.089 L26.088,6.774 L30.026,9.331 C30.636,9.731 31,10.398 31,11.12 L31,22.816 C31,23.677 30.658,24.484 30.038,25.088 C29.4367762,25.6756592 28.6287181,26.0035512 27.788,26.001 L27.788,26 Z" id="Shape"></path>
            </g>
        </g>
    </g>
</svg>