<svg xmlns="http://www.w3.org/2000/svg" xmlns:xlink="http://www.w3.org/1999/xlink" width="220.875" height="65.5" viewBox="0 0 105 35">
    <defs>
        <path id="a" d="M0 .152h16.517V21.96H0z"/>
    </defs>
    <g fill="none" fill-rule="evenodd">
        <path fill="#08F" d="M68.376 32.95c.236 0 .472-.051.691-.17.22-.117.439-.269.607-.471.186-.202.337-.421.455-.657.118-.253.202-.506.236-.776.05-.32.017-.59-.067-.775-.085-.185-.27-.27-.573-.27-.102 0-.22.017-.388.051a.979.979 0 0 0-.438.22l-1.062 2.797c.034 0 .068.017.101.017.034 0 .068.017.101.017h.118a.961.961 0 0 0 .22.016m1.92-4.365c.321 0 .608.05.827.169.219.118.404.27.522.472.135.202.22.421.253.69.034.27.034.557 0 .86-.068.472-.22.91-.438 1.332a4.273 4.273 0 0 1-.86 1.095 4.152 4.152 0 0 1-1.163.742c-.438.185-.893.27-1.365.27h-.32c-.152 0-.32-.017-.523-.051a7.7 7.7 0 0 1-.606-.118 3.22 3.22 0 0 1-.607-.22l2.78-7.432 1.619-.253-.995 2.647c.152-.068.287-.102.422-.152.151-.034.303-.05.455-.05M75.522 29.747c-.354 0-.674.118-.96.371-.304.253-.506.573-.658.994.422-.016.776-.05 1.046-.1.269-.051.471-.136.623-.203.152-.084.27-.169.32-.27a.687.687 0 0 0 .118-.286c.05-.337-.118-.506-.489-.506m-3.27 2.225c.051-.438.186-.86.405-1.264.202-.405.472-.775.792-1.096.32-.32.692-.573 1.13-.775.42-.202.876-.286 1.365-.286.236 0 .455.033.657.1.202.068.354.17.489.304.135.135.236.287.286.472.068.185.068.404.034.64-.05.388-.185.708-.388.978-.202.27-.471.489-.792.657-.32.169-.708.287-1.129.371a8.623 8.623 0 0 1-1.382.118c.017.287.084.489.236.607.152.118.388.185.742.185.219 0 .438-.017.674-.05.236-.034.455-.102.657-.169l-.05 1.197a7.792 7.792 0 0 1-.759.202 4.495 4.495 0 0 1-.977.084c-.422 0-.776-.067-1.045-.185a1.587 1.587 0 0 1-.64-.489 1.676 1.676 0 0 1-.304-.708 3.166 3.166 0 0 1 0-.893M79.247 27.354l1.618-.253-.607 1.584h1.703l-.472 1.248h-1.686l-.707 1.887c-.068.152-.102.304-.135.439a.628.628 0 0 0 0 .353.453.453 0 0 0 .202.236c.101.05.253.085.438.085.169 0 .32-.017.489-.051.151-.034.32-.067.489-.135l-.05 1.163c-.22.067-.44.135-.692.202-.253.05-.54.085-.86.085-.471 0-.825-.068-1.061-.203a.98.98 0 0 1-.472-.573c-.084-.235-.084-.522-.034-.825.05-.32.152-.641.27-.995l1.567-4.247zM85.466 29.865c-.084-.017-.168-.017-.236-.034-.067 0-.151-.016-.252-.016-.236 0-.472.05-.692.168-.235.118-.454.27-.64.455-.202.186-.37.405-.522.658a3.482 3.482 0 0 0-.337.775c-.085.32-.102.59-.034.775.05.185.236.287.522.287.152 0 .304-.034.455-.085.152-.05.304-.168.49-.303.05-.169.134-.354.201-.54.085-.185.152-.353.236-.522l.81-1.618zm.573 1.888c-.202.387-.32.775-.387 1.163-.068.387-.084.741-.034 1.045l-1.416.202-.05-.236a1.028 1.028 0 0 1-.034-.253 3.862 3.862 0 0 1-.741.388c-.253.101-.54.152-.827.152-.337 0-.623-.068-.825-.186a1.198 1.198 0 0 1-.472-.489 1.564 1.564 0 0 1-.152-.708c0-.27.05-.556.118-.86.118-.471.32-.91.607-1.33a5.06 5.06 0 0 1 .977-1.096c.371-.303.792-.556 1.248-.725a3.603 3.603 0 0 1 1.702-.253c.152 0 .32.017.522.051.186.017.388.067.59.118.202.05.388.135.573.22l-1.399 2.797zM31.163 17.798l-3.101-6.05-5.427 11.83H6.034L3.27 29.613h22.466l2.78-6.033z"/>
        <path fill="#08F" d="M25.28 17.798l2.782-6.05h-5.006l2.646-5.782h-6.084l-5.41 11.832zM5.511 11.747L0 23.781l3.27 5.831 8.19-17.865z"/>
        <path fill="#08F" d="M22.365 0H4.938l-2.73 5.966h23.494z"/>
        <path fill="#1267FB" d="M25.702 5.966L18.135 9.22l1.483-3.253zM28.062 11.747l-6.658 6.05h3.877zM6.034 23.579l-.236 6.033H3.27z"/>
        <path fill="#08F" d="M48.792 19.635c-.775.927-1.854 1.399-3.219 1.399-.59 0-1.095-.034-1.517-.085a8.697 8.697 0 0 1-1.028-.168v-9.236c.32-.22.759-.421 1.298-.607a5.28 5.28 0 0 1 1.736-.27c1.348 0 2.342.456 2.966 1.383.624.927.944 2.174.944 3.741 0 1.618-.388 2.899-1.18 3.843m4.5-7.214c-.32-1.028-.775-1.921-1.365-2.663-.59-.741-1.331-1.297-2.225-1.702-.893-.404-1.904-.607-3.017-.607-.758 0-1.449.085-2.073.27a9.78 9.78 0 0 0-1.584.607V0H39.32l-1.837 4.028 1.837-.017v19.315c.742.219 1.669.421 2.781.607 1.112.185 2.292.27 3.523.27 1.264 0 2.41-.203 3.404-.59.994-.388 1.854-.944 2.562-1.686.708-.742 1.247-1.618 1.635-2.663.37-1.028.573-2.191.573-3.489-.017-1.18-.186-2.326-.506-3.354M59.242 7.787h-3l-1.416 3.118h1.416v12.943h3.724V7.787z"/>
        <g transform="translate(88.483 7.618)">
            <mask id="b" fill="#fff">
                <use xlink:href="#a"/>
            </mask>
            <path fill="#08F" d="M12.674.169a245.734 245.734 0 0 1-1.972 5.966 87.658 87.658 0 0 1-2.224 5.814A50.537 50.537 0 0 1 7.5 9.101a70.608 70.608 0 0 1-.893-3.084 57.494 57.494 0 0 1-.759-3.05A37.163 37.163 0 0 1 5.292.168h-3.96c.64 2.983 1.398 5.814 2.308 8.477a79.254 79.254 0 0 0 2.865 7.365c-.471.96-1.01 1.669-1.584 2.14-.573.456-1.348.692-2.309.692-.489 0-.809-.017-1.297-.169L0 21.556c.236.084.506.152.826.22a8.079 8.079 0 0 0 1.685.185 8.61 8.61 0 0 0 2.292-.287c.675-.202 1.551-.505 2.107-.944a8.02 8.02 0 0 0 1.55-1.634c.473-.658.945-1.45 1.416-2.36 2.528-4.955 4.467-10.45 6.64-16.584h-3.842v.017z" mask="url(#b)"/>
        </g>
        <path fill="#08F" d="M57.084 5.966h3.725l1.433-3.1h-3.725zM77.427 7.787l-1.433 3.1h7.382a93.048 93.048 0 0 0-1.668 2.31 66.325 66.325 0 0 0-1.87 2.78 113.87 113.87 0 0 0-1.804 2.9c-.186.303-.354.606-.523.893 0 0-.455.69-.876 1.685-.017.034-.034.05-.034.084v.034l.22 2.275h11.055l1.433-3.1H81c.524-.945 1.13-1.922 1.788-2.967a114.503 114.503 0 0 1 2.005-2.983c.674-.944 1.298-1.82 1.888-2.596a49.19 49.19 0 0 1 1.432-1.803l-.253-2.612H77.427zM63.607 7.787l-1.433 3.1h7.382a93.048 93.048 0 0 0-1.668 2.31 66.325 66.325 0 0 0-1.871 2.78 113.87 113.87 0 0 0-1.803 2.9c-.186.303-.354.606-.523.893 0 0-.455.69-.876 1.685-.017.034-.034.05-.034.084v.034L63 23.848H74.056l1.433-3.1h-8.31c.523-.945 1.13-1.922 1.787-2.967a70.443 70.443 0 0 1 2.006-2.983c.674-.944 1.298-1.82 1.887-2.596a49.19 49.19 0 0 1 1.433-1.803l-.253-2.612H63.607z"/>
    </g>
</svg>
