<?xml version="1.0" encoding="UTF-8"?>
<!-- Generator: Adobe Illustrator 19.2.0, SVG Export Plug-In . SVG Version: 6.00 Build 0)  -->
<svg version="1.1" id="Layer_1" xmlns="http://www.w3.org/2000/svg" xmlns:xlink="http://www.w3.org/1999/xlink" x="0px" y="0px" viewBox="0 0 841.9 210" style="enable-background:new 0 0 841.9 210;" xml:space="preserve">
<style type="text/css">
	.st0{fill:#1E9A3A;}
	.st1{fill:#414042;}
</style>
<g>
	<g>
		<path class="st0" d="M23.6,127.8c0.2,0,0.4,0,0.7,0v-64l71.4-41.2l52.2,30.2c1.4-4.3,4-8,7.4-10.7L95.6,7.6L11.3,56.3v75.1    C14.8,129.1,19,127.8,23.6,127.8z"/>
		<path class="st1" d="M169.2,82.1c-0.8,0-1.5,0-2.2-0.1v64.2l-71.4,41.2l-51-29.4c-1.5,4.2-4.3,7.8-7.9,10.4l58.8,34l84.3-48.7    V79.4C176.7,81.1,173.1,82.1,169.2,82.1z"/>
	</g>
	<g>
		<g>
			<path class="st0" d="M168.4,43.9c-8.7,0-15.8,7.1-15.8,15.8c0,2.7,0.7,5.2,1.9,7.4l-45,41.8c-2.8-2.4-6.4-3.9-10.4-3.9     c-8.7,0-15.8,7.1-15.8,15.8c0,0.8,0.1,1.7,0.2,2.5l-50.3,15.1c-2.8-2.5-6.4-4-10.4-4c-8.7,0-15.8,7.1-15.8,15.8     c0,8.7,7.1,15.8,15.8,15.8s15.8-7.1,15.8-15.8c0-1-0.1-2.1-0.3-3.1l49.8-15c2.8,2.7,6.7,4.4,11,4.4c8.7,0,15.8-7.1,15.8-15.8     c0-1.1-0.1-2.1-0.3-3.1l46.9-43.8c2.1,1,4.4,1.6,6.9,1.6c8.7,0,15.8-7.1,15.8-15.8S177.1,43.9,168.4,43.9z M22.8,156.3     c-3.3,0-6-2.7-6-6s2.7-6,6-6s6,2.7,6,6S26.1,156.3,22.8,156.3z M99.1,126.9c-3.3,0-6-2.7-6-6c0-3.3,2.7-6,6-6c3.3,0,6,2.7,6,6     C105.1,124.2,102.4,126.9,99.1,126.9z M168.4,65.7c-3.3,0-6-2.7-6-6c0-3.3,2.7-6,6-6c3.3,0,6,2.7,6,6     C174.4,63,171.7,65.7,168.4,65.7z"/>
		</g>
	</g>
	<g>
		<g>
			<path class="st1" d="M212.8,38.6h16.4v43.8c0,4.1-0.3,7.1-0.3,7.1h0.3c3.7-8.3,14.6-19.1,31.6-19.1c20.1,0,29.4,11,29.4,32.8     v54.8h-16.4V107c0-12-2.5-21.5-16.2-21.5c-12.9,0-23.5,8.8-27.1,21.2c-1,3.4-1.4,7.3-1.4,11.3v40.1h-16.4V38.6z"/>
			<path class="st1" d="M354.8,70.4c25.6,0,46.2,18.8,46.2,44.7c0,26.1-20.6,45-46.2,45s-46.2-19-46.2-45     C308.6,89.2,329.2,70.4,354.8,70.4z M354.8,145.9c16.2,0,29.4-12.9,29.4-30.8c0-17.8-13.2-30.5-29.4-30.5     c-16.1,0-29.4,12.7-29.4,30.5C325.3,133,338.7,145.9,354.8,145.9z"/>
			<path class="st1" d="M419.4,38.6h16.4v93.2c0,10.3,4.1,12.2,9.1,12.2c1.5,0,2.9-0.2,2.9-0.2v14.6c0,0-2.5,0.3-5.4,0.3     c-9.3,0-23-2.5-23-24V38.6z"/>
			<path class="st1" d="M465.1,38.6h16.6v16.8h-16.6V38.6z M465.2,72.5h16.4v85.6h-16.4V72.5z"/>
			<path class="st1" d="M508.4,135.9c0,0,9.6,10,24.5,10c7.1,0,14.2-3.7,14.2-10.7c0-15.7-44-12.5-44-40.4c0-15.6,13.9-24.4,31-24.4     c18.8,0,27.6,9.5,27.6,9.5l-6.6,12.4c0,0-7.6-7.6-21.2-7.6c-7.1,0-14,3-14,10.5c0,15.4,44,12,44,40.1c0,14.2-12.2,24.9-31,24.9     c-21,0-32.5-12.5-32.5-12.5L508.4,135.9z"/>
			<path class="st1" d="M586.7,86.8h-11.2V73.6h11.7V48.9h15.9v24.7h20.6v13.2h-20.6v38.1c0,17.1,12,19.3,18.3,19.3     c2.4,0,3.9-0.3,3.9-0.3v14.6c0,0-2.4,0.3-5.8,0.3c-11,0-32.8-3.4-32.8-32V86.8z"/>
			<path class="st1" d="M643.6,38.6h16.6v16.8h-16.6V38.6z M643.7,72.5h16.4v85.6h-16.4V72.5z"/>
			<path class="st1" d="M725.6,70.4c21.5,0,32.2,12.5,32.2,12.5L750,94.5c0,0-9.1-9.8-23.7-9.8c-17.3,0-29.8,12.9-29.8,30.5     c0,17.4,12.5,30.8,30.3,30.8c15.9,0,26.4-11.5,26.4-11.5l6.6,12c0,0-11.8,13.7-34.2,13.7c-26.9,0-45.9-19.1-45.9-44.8     C679.8,89.9,698.7,70.4,725.6,70.4z"/>
			<path class="st1" d="M779.4,135.9c0,0,9.6,10,24.5,10c7.1,0,14.2-3.7,14.2-10.7c0-15.7-44-12.5-44-40.4c0-15.6,13.9-24.4,31-24.4     c18.8,0,27.6,9.5,27.6,9.5l-6.6,12.4c0,0-7.6-7.6-21.2-7.6c-7.1,0-14,3-14,10.5c0,15.4,44,12,44,40.1c0,14.2-12.2,24.9-31,24.9     c-21,0-32.5-12.5-32.5-12.5L779.4,135.9z"/>
		</g>
	</g>
</g>
</svg>