<svg xmlns="http://www.w3.org/2000/svg" viewBox="0 0 119 28">
    <g fill="#32BDC7" fill-rule="evenodd">
        <path d="M39 12.29h2.022v4.55h5.311v-4.55h2.022v11.42h-2.022v-5.032h-5.311v5.032H39V12.29zm11.28 5.759c0-.914.15-1.745.45-2.492.3-.747.714-1.384 1.243-1.911a5.448 5.448 0 0 1 1.894-1.218c.733-.285 1.538-.427 2.415-.427.888-.011 1.7.12 2.439.395a5.327 5.327 0 0 1 1.91 1.201 5.552 5.552 0 0 1 1.251 1.903c.3.742.45 1.57.45 2.484 0 .893-.15 1.704-.45 2.436-.3.73-.717 1.36-1.252 1.887a5.714 5.714 0 0 1-1.909 1.233c-.738.296-1.551.45-2.44.46-.876 0-1.681-.142-2.414-.427a5.507 5.507 0 0 1-1.894-1.21 5.56 5.56 0 0 1-1.243-1.879c-.3-.731-.45-1.543-.45-2.435zm2.119-.13c0 .614.093 1.178.28 1.694.188.516.452.962.795 1.339.342.376.751.672 1.227.887a3.835 3.835 0 0 0 1.597.322 3.89 3.89 0 0 0 1.605-.322c.481-.215.893-.51 1.235-.887.343-.377.607-.823.794-1.339.188-.516.281-1.08.281-1.693 0-.57-.093-1.102-.28-1.597a3.96 3.96 0 0 0-.795-1.298 3.633 3.633 0 0 0-1.235-.871 3.977 3.977 0 0 0-1.605-.315 3.92 3.92 0 0 0-1.597.315c-.476.21-.885.5-1.227.87a3.96 3.96 0 0 0-.794 1.299 4.473 4.473 0 0 0-.281 1.597zm11.906-5.628h3.081l3.033 8 3.065-8h3.048V23.71h-1.925v-9.484h-.032l-3.45 9.484h-1.412l-3.45-9.484h-.032v9.484h-1.926V12.29zm18.486 0h1.749l4.894 11.419h-2.311l-1.059-2.613h-4.926L80.11 23.71h-2.263l4.943-11.42zm2.567 7.064l-1.75-4.645-1.78 4.645h3.53zm15.437 3.516C99.393 23.624 97.826 24 96.093 24c-.877 0-1.682-.142-2.415-.427a5.507 5.507 0 0 1-1.894-1.21 5.56 5.56 0 0 1-1.243-1.879c-.3-.731-.45-1.543-.45-2.435 0-.914.15-1.745.45-2.492.3-.747.714-1.384 1.243-1.911a5.448 5.448 0 0 1 1.894-1.218c.733-.285 1.538-.427 2.415-.427.866 0 1.68.104 2.439.314.76.21 1.439.583 2.038 1.121l-1.492 1.516a3.739 3.739 0 0 0-1.324-.822 4.667 4.667 0 0 0-1.645-.29 3.92 3.92 0 0 0-1.597.314c-.476.21-.885.5-1.227.87a3.96 3.96 0 0 0-.794 1.299 4.473 4.473 0 0 0-.281 1.597c0 .613.093 1.177.28 1.693.188.516.452.962.795 1.339.342.376.751.672 1.227.887a3.835 3.835 0 0 0 1.597.322c.513 0 .998-.048 1.452-.145a4.11 4.11 0 0 0 1.212-.451V18.87h-2.327v-1.838h4.349v5.838zm2.39-10.58h7.526v1.839h-5.504v2.806h5.215v1.838h-5.215v3.097H111v1.839h-7.815V12.29zM28.825 12.133zm-16.98.524a2.556 2.556 0 0 0-2.566 2.58 2.507 2.507 0 0 0 .483 1.482c1.683 2.615 3.631 4.386 5.738 5.586 2.107-1.2 4.054-2.97 5.738-5.586l.03-.046c.289-.401.445-.898.454-1.436a2.556 2.556 0 0 0-2.317-2.568 2.567 2.567 0 0 0-1.976.65 2.53 2.53 0 0 0-.837 1.875c0 .596-.49 1.079-1.092 1.079a1.085 1.085 0 0 1-1.092-1.08 2.556 2.556 0 0 0-2.564-2.537zm5.993 10.738c3.166 1.181 6.58 1.394 9.932 1.446.278.006.538-.1.736-.292.2-.195.31-.456.31-.734V12.128l-4.419-2.87a1.076 1.076 0 0 1-.492-.903V3.16h-2.62v2.077c0 .396-.22.761-.573.95-.353.188-.782.17-1.118-.048L15.5 3.478l-13.317 8.65v11.687c0 .278.11.539.31.734.199.193.46.298.737.292 3.352-.052 6.766-.265 9.932-1.446-1.896-1.303-3.667-3.078-5.227-5.495a4.643 4.643 0 0 1-.84-2.631c-.036-2.44 1.852-4.525 4.298-4.75a4.804 4.804 0 0 1 3.648 1.204c.165.149.318.308.459.476.14-.168.294-.327.459-.476a4.803 4.803 0 0 1 3.648-1.204c2.446.225 4.334 2.31 4.297 4.75a4.643 4.643 0 0 1-.839 2.63c-1.56 2.418-3.33 4.193-5.227 5.496zM27.788 27h-.053c-3.993-.063-8.294-.363-12.235-2.254-3.941 1.89-8.242 2.191-12.235 2.254a3.218 3.218 0 0 1-2.303-.913A3.147 3.147 0 0 1 0 23.815V12.12c0-.722.363-1.39.971-1.787l13.693-8.893a1.535 1.535 0 0 1 1.671 0l2.767 1.796v-.147c0-1.151.947-2.088 2.111-2.088h2.764c1.164 0 2.111.937 2.111 2.088v4.685l3.938 2.557c.61.4.974 1.067.974 1.789v11.696c0 .861-.342 1.668-.962 2.272a3.205 3.205 0 0 1-2.25.913z"/>
    </g>
</svg>