<?xml version="1.0" encoding="utf-8"?>
<!-- Generator: Adobe Illustrator 16.0.0, SVG Export Plug-In . SVG Version: 6.00 Build 0)  -->
<!DOCTYPE svg PUBLIC "-//W3C//DTD SVG 1.0//EN" "http://www.w3.org/TR/2001/REC-SVG-20010904/DTD/svg10.dtd">
<svg version="1.0" id="Layer_1" xmlns="http://www.w3.org/2000/svg" xmlns:xlink="http://www.w3.org/1999/xlink" x="0px" y="0px"
	 viewBox="0 0 310.4 177.758" enable-background="new 0 0 310.4 177.758" xml:space="preserve">
<g>
	<path d="M306.127,76.424c-0.506,0-0.983,0.104-1.434,0.266l-39.299-64.846c1.722-0.867,2.913-2.63,2.913-4.689
		c0-2.91-2.359-5.271-5.271-5.271c-2.549,0-4.676,1.814-5.162,4.222l-72.616,0.178c0.002-0.05,0.008-0.098,0.008-0.147
		c0-3.389-2.747-6.136-6.137-6.136c-3.387,0-6.136,2.747-6.136,6.136c0,0.06,0.007,0.118,0.009,0.178l-19.419,0.048
		c-0.58-1.275-1.857-2.168-3.351-2.168c-1.701,0-3.119,1.161-3.544,2.728l-41.527,7.498c-0.705-1.769-2.425-3.022-4.445-3.022
		c-2.644,0-4.787,2.145-4.787,4.788c0,0.683,0.147,1.33,0.404,1.917L6.572,79.081c-0.699-0.635-1.618-1.033-2.637-1.033
		C1.763,78.047,0,79.813,0,81.983c0,2.176,1.763,3.938,3.935,3.938c0.437,0,0.85-0.088,1.243-0.221l46.51,54.125
		c-0.975,0.961-1.58,2.295-1.58,3.773c0,2.926,2.373,5.297,5.301,5.297c2.825,0,5.112-2.219,5.268-5.006l50.183,1.236
		c0.231,1.703,1.676,3.02,3.441,3.02c1.927,0,3.489-1.563,3.489-3.49c0-0.303-0.05-0.59-0.122-0.869l29.984-13.139
		c0.541,1.516,1.976,2.607,3.679,2.607c0.883,0,1.688-0.303,2.344-0.795l47.474,39.906c-0.324,0.537-0.521,1.16-0.521,1.832
		c0,1.967,1.596,3.561,3.563,3.561c1.967,0,3.561-1.594,3.561-3.561c0-0.338-0.063-0.66-0.15-0.971l61.713-28.631
		c0.552,0.857,1.508,1.426,2.602,1.426c1.711,0,3.099-1.387,3.099-3.1c0-1.064-0.538-2.002-1.355-2.561l30.903-55.693
		c0.486,0.191,1.012,0.305,1.566,0.305c2.36,0,4.273-1.912,4.273-4.271C310.4,78.34,308.487,76.424,306.127,76.424z M303.697,77.186
		c-1.113,0.773-1.846,2.057-1.846,3.516c0,0.273,0.031,0.541,0.081,0.801l-59.599,28.209c-1.008-1.697-2.696-2.945-4.694-3.35
		l23.088-94.493c0.7,0.344,1.477,0.555,2.31,0.555c0.452,0,0.884-0.074,1.302-0.182L303.697,77.186z M204.189,170.635
		c-0.893,0-1.699,0.34-2.324,0.883L154.46,131.67c0.488-0.654,0.788-1.457,0.788-2.334c0-0.26-0.028-0.514-0.076-0.758
		l74.223-13.295c0.427,1.494,1.329,2.781,2.534,3.697l-26.633,51.848C204.945,170.713,204.578,170.635,204.189,170.635z
		 M114.912,105.6l3.804-17.857h-2.295l-1.578,7.404h-7.061l1.575-7.404h-2.295l-3.616,16.967L79.354,92.592
		c0.096-0.402,0.159-0.816,0.159-1.246c0-0.656-0.135-1.277-0.349-1.857l85.013-20.906c0.348,1.199,1.441,2.084,2.751,2.084
		c0.83,0,1.572-0.357,2.098-0.922l26.741,17.996h-2.086l-9.358,17.482l2.092,0.824l2.811-5.314h6.341l0.516,5.314l2.434-0.824
		l-1.818-16.857l32.979,22.193c-0.36,0.852-0.56,1.787-0.56,2.77c0,0.293,0.023,0.582,0.058,0.865l-74.393,13.324
		c-0.657-1.244-1.948-2.102-3.451-2.102c-1.357,0-2.553,0.691-3.256,1.738L105.217,105.6h0.338l1.781-8.396h7.063l-1.783,8.396
		H114.912z M110.875,144.014l-50.253-1.238c-0.283-1.816-1.473-3.328-3.106-4.039l15.167-42.223
		c0.462,0.129,0.939,0.221,1.443,0.221c1.11,0,2.142-0.338,2.999-0.914l34.67,46.412
		C111.329,142.713,111.002,143.329,110.875,144.014z M100.717,20.975c0.391,0,0.765-0.06,1.128-0.147l8.119,24.13
		c-1.151,0.55-1.954,1.715-1.954,3.076c0,0.691,0.209,1.332,0.562,1.87L76.92,86.76c-0.204-0.125-0.411-0.246-0.631-0.342
		L99.54,20.812C99.918,20.908,100.309,20.975,100.717,20.975z M150.233,11.569c0.09,0,0.174-0.021,0.262-0.026l14.923,53.807
		c-0.322,0.201-0.603,0.461-0.823,0.77L114.84,48.123c0.001-0.03,0.009-0.059,0.009-0.09c0-0.936-0.377-1.781-0.985-2.398
		L147.164,9.92C147.824,10.913,148.951,11.569,150.233,11.569z M179.13,12.271c1.125,0,2.176-0.308,3.083-0.836l27.271,28.938
		c-0.566,0.811-0.904,1.793-0.904,2.857c0,0.629,0.129,1.225,0.341,1.779l-40.097,20.629c-0.335-0.295-0.736-0.514-1.184-0.629
		l11.044-52.761C178.832,12.26,178.979,12.271,179.13,12.271z M259.739,11.233l-23.212,95.001c-0.103-0.004-0.202-0.016-0.306-0.016
		c-0.974,0-1.9,0.197-2.745,0.551l-17.795-59.009c1.712-0.794,2.907-2.518,2.907-4.53c0-0.938-0.274-1.807-0.725-2.558
		l40.481-31.168C258.684,10.179,259.159,10.763,259.739,11.233z M78.667,88.469c-0.243-0.383-0.531-0.73-0.859-1.039l31.527-36.711
		c0.581,0.453,1.302,0.734,2.095,0.734c1.467,0,2.707-0.928,3.193-2.225l49.512,17.905c-0.025,0.105-0.036,0.217-0.049,0.328
		L78.667,88.469z M169.507,66.536l39.913-20.534c0.896,1.346,2.426,2.233,4.164,2.233c0.359,0,0.709-0.042,1.047-0.113
		l17.846,59.173c-0.923,0.574-1.702,1.354-2.278,2.275l-60.587-40.77c0.12-0.316,0.193-0.656,0.193-1.014
		C169.805,67.336,169.691,66.917,169.507,66.536z M195.361,98.678h-5.073l4.284-8.262L195.361,98.678z M257.775,7.215
		c0.005,0.415,0.067,0.813,0.163,1.2l-40.74,31.369c-0.911-0.955-2.189-1.557-3.614-1.557c-1.297,0-2.468,0.506-3.356,1.314
		l-27.101-28.756c1.005-0.864,1.729-2.046,2.01-3.394L257.775,7.215z M173.132,7.422c0.484,2.27,2.225,4.067,4.456,4.646
		l-11.069,52.883c-0.019,0.004-0.038,0.004-0.056,0.006l-14.881-53.651c1.368-0.539,2.338-1.865,2.338-3.425
		c0-0.142-0.026-0.275-0.042-0.412L173.132,7.422z M146.566,8.071c0.013,0.255,0.051,0.501,0.113,0.739l-33.73,36.175
		c-0.46-0.229-0.971-0.371-1.52-0.371c-0.136,0-0.265,0.024-0.396,0.04l-8.149-24.22c1.551-0.793,2.624-2.388,2.624-4.25
		c0-0.235-0.036-0.461-0.069-0.688L146.566,8.071z M98.505,20.409L75.231,86.075c-0.356-0.074-0.727-0.115-1.105-0.115
		c-2.395,0-4.4,1.572-5.102,3.73L7.843,82.268c0.007-0.096,0.029-0.188,0.029-0.285c0-0.75-0.222-1.445-0.588-2.043l89.622-60.884
		C97.331,19.619,97.876,20.078,98.505,20.409z M6.203,85.192c0.639-0.451,1.13-1.09,1.409-1.836l61.183,7.428
		c-0.02,0.188-0.057,0.369-0.057,0.563c0,2.076,1.188,3.859,2.911,4.76l-15.193,42.295c-0.339-0.066-0.688-0.105-1.048-0.105
		c-1.051,0-2.023,0.314-2.848,0.842L6.203,85.192z M117.227,142.766c-0.621-0.963-1.697-1.602-2.927-1.602
		c-0.584,0-1.126,0.156-1.609,0.41L77.977,95.106c0.413-0.422,0.746-0.918,1.003-1.459l68.63,34.516
		c-0.118,0.373-0.199,0.762-0.199,1.174c0,0.066,0.017,0.129,0.02,0.195L117.227,142.766z M207.146,172.211
		c-0.23-0.344-0.526-0.637-0.859-0.881l26.577-51.74c1,0.539,2.144,0.844,3.358,0.844c1.917,0,3.653-0.762,4.933-1.994
		l27.971,23.154c-0.192,0.402-0.31,0.85-0.31,1.328c0,0.223,0.025,0.439,0.07,0.648L207.146,172.211z M272.635,139.918
		c-0.232-0.057-0.472-0.094-0.721-0.094c-0.832,0-1.584,0.332-2.141,0.865l-27.885-23.084c0.901-1.191,1.442-2.67,1.442-4.277
		c0-0.926-0.183-1.809-0.505-2.619l59.467-28.15c0.303,0.621,0.747,1.158,1.299,1.566L272.635,139.918z"/>
	<path d="M129.582,105.911c3.941,0,6.137-2.535,6.65-4.904l2.846-13.264h-2.298l-2.604,12.168c-0.549,2.57-1.439,3.84-4.319,3.84
		c-2.364,0-2.844-1.234-2.296-3.84l2.605-12.168h-2.297l-2.811,13.129C124.51,103.475,125.709,105.911,129.582,105.911z"/>
	<path d="M158.342,100.493c0.412-2.021-0.308-3.701-2.16-4.318c1.543-0.754,2.502-2.123,2.812-3.666
		c0.651-3.053-0.925-4.768-5.451-4.768h-5.621l-0.446,2.059h1.852l-2.913,13.744h-1.853l-0.443,2.057h7.266
		C155.12,105.6,157.656,103.715,158.342,100.493z M151.623,89.799h2.434c1.61,0,2.982,0.584,2.537,2.709
		c-0.344,1.607-1.611,2.879-3.6,2.879h-2.57L151.623,89.799z M150.012,97.444h3.223c2.193,0,3.051,1.439,2.674,3.221
		c-0.516,2.434-2.502,2.879-4.525,2.879h-2.673L150.012,97.444z"/>
	<path d="M178.908,100.493c0.411-2.021-0.309-3.701-2.16-4.318c1.542-0.754,2.502-2.123,2.811-3.666
		c0.652-3.053-0.925-4.768-5.449-4.768h-5.622l-0.447,2.059h1.852l-2.913,13.744h-1.851l-0.445,2.057h7.267
		C175.687,105.6,178.223,103.715,178.908,100.493z M172.188,89.799h2.434c1.612,0,2.982,0.584,2.538,2.709
		c-0.343,1.607-1.611,2.879-3.6,2.879h-2.57L172.188,89.799z M170.578,97.444h3.222c2.194,0,3.051,1.439,2.675,3.221
		c-0.516,2.434-2.503,2.879-4.525,2.879h-2.674L170.578,97.444z"/>
</g>
</svg>
