<svg viewBox="0 0 250 76" version="1.1" xmlns="http://www.w3.org/2000/svg" xmlns:xlink="http://www.w3.org/1999/xlink">
    <g id="Page-2" stroke="none" stroke-width="1" fill="none" fill-rule="evenodd">
        <g id="wordmark-2c2p" fill-rule="nonzero">
            <path d="M183.1,0.3 L222.7,0.3 C231.5,0.3 238.1,2.2 242.6,6 C247.1,9.8 249.3,15.3 249.3,22.5 C249.3,26.1 248.7,29.4 247.6,32.3 C246.5,35.3 244.8,37.8 242.7,39.9 C240.5,42 237.8,43.7 234.6,44.8 C231.4,46 227.6,46.6 223.4,46.6 L197.3,46.6 L197.3,75.5 L183.1,75.5 L183.1,0.3 Z M222.1,34.3 C224.6,34.3 226.7,34 228.4,33.4 C230.1,32.8 231.4,32 232.5,30.9 C233.5,29.8 234.3,28.6 234.7,27.2 C235.1,25.8 235.4,24.2 235.4,22.6 C235.4,21.1 235.2,19.7 234.7,18.4 C234.2,17.1 233.5,16.1 232.6,15.2 C231.7,14.3 230.5,13.6 229.1,13.1 C227.7,12.6 226,12.3 224.2,12.3 L197.4,12.3 L197.4,34.3 C197.4,34.3 222.1,34.3 222.1,34.3 Z" id="Shape" fill="#0497CA"></path>
            <path d="M118.7,54.3 C117.2,56.3 115.5,58 113.5,59.3 C111.6,60.6 109.4,61.6 107,62.2 C104.6,62.8 102.1,63.2 99.4,63.2 C96.3,63.2 93.6,62.9 91.1,62.2 C88.6,61.5 86.5,60.6 84.6,59.5 C82.7,58.3 81.1,56.9 79.7,55.3 C78.3,53.7 77.5,52.6 76.7,50.8 C75.8,48.9 75.2,47 74.8,44.9 C74.4,42.8 74.2,40.8 74.2,38.6 C74.2,34.1 74.8,30.2 76,26.8 C77.2,23.4 79,20.6 81.2,18.4 C83.5,16.2 86.2,14.5 89.4,13.4 C92.6,12.3 96.2,11.7 100.2,11.7 C103.3,11.7 106.1,12.1 108.6,12.8 C111.1,13.5 113.3,14.5 115.2,15.8 C117.1,17.1 118.7,18.6 119.9,20.4 C121.2,22.2 122.1,24.2 122.7,26.3 L136.2,26.3 C135.6,22.9 134.6,19.9 133.2,17.3 C131.8,14.7 130.1,12.4 128.2,10.5 C126.2,8.6 124.1,7 121.7,5.6 C119.3,4.3 116.9,3.2 114.3,2.4 C111.8,1.6 109.2,1 106.7,0.7 C104.2,0.4 101.7,0.2 99.5,0.2 C95.3,0.2 91.5,0.6 87.9,1.5 C84.4,2.4 81.2,3.6 78.3,5.2 C75.4,6.8 72.9,8.7 70.7,11 C68.5,13.3 66.7,15.8 65.2,18.5 C63.7,21.3 62.6,24.2 61.9,27.4 C61.2,30.6 60.8,33.9 60.8,37.4 C60.8,42.1 61.3,46.2 62.4,49.9 C63.5,53.6 64.9,56.8 66.8,59.6 C68.6,62.4 70.8,64.8 73.3,66.8 C75.8,68.8 78.5,70.4 81.4,71.6 C84.3,72.8 87.3,73.7 90.4,74.3 C93.5,74.9 96.6,75.2 99.7,75.2 C104.6,75.2 109.1,74.5 113.2,73 C117.3,71.5 121,69.6 124.1,67.1 C127.3,64.6 129.9,61.7 132,58.3 C133.4,56 134.5,53.1 135.3,50.2 L121,50.2 C120.3,51.9 119.5,53.3 118.7,54.3 Z" id="Shape" fill="#0497CA"></path>
            <path d="M18.3,63.2 C19.3,62 20.5,60.8 21.8,59.8 C23.2,58.8 24.7,57.8 26.3,56.8 C27.9,55.9 29.6,55 31.4,54.1 C33.2,53.2 34.9,52.4 36.7,51.5 C38.8,50.6 40.8,49.6 42.9,48.6 C45,47.6 46.9,46.5 48.8,45.4 C50.7,44.3 52.5,43 54.1,41.6 C55.7,40.2 57.2,38.7 58.4,36.9 C59.6,35.2 60.6,33.3 61.3,31.2 C62,29.1 62.3,26.8 62.3,24.3 C62.3,20.9 61.7,17.7 60.5,14.8 C59.3,11.9 57.5,9.3 55,7.2 C52.6,5 49.5,3.4 45.8,2.1 C42.1,0.9 37.7,0.3 32.7,0.3 C27.4,0.3 22.8,1 18.9,2.4 C15,3.8 11.8,5.7 9.2,8.3 C6.6,10.8 4.7,13.8 3.5,17.3 C2.5,20.2 1.9,23.3 1.7,26.7 L15.4,26.7 C15.6,25 15.9,23.4 16.5,21.9 C17.2,19.8 18.4,18 19.8,16.5 C21.3,15 23.1,13.8 25.4,13 C27.6,12.2 30.3,11.7 33.4,11.7 C35.4,11.7 37.2,11.9 39,12.4 C40.8,12.9 42.4,13.6 43.7,14.6 C45.1,15.6 46.1,16.9 46.9,18.5 C47.7,20.1 48.1,22.1 48.1,24.4 C48.1,26.4 47.6,28.2 46.5,29.8 C45.5,31.4 44.1,32.9 42.4,34.2 C40.7,35.6 38.7,36.8 36.5,38 C34.3,39.2 32,40.3 29.7,41.5 C27.7,42.5 25.6,43.6 23.4,44.8 C21.2,46 19,47.3 16.9,48.8 C14.8,50.3 12.7,51.9 10.8,53.7 C8.9,55.5 7.2,57.5 5.6,59.7 C4.1,61.9 2.9,64.3 1.9,67 C1,69.6 0.4,72.5 0.2,75.7 L123.3,75.7 L123.3,63.4 L18.3,63.4 L18.3,63.2 Z" id="Shape" fill="#0497CA"></path>
            <path d="M142.7,59.8 C144.1,58.8 145.6,57.8 147.2,56.8 C148.8,55.9 150.5,55 152.3,54.1 C154.1,53.2 155.8,52.4 157.6,51.5 C159.7,50.6 161.7,49.6 163.8,48.6 C165.9,47.6 167.8,46.5 169.7,45.4 C171.6,44.3 173.4,43 175,41.6 C176.6,40.2 178.1,38.7 179.3,36.9 C180.5,35.2 181.5,33.3 182.2,31.2 C182.9,29.1 183.2,26.8 183.2,24.3 C183.2,20.9 182.6,17.7 181.4,14.8 C180.2,11.9 178.4,9.3 175.9,7.2 C173.5,5 170.4,3.4 166.7,2.1 C163,0.9 158.6,0.3 153.6,0.3 C148.3,0.3 144,1 140.1,2.4 C136.2,3.8 133,5.7 130.4,8.3 C127.8,10.8 125.9,13.8 124.7,17.3 C123.7,20.1 123.1,23.2 122.9,26.5 L136.4,26.5 C136.6,24.9 137,23.3 137.5,21.9 C138.2,19.8 139.4,18 140.8,16.5 C142.3,15 144.1,13.8 146.4,13 C148.6,12.2 151.3,11.7 154.4,11.7 C156.4,11.7 158.2,11.9 160,12.4 C161.8,12.9 163.4,13.6 164.7,14.6 C166.1,15.6 167.1,16.9 167.9,18.5 C168.7,20.1 169.1,22.1 169.1,24.4 C169.1,26.4 168.6,28.2 167.5,29.8 C166.5,31.4 165.1,32.9 163.4,34.2 C161.7,35.6 159.7,36.8 157.5,38 C155.3,39.2 153,40.3 150.7,41.5 C148.7,42.5 146.6,43.6 144.4,44.8 C142.2,46 140,47.3 137.9,48.8 C135.8,50.3 133.7,51.9 131.8,53.7 C129.9,55.5 128.2,57.5 126.6,59.7 C125.1,61.9 123.9,64.3 122.9,67 C122,69.6 121.4,72.5 121.2,75.7 L183.1,75.7 L183.1,63.4 L139.1,63.4 C140.1,61.9 141.3,60.8 142.7,59.8 Z" id="Shape" fill="#94C83D"></path>
        </g>
    </g>
</svg>