
<svg viewBox="0 0 563 150" version="1.1" xmlns="http://www.w3.org/2000/svg" xmlns:xlink="http://www.w3.org/1999/xlink">
    <g id="Page-1" stroke="none" stroke-width="1" fill="none" fill-rule="evenodd">
        <g id="Artboard-2" transform="translate(-16.000000, -346.000000)">
            <path d="M82.17968,418.2359 L81.79486,418.2359 C75.6377,417.9805 66.01714,417.2109 55.11268,417.2109 C44.72072,417.2109 38.30819,422.2118 38.30819,439.0181 L38.30819,455.0529 C38.30819,472.7565 46.38945,476.8601 52.67605,476.8601 C56.26714,476.8601 59.47341,476.7324 62.55199,476.4753 L62.55199,446.9717 C62.55199,445.5601 63.57877,444.4056 64.99036,444.4056 L81.41003,444.4056 C82.82163,444.4056 83.97435,445.5601 83.97435,446.9717 L83.97435,490.0735 C83.97435,491.8699 83.3324,492.6396 81.41003,493.0226 C74.48498,494.4342 65.50288,495.7164 52.67605,495.7164 C38.04931,495.7164 16.11443,487.3797 16.11443,454.9235 L16.11443,439.0181 C16.11443,406.3064 36.51002,398.0957 55.11268,398.0957 C67.9395,398.0957 77.17874,400.0198 81.9243,401.0449 C83.2047,401.302 84.10379,401.8163 84.10379,402.9707 L84.10379,416.5689 C84.10379,417.9805 83.3324,418.2359 82.17968,418.2359" id="Fill-15" fill="#171716"></path>
            <path d="M153.2987,439.2731 C153.2987,423.8802 148.1666,417.3365 137.3915,417.3365 C126.6165,417.3365 121.6156,423.8802 121.6156,439.2731 L121.6156,454.5401 C121.6156,469.9312 126.6165,476.4767 137.3915,476.4767 C148.1666,476.4767 153.2987,469.9312 153.2987,454.5401 L153.2987,439.2731 Z M137.3915,495.7178 C116.2263,495.7178 99.42007,484.2991 99.42007,454.5401 L99.42007,439.2731 C99.42007,409.5124 116.2263,398.0954 137.3915,398.0954 C158.5585,398.0954 175.363,409.5124 175.363,439.2731 L175.363,454.5401 C175.363,484.2991 158.5585,495.7178 137.3915,495.7178 Z" id="Fill-17" fill="#171716"></path>
            <path d="M389.6104,494.0517 C385.3738,494.9473 375.4996,495.7169 368.7005,495.7169 C352.1532,495.7169 337.3987,491.4821 337.3987,468.1374 L337.3987,401.8168 C337.3987,400.4052 338.5549,399.2507 339.9648,399.2507 L356.771,399.2507 C358.1791,399.2507 359.3336,400.4052 359.3336,401.8168 L359.3336,468.1374 C359.3336,474.8053 361.5148,476.8606 367.5461,476.8606 L389.6104,476.8606 C391.0202,476.8606 392.1747,478.0133 392.1747,479.4267 L392.1747,491.3579 C392.1747,493.0232 391.4033,493.6651 389.6104,494.0517" id="Fill-18" fill="#171716"></path>
            <path d="M426.7433,494.564 L409.5557,494.564 C408.1424,494.564 407.245,493.4096 407.245,491.9962 L407.245,401.6872 C407.245,400.2773 408.1424,399.2505 409.5557,399.2505 L426.7433,399.2505 C428.1566,399.2505 429.1816,400.2773 429.1816,401.6872 L429.1816,491.9962 C429.1816,493.4096 428.1566,494.564 426.7433,494.564" id="Fill-19" fill="#171716"></path>
            <path d="M503.7487,416.9539 L477.7084,416.9539 C471.679,416.9539 469.4977,419.0057 469.4977,425.6754 L469.4977,437.2218 L502.7236,437.2218 C504.1335,437.2218 505.2897,438.3763 505.2897,439.7879 L505.2897,451.9745 C505.2897,453.3844 504.1335,454.5388 502.7236,454.5388 L469.4977,454.5388 L469.4977,491.996 C469.4977,493.4094 468.3433,494.5639 466.9334,494.5639 L450.2566,494.5639 C448.8433,494.5639 447.6905,493.4094 447.6905,491.996 L447.6905,425.6754 C447.6905,402.3289 462.4415,398.2236 478.9906,398.2236 C492.8442,398.2236 499.2602,399.2504 503.7487,399.8923 C505.5433,400.1495 506.3147,400.7897 506.3147,402.4566 L506.3147,414.3879 C506.3147,415.7995 505.162,416.9539 503.7487,416.9539" id="Fill-20" fill="#171716"></path>
            <path d="M576.3213,494.0517 C571.8293,494.6901 565.2873,495.7169 551.4337,495.7169 C534.8864,495.7169 520.2596,491.4821 520.2596,468.1374 L520.2596,425.5481 C520.2596,402.1999 535.0141,398.0963 551.5632,398.0963 C565.4168,398.0963 571.8293,399.1213 576.3213,399.7632 C578.1159,400.0204 578.8873,400.6623 578.8873,402.3275 L578.8873,414.2605 C578.8873,415.6704 577.7311,416.8249 576.3213,416.8249 L550.2775,416.8249 C544.2481,416.8249 542.0686,418.8767 542.0686,425.5481 L542.0686,437.2222 L575.2927,437.2222 C576.7043,437.2222 577.8588,438.3767 577.8588,439.7882 L577.8588,451.9731 C577.8588,453.3847 576.7043,454.5392 575.2927,454.5392 L542.0686,454.5392 L542.0686,468.1374 C542.0686,474.8053 544.2481,476.8606 550.2775,476.8606 L576.3213,476.8606 C577.7311,476.8606 578.8873,478.0133 578.8873,479.4267 L578.8873,491.3579 C578.8873,493.0232 578.1159,493.7946 576.3213,494.0517" id="Fill-21" fill="#171716"></path>
            <path d="M212.802,367.0404 C216.3109,364.8819 257.8385,335.7089 300.5607,369.0135 C300.5607,369.0135 305.2083,367.9045 304.9145,364.8487 C304.6189,361.7858 261.0552,326.3577 207.7521,362.2231 C206.1586,363.3041 209.2879,369.1919 212.802,367.0404" id="Fill-22" fill="#3BAB47"></path>
            <path d="M222.8102,380.3857 C225.4865,378.6487 257.1573,355.2288 289.7343,381.9687 C289.7343,381.9687 293.4881,381.0871 293.2642,378.626 C293.0333,376.1736 259.8144,347.7353 219.1684,376.5235 C217.9527,377.3858 220.1374,382.1139 222.8102,380.3857" id="Fill-23" fill="#3BAB47"></path>
            <path d="M234.3473,392.35 C236.1105,391.1116 256.9784,374.2441 278.4375,393.4957 C278.4375,393.4957 280.7779,392.5721 280.6292,390.8037 C280.4823,389.0353 258.5876,368.561 231.8058,389.2924 C231.0029,389.9116 232.5807,393.5954 234.3473,392.35" id="Fill-24" fill="#3BAB47"></path>
            <path d="M301.6213,450.0417 L256.0478,416.9452 L210.4779,450.0417 C210.4551,450.0574 210.4271,450.0627 210.4061,450.0784 L210.4061,490.6282 C210.4061,491.8771 211.4189,492.8881 212.6661,492.8881 L244.0134,492.8881 L244.0134,457.4425 C244.0134,456.0536 245.1416,454.9272 246.5322,454.9272 L265.5669,454.9272 C266.9575,454.9272 268.084,456.0536 268.084,457.4425 L268.084,492.8881 L299.4313,492.8881 C300.6802,492.8881 301.693,491.8771 301.693,490.6282 L301.693,450.0784 C301.6702,450.0627 301.644,450.0574 301.6213,450.0417" id="Fill-25" fill="#3BAB47"></path>
            <path d="M311.6791,436.1933 L257.4104,396.7805 C257.0046,396.4866 256.5271,396.3397 256.0478,396.3397 C255.572,396.3397 255.0928,396.4866 254.6887,396.7805 L200.42,436.1933 C199.3845,436.9455 199.1553,438.392 199.9075,439.4276 L203.4251,444.2763 C203.8799,444.899 204.5848,445.2314 205.302,445.2314 C205.7743,445.2314 206.2501,445.0862 206.6611,444.7888 L254.6887,409.9099 C255.0928,409.6161 255.572,409.4674 256.0478,409.4674 C256.5271,409.4674 257.0046,409.6161 257.4104,409.9099 L305.438,444.7888 C305.8473,445.0862 306.3231,445.2314 306.7954,445.2314 C307.5126,445.2314 308.2175,444.899 308.6723,444.2763 L312.1916,439.4276 C312.9438,438.392 312.7146,436.9455 311.6791,436.1933" id="Fill-26" fill="#3BAB47"></path>
        </g>
    </g>
</svg>