<svg xmlns="http://www.w3.org/2000/svg" xmlns:xlink="http://www.w3.org/1999/xlink" viewBox="0 0 171 45">
    <defs>
        <path id="a" d="M0 44.16h170.932V0H0z"/>
    </defs>
    <g fill="none" fill-rule="evenodd">
        <path fill="#404041" d="M74.83 14.433c1.662 0 2.992.542 3.988 1.623.996 1.084 1.493 2.534 1.493 4.351v8.934h-3.74v-8.672c0-.87-.214-1.547-.64-2.03-.425-.484-1.024-.726-1.798-.726-.85 0-1.512.28-1.986.842-.474.56-.711 1.373-.711 2.436v8.15h-3.741v-8.672c0-.87-.213-1.547-.638-2.03-.426-.484-1.025-.726-1.799-.726-.832 0-1.494.28-1.986.842-.494.56-.74 1.373-.74 2.436v8.15H58.79V14.839h3.742v1.537c.87-1.295 2.214-1.943 4.031-1.943 1.78 0 3.094.696 3.945 2.088.967-1.392 2.407-2.088 4.321-2.088zM86.939 24.961c.744.755 1.677 1.132 2.798 1.132 1.122 0 2.06-.377 2.814-1.132.753-.754 1.132-1.712 1.132-2.871 0-1.16-.379-2.118-1.132-2.872-.754-.753-1.692-1.13-2.814-1.13-1.121 0-2.054.377-2.798 1.13-.745.754-1.117 1.712-1.117 2.872s.372 2.117 1.117 2.871m8.251 2.568c-1.49 1.479-3.306 2.218-5.453 2.218-2.146 0-3.959-.74-5.438-2.218-1.479-1.48-2.218-3.293-2.218-5.44 0-2.145.74-3.958 2.218-5.437 1.48-1.48 3.292-2.22 5.438-2.22 2.147 0 3.964.74 5.453 2.22 1.49 1.479 2.234 3.292 2.234 5.438s-.745 3.959-2.234 5.439M104.022 25.034c.764.764 1.726 1.146 2.886 1.146 1.16 0 2.117-.382 2.871-1.146.754-.763 1.132-1.745 1.132-2.944 0-1.199-.378-2.18-1.132-2.944-.754-.764-1.71-1.146-2.871-1.146-1.16 0-2.122.383-2.886 1.146-.765.764-1.145 1.745-1.145 2.944 0 1.2.38 2.18 1.145 2.944zm6.889-15.996h3.741v20.303h-3.741V27.63c-1.103 1.411-2.669 2.117-4.7 2.117-1.952 0-3.62-.74-5.002-2.218-1.384-1.48-2.074-3.293-2.074-5.44 0-2.145.69-3.958 2.074-5.437 1.382-1.48 3.05-2.22 5.003-2.22 2.03 0 3.596.706 4.699 2.118V9.038zM121.508 25.034c.754.764 1.712 1.146 2.872 1.146s2.123-.382 2.886-1.146c.763-.763 1.146-1.745 1.146-2.944 0-1.199-.383-2.18-1.146-2.944-.763-.764-1.727-1.146-2.886-1.146-1.16 0-2.118.383-2.872 1.146-.753.764-1.132 1.745-1.132 2.944 0 1.2.379 2.18 1.132 2.944zm6.904-10.195h3.741V29.34h-3.741V27.63c-1.122 1.411-2.698 2.117-4.728 2.117-1.934 0-3.592-.74-4.974-2.218-1.383-1.48-2.075-3.293-2.075-5.44 0-2.145.692-3.958 2.075-5.437 1.382-1.48 3.04-2.22 4.974-2.22 2.03 0 3.606.706 4.728 2.118V14.84z"/>
        <mask id="b" fill="#fff">
            <use xlink:href="#a"/>
        </mask>
        <path fill="#404041" d="M135.46 29.341h3.74V8.168h-3.74zM155.907 29.34h-4.35l-5.28-6.588v6.589h-3.74V9.038h3.74v12.207l4.99-6.406h4.466l-5.829 7.164zM167.19 14.839h3.741V29.34h-3.741v-1.624c-.91 1.353-2.35 2.03-4.321 2.03-1.587 0-2.897-.531-3.93-1.595-1.035-1.064-1.553-2.533-1.553-4.408v-8.905h3.742v8.44c0 .968.26 1.707.783 2.219.522.512 1.218.768 2.088.768.967 0 1.74-.3 2.32-.898.58-.6.87-1.499.87-2.698v-7.831z" mask="url(#b)"/>
        <path fill="#FFB50D" d="M22.086 12.929l-9.145 9.145-9.145-9.145 9.145-9.145z" mask="url(#b)"/>
        <path fill="#27E3CC" d="M22.086 31.22l-9.145-9.146 9.145-9.145" mask="url(#b)"/>
        <path fill="#5203E9" d="M22.086 12.929l9.145 9.145-9.145 9.145" mask="url(#b)"/>
        <path fill="#3E7EFF" d="M40.376 31.22l-9.144 9.144-9.147-9.145 9.147-9.145z" mask="url(#b)"/>
        <path fill="#FFB50D" d="M31.227 22.078h-18.29" mask="url(#b)"/>
        <path fill="#08C0A6" d="M40.372 12.933l-9.145 9.145 9.145 9.145c5.05-5.05 5.05-13.24 0-18.29" mask="url(#b)"/>
        <path fill="#27E3CC" d="M22.082 12.933l9.145 9.145 9.145-9.145c-5.05-5.05-13.24-5.05-18.29 0" mask="url(#b)"/>
        <path fill="#5203E9" d="M3.788 31.227l9.145-9.145-9.145-9.145c-5.051 5.05-5.051 13.24 0 18.29" mask="url(#b)"/>
        <path fill="#FFDD0F" d="M12.937 3.788l9.145 9.144 9.145-9.144c-5.05-5.05-13.24-5.05-18.29 0" mask="url(#b)"/>
        <path fill="#3B03A8" d="M22.078 31.227l-9.145-9.145-9.145 9.145c5.05 5.05 13.24 5.05 18.29 0" mask="url(#b)"/>
        <path fill="#1D3BFF" d="M31.223 40.372l-9.145-9.145-9.145 9.145c5.05 5.05 13.24 5.05 18.29 0" mask="url(#b)"/>
    </g>
</svg>
