
<svg viewBox="0 0 139 105" version="1.1" xmlns="http://www.w3.org/2000/svg" xmlns:xlink="http://www.w3.org/1999/xlink">
    <g id="Page-2" stroke="none" stroke-width="1" fill="none" fill-rule="evenodd">
        <g id="Artboard-6" transform="translate(-19.000000, -18.000000)">
            <polygon id="Fill-182" fill="#121228" points="30.7723 108.8001 30.7723 111.4601 26.5243 111.4601 26.5243 122.6951 23.3883 122.6951 23.3883 111.4601 19.1593 111.4601 19.1593 108.8001"></polygon>
            <polygon id="Fill-183" fill="#121228" points="45.0254 108.8001 45.0254 111.4001 37.5814 111.4001 37.5814 114.4181 44.2914 114.4181 44.2914 117.0181 37.5814 117.0181 37.5814 120.0951 45.2434 120.0951 45.2434 122.6951 34.4454 122.6951 34.4454 108.8001"></polygon>
            <g id="Group-206" transform="translate(44.000000, 18.732000)">
                <path d="M12.1421,92.6884 C9.7601,92.6884 7.9141,94.5344 7.9141,96.9564 C7.9141,99.3784 9.7601,101.2444 12.1421,101.2444 C13.3931,101.2444 14.7621,100.6084 15.7551,99.6164 L17.6011,101.6214 C16.1321,103.1294 14.0081,104.1024 11.9831,104.1024 C7.8341,104.1024 4.6981,101.0254 4.6981,96.9964 C4.6981,92.9864 7.8941,89.9684 12.1021,89.9684 C14.1071,89.9684 16.2111,90.8624 17.5811,92.2714 L15.7551,94.4944 C14.8021,93.4034 13.4321,92.6884 12.1421,92.6884" id="Fill-184" fill="#121228"></path>
                <polygon id="Fill-186" fill="#121228" points="24.5888 90.0681 24.5888 95.8641 30.8818 95.8641 30.8818 90.0681 34.0178 90.0681 34.0178 103.9631 30.8818 103.9631 30.8818 98.4851 24.5888 98.4851 24.5888 103.9631 21.4528 103.9631 21.4528 90.0681"></polygon>
                <path d="M43.8839,92.609 C42.8319,92.609 42.1169,92.986 42.1169,93.74 C42.1169,96.301 49.5219,94.872 49.5019,99.874 C49.5019,102.594 47.1399,104.063 44.0629,104.063 C41.7799,104.063 39.4969,103.189 37.9289,101.859 L39.1789,99.299 C40.6089,100.569 42.6329,101.383 44.1019,101.383 C45.3929,101.383 46.1669,100.906 46.1669,100.053 C46.1669,97.433 38.7629,98.961 38.7629,94.038 C38.7629,91.517 40.9259,89.929 44.1419,89.929 C46.0879,89.929 48.0329,90.525 49.4229,91.438 L48.2119,94.038 C46.7429,93.165 44.9959,92.609 43.8839,92.609" id="Fill-188" fill="#121228"></path>
                <path d="M61.7699,98.7428 L59.5859,93.3438 L57.3829,98.7428 L61.7699,98.7428 Z M62.7819,101.2638 L56.3509,101.2638 L55.2589,103.9638 L52.0229,103.9638 L58.0579,90.0678 L61.2939,90.0678 L67.2289,103.9638 L63.8739,103.9638 L62.7819,101.2638 Z" id="Fill-190" fill="#121228"></path>
                <path d="M76.3207,101.363 C78.1867,101.363 79.4177,100.152 79.4177,98.147 L79.4177,90.068 L82.5537,90.068 L82.5537,98.147 C82.5537,101.82 80.1517,104.102 76.3207,104.102 C72.4697,104.102 70.0087,101.82 70.0087,98.147 L70.0087,90.068 L73.1447,90.068 L73.1447,98.147 C73.1447,100.152 74.4547,101.363 76.3207,101.363" id="Fill-192" fill="#121228"></path>
                <path d="M93.7896,92.6884 C91.4076,92.6884 89.5616,94.5344 89.5616,96.9564 C89.5616,99.3784 91.4076,101.2444 93.7896,101.2444 C95.0406,101.2444 96.4096,100.6084 97.4026,99.6164 L99.2486,101.6214 C97.7796,103.1294 95.6556,104.1024 93.6306,104.1024 C89.4816,104.1024 86.3456,101.0254 86.3456,96.9964 C86.3456,92.9864 89.5416,89.9684 93.7496,89.9684 C95.7546,89.9684 97.8586,90.8624 99.2286,92.2714 L97.4026,94.4944 C96.4496,93.4034 95.0796,92.6884 93.7896,92.6884" id="Fill-194" fill="#121228"></path>
                <polygon id="Fill-196" fill="#121228" points="113.6802 90.0681 113.6802 92.6681 106.2362 92.6681 106.2362 95.6861 112.9462 95.6861 112.9462 98.2861 106.2362 98.2861 106.2362 101.3631 113.8982 101.3631 113.8982 103.9631 103.1002 103.9631 103.1002 90.0681"></polygon>
                <polygon id="Fill-198" fill="#F16C2E" points="78.1871 35.9246 78.1871 53.3836 39.5001 75.7196 24.3761 66.9906"></polygon>
                <polygon id="Fill-200" fill="#F16C2E" points="78.1872 8.7541 63.0662 0.0751 43.7752 11.1321 43.7752 28.6221"></polygon>
                <polygon id="Fill-202" fill="#F16C2E" points="58.9416 24.8116 43.9146 33.4876 58.7886 42.1606 73.8886 33.4426"></polygon>
                <polygon id="Fill-204" fill="#235FA5" points="39.4978 30.9433 39.5258 30.9273 39.4978 30.9113 39.4978 13.5833 24.4498 22.2743 24.4048 22.2483 0.8378 35.9243 0.8378 53.2633 24.3768 39.6733 24.3768 62.0313 39.4968 53.3013"></polygon>
            </g>
        </g>
    </g>
</svg>