<svg xmlns="http://www.w3.org/2000/svg" width="143" height="46" viewBox="0 0 143 46">
    <g fill="none" fill-rule="evenodd">
        <path fill="#254463" d="M120.037 5.275c9.835 0 17.836 8.002 17.836 17.836 0 9.836-8.001 17.837-17.836 17.837-9.836 0-17.836-8-17.836-17.837 0-9.834 8-17.836 17.836-17.836m0-4.275c-12.212 0-22.111 9.9-22.111 22.111 0 12.213 9.899 22.112 22.11 22.112 12.213 0 22.113-9.899 22.113-22.112 0-12.21-9.9-22.11-22.112-22.11"/>
        <path fill="#254463" d="M96.9 35.784c-3.225 3.19-7.653 5.164-12.535 5.164-9.836 0-17.838-8.001-17.838-17.837 0-9.835 8.002-17.836 17.838-17.836 4.882 0 9.31 1.975 12.536 5.164.7-1.276 1.51-2.485 2.405-3.623A22.024 22.024 0 0 0 84.365 1c-12.213 0-22.113 9.9-22.113 22.11 0 12.214 9.9 22.113 22.113 22.113 5.76 0 11.007-2.205 14.94-5.816a26.442 26.442 0 0 1-2.404-3.623"/>
        <path fill="#99A2A9" d="M34.494 8.046h-.624a2.168 2.168 0 0 1-2.168-2.168v-.624c0-1.198.97-2.168 2.168-2.168h.624c1.198 0 2.168.97 2.168 2.168v.624c0 1.197-.97 2.168-2.168 2.168M57.47 11.91c-.097.005-.192.014-.288.021-.197.014-.392.027-.586.048-.112.012-.222.028-.334.042-.176.022-.353.044-.528.071l-.345.062c-.168.031-.336.06-.503.096-.116.025-.23.053-.346.08-.163.038-.326.077-.487.12-.114.031-.228.064-.34.097-.16.047-.32.094-.478.145a16.465 16.465 0 0 0-.802.283c-.106.04-.21.083-.316.125-.158.063-.314.13-.469.2a15.929 15.929 0 0 0-.769.362c-.092.047-.185.094-.276.142-.16.084-.318.172-.475.262-.084.048-.168.094-.25.144-.164.098-.326.2-.486.302-.072.046-.145.091-.216.138-.172.115-.342.234-.509.355-.056.04-.114.078-.17.12-.19.141-.377.286-.56.435-.03.024-.063.047-.092.071a16.697 16.697 0 0 0-1.837 1.75 16.555 16.555 0 0 0-4.275 11.126V45.13h4.275V28.507c0-6.808 5.538-12.347 12.347-12.347.144 0 .284.015.427.02a26.127 26.127 0 0 1 1.515-4.178 16.613 16.613 0 0 0-2.827-.093M32.045 45.223h4.274V11.98h-4.274zM24.705 37.904a12.279 12.279 0 0 1-8.098 3.044c-6.8 0-12.332-5.532-12.332-12.333 0-6.8 5.533-12.331 12.332-12.331 3.097 0 5.929 1.151 8.098 3.043a20.884 20.884 0 0 1 2.317-3.642 16.529 16.529 0 0 0-10.415-3.677C7.435 12.008 0 19.444 0 28.615c0 9.172 7.435 16.607 16.607 16.607 3.946 0 7.566-1.378 10.415-3.676a20.98 20.98 0 0 1-2.317-3.642"/>
    </g>
</svg>