
<svg width="505px" height="146px" viewBox="0 0 505 146" version="1.1" xmlns="http://www.w3.org/2000/svg" xmlns:xlink="http://www.w3.org/1999/xlink">
    <g id="Page-1" stroke="none" stroke-width="1" fill="none" fill-rule="evenodd">
        <g id="Artboard-Copy-2" transform="translate(-55.000000, -115.000000)">
            <g id="LAPASAR-BLACK" transform="translate(55.000000, 113.000000)">
                <g id="Group-7" transform="translate(0.000000, 2.000000)">
                    <path d="M21.57095,20.1563 L21.57095,8.3661 L150.6334,8.3661 L150.6334,47.5806 L158.3486,53.4938 L158.3486,0.6529 L13.85673,0.6529 L13.85673,15.3039 C15.39453,15.794 16.85166,16.5382 18.14039,17.5274 L21.57095,20.1563 Z" id="Fill-1" fill="#231F20"></path>
                    <path d="M150.6336,137.4226 L21.57115,137.4226 L21.57115,125.6334 L18.13958,128.2623 C16.84783,129.2495 15.3907,129.9907 13.85592,130.4777 L13.85592,145.1348 L158.3478,145.1348 L158.3478,92.3029 L150.6336,98.2131 L150.6336,137.4226 Z" id="Fill-3" fill="#231F20"></path>
                    <path d="M166.3131,65.6109 L108.5159,21.3172 C105.7367,19.1743 102.0137,18.8143 98.8726,20.3652 C95.7415,21.9111 93.754,25.1017 93.754,28.5978 L93.754,117.1863 C93.754,120.6824 95.7415,123.8679 98.8726,125.4168 C100.1623,126.0561 101.5509,126.3687 102.9334,126.3687 C104.9089,126.3687 106.8843,125.7223 108.5159,124.4719 L166.3131,80.1782 C168.5739,78.4417 169.907,75.7513 169.907,72.8945 C169.907,70.0317 168.5819,67.3504 166.3131,65.6109" id="Fill-4" fill="#FCB833"></path>
                    <path d="M116.9922,65.6109 L59.19104,21.3172 C56.41191,19.1743 52.68387,18.8143 49.54776,20.3652 C46.41468,21.9111 44.42713,25.1017 44.42713,28.5978 L44.42713,117.1863 C44.42713,120.6824 46.41468,123.8679 49.54776,125.4168 C50.8375,126.0561 52.22707,126.3687 53.60353,126.3687 C55.58805,126.3687 57.55946,125.7223 59.19104,124.4719 L116.9922,80.1782 C119.2551,78.4417 120.5831,75.7513 120.5831,72.8945 C120.5831,70.0317 119.2551,67.3504 116.9922,65.6109" id="Fill-5" fill="#F69333"></path>
                    <path d="M73.0306,65.6109 L15.23137,21.3172 C12.45828,19.1743 8.72521,18.8143 5.58809,20.3652 C2.46206,21.9111 0.46948,25.1017 0.46948,28.5978 L0.46948,117.1863 C0.46948,120.6824 2.46206,123.8679 5.58809,125.4168 C6.87783,126.0561 8.2684,126.3687 9.65293,126.3687 C11.62838,126.3687 13.60382,125.7223 15.23137,124.4719 L73.0306,80.1782 C75.2974,78.4417 76.6245,75.7513 76.6245,72.8945 C76.6245,70.0317 75.2974,67.3504 73.0306,65.6109" id="Fill-6" fill="#F26F31"></path>
                </g>
                <g id="Group-10" transform="translate(193.000000, 0.000000)" fill="#231F20" fill-rule="nonzero">
                    <path d="M22.8120079,20.7572568 L22.8120079,78.1441891 L34.1564516,78.1441891 L34.1564516,92.5020007 L4.15571561,92.5020007 L4.15571561,20.7572568 L22.8120079,20.7572568 Z M75.4490924,20.7572568 L86.1288227,92.5020007 L67.0293881,92.5020007 L66.0987892,79.6065588 L59.4073399,79.6065588 L58.2994841,92.5020007 L38.9784783,92.5020007 L48.4617243,20.7572568 L75.4490924,20.7572568 Z M65.5670184,66.8883738 C64.6216433,58.7640571 63.6762825,48.7343692 62.7309074,36.7990093 C60.8401574,50.5069474 59.6584563,60.5366353 59.1857688,66.8883738 L65.5670184,66.8883738 Z M89.3194475,20.7572568 L108.108682,20.7572568 C113.190073,20.7572568 117.097072,21.156081 119.829797,21.9537411 C122.562522,22.7514013 124.615728,23.9035599 125.989476,25.4102513 C127.363224,26.9169428 128.293813,28.7411939 128.781272,30.8830592 C129.268731,33.0249245 129.512457,36.3410731 129.512457,40.8316046 L129.512457,47.0799115 C129.512457,51.6590718 129.039777,54.9973774 128.094402,57.0949282 C127.149027,59.1924791 125.413403,60.8025468 122.887479,61.9251797 C120.361555,63.0478125 117.060178,63.6091205 112.983248,63.6091205 L107.97574,63.6091205 L107.97574,92.5020007 L89.3194475,92.5020007 L89.3194475,20.7572568 Z M107.97574,33.0322995 L107.97574,51.2897637 C108.507513,51.3193066 108.965422,51.3340779 109.349481,51.3340779 C111.062973,51.3340779 112.25206,50.9130969 112.916777,50.0711222 C113.581494,49.2291476 113.913847,47.4787529 113.913847,44.8198856 L113.913847,38.9260925 C113.913847,36.474026 113.529794,34.8787296 112.761677,34.1401553 C111.99356,33.4015811 110.398263,33.0322995 107.97574,33.0322995 Z M162.543861,20.7572568 L173.223592,92.5020007 L154.124157,92.5020007 L153.193558,79.6065588 L146.502109,79.6065588 L145.394253,92.5020007 L126.073247,92.5020007 L135.556493,20.7572568 L162.543861,20.7572568 Z M152.661787,66.8883738 C151.716412,58.7640571 150.771051,48.7343692 149.825676,36.7990093 C147.934926,50.5069474 146.753225,60.5366353 146.280538,66.8883738 L152.661787,66.8883738 Z M215.942513,42.4712312 L198.615647,42.4712312 L198.615647,37.1535232 C198.615647,34.6719137 198.394078,33.0913885 197.950934,32.4119002 C197.507789,31.7324119 196.769226,31.3926729 195.735222,31.3926729 C194.612589,31.3926729 193.763242,31.850582 193.187154,32.7664141 C192.611066,33.6822462 192.323026,35.0707449 192.323026,36.931952 C192.323026,39.3249326 192.647994,41.1270267 193.297939,42.3382885 C193.918342,43.5495503 195.676122,45.0119054 198.571333,46.7253976 C206.872908,51.6590736 212.101935,55.7063998 214.258572,58.8674976 C216.415209,62.0285954 217.493511,67.1246812 217.493511,74.1559081 C217.493511,79.2668419 216.895275,83.0335141 215.698784,85.4560376 C214.502294,87.8785611 212.190591,89.9096099 208.763607,91.5492447 C205.336622,93.1888795 201.348381,94.0086847 196.798764,94.0086847 C191.806002,94.0086847 187.544492,93.0633238 184.014107,91.1725737 C180.483722,89.2818236 178.17202,86.8741077 177.07893,83.9493537 C175.98584,81.0245996 175.439303,76.8738746 175.439303,71.4970541 L175.439303,66.7997453 L192.766169,66.7997453 L192.766169,75.5296493 C192.766169,78.2180596 193.009894,79.9462974 193.497353,80.7144146 C193.984812,81.4825319 194.848931,81.8665847 196.089736,81.8665847 C197.330541,81.8665847 198.253745,81.379133 198.859376,80.404215 C199.465006,79.429297 199.767817,77.9817132 199.767817,76.0614201 C199.767817,71.8367754 199.191738,69.0745492 198.039562,67.7746585 C196.857843,66.4747678 193.947905,64.3033921 189.309658,61.2604662 C184.671412,58.1879973 181.598989,55.9575365 180.092298,54.5690169 C178.585606,53.1804973 177.337435,51.2602331 176.347745,48.8081666 C175.358056,46.3561001 174.863218,43.2245922 174.863218,39.4135491 C174.863218,33.9185567 175.564853,29.900773 176.968144,27.3600776 C178.371435,24.8193822 180.638824,22.8326473 183.770379,21.3998132 C186.901934,19.9669792 190.683377,19.2505729 195.114823,19.2505729 C199.95987,19.2505729 204.088438,20.0334499 207.500651,21.5992273 C210.912864,23.1650047 213.172867,25.1369684 214.280729,27.5151774 C215.38859,29.8933865 215.942513,33.9333271 215.942513,39.6351203 L215.942513,42.4712312 Z M255.559437,20.7572568 L266.239167,92.5020007 L247.139733,92.5020007 L246.209134,79.6065588 L239.517685,79.6065588 L238.409829,92.5020007 L219.088823,92.5020007 L228.572069,20.7572568 L255.559437,20.7572568 Z M245.677363,66.8883738 C244.731988,58.7640571 243.786627,48.7343692 242.841252,36.7990093 C240.950502,50.5069474 239.768801,60.5366353 239.296114,66.8883738 L245.677363,66.8883738 Z M269.429792,20.7572568 L282.635434,20.7572568 C291.439239,20.7572568 297.399444,21.0969959 300.516227,21.7764842 C303.63301,22.4559725 306.173668,24.191596 308.138275,26.9834066 C310.102883,29.7752173 311.085172,34.2287532 311.085172,40.344148 C311.085172,45.9277693 310.390922,49.6796702 309.002403,51.5999633 C307.613883,53.5202563 304.881199,54.6724149 300.80427,55.0564735 C304.497141,55.9723056 306.978713,57.1983204 308.249061,58.7345549 C309.519408,60.2707893 310.309671,61.681445 310.619872,62.9665642 C310.930073,64.2516833 311.085172,67.7894009 311.085172,73.5798231 L311.085172,92.5020007 L293.758306,92.5020007 L293.758306,68.6609431 C293.758306,64.820357 293.455496,62.4421836 292.849865,61.5263516 C292.244234,60.6105195 290.656323,60.1526103 288.086085,60.1526103 L288.086085,92.5020007 L269.429792,92.5020007 L269.429792,20.7572568 Z M288.086085,33.0322995 L288.086085,48.9854235 C290.183635,48.9854235 291.653376,48.6973839 292.495351,48.121296 C293.337325,47.5452081 293.758306,45.6766432 293.758306,42.5155454 L293.758306,38.5715787 C293.758306,36.29677 293.352097,34.8048724 292.539665,34.0958411 C291.727233,33.3868098 290.242721,33.0322995 288.086085,33.0322995 Z" id="LAPASAR"></path>
                    <path d="M3.18080247,131.194141 L3.18080247,128.166002 L6.20894175,128.166002 L6.20894175,131.194141 L3.18080247,131.194141 Z M26.6230319,123.601636 L29.4886857,124.325435 C28.8879786,126.679025 27.8072145,128.473734 26.246361,129.709615 C24.6855074,130.945495 22.7775525,131.563427 20.5224391,131.563427 C18.1885445,131.563427 16.2904372,131.088284 14.8280601,130.137985 C13.3656831,129.187687 12.2529146,127.811497 11.4897212,126.009376 C10.7265278,124.207255 10.3449369,122.272219 10.3449369,120.204211 C10.3449369,117.949098 10.7757654,115.982058 11.6374353,114.303033 C12.4991053,112.624007 13.7251202,111.348755 15.3155167,110.477237 C16.9059133,109.60572 18.656308,109.169967 20.5667534,109.169967 C22.7332378,109.169967 24.555027,109.721428 26.0321755,110.824365 C27.509324,111.927303 28.5383887,113.478286 29.1194004,115.47736 L26.2980609,116.142073 C25.7958304,114.566448 25.0671147,113.419214 24.111892,112.700335 C23.1566693,111.981456 21.9552733,111.622022 20.5076677,111.622022 C18.8434138,111.622022 17.4524531,112.020846 16.3347441,112.818506 C15.2170351,113.616166 14.4316962,114.687083 13.978704,116.031288 C13.5257118,117.375493 13.2992191,118.76153 13.2992191,120.18944 C13.2992191,122.030952 13.5675637,123.638558 14.104261,125.012306 C14.6409583,126.386054 15.4755347,127.412657 16.6080152,128.092145 C17.7404957,128.771633 18.9665106,129.111372 20.2860966,129.111372 C21.8912646,129.111372 23.2502208,128.648539 24.363006,127.72286 C25.4757912,126.79718 26.2291257,125.423452 26.6230319,123.601636 Z M32.1475397,120.647354 C32.1475397,117.052959 33.1125956,114.239033 35.0427363,112.205492 C36.972877,110.171951 39.4642968,109.155196 42.5170703,109.155196 C44.5161446,109.155196 46.3182388,109.6328 47.9234068,110.588023 C49.5285748,111.543245 50.7521278,112.875121 51.5941025,114.58369 C52.4360771,116.292258 52.8570581,118.229755 52.8570581,120.39624 C52.8570581,122.592267 52.4139202,124.556845 51.5276311,126.290033 C50.641342,128.02322 49.3857846,129.335401 47.7609213,130.226614 C46.1360579,131.117827 44.3832013,131.563427 42.5022989,131.563427 C40.463834,131.563427 38.6420448,131.071051 37.0368768,130.086285 C35.4317088,129.10152 34.2155414,127.757335 33.3883382,126.05369 C32.5611351,124.350046 32.1475397,122.547952 32.1475397,120.647354 Z M35.1018219,120.691668 C35.1018219,123.301297 35.8034569,125.356965 37.206748,126.858732 C38.6100391,128.3605 40.3702813,129.111372 42.4875275,129.111372 C44.6441643,129.111372 46.4191778,128.353114 47.8126212,126.836575 C49.2060646,125.320036 49.9027759,123.168355 49.9027759,120.381468 C49.9027759,118.618738 49.6048887,117.080065 49.0091055,115.765402 C48.4133223,114.45074 47.5418177,113.431523 46.3945657,112.70772 C45.2473137,111.983918 43.9597519,111.622022 42.5318417,111.622022 C40.5032245,111.622022 38.7577535,112.318733 37.2953765,113.712176 C35.8329995,115.10562 35.1018219,117.432094 35.1018219,120.691668 Z M56.4612824,131.194141 L56.4612824,109.539253 L60.7745345,109.539253 L65.9002141,124.871977 C66.3729017,126.299888 66.7175645,127.368342 66.9342129,128.077374 C67.1804043,127.289561 67.5644572,126.132479 68.086383,124.606092 L73.2711483,109.539253 L77.1264866,109.539253 L77.1264866,131.194141 L74.3642327,131.194141 L74.3642327,113.06962 L68.0716116,131.194141 L65.4866146,131.194141 L59.2235363,112.75942 L59.2235363,131.194141 L56.4612824,131.194141 Z" id=".COM"></path>
                </g>
            </g>
        </g>
    </g>
</svg>