<svg viewBox="0 0 547 162" version="1.1" xmlns="http://www.w3.org/2000/svg" xmlns:xlink="http://www.w3.org/1999/xlink">
    <g id="Page-1" stroke="none" stroke-width="1" fill="none" fill-rule="evenodd">
        <g id="Artboard-1" transform="translate(-24.000000, -340.000000)">
            <path d="M318.7168,492.8252 C310.5656,492.4788 304.2388,485.5765 304.5851,477.4218 C304.7688,473.2464 306.6789,469.5539 309.5825,466.9948 L312.9602,472.8721 C311.6029,474.2085 310.7213,476.0364 310.6286,478.0865 C310.4484,482.3912 313.7894,486.026 318.0959,486.2167 C322.3936,486.4004 326.0319,483.0612 326.2209,478.7669 C326.4028,474.4604 323.0636,470.8168 318.7588,470.6332 C318.437,470.6192 318.1186,470.6314 317.8055,470.6541 C317.0184,469.1638 315.7799,466.8077 314.3963,464.1454 C316.135,463.5262 318.0276,463.2113 319.992,463.297 C328.1467,463.6434 334.4718,470.5474 334.1202,478.6987 C333.7634,486.8569 326.8681,493.1837 318.7168,492.8252 Z M294.1512,435.3065 C280.6736,434.2587 268.9785,439.9383 268.9785,439.9383 C268.9785,439.9383 268.5832,440.4788 268.1792,439.9086 C265.83,436.5606 265.5659,434.0663 265.5659,434.0663 L271.1773,421.0208 C275.5188,426.4818 294.2806,432.3276 294.2806,432.3276 L294.1512,435.3065 Z M232.8385,491.7512 C224.9654,491.4066 218.8152,484.9555 218.7347,477.1734 L224.9899,477.441 C224.7835,482.1079 228.406,486.0523 233.0729,486.2587 C237.7467,486.4563 241.6876,482.8373 241.8871,478.1652 L248.1387,478.4416 C247.3883,486.1905 240.7081,492.087 232.8385,491.7512 Z M234.1136,462.265 C234.8098,462.2965 235.4815,462.3962 236.1515,462.5222 L234.0612,469.379 C233.9685,469.372 233.8915,469.365 233.8058,469.3545 C230.2724,469.2041 227.1466,471.2401 225.756,474.2662 L219.0513,473.9759 C220.5032,467.0281 226.7898,461.9502 234.1136,462.265 Z M241.4218,464.5949 C245.0548,466.9354 247.5824,470.7923 248.1107,475.237 L241.3973,474.9467 C240.848,473.4126 239.872,472.085 238.5951,471.1019 L241.4218,464.5949 Z M320.0829,456.4962 C316.9589,456.3597 313.952,456.8915 311.2128,457.9533 C308.3774,452.3541 305.9407,447.2657 306.4602,447.2919 C307.6077,447.3409 312.1783,447.5333 312.1783,447.5333 C312.1783,447.5333 312.941,440.4666 312.6489,436.5659 C312.362,432.6564 310.9941,432.59 310.9941,432.59 L305.8743,434.1975 C299.836,436.237 298.9387,435.7368 298.9387,435.7368 C298.9387,435.7368 299.0122,429.7056 297.8665,429.6513 C296.719,429.6024 291.1373,428.1943 291.1373,428.1943 C290.6633,427.2759 286.9095,425.2923 284.9487,423.8283 C282.7552,421.3374 275.1147,415.8117 269.5978,411.9548 C270.3289,412.1664 271.1021,412.2993 271.8979,412.3291 C277.3852,412.5687 282.0328,408.3094 282.2759,402.8152 C282.5068,397.3193 278.2475,392.6787 272.7568,392.4373 C267.2573,392.1941 262.615,396.4622 262.3753,401.9546 C262.2721,404.3318 263.0208,406.5497 264.3362,408.3234 C263.8499,407.9998 263.5805,407.8162 263.5805,407.8162 C262.2599,406.6145 260.7311,408.1992 260.7311,408.1992 C260.7311,408.1992 247.9515,433.5363 247.1959,435.1018 C246.4402,436.6761 249.503,440.017 249.503,440.017 L232.0776,440.4036 C229.0935,440.5051 226.8335,450.4895 226.8335,450.4895 C215.2906,452.515 208.4897,466.6537 208.4897,466.6537 L211.3776,468.8385 L211.1677,473.6365 L205.9079,473.4091 C203.9961,475.3805 205.7715,476.6084 205.7715,476.6084 L211.0278,476.841 L211.0278,476.9302 L210.9928,477.7576 L211.0121,477.7576 C210.9981,489.7256 220.4227,499.6767 232.4956,500.198 C244.5756,500.7158 254.8311,491.6025 255.8404,479.6625 C258.2682,479.6397 269.3284,479.5593 276.4284,479.6625 C284.4432,479.7797 286.4722,475.0551 286.4722,475.0551 L287.1946,458.3696 C287.1946,458.3696 292.2306,458.5882 294.5692,457.5387 C296.8939,456.4962 300.3556,450.9233 300.3556,450.9233 L306.0352,460.8219 C300.931,464.6229 297.5166,470.6087 297.2158,477.4603 C296.691,489.5682 306.0842,499.8009 318.1868,500.3327 C330.2912,500.854 340.5345,491.466 341.054,479.3546 C341.5805,467.2502 332.1856,457.0157 320.0829,456.4962 Z" id="Fill-1" fill="#84BF41"></path>
            <path d="M97.37211,416.4483 C97.00303,416.6791 96.49752,416.7928 95.85381,416.7928 L95.441,416.7928 C92.12803,416.6092 87.98944,416.3783 83.02174,416.1037 C78.05403,415.8273 72.62629,415.6891 66.73851,415.6891 C63.98003,415.6891 61.47169,416.0582 59.21873,416.7928 C56.96227,417.531 55.05565,418.7939 53.49362,420.5868 C51.9281,422.3815 50.73165,424.7954 49.90428,427.832 C49.07691,430.8686 48.66235,434.6399 48.66235,439.1475 L48.66235,456.3963 C48.66235,461.1786 49.14513,465.088 50.11243,468.1246 C51.07799,471.1577 52.31992,473.5524 53.83647,475.2998 C55.35476,477.049 57.03224,478.2437 58.87414,478.8857 C60.71254,479.5311 62.46173,479.853 64.11822,479.853 C67.88948,479.853 71.42984,479.7148 74.74106,479.4384 L74.74106,447.7011 C74.74106,446.9664 74.9947,446.321 75.50196,445.77 C76.00573,445.219 76.62669,444.9426 77.36485,444.9426 L95.02645,444.9426 C95.76111,444.9426 96.40481,445.219 96.95755,445.77 C97.5103,446.321 97.78667,446.9664 97.78667,447.7011 L97.78667,494.0652 C97.78667,495.8126 96.86485,496.8726 95.02645,497.2382 C91.25344,497.9746 86.88396,498.641 81.918,499.2393 C76.95029,499.8357 71.01703,500.1366 64.11822,500.1366 C61.54166,500.1366 58.75694,499.862 55.76932,499.3092 C52.7782,498.7565 49.83606,497.8364 46.93765,496.5473 C44.04099,495.2616 41.25627,493.5142 38.59051,491.3049 C35.92124,489.0975 33.55283,486.3845 31.48354,483.1642 C29.41424,479.9457 27.77875,476.1045 26.5858,471.644 C25.38935,467.1818 24.79113,462.0514 24.79113,456.2581 L24.79113,439.1475 C24.79113,430.3158 26.03305,423.0724 28.51691,417.4138 C31.00076,411.7569 34.24376,407.272 38.24417,403.9608 C42.24632,400.6495 46.75399,398.3494 51.76717,397.062 C56.78036,395.7745 61.7708,395.1291 66.73851,395.1291 C73.63907,395.1291 79.52335,395.5227 84.4001,396.3028 C89.27685,397.0847 93.00088,397.7511 95.57744,398.3021 C97.14122,398.5785 97.92311,399.2694 97.92311,400.3732 L97.92311,414.9999 C97.92311,415.7363 97.73769,416.2191 97.37211,416.4483" id="Fill-3" fill="#1A1919"></path>
            <path d="M172.1587,439.3859 C172.1587,430.9793 170.7541,424.9271 167.9501,421.2328 C165.1426,417.5368 160.8431,415.6896 155.0481,415.6896 C149.253,415.6896 144.9745,417.5368 142.216,421.2328 C139.4558,424.9271 138.0756,430.9793 138.0756,439.3859 L138.0756,455.8808 C138.0756,464.2874 139.4558,470.3361 142.216,474.0339 C144.9745,477.7282 149.253,479.5771 155.0481,479.5771 C160.8431,479.5771 165.1426,477.7282 167.9501,474.0339 C170.7541,470.3361 172.1587,464.2874 172.1587,455.8808 L172.1587,439.3859 Z M195.7535,455.8423 C195.7535,463.8449 194.697,470.6545 192.584,476.2642 C190.4709,481.8773 187.5795,486.4532 183.9062,489.9953 C180.2329,493.5357 175.9159,496.114 170.957,497.7232 C165.998,499.3308 160.6717,500.1354 154.9798,500.1354 C149.2845,500.1354 143.9564,499.3308 138.9992,497.7232 C134.0403,496.114 129.7232,493.5357 126.0499,489.9953 C122.3766,486.4532 119.4852,481.8773 117.3722,476.2642 C115.2592,470.6545 114.2044,463.8449 114.2044,455.8423 L114.2044,439.4227 C114.2044,431.4201 115.2592,424.614 117.3722,419.0008 C119.4852,413.3912 122.3766,408.8136 126.0499,405.2714 C129.7232,401.7311 134.0403,399.1545 138.9992,397.5453 C143.9564,395.936 149.2845,395.1296 154.9798,395.1296 C160.6717,395.1296 165.998,395.936 170.957,397.5453 C175.9159,399.1545 180.2329,401.7311 183.9062,405.2714 C187.5795,408.8136 190.4709,413.3912 192.584,419.0008 C194.697,424.614 195.7535,431.4201 195.7535,439.4227 L195.7535,455.8423 Z" id="Fill-4" fill="#1A1919"></path>
            <path d="M469.8937,499.4735 C467.5026,499.8426 464.3068,500.2344 460.3047,500.6472 C456.3025,501.06 450.5757,501.2682 443.1259,501.2682 C438.7091,501.2682 434.4691,500.8991 430.4057,500.1644 C426.3389,499.4298 422.7583,498.0024 419.6569,495.8859 C416.5556,493.7711 414.0823,490.7608 412.2316,486.8478 C410.3827,482.9401 409.4574,477.8587 409.4574,471.6001 L409.4574,425.7888 C409.4574,419.5354 410.3827,414.475 412.2316,410.611 C414.0823,406.7488 416.5556,403.7594 419.6569,401.6429 C422.7583,399.5264 426.3616,398.1025 430.4739,397.3644 C434.5828,396.6297 438.8473,396.2606 443.2623,396.2606 C446.9426,396.2606 450.1838,396.3306 452.9913,396.4671 C455.7953,396.6052 458.2564,396.7679 460.3746,396.9516 C462.4894,397.137 464.3068,397.3207 465.8234,397.5026 C467.3417,397.688 468.6955,397.8717 469.8937,398.0553 C471.7339,398.3299 472.654,399.2518 472.654,400.8155 L472.654,413.6476 C472.654,414.384 472.3793,415.0277 471.8266,415.5787 C471.2739,416.1315 470.6302,416.4078 469.8937,416.4078 L441.8839,416.4078 C438.6637,416.4078 436.3862,417.076 435.0533,418.4072 C433.7187,419.7418 433.0523,422.2029 433.0523,425.7888 L433.0523,438.3462 L468.79,438.3462 C469.5247,438.3462 470.1701,438.6226 470.7229,439.1736 C471.2739,439.7263 471.5502,440.3718 471.5502,441.1064 L471.5502,454.2149 C471.5502,454.953 471.2739,455.595 470.7229,456.146 C470.1701,456.6987 469.5247,456.9751 468.79,456.9751 L433.0523,456.9751 L433.0523,471.6001 C433.0523,475.1877 433.7187,477.6506 435.0533,478.9835 C436.3862,480.3181 438.6637,480.9845 441.8839,480.9845 L469.8937,480.9845 C470.6302,480.9845 471.2739,481.2609 471.8266,481.8119 C472.3793,482.3646 472.654,483.0101 472.654,483.743 L472.654,496.5768 C472.654,498.2316 471.7339,499.1989 469.8937,499.4735" id="Fill-5" fill="#1A1919"></path>
            <path d="M570.2092,399.0203 C570.2092,399.5713 569.9783,400.2168 569.5183,400.9515 L536.6772,447.5919 L569.6582,497.1273 C570.0238,497.5891 570.2092,498.0929 570.2092,498.6456 C570.2092,499.5657 569.5638,500.0257 568.2781,500.0257 L544.5433,500.0257 C543.716,500.0257 543.0932,499.842 542.6804,499.473 C542.2641,499.1074 541.8741,498.6456 541.5067,498.0929 L513.4969,452.5596 L513.4969,497.2672 C513.4969,498.0019 513.2205,498.6456 512.6678,499.1983 C512.1168,499.7493 511.4713,500.0257 510.7367,500.0257 L492.6605,500.0257 C491.9224,500.0257 491.2804,499.7493 490.7294,499.1983 C490.1767,498.6456 489.9003,498.0019 489.9003,497.2672 L489.9003,400.1241 C489.9003,399.3894 490.1767,398.7685 490.7294,398.2612 C491.2804,397.7574 491.9224,397.5021 492.6605,397.5021 L510.7367,397.5021 C511.4713,397.5021 512.1168,397.7574 512.6678,398.2612 C513.2205,398.7685 513.4969,399.3894 513.4969,400.1241 L513.4969,444.0043 L543.8541,399.1585 C544.4961,398.0548 545.5071,397.5021 546.8872,397.5021 L568,397.5021 C569.4711,397.5021 570.2092,398.0093 570.2092,399.0203" id="Fill-6" fill="#1A1919"></path>
            <polygon id="Fill-7" fill="#84BF41" points="295.6698 489.2157 273.4358 489.1982 273.4358 489.8052 296.2558 489.8297"></polygon>
            <polygon id="Fill-8" fill="#84BF41" points="299.1768 495.3601 264.8699 495.3461 264.8699 495.9513 299.8887 496.0038"></polygon>
            <polygon id="Fill-9" fill="#84BF41" points="294.515 482.9296 279.2236 482.9226 279.2236 483.82 294.6952 483.5751"></polygon>
            <path d="M225.3843,362.2891 C229.0489,360.0344 272.4236,329.5652 317.0385,364.3479 C317.0385,364.3479 321.896,363.1916 321.5881,359.9994 C321.2803,356.8001 275.7803,319.7994 220.1087,357.2584 C218.447,358.3884 221.7145,364.535 225.3843,362.2891" id="Fill-10" fill="#84BF41"></path>
            <path d="M235.8368,376.2271 C238.6337,374.4132 271.711,349.9525 305.7345,377.8801 C305.7345,377.8801 309.6562,376.9583 309.42,374.3887 C309.1822,371.8279 274.4869,342.1266 232.034,372.1935 C230.7641,373.0943 233.0433,378.0323 235.8368,376.2271" id="Fill-11" fill="#84BF41"></path>
            <path d="M247.8856,388.7225 C249.7292,387.4281 271.5224,369.8137 293.9348,389.919 C293.9348,389.919 296.3784,388.9551 296.2245,387.1063 C296.0706,385.2609 273.2034,363.877 245.232,385.5267 C244.3942,386.1739 246.0419,390.0257 247.8856,388.7225" id="Fill-12" fill="#84BF41"></path>
            <path d="M390.6079,491.2843 C389.5742,493.7437 388.1801,495.6993 386.4134,497.1336 C384.6502,498.5609 382.5669,499.5755 380.1705,500.1702 C377.7829,500.7579 375.1888,501.0535 372.4006,501.0535 C371.1412,501.0535 369.4829,501.2967 368.4929,501.2215 C367.4994,501.1462 355.9197,501.5031 354.4469,501.3561 C353.3396,501.2075 352.7956,500.5848 352.7956,499.4793 L352.4685,481.3121 C352.4685,480.9448 352.577,480.602 352.8026,480.2661 C353.0195,479.9338 353.3134,479.7694 353.686,479.7694 L363.8768,479.8358 C365.1292,479.8358 365.9181,479.5245 366.2504,478.9 C366.5845,478.2721 366.7472,477.2593 366.7472,475.8582 L366.5373,399.9852 C366.5373,399.3992 366.7542,398.8972 367.195,398.4931 C367.6445,398.0908 368.1535,397.8879 368.7413,397.8879 L389.394,398.0296 C389.973,398.0296 390.4995,398.229 390.935,398.6331 C391.3758,399.0406 391.598,399.5374 391.598,400.1251 L391.598,480.7034 C391.598,484.4537 391.633,488.8197 390.6079,491.2843" id="Fill-13" fill="#1A1919"></path>
        </g>
    </g>
</svg>