<?xml version="1.0" encoding="utf-8"?>
<!-- Generator: Adobe Illustrator 19.2.1, SVG Export Plug-In . SVG Version: 6.00 Build 0)  -->
<svg version="1.1" id="layer" xmlns="http://www.w3.org/2000/svg" xmlns:xlink="http://www.w3.org/1999/xlink" x="0px" y="0px"
	 width="450" height="225" viewBox="0 0 652 652" style="enable-background:new 0 0 652 652;">
<style type="text/css">
	.st0{fill:#252729;}
</style>
<g id="MKTG-EN">
	<g id="Mktg-EN" transform="translate(-123.000000, -26.000000)">
		<g id="nav">
			<g id="wework-copy" transform="translate(123.000000, 26.563758)">
				<path id="Fill-1" class="st0" d="M71.3,319.6c3.7,0,6.9,0.1,9.8,0.7c4.1,0.7,7.5,6.4,7.5,9.2c0,1.4,0,3-0.6,5.3
					c-1,3.5-7.9,16.2-10.8,20.9c-3.5-5.6-11.6-21.4-14.4-27.6c-1.2-2.6-1.8-4.7-1.8-5.8C61,320.2,64.8,319.6,71.3,319.6z
					 M25.2,319.6c3.4,0.9,5.5,1.6,8.3,6.6c10,18.3,20,38.5,29.7,58.3c1.2,1,2.7,1.3,4.7,1.3c2,0,3.4-0.2,4.7-1.3
					c4.6-8.7,16.8-32.2,22.1-41.3c6.1,11.3,16.7,31.8,21,41.3c1.2,1,2.7,1.3,4.7,1.3c2,0,3.5-0.2,4.7-1.3
					c8.6-18.6,17.9-37.9,27.3-55.9c3.3-6.5,4.7-8.2,11.4-9.5l2.8-0.5c1.6-1.6,1.2-5.4-0.6-6.2c-4.5,0.4-9.8,0.5-15.7,0.5
					c-5.1,0-9.9-0.2-16.7-0.5c-2,0.7-2,4.9-0.8,6.2l3.4,0.7c3.5,0.7,5.1,1.6,5.1,2.5c0,1.2-0.6,3.7-1.9,6.8
					c-3.2,8.1-6.4,16.8-11.3,26.9c-4.5-8.5-10.1-19.9-13.8-28.3c-1.2-3-1.6-4.1-1.6-5.4c0-0.9,2.8-1.8,7.5-2.7l3-0.5
					c1.5-0.7,1.6-6-0.6-6.2c-13,0.4-23.2,0.5-36,0.5H45.5c-8.5,0-15-0.2-23.4-0.5c-2.1,0.9-2.1,4.8-0.7,6.2L25.2,319.6L25.2,319.6z"
					/>
				<path id="Fill-4" class="st0" d="M195,318.4c6.9,0,10.8,3.8,10.8,9.6c0,1.8-0.4,3.5-1.4,4c-2.3,1.2-5.5,1.6-8.4,1.6h-7.5
					c-6.5,0-9.3-0.1-9.3-2.6C179.2,325.4,186.5,318.4,195,318.4z M194.8,385.6c12.2,0,27.3-5.1,35.6-20c0-3-3.1-4.4-5.3-4.1
					c-5.5,8.1-13.2,9.1-18.9,9.1c-18.9,0-28.7-12.8-28.7-26c0-2.8,0.4-3.2,5.1-3.2h39c6.4,0,7.3-2.5,7.3-5.8
					c0-13.6-11.4-25.3-32.5-25.3c-25.4,0-43.9,17.2-43.9,39.4C152.5,368.9,167.4,385.6,194.8,385.6L194.8,385.6z"/>
				<path id="Fill-5" class="st0" d="M280.9,319.6c3.7,0,6.9,0.1,9.8,0.7c4.1,0.7,7.5,6.4,7.5,9.2c0,1.4,0,3-0.6,5.3
					c-1,3.5-7.9,16.2-10.8,20.9c-3.5-5.6-11.6-21.4-14.4-27.6c-1.2-2.6-1.8-4.7-1.8-5.8C270.5,320.2,274.4,319.6,280.9,319.6z
					 M234.8,319.6c3.5,0.9,5.5,1.6,8.3,6.6c9.9,18.3,20,38.5,29.7,58.3c1.2,1,2.7,1.3,4.7,1.3c2,0,3.4-0.2,4.7-1.3
					c4.7-8.7,16.9-32.2,22.2-41.3c6.1,11.3,16.6,31.8,20.9,41.3c1.2,1,2.6,1.3,4.7,1.3c2.1,0,3.5-0.2,4.7-1.3
					c8.6-18.6,17.9-37.9,27.3-55.9c3.3-6.5,4.7-8.2,11.4-9.5l2.9-0.5c1.6-1.6,1.2-5.4-0.6-6.2c-4.5,0.4-9.7,0.5-15.7,0.5
					c-5.1,0-9.9-0.2-16.7-0.5c-2.1,0.7-2.1,4.9-0.8,6.2l3.5,0.7c3.5,0.7,5.1,1.6,5.1,2.5c0,1.2-0.6,3.7-1.8,6.8
					c-3.3,8.1-6.5,16.8-11.4,26.9c-4.5-8.5-10.1-19.9-13.8-28.3c-1.2-3-1.6-4.1-1.6-5.4c0-0.9,2.8-1.8,7.5-2.7l3-0.5
					c1.4-0.7,1.6-6-0.6-6.2c-13,0.4-23.2,0.5-36,0.5h-41.1c-8.5,0-15-0.2-23.4-0.5c-2,0.9-2,4.8-0.6,6.2L234.8,319.6L234.8,319.6z"
					/>
				<path id="Fill-6" class="st0" d="M408.8,318.4c11.5,0,17.2,14.7,17.5,31.8c0.2,15.8-3.7,27.2-15.3,27.2
					c-11.7,0-18.5-13.6-18.5-32C392.5,326.4,399.8,318.4,408.8,318.4z M408.8,385.6c25,0,46.7-12.1,46.7-37.8
					c0-24.8-21.6-37.4-45.5-37.4c-24,0-47,13.9-46.8,39C363.4,373.6,384.6,385.6,408.8,385.6L408.8,385.6z"/>
				<path id="Fill-7" class="st0" d="M490.2,325.2c1.2,0,3.1,0.2,7.7,3.5c2.6,2.1,5.1,3.2,7.9,3.2c6.5,0,13-3.3,13-11.4
					c0-6.6-5.7-10.4-11.2-10.4c-8.5,0-14.4,5.8-19.9,8.8c-1.6-0.3-2-0.9-2-2.1c0-1.6,0.4-4,0.8-7.6c-0.8-1-2-1.6-3.6-1.6
					c-6.3,3.6-20.3,8.3-29.7,10.6c-1.4,1-1.4,4.2,0,5.3l2.9,1.6c3.8,2.1,3.8,4.2,3.8,11.3v26.5c0,12.3-0.8,13.9-7.5,14.4l-3.9,0.3
					c-1.6,1.1-1.6,5.1,0.2,6.2c6.7-0.4,15.7-0.5,24-0.5c9.5,0,17.7,0.2,27.5,0.5c1.8-1.1,1.8-5.1,0.2-6.2l-6.5-0.5
					c-6.7-0.6-7.5-2-7.5-14.3v-27.1C486.3,329.1,487.3,325.2,490.2,325.2"/>
				<path id="Fill-8" class="st0" d="M569.9,377l-2.6,0.6c-1.6,1.6-1.3,5.2,0.8,6.1c5.7-0.3,13-0.5,25-0.5c11.8,0,19.3,0.2,25.6,0.5
					c2-0.7,2.5-4.9,0.8-6.1l-3-0.6c-5.3-0.9-9.1-1.8-12-4c-5.1-4-23-28-26.6-33.6c-1.1-1.4-1.5-2.4-1.5-3c0-0.5,0.2-1.2,1.2-2.3
					c2.9-2.4,6-5.1,13.7-10.2c5.5-3.7,9.8-5.4,13.6-6.1l6.5-1.2c1.5-1.4,1.3-5.3-0.8-6.1c-12,1.6-28.8,2.5-38.4,2.5h-4.9
					c-2,0.7-2.3,4.6-0.4,6.1l5.1,0.7c1.8,0.1,3.8,0.8,3.8,1.7c0,1.1-1,3-4.9,7l-8.5,8.7c-4.1,4-8.3,4.9-11.8,4.9
					c-2.2,0-2.9-0.5-2.9-2.5v-55.2c0-11.1,0.3-18.5,0.7-25.7c-0.8-0.9-2.3-1.2-3.5-1.2c-10.4,3.8-22.8,8.1-31.1,9.8
					c-1.4,1.1-1.4,4.3,0,5.3l3.4,1.8c4.1,2.1,4.1,4,4.1,11.1v77.3c0,12.3-0.8,13.7-8.2,14.4l-3.9,0.3c-1.6,1-1.6,5.1,0.2,6.1
					c7.1-0.3,15.5-0.5,24.8-0.5c9.4,0,17.9,0.2,24.4,0.5c1.8-1,1.8-5.1,0.2-6.1l-3.2-0.3c-7.1-0.7-8-2.1-8-14.4v-10.2
					c0-3.4,1-4.2,2.4-4.2c2,0,3.7,0.7,5.1,2.6l14.4,19c1.6,2.1,3.4,4.9,3.4,5.7C573.2,376.3,572,376.6,569.9,377"/>
			</g>
		</g>
	</g>
</g>
</svg>
