<svg xmlns="http://www.w3.org/2000/svg" width="156" height="68" viewBox="0 0 156 68">
    <g fill="#FA4616" fill-rule="evenodd">
        <path d="M.09 29.635h6.803c-.18 1.477 1.084 2.55 3.188 2.55 1.476 0 2.618-.76 2.791-2.013.116-.85-.175-1.566-1.33-1.835l-5.105-1.342c-3.418-.895-4.96-3.132-4.552-6.22.571-4.027 4.461-6.846 10.145-6.846 6.309 0 9.27 2.64 8.697 6.712h-6.756c.225-1.521-.777-2.371-2.612-2.371-1.477 0-2.573.715-2.695 1.79-.164.983.442 1.61 1.552 1.924l4.924 1.387c3.194.894 5.056 2.908 4.648 5.996-.629 4.43-4.569 7.428-10.476 7.428-6.309 0-9.75-3.088-9.221-7.16M23.994 27.89l1.842-13.334h6.936l-1.616 11.813c-.405 2.953.35 4.563 2.946 4.563 2.909 0 4.444-1.879 4.802-4.787l1.609-11.59h6.802l-2.946 21.569h-6.802l.409-3.088c-1.502 2.282-3.917 3.67-7.184 3.67-5.19 0-7.552-3.223-6.798-8.816M52.152 14.556h6.846l-.454 3.132c1.596-2.417 4.23-3.714 7.497-3.714 5.236 0 7.472 2.953 6.665 8.815L70.91 36.124h-6.833l1.446-11.098c.514-3.624-.33-5.28-3.103-5.28-2.73 0-4.396 1.79-4.856 5.101l-1.51 11.277h-6.847l2.946-21.568M93.558 25.34c.454-3.088-.944-5.639-4.345-5.639-3.177 0-5.488 2.372-5.946 5.638-.414 3.267 1.212 5.683 4.389 5.683 3.4 0 5.493-2.55 5.902-5.683zm9.95-24.964l-4.867 35.748H91.84l.406-3.043c-1.453 2.147-4.317 3.624-7.315 3.624-6.444 0-9.515-4.877-8.645-11.366.87-6.444 5.54-11.365 11.805-11.365 3.133 0 5.414 1.476 6.241 3.669l.28-1.835h-.045L96.663.376h6.846zM121.032 25.34c.453-3.088-.945-5.639-4.346-5.639-3.177 0-5.487 2.372-5.946 5.638-.414 3.267 1.213 5.683 4.39 5.683 3.4 0 5.493-2.55 5.902-5.683zm-17.273 0c.87-6.445 5.541-11.366 11.805-11.366 3.133 0 5.414 1.476 6.242 3.669l.453-3.087h6.801l-2.945 21.568h-6.802l.406-3.043c-1.452 2.147-4.317 3.624-7.315 3.624-6.444 0-9.515-4.877-8.645-11.366z"/>
        <path d="M148.848 14.539c-.189 1.266-1.246 10.23-2.25 12.946-.806 2.179-1.703 3.78-4.223 3.716-2.203-.056-3.63-1.447-3.553-3.771.028-.822.19-1.656.316-2.484.488-3.18 1.067-7.174 1.57-10.407l-6.796.006c-.7 4.504-1.697 9.423-2.078 13.783-.458 5.236 4.17 8.89 9.212 8.546 1.589-.108 2.972-.91 4.147-1.937-2.827 14.738-17.732 26.582-37.303 26.582-8.448 0-16.847-2.19-23.331-5.958-2.326-1.35-4.55-2.88-6.511-4.729-3.237-3.05-5.819-6.902-7.293-11.082h-6.61c.445 2.887 1.742 5.538 3.27 7.982 7.867 12.57 23.293 20.07 40.619 20.07 12.003 0 22.746-3.902 31.883-11.842 7.978-6.932 10.984-15.893 13.114-25.945 1.047-4.944 1.722-10.378 2.566-15.476h-6.75"/>
    </g>
</svg>
