<svg viewBox="0 0 434 89" version="1.1" xmlns="http://www.w3.org/2000/svg" xmlns:xlink="http://www.w3.org/1999/xlink">
    <g id="Page-1" stroke="none" stroke-width="1" fill="none" fill-rule="evenodd">
        <g id="Artboard-Copy-2" transform="translate(-98.000000, -901.000000)">
            <path d="M175.0928,901.4314 L175.6579,901.4314 C179.9642,901.4314 183.4624,905.2545 186.1545,912.898 L209.8949,961.6682 C227.3888,924.5248 236.8639,905.1735 238.3171,903.6117 C240.2553,902.1585 242.1936,901.4314 244.1309,901.4314 C249.6217,902.4548 252.3671,905.1735 252.3671,909.5866 L252.3671,909.9096 C252.3671,911.3104 247.8455,921.3763 238.8021,940.109 L216.1118,986.6998 C213.7428,988.4761 211.6712,989.3642 209.8949,989.3642 L209.6528,989.3642 C205.0759,989.3642 201.2813,985.0046 198.2672,976.2833 C178.7263,936.3945 168.3632,914.7019 167.1796,911.2018 L167.1796,909.1025 C168.1488,903.989 170.7855,901.4314 175.0928,901.4314" id="Fill-3" fill="#FCB713"></path>
            <path d="M268.2076,944.8355 L268.2076,945.7236 C268.2076,956.7595 273.7518,965.0491 284.842,970.5933 C288.2859,971.8854 291.382,972.5315 294.1274,972.5315 L296.4688,972.5315 C305.6198,972.5315 313.1832,967.9279 319.1591,958.7235 C321.3118,954.4182 322.3886,950.2986 322.3886,946.3697 L322.3886,945.1585 C322.3886,934.5533 317.1408,926.4248 306.6433,920.773 C303.0364,919.1577 299.2675,918.3506 295.3386,918.3506 L295.0156,918.3506 C283.872,918.3506 275.4747,924.1645 269.8229,935.7912 C268.7451,939.3437 268.2076,942.3598 268.2076,944.8355 L268.2076,944.8355 Z M322.4696,979.9597 C315.901,986.0965 307.235,989.165 296.4688,989.165 L294.1274,989.165 C279.2702,989.165 266.8888,981.7369 256.984,966.8787 C253.3771,959.666 251.5742,952.4256 251.5742,945.1585 C251.5742,928.9015 259.5398,916.0092 275.4747,906.4799 C282.2577,903.3047 288.8787,901.7162 295.3386,901.7162 C311.8644,901.7162 324.9443,909.7914 334.5814,925.9407 C337.5412,932.5617 339.023,939.3723 339.023,946.3697 L339.023,981.3328 C339.023,985.6401 336.3843,988.2492 331.1098,989.165 L330.5438,989.165 C326.8826,989.165 324.1658,987.0114 322.3886,982.7051 L322.3886,981.8169 L322.4696,979.9597 Z" id="Fill-5" fill="#FCB713"></path>
            <path d="M359.0909,901.9162 C364.312,903.2627 366.9231,905.7918 366.9231,909.5063 L366.9231,910.7175 C373.383,904.8503 382.1033,901.9162 393.0849,901.9162 C405.1423,901.9162 415.8276,906.922 425.1416,916.9354 C431.9245,925.3327 435.3151,934.1883 435.3151,943.5013 L435.3151,981.8549 C435.3151,985.8392 432.6774,988.3406 427.4029,989.365 L426.5948,989.365 C421.3184,988.3949 418.6816,985.6781 418.6816,981.2089 L418.6816,947.4579 C418.6816,933.4621 412.7325,924.2835 400.837,919.9228 C397.9296,919.1691 395.3452,918.7917 393.0849,918.7917 L392.1967,918.7917 C382.2367,918.7917 374.5132,923.9881 369.0224,934.376 C367.6216,937.4444 366.9231,942.6131 366.9231,949.8802 L366.9231,981.5319 C366.9231,985.8392 364.2844,988.4492 359.0099,989.365 L358.4438,989.365 C354.0289,989.365 351.3111,986.6196 350.2896,981.1288 L350.2896,911.1206 C350.9347,904.9847 353.8688,901.9162 359.0909,901.9162" id="Fill-6" fill="#FCB713"></path>
            <path d="M460.9812,945.5423 L460.9812,946.4304 C460.9812,957.4663 466.5254,965.7559 477.6156,971.2991 C481.0595,972.5922 484.1556,973.2383 486.901,973.2383 L489.2423,973.2383 C498.3934,973.2383 505.9568,968.6347 511.9326,959.4303 C514.0853,955.125 515.1621,951.0054 515.1621,947.0765 L515.1621,945.8653 C515.1621,935.2601 509.9143,927.1316 499.4168,921.4798 C495.81,919.8645 492.0411,919.0574 488.1122,919.0574 L487.7891,919.0574 C476.6455,919.0574 468.2492,924.8712 462.5964,936.498 C461.5186,940.0505 460.9812,943.0666 460.9812,945.5423 L460.9812,945.5423 Z M515.2431,980.6664 C508.6755,986.8033 500.0086,989.8718 489.2423,989.8718 L486.901,989.8718 C472.0438,989.8718 459.6614,982.4437 449.7575,967.5855 C446.1507,960.3728 444.3477,953.1324 444.3477,945.8653 C444.3477,929.6083 452.3133,916.716 468.2492,907.1867 C475.0312,904.0115 481.6522,902.423 488.1122,902.423 C504.6379,902.423 517.7179,910.4972 527.3549,926.6466 C530.3147,933.2685 531.7965,940.0791 531.7965,947.0765 L531.7965,982.0396 C531.7965,986.3459 529.1579,988.956 523.8834,989.8718 L523.3173,989.8718 C519.6562,989.8718 516.9393,987.7172 515.1621,983.4118 L515.1621,982.5237 L515.2431,980.6664 Z" id="Fill-7" fill="#FCB713"></path>
            <path d="M488.2384,932.2309 C495.4073,932.2309 499.9919,936.4277 501.9854,944.8144 L501.9854,947.1491 C501.9854,952.3712 498.8484,956.4002 492.5724,959.2285 C491.4593,959.7907 490.0195,960.0642 488.2384,960.0642 L487.903,960.0642 C480.291,960.0642 475.7112,955.4244 474.1588,946.1504 C474.1588,940.0355 477.4312,935.6767 483.9874,933.0667 C485.0442,932.514 486.4612,932.2309 488.2384,932.2309" id="Fill-8" fill="#F16522"></path>
            <path d="M295.4644,931.5241 C302.6343,931.5241 307.2179,935.7218 309.2114,944.1076 L309.2114,946.4423 C309.2114,951.6644 306.0743,955.6934 299.7983,958.5217 C298.6853,959.0839 297.2454,959.3574 295.4644,959.3574 L295.129,959.3574 C287.5179,959.3574 282.9381,954.7176 281.3858,945.4446 C281.3858,939.3287 284.6581,934.97 291.2143,932.3599 C292.2702,931.8081 293.6872,931.5241 295.4644,931.5241" id="Fill-9" fill="#F16522"></path>
            <path d="M175.4781,989.7205 L174.913,989.7205 C170.6067,989.7205 167.1085,985.8983 164.4164,978.2539 L140.676,929.4837 C123.182,966.6272 113.707,985.9784 112.2538,987.5402 C110.3155,988.9935 108.3773,989.7205 106.44,989.7205 C100.9492,988.6971 98.2038,985.9784 98.2038,981.5653 L98.2038,981.2423 C98.2038,979.8415 102.7254,969.7757 111.7697,951.0438 L134.4591,904.4521 C136.8281,902.6758 138.8997,901.7877 140.676,901.7877 L140.919,901.7877 C145.495,901.7877 149.2905,906.1473 152.3037,914.8686 C171.8445,954.7574 182.2077,976.45 183.3912,979.9511 L183.3912,982.0504 C182.4231,987.1629 179.7853,989.7205 175.4781,989.7205" id="Fill-10" fill="#FCB713"></path>
            <polygon id="Fill-11" fill="#FCB713" points="520.8875 908.7706 520.8875 903.0758 518.854 903.0758 518.854 901.9161 524.3009 901.9161 524.3009 903.0758 522.2721 903.0758 522.2721 908.7706"></polygon>
            <polygon id="Fill-12" fill="#FCB713" points="525.1757 908.7706 525.1757 901.9161 527.2465 901.9161 528.491 906.5912 529.7203 901.9161 531.7958 901.9161 531.7958 908.7706 530.5103 908.7706 530.5103 903.3751 529.1495 908.7706 527.8173 908.7706 526.4612 903.3751 526.4612 908.7706"></polygon>
        </g>
    </g>
</svg>