<svg xmlns="http://www.w3.org/2000/svg" viewBox="0 0 98.57 47.48"><defs><style>.cls-1{fill:#ed261a;}</style></defs><title>logo</title><polygon class="cls-1" points="54.74 12.77 47.38 47.48 56.83 47.48 64.2 12.77 54.74 12.77"/><polygon class="cls-1" points="66.83 0.15 57.39 0.15 55.67 8.45 65.11 8.45 66.83 0.15"/><polygon class="cls-1" points="45.32 0.15 35.24 47.48 44.55 47.48 54.63 0.15 45.32 0.15"/><path class="cls-1" d="M40,12.62H33.93c0.28-1.31.42-1.84,0.61-2.52C35.21,7.67,37,7.44,38.34,7.44H41L42.56,0s-3-.15-3.62-0.15c-5.45,0-11.84.15-14,11l-0.39,1.8H19.45L18,19.45h5.2L17.27,47.33h9.28l5.93-27.88h6.11Z" transform="translate(0 0.15)"/><polygon class="cls-1" points="19.45 0.15 10 0.15 8.29 8.45 17.73 8.45 19.45 0.15"/><polygon class="cls-1" points="0 47.48 9.45 47.48 16.82 12.77 7.36 12.77 0 47.48"/><polygon class="cls-1" points="87.49 12.77 79.48 23.09 75.61 12.77 64.2 12.77 72.17 30.18 56.83 47.48 68.11 47.48 98.57 12.77 87.49 12.77"/><polygon class="cls-1" points="77.31 40.99 79.67 47.48 91.08 47.48 84.48 32.87 77.31 40.99"/></svg>