<svg width="491px" height="372px" viewBox="0 0 491 372" version="1.1" xmlns="http://www.w3.org/2000/svg" xmlns:xlink="http://www.w3.org/1999/xlink">
    <g id="Page-1" stroke="none" stroke-width="1" fill="none" fill-rule="evenodd">
        <g id="Artboard-Copy-2" transform="translate(-560.000000, -294.000000)">
            <g id="wordmark_onestockhome" transform="translate(560.000000, 294.000000)">
                <path d="M226.7427,223.5558 C226.7427,220.1758 229.4854,217.435 232.8653,217.435 L255.7696,217.435 C259.1481,217.435 261.8927,220.1758 261.8927,223.5558 L261.8927,246.4582 C261.8927,249.8423 259.1481,252.5808 255.7696,252.5808 L232.8653,252.5808 C229.4854,252.5808 226.7427,249.8423 226.7427,246.4582 L226.7427,223.5558 Z M356.8429,127.5128 L256.4546,26.8642 C253.262,23.6624 248.9275,21.8632 244.4058,21.8613 L244.4021,21.8613 C239.8804,21.8613 235.546,23.6587 232.3534,26.8568 L131.8416,127.5055 C128.6544,130.7 126.8662,135.0233 126.8662,139.5359 L126.8662,269.8326 C126.8662,279.2388 134.4878,286.8604 143.8903,286.8604 L278.7216,286.8604 C288.1223,286.8604 295.7457,279.2388 295.7457,269.8326 L295.7457,201.0537 C295.7457,191.6493 288.1223,184.0259 278.7216,184.0259 L209.9684,184.0259 C200.5654,184.0259 192.9425,191.6493 192.9425,201.0537 L192.9425,252.8067 L160.9162,252.8067 L160.9162,146.5836 L244.393,62.9898 L327.7609,146.5726 L327.7609,269.8326 C327.7609,270.002 327.783,270.1673 327.7866,270.3353 L327.7866,278.8054 C327.7866,283.2853 331.4158,286.9132 335.8958,286.9132 L353.7031,286.9132 C358.1812,286.9132 361.8146,283.2853 361.8146,278.8054 L361.8146,269.8326 L361.8146,233.5353 L361.8146,139.5359 C361.8146,135.0284 360.0264,130.705 356.8429,127.5128 L356.8429,127.5128 Z" id="Fill-1" fill="#E63D2F"></path>
                <path d="M365.9667,79.617 C367.7765,81.4235 367.7783,84.3554 365.9667,86.1693 L355.2254,96.9119 C353.417,98.7208 350.4829,98.7171 348.6731,96.9119 L282.4913,30.7287 C280.6829,28.9203 280.6806,25.9861 282.4913,24.1759 L293.2357,13.4333 C295.046,11.6231 297.9778,11.6231 299.7885,13.4333 L365.9667,79.617 Z" id="Fill-3" fill="#E63D2F"></path>
                <path d="M377.4273,45.0572 C379.237,46.8656 379.237,49.7956 377.4273,51.6059 L372.5153,56.521 C370.705,58.3299 367.7732,58.3276 365.9629,56.521 L322.8677,13.4276 C321.0593,11.6174 321.0574,8.6837 322.8677,6.8734 L327.781,1.9619 C329.5894,0.1535 332.5213,0.1535 334.3297,1.9619 L377.4273,45.0572 Z" id="Fill-4" fill="#E63D2F"></path>
                <path d="M36.34594,349.6966 L36.34594,349.5745 C36.34594,342.2229 30.95421,336.0966 23.3574,336.0966 C15.76059,336.0966 10.49236,342.1007 10.49236,349.4506 L10.49236,349.5745 C10.49236,356.9266 15.88363,363.0529 23.48044,363.0529 C31.07725,363.0529 36.34594,357.0487 36.34594,349.6966 M0.62895,349.6966 L0.62895,349.5745 C0.62895,337.3821 10.2472,327.397 23.48044,327.397 C36.71368,327.397 46.20889,337.2599 46.20889,349.4506 L46.20889,349.5745 C46.20889,361.7651 36.59064,371.7525 23.3574,371.7525 C10.12416,371.7525 0.62895,361.8891 0.62895,349.6966" id="Fill-5" fill="#404041"></path>
                <path d="M54.52897,338.1796 L63.8415,338.1796 L63.8415,342.8349 C65.9855,340.0775 68.7419,337.5662 73.4592,337.5662 C80.5047,337.5662 84.6095,342.2229 84.6095,349.7587 L84.6095,371.0166 L75.297,371.0166 L75.297,352.6978 C75.297,348.2872 73.2145,346.0215 69.6615,346.0215 C66.1076,346.0215 63.8415,348.2872 63.8415,352.6978 L63.8415,371.0166 L54.52897,371.0166 L54.52897,338.1796 Z" id="Fill-6" fill="#404041"></path>
                <path d="M115.1708,352.024 C114.6198,347.859 112.1687,345.0401 108.2479,345.0401 C104.3891,345.0401 101.8765,347.797 101.1419,352.024 L115.1708,352.024 Z M92.0135,354.7814 L92.0135,354.6593 C92.0135,345.2857 98.6907,337.5663 108.2479,337.5663 C119.215,337.5663 124.2381,346.0818 124.2381,355.3948 C124.2381,356.1289 124.1766,356.9869 124.1155,357.8446 L101.2636,357.8446 C102.1827,362.0715 105.1237,364.2784 109.2896,364.2784 C112.4138,364.2784 114.6809,363.2969 117.2542,360.9077 L122.5835,365.6264 C119.5208,369.4232 115.1097,371.7527 109.1675,371.7527 C99.3032,371.7527 92.0135,364.8285 92.0135,354.7814 L92.0135,354.7814 Z" id="Fill-7" fill="#404041"></path>
                <path d="M130.1105,364.7682 L135.6859,358.09 C139.5446,361.2753 143.5889,363.2967 148.4903,363.2967 C152.3491,363.2967 154.6777,361.7652 154.6777,359.2539 L154.6777,359.1317 C154.6777,356.7426 153.2072,355.5172 146.0391,353.6794 C137.4015,351.4739 131.8262,349.0847 131.8262,340.5688 L131.8262,340.4453 C131.8262,332.6653 138.0751,327.5187 146.8357,327.5187 C153.085,327.5187 158.4148,329.48 162.7643,332.971 L157.8639,340.0775 C154.0648,337.4436 150.3281,335.8505 146.7131,335.8505 C143.099,335.8505 141.1993,337.5061 141.1993,339.5872 L141.1993,339.7116 C141.1993,342.5287 143.0371,343.4483 150.4498,345.3476 C159.1493,347.6133 164.0508,350.7379 164.0508,358.2122 L164.0508,358.3343 C164.0508,366.8498 157.5567,371.6281 148.3067,371.6281 C141.8122,371.6281 135.2571,369.3634 130.1105,364.7682" id="Fill-8" fill="#404041"></path>
                <path d="M173.4161,361.7051 L173.4161,346.1433 L169.4953,346.1433 L169.4953,338.1797 L173.4161,338.1797 L173.4161,329.7863 L182.7286,329.7863 L182.7286,338.1797 L190.4475,338.1797 L190.4475,346.1433 L182.7286,346.1433 L182.7286,360.1735 C182.7286,362.3171 183.6472,363.3588 185.7307,363.3588 C187.4463,363.3588 188.9779,362.9291 190.3254,362.195 L190.3254,369.6692 C188.365,370.8326 186.0979,371.5681 182.9733,371.5681 C177.2762,371.5681 173.4161,369.301 173.4161,361.7051" id="Fill-9" fill="#404041"></path>
                <path d="M222.0543,354.7813 L222.0543,354.6592 C222.0543,349.8184 218.5623,345.5914 213.4158,345.5914 C208.086,345.5914 204.8998,349.6967 204.8998,354.5375 L204.8998,354.6592 C204.8998,359.4995 208.3918,363.7265 213.5388,363.7265 C218.8681,363.7265 222.0543,359.6217 222.0543,354.7813 M195.7104,354.7813 L195.7104,354.6592 C195.7104,345.2241 203.3072,337.5663 213.5388,337.5663 C223.708,337.5663 231.2437,345.102 231.2437,354.5375 L231.2437,354.6592 C231.2437,364.0943 223.6469,371.7526 213.4158,371.7526 C203.2452,371.7526 195.7104,364.2164 195.7104,354.7813" id="Fill-10" fill="#404041"></path>
                <path d="M237.2989,354.7813 L237.2989,354.6592 C237.2989,345.2856 244.4669,337.5663 254.514,337.5663 C260.7013,337.5663 264.5615,339.6492 267.6246,343.0806 L261.9271,349.2064 C259.8433,347.0013 257.7612,345.5914 254.4529,345.5914 C249.7962,345.5914 246.4884,349.6967 246.4884,354.5375 L246.4884,354.6592 C246.4884,359.6818 249.7352,363.7265 254.8202,363.7265 C257.9453,363.7265 260.0889,362.379 262.356,360.2336 L267.8083,365.7484 C264.6226,369.239 260.9465,371.7526 254.3909,371.7526 C244.528,371.7526 237.2989,364.1544 237.2989,354.7813" id="Fill-11" fill="#404041"></path>
                <polygon id="Fill-12" fill="#404041" points="274.7842 326.2931 284.0966 326.2931 284.0966 350.1261 295.0013 338.1798 306.1516 338.1798 293.6543 351.1063 306.5804 371.0168 295.92 371.0168 287.3434 357.5999 284.0966 361.0312 284.0966 371.0168 274.7842 371.0168"></polygon>
                <polygon id="Fill-13" fill="#404041" points="312.9441 328.1326 322.3787 328.1326 322.3787 345.102 339.7778 345.102 339.7778 328.1326 349.212 328.1326 349.212 371.0167 339.7778 371.0167 339.7778 353.8012 322.3787 353.8012 322.3787 371.0167 312.9441 371.0167"></polygon>
                <path d="M384.1834,354.7813 L384.1834,354.6592 C384.1834,349.8184 380.6914,345.5914 375.5448,345.5914 C370.2151,345.5914 367.0294,349.6967 367.0294,354.5375 L367.0294,354.6592 C367.0294,359.4995 370.5208,363.7265 375.6679,363.7265 C380.9976,363.7265 384.1834,359.6217 384.1834,354.7813 M357.8395,354.7813 L357.8395,354.6592 C357.8395,345.2241 365.4367,337.5663 375.6679,337.5663 C385.837,337.5663 393.3728,345.102 393.3728,354.5375 L393.3728,354.6592 C393.3728,364.0943 385.776,371.7526 375.5448,371.7526 C365.3747,371.7526 357.8395,364.2164 357.8395,354.7813" id="Fill-14" fill="#404041"></path>
                <path d="M401.0205,338.1796 L410.333,338.1796 L410.333,342.8349 C412.4775,340.0775 415.2959,337.5662 420.0123,337.5662 C424.3013,337.5662 427.5481,339.4655 429.2637,342.7743 C432.1428,339.4035 435.5741,337.5662 440.0458,337.5662 C446.9687,337.5662 451.1346,341.7326 451.1346,349.6347 L451.1346,371.0166 L441.8221,371.0166 L441.8221,352.6978 C441.8221,348.2872 439.8622,346.0215 436.3698,346.0215 C432.8778,346.0215 430.7342,348.2872 430.7342,352.6978 L430.7342,371.0166 L421.4222,371.0166 L421.4222,352.6978 C421.4222,348.2872 419.4614,346.0215 415.9694,346.0215 C412.4775,346.0215 410.333,348.2872 410.333,352.6978 L410.333,371.0166 L401.0205,371.0166 L401.0205,338.1796 Z" id="Fill-15" fill="#404041"></path>
                <path d="M481.6925,352.024 C481.1416,347.859 478.6904,345.0401 474.7692,345.0401 C470.9104,345.0401 468.3982,347.797 467.6632,352.024 L481.6925,352.024 Z M458.5348,354.7814 L458.5348,354.6593 C458.5348,345.2857 465.2125,337.5663 474.7692,337.5663 C485.7363,337.5663 490.7598,346.0818 490.7598,355.3948 C490.7598,356.1289 490.6979,356.9869 490.6368,357.8446 L467.7853,357.8446 C468.704,362.0715 471.645,364.2784 475.8109,364.2784 C478.9351,364.2784 481.2026,363.2969 483.7759,360.9077 L489.1052,365.6264 C486.0425,369.4232 481.6314,371.7527 475.6888,371.7527 C465.8245,371.7527 458.5348,364.8285 458.5348,354.7814 L458.5348,354.7814 Z" id="Fill-16" fill="#404041"></path>
            </g>
        </g>
    </g>
</svg>