<svg xmlns="http://www.w3.org/2000/svg" viewBox="0 0 152.27 35.04"><defs><style>.cls-1{fill:#231f20;}</style></defs><title>Pomelo Logo</title><g id="Layer_2" data-name="Layer 2"><g id="_4" data-name="4"><path class="cls-1" d="M29.68,31.9A10.94,10.94,0,0,1,26.58,24a10.87,10.87,0,0,1,3.19-7.88,10.32,10.32,0,0,1,7.7-3.33A10.37,10.37,0,0,1,45.36,16a10.83,10.83,0,0,1,3.05,7.88,11,11,0,0,1-3.14,7.88A10.36,10.36,0,0,1,37.47,35,10.44,10.44,0,0,1,29.68,31.9Zm7.79,2.42c2.78,0,4.15-3.42,4.15-10.3,0-6.43-1.64-10.48-4.33-10.48-2.32,0-4,3-4,10.3C33.28,30.17,34.92,34.32,37.47,34.32Z"/><path class="cls-1" d="M61,34.32H49.68v-.41c2-.18,3-1.37,3-3.6V19.37c0-2.6-1.32-3.6-3.33-3.46v-.41l9.07-2.6.36.14v3.33q3.35-3.55,7-3.55c2.78,0,4.47,1.23,5.1,3.69q3.28-3.69,7.11-3.69c3.28,0,5.33,2.05,5.33,5.74V30.31c0,2.23,1,3.42,3,3.6v.41H74.93V34c1.5-.14,2.14-1.14,2.14-3.74V19.78c0-2.78-.87-4.19-2.64-4.19A4.53,4.53,0,0,0,71,17.45a6.74,6.74,0,0,1,0,1.09V30.21c0,2.6.68,3.6,2.19,3.74v.36H62.67V34c1.59-.14,2.19-1.18,2.19-3.74V19.78c0-2.78-.87-4.19-2.64-4.19a4.79,4.79,0,0,0-3.37,1.73v12.9c0,2.6.68,3.6,2.19,3.74Z"/><path class="cls-1" d="M106.1,27.66C104.78,32.4,101.41,35,97.17,35A9.28,9.28,0,0,1,90.11,32a10.79,10.79,0,0,1-2.87-7.66,11.55,11.55,0,0,1,3.1-8.2,9.47,9.47,0,0,1,7.16-3.33,8.49,8.49,0,0,1,6.15,2.46,9,9,0,0,1,2.64,6.56H92.89c0,5.47,2.92,8.93,7.06,8.93a6.21,6.21,0,0,0,5.7-3.28ZM92.89,20.92h7.52c0-4.88-1.09-7.29-3.24-7.29C94.85,13.63,93.11,16.5,92.89,20.92Z"/><path class="cls-1" d="M116.45.14V30.31c0,2.23,1,3.42,3.05,3.6v.41H107.29v-.41c2-.18,3-1.37,3-3.6V6.38c0-2.6-1.28-3.55-3.24-3.42V2.51L116.08,0Z"/><path class="cls-1" d="M123.65,31.9a10.94,10.94,0,0,1-3.1-7.88,10.87,10.87,0,0,1,3.19-7.88A10.95,10.95,0,0,1,139.32,16a10.83,10.83,0,0,1,3.05,7.88,11,11,0,0,1-3.14,7.88,11.06,11.06,0,0,1-15.59.14Zm7.79,2.42c2.78,0,4.15-3.42,4.15-10.3,0-6.43-1.64-10.48-4.33-10.48-2.32,0-4,3-4,10.3C127.25,30.17,128.89,34.32,131.44,34.32Z"/><path class="cls-1" d="M146,33.77a3.58,3.58,0,0,1,0-5.15,3.63,3.63,0,0,1,5.2,0,3.58,3.58,0,0,1,0,5.15A3.71,3.71,0,0,1,146,33.77Z"/><path class="cls-1" d="M13.85,21.12H10.66v8.45c0,2.64,1.28,4.1,3.78,4.33v.41H0v-.41c2.42-.23,3.65-1.73,3.65-4.42V7.16c0-2.64-1.23-4.1-3.65-4.33V2.42H13.5c4.24,0,7.47.91,9.71,2.69a8.23,8.23,0,0,1,3.37,6.84C26.4,21.07,13.85,21.12,13.85,21.12ZM10.66,3.28V20.17h.88c5.15,0,7.84-2.35,7.84-8,0-5.92-2.46-8.89-7.34-8.89Z"/></g></g></svg>