<svg viewBox="0 0 54 24" xmlns="http://www.w3.org/2000/svg"><title>logo kudo</title><g fill="none" fill-rule="evenodd"><path d="M8.466 17.514l3.142-4.535c-2.534-2.7-4.587-.256-4.587-.256L4.427 16.57V9.388s-.27-2.395-2.576-2.37c0 0-1.318 0-1.85.536l.123 10.012v4.238c0 1.003.795 1.817 1.775 1.817h.754c.98 0 1.774-.814 1.774-1.817v-3.117l3.026 4.23c2.408 1.935 4.46-.485 4.46-.485l-3.446-4.916zM25.038 17.52v-3.884c0-1.003-.795-1.816-1.775-1.816h-.754c-.98 0-1.776.813-1.776 1.816v4.547c-.01.43-.13 1.807-1.252 1.877-1.33.084-2.184-.083-2.184-1.988v-4.436c0-1.003-.795-1.816-1.775-1.816h-.754c-.98 0-1.775.813-1.775 1.816v4.854s-.628 4.495 2.996 5.28c0 0 3.31.752 4.856-2.005 0 0 .78 3.025 4.29 1.37l-.098-5.615zM35.347 18.4c0 .975-.508 1.913-1.923 1.983-1.416.07-2.41-.472-2.566-2.54-.155-2.07 1.104-2.523 2.06-2.67 1.703 0 2.43.676 2.43 1.653V18.4zm1.597-11.383s-.796.064-1.578.46v5.65s-1.897-1.77-3.886-1.49c-1.99.28-4.115.91-4.81 5.188-.693 4.28 2.107 6.302 3.125 6.58 1.018.28 3.716 1.26 5.57-1.602 0 1.003.796 1.817 1.776 1.817h.755c.98 0 1.774-.814 1.774-1.817V9.22s-.482-2.36-2.726-2.203zM47.633 20.33c-1.476 0-2.673-1.162-2.673-2.594s1.197-2.593 2.673-2.593 2.673 1.16 2.673 2.593c0 1.432-1.197 2.593-2.673 2.593m0-8.722c-3.49 0-6.317 2.744-6.317 6.128s2.828 6.128 6.317 6.128c3.49 0 6.317-2.744 6.317-6.128s-2.828-6.128-6.317-6.128" fill="#5D82C2"/><path d="M2.176 2.87s6.07 1.116 8.832 7.49c0 0 7.428-4.508 12.885-1.048 0 0-7.654-15.228-21.717-6.442M20.7 2.938s3.33 3.05 4.71 6.602c0 0 4.473 1.957 7.706-.365 0 0-2.837 1.23-5.94-5.28 0 0-1.448.523-6.476-.957" fill="#96C23D"/><path d="M23.91 9.306s-5.603-3.617-12.9 1.074c0 0-1.495-3.667-4.29-5.418 0 0 11.867-2.33 17.19 4.344M33.116 9.184s-4.73 1.063-9.72-3.19c0 0-1.818-2.296-2.696-3.056 0 0 2.705.975 6.477.956 0 0 3 5.907 5.94 5.29" fill="#BAD532"/></g></svg>