
<svg viewBox="0 0 149 48" version="1.1" xmlns="http://www.w3.org/2000/svg" xmlns:xlink="http://www.w3.org/1999/xlink">
    <g id="Page-3" stroke="none" stroke-width="1" fill="none" fill-rule="evenodd">
        <g id="Artboard-2" transform="translate(-50.000000, -53.000000)">
            <g id="Group" transform="translate(50.000000, 53.000000)">
                <path d="M18.7464666,4.3599 C15.3424666,4.3599 12.5784666,7.1159 12.5784666,10.5299 L12.5784666,19.2679 L17.0214666,19.2679 L17.0214666,10.7499 C17.0214666,9.4599 18.0574666,8.4299 19.3504666,8.4299 L21.9514666,8.4299 L21.9514666,4.3599 L18.7464666,4.3599 Z M41.7254666,10.1659 C41.7694666,8.7859 43.0504666,7.6559 44.6384666,7.6559 C46.2464666,7.6559 47.5394666,8.7729 47.5604666,10.1659 L41.7254666,10.1659 Z M51.8164666,12.3009 C51.7844666,7.6999 49.2874666,4.0829 44.6374666,4.0829 C40.6484666,4.0829 37.4274666,7.3059 37.4274666,11.7489 C37.4274666,16.5359 40.3524666,19.3729 44.6714666,19.4589 C47.4734666,19.4589 49.9204666,17.8829 51.1744666,15.5709 L47.1354666,14.5159 C46.6454666,15.2539 45.7114666,15.7649 44.6374666,15.7649 C43.0624666,15.7649 41.7924666,14.6359 41.7484666,13.2669 L51.8164666,13.2669 C51.8264666,13.0499 51.8164666,12.5279 51.8164666,12.3009 Z M32.0924666,13.2399 C32.0924666,14.5099 31.0554666,15.5619 29.7654666,15.5619 C28.4834666,15.5619 27.4534666,14.5099 27.4534666,13.2399 L27.4534666,6.4539 C27.4534666,5.2709 26.4964666,4.3599 25.3034666,4.3599 L22.9884666,4.3599 L22.9884666,12.6589 C22.9884666,16.4159 25.0174666,19.4589 29.7654666,19.4589 C34.5144666,19.4589 36.5414666,16.4159 36.5414666,12.6589 L36.5414666,4.3599 L32.0924666,4.3599 L32.0924666,13.2399 Z M6.58146661,0.6339 L2.13646661,0.6339 L2.13646661,4.3599 L0.041466609,4.3599 L0.041466609,8.3819 L2.13646661,8.3819 L2.13646661,13.1509 C2.13646661,16.8969 5.16946661,19.2829 8.91346661,19.2829 L11.5364666,19.2829 L11.5364666,15.3829 L8.90046661,15.3829 C7.62346661,15.3829 6.58146661,14.3479 6.58146661,13.0679 L6.58146661,8.3819 L9.49746661,8.3729 C10.6314666,8.3249 11.5364666,7.3969 11.5364666,6.2359 L11.5364666,4.3599 L6.58146661,4.3599 L6.58146661,0.6339 Z" id="Fill-511" fill="#DA291C"></path>
                <path d="M131.168367,28.7905 C130.265367,28.7905 129.371367,29.3475 127.813367,30.8515 L127.798367,30.3385 C127.851367,29.5535 127.187367,28.9555 126.360367,28.9555 L124.723367,28.9555 L124.714367,40.4955 C124.714367,41.3455 125.418367,41.9955 126.276367,41.9955 C127.050367,41.9955 127.684367,41.4985 127.832367,40.8075 L127.832367,34.0285 C129.325367,32.4375 130.300367,31.8765 131.472367,31.6785 C132.156367,31.5565 132.689367,31.0425 132.689367,30.2585 C132.689367,29.4025 132.131367,28.7905 131.168367,28.7905" id="Fill-512" fill="#00FF00"></path>
                <path d="M148.160567,39.8228 L144.156567,34.6488 L145.618567,33.3088 L145.628567,33.3208 L147.404567,31.7118 C147.920567,31.1908 147.936567,30.3828 147.435567,29.8468 L146.461567,28.8078 L143.723567,31.2868 L143.724567,31.2888 L138.454567,35.8478 L138.450567,25.9878 C138.450567,25.9048 138.440567,25.8228 138.427567,25.7438 C138.387567,25.3728 138.170567,24.9148 137.874567,24.7008 C137.612567,24.4928 137.276567,24.3658 136.907567,24.3568 L136.807567,24.3568 L135.320567,24.3728 L135.320567,40.4988 C135.320567,41.3438 136.014567,41.9898 136.864567,41.9898 C137.739567,41.9898 138.433567,41.3438 138.433567,40.4988 L138.433567,39.7088 L141.965567,36.5168 L145.784567,41.5128 C146.163567,41.9858 146.516567,42.1838 147.124567,42.1838 C147.908567,42.1838 148.565567,41.6368 148.565567,40.8168 C148.565567,40.4688 148.438567,40.1958 148.160567,39.8228" id="Fill-513" fill="#00FF00"></path>
                <path d="M103.999967,35.5337 C103.999967,37.3167 102.226967,39.3687 99.8749666,39.3157 L96.1239666,39.3197 L96.1239666,31.7047 L99.8749666,31.7047 C102.200967,31.7047 103.999967,33.4817 103.999967,35.4847 L103.999967,35.5337 Z M100.127967,28.9527 L93.0509666,28.9527 L93.0179666,28.9527 L93.0179666,39.3157 L79.1879666,39.3187 C79.1399666,39.3187 78.9079666,39.3307 78.8669666,39.3527 C78.3779666,39.4707 78.1339666,40.0887 78.1339666,40.6257 L78.1339666,41.9767 L81.6429666,41.9807 L93.0179666,41.9767 L93.0179666,44.8397 C93.0179666,45.6707 93.7009666,46.3297 94.5849666,46.3297 C95.4449666,46.3297 96.1279666,45.6707 96.1279666,44.8397 L96.1279666,43.4727 L96.1189666,43.4727 L96.1249666,41.9767 L98.4789666,41.9757 L99.7739666,41.9787 C103.667967,41.9787 107.159967,39.2957 107.159967,35.4607 L107.159967,35.4117 C107.159967,31.9667 104.274967,28.9527 100.127967,28.9527 Z" id="Fill-514" fill="#00FF00"></path>
                <path d="M118.503367,34.355 L118.503367,34.34 L118.503367,34.353 L118.503367,34.355 Z M118.503367,38.814 C116.984367,39.658 116.009367,39.999 114.888367,39.999 C113.396367,39.999 112.240367,39.278 112.240367,38.011 L112.240367,37.962 C112.240367,36.596 113.422367,35.776 115.427367,35.776 C116.235367,35.776 116.967367,35.874 118.503367,36.149 L118.503367,38.814 Z M115.504367,28.69 C114.537367,28.69 113.709367,28.779 112.946367,28.936 L112.878367,28.944 L112.254367,29.101 C112.054367,29.155 111.857367,29.214 111.661367,29.278 L109.753367,29.846 L110.176367,31.176 C110.395367,31.861 111.056367,32.266 111.666367,32.009 L113.724367,31.397 C114.149367,31.334 114.603367,31.298 115.093367,31.298 C117.190367,31.298 118.399367,32.397 118.495367,34.13 L118.503367,34.13 L118.503367,34.247 C116.784367,33.932 115.920367,33.864 114.811367,33.864 C111.494367,33.864 109.206367,35.254 109.206367,38.086 L109.206367,38.135 C109.206367,40.768 111.468367,42.184 114.013367,42.184 C115.572367,42.184 116.754367,42.068 118.503367,41.118 L118.503367,41.212 C118.685367,41.714 119.226367,42.103 119.952367,42.103 C120.801367,42.103 121.468367,41.481 121.468367,40.661 L121.468367,34.204 C121.468367,32.49 121.006367,31.099 120.004367,30.155 C119.052367,29.211 117.536367,28.69 115.504367,28.69 Z" id="Fill-515" fill="#00FF00"></path>
                <path d="M75.2669666,24.6826 L73.6329666,24.6826 L73.6239666,26.1696 L73.6239666,40.4906 C73.6239666,41.3216 74.3069666,41.9566 75.1419666,41.9566 C76.0009666,41.9566 76.6839666,41.3216 76.6839666,40.4906 L76.6989666,29.2226 L76.6989666,26.1196 C76.7829666,25.3076 76.1069666,24.6826 75.2669666,24.6826" id="Fill-516" fill="#979797"></path>
                <path d="M19.5218666,28.9707 L17.8878666,28.9707 L17.8878666,39.9017 L17.8998666,40.5297 C17.8998666,41.3607 18.5838666,41.9957 19.4178666,41.9957 C20.2778666,41.9957 20.9598666,41.3607 20.9598666,40.5297 L20.9598666,30.3017 C20.9768666,29.5427 20.3268666,28.9707 19.5218666,28.9707" id="Fill-517" fill="#979797"></path>
                <path d="M19.2577666,24.5796 C18.2907666,24.5796 17.5067666,25.3376 17.5067666,26.2716 C17.5067666,27.2066 18.2907666,27.9646 19.2577666,27.9646 C20.2247666,27.9646 21.0087666,27.2066 21.0087666,26.2716 C21.0087666,25.3376 20.2247666,24.5796 19.2577666,24.5796" id="Fill-518" fill="#979797"></path>
                <path d="M51.8832666,27.2319 C51.9352666,26.3889 51.2602666,25.7639 50.4192666,25.7639 L48.8222666,25.7639 L48.7852666,25.7639 L48.7852666,28.9619 L48.3162666,28.9659 L46.8102666,28.9659 L46.8102666,31.6339 L48.8222666,31.6249 L48.8222666,38.2019 C48.8222666,41.0359 50.4152666,41.9879 52.6662666,41.9879 C53.4752666,41.9879 54.1072666,41.8659 54.7652666,41.6459 C55.1952666,41.4749 55.2252666,41.1199 55.2252666,40.5819 C55.2252666,39.8979 54.9672666,39.2769 54.2842666,39.2769 C54.1832666,39.2769 53.8802666,39.3499 53.5252666,39.3499 C52.4892666,39.3499 51.8822666,38.8849 51.8822666,37.7379 L51.8822666,31.6129 L54.3072666,31.6039 C55.1012666,31.6789 55.7132666,31.0619 55.7132666,30.2939 L55.7132666,28.9529 L51.8832666,28.9529 L51.8832666,27.2319 Z" id="Fill-519" fill="#979797"></path>
                <path d="M10.9022666,39.2104 L7.32426661,39.2104 C4.99826661,39.2104 3.20026661,37.5914 3.20026661,35.5884 L3.20026661,35.5404 C3.20026661,33.7564 4.97326661,31.6814 7.32426661,31.6814 L7.33026661,31.6814 L10.6732666,31.6664 L10.9022666,31.6664 L10.9022666,39.2104 Z M14.0502666,24.5964 L12.4672666,24.5964 C11.5822666,24.5964 10.9022666,25.3834 10.9022666,26.2144 L10.9022666,28.9674 L10.4752666,28.9674 L10.4752666,28.9694 L7.42526661,28.9694 C3.53126661,28.9694 0.039266609,31.7774 0.039266609,35.6134 L0.039266609,35.6624 C0.039266609,39.1064 2.94726661,41.9784 7.09326661,41.9784 L14.0502666,41.9764 L14.0502666,24.5964 Z" id="Fill-520" fill="#979797"></path>
                <path d="M35.0609666,33.5801 L35.0569666,37.1261 C34.1079666,38.4031 32.1799666,39.4041 30.6749666,39.2671 C28.0569666,39.0291 26.7149666,37.6321 26.7149666,35.3531 L26.7149666,35.3001 C26.7149666,32.9941 28.5259666,31.4571 30.8299666,31.4571 C32.1879666,31.4571 33.5299666,31.9091 35.0609666,33.5801 M36.8379666,28.9791 L35.0649666,28.9791 L35.0629666,30.6171 L35.0609666,30.6151 L35.0609666,30.6141 C33.1669666,29.0771 31.8089666,28.7531 29.9519666,28.7531 C26.5779666,28.7531 23.3679666,31.1911 23.3679666,35.3261 L23.3679666,35.3791 C23.3679666,39.4881 26.5499666,42.2021 29.9519666,42.2021 C31.7439666,42.2021 34.0649666,41.2971 35.0559666,40.2011 L35.0559666,40.4421 C35.0559666,43.2511 33.4369666,44.7361 30.4739666,44.7361 C29.4619666,44.7361 28.7299666,44.6061 27.8609666,44.3331 L27.6859666,44.2621 L25.5689666,43.3841 C24.9519666,43.0451 24.2019666,43.4021 23.8899666,44.1051 L23.2839666,45.4691 L25.2479666,46.2191 C25.6799666,46.4091 26.1149666,46.5751 26.5559666,46.7181 L26.6539666,46.7551 L26.6559666,46.7501 C27.8889666,47.1361 29.1709666,47.3331 30.5559666,47.3331 C33.1619666,47.3331 35.1929666,46.7241 36.5089666,45.4521 C37.7159666,44.2861 38.3469666,42.5361 38.3469666,40.1771 L38.3469666,30.7801 C38.3959666,29.7851 37.7509666,28.9791 36.8379666,28.9791" id="Fill-521" fill="#979797"></path>
                <path d="M66.8421666,34.3799 L66.8421666,34.3649 C66.8421666,34.3699 66.8421666,34.3739 66.8421666,34.3789 L66.8421666,34.3799 Z M66.8421666,38.8389 C65.3221666,39.6829 64.3471666,40.0239 63.2261666,40.0239 C61.7361666,40.0239 60.5781666,39.3029 60.5781666,38.0359 L60.5781666,37.9869 C60.5781666,36.6209 61.7611666,35.8019 63.7661666,35.8019 C64.5741666,35.8019 65.3061666,35.8989 66.8421666,36.1739 L66.8421666,38.8389 Z M63.8431666,28.7149 C62.8761666,28.7149 62.0471666,28.8039 61.2841666,28.9609 L61.2171666,28.9699 L60.5931666,29.1259 C60.3921666,29.1809 60.1951666,29.2389 60.0001666,29.3029 L58.0911666,29.8709 L58.5151666,31.2009 C58.7331666,31.8859 59.3951666,32.2909 60.0051666,32.0339 L62.0631666,31.4219 C62.4881666,31.3589 62.9421666,31.3229 63.4321666,31.3229 C65.5281666,31.3229 66.7371666,32.4219 66.8331666,34.1549 L66.8421666,34.1549 L66.8421666,34.2729 C65.1221666,33.9579 64.2581666,33.8889 63.1491666,33.8889 C59.8331666,33.8889 57.5441666,35.2799 57.5441666,38.1109 L57.5441666,38.1599 C57.5441666,40.7939 59.8071666,42.2089 62.3531666,42.2089 C63.9101666,42.2089 65.0941666,42.0929 66.8421666,41.1429 L66.8421666,41.2369 C67.0241666,41.7389 67.5651666,42.1279 68.2901666,42.1279 C69.1391666,42.1279 69.8071666,41.5059 69.8071666,40.6869 L69.8071666,34.2289 C69.8071666,32.5149 69.3451666,31.1249 68.3421666,30.1799 C67.3911666,29.2369 65.8741666,28.7149 63.8431666,28.7149 Z" id="Fill-522" fill="#979797"></path>
                <path d="M42.7577666,28.9707 L41.1237666,28.9707 L41.1237666,39.9017 L41.1367666,40.5297 C41.1367666,41.3607 41.8197666,41.9957 42.6537666,41.9957 C43.5127666,41.9957 44.1957666,41.3607 44.1957666,40.5297 L44.1957666,30.3017 C44.2127666,29.5427 43.5617666,28.9707 42.7577666,28.9707" id="Fill-523" fill="#979797"></path>
                <path d="M42.4930666,24.5796 C41.5260666,24.5796 40.7420666,25.3376 40.7420666,26.2716 C40.7420666,27.2066 41.5260666,27.9646 42.4930666,27.9646 C43.4610666,27.9646 44.2440666,27.2066 44.2440666,26.2716 C44.2440666,25.3376 43.4610666,24.5796 42.4930666,24.5796" id="Fill-524" fill="#979797"></path>
                <path d="M42.7577666,28.9707 L41.1237666,28.9707 L41.1237666,39.9017 L41.1367666,40.5297 C41.1367666,41.3607 41.8197666,41.9957 42.6537666,41.9957 C43.5127666,41.9957 44.1957666,41.3607 44.1957666,40.5297 L44.1957666,30.3017 C44.2127666,29.5427 43.5617666,28.9707 42.7577666,28.9707" id="Fill-525" fill="#979797"></path>
                <path d="M42.4930666,24.5796 C41.5260666,24.5796 40.7420666,25.3376 40.7420666,26.2716 C40.7420666,27.2066 41.5260666,27.9646 42.4930666,27.9646 C43.4610666,27.9646 44.2440666,27.2066 44.2440666,26.2716 C44.2440666,25.3376 43.4610666,24.5796 42.4930666,24.5796" id="Fill-526" fill="#979797"></path>
            </g>
        </g>
    </g>
</svg>